<svg width="50" height="50" viewBox="0 0 50 50" fill="none" xmlns="http://www.w3.org/2000/svg">
<circle cx="25" cy="25" r="25" fill="url(#paint0_linear)"/>
<path d="M32.4018 14.0368L32.4074 14.0417L32.4131 14.0465C32.6563 14.2496 32.8149 14.5761 32.8333 14.9375V29.5912C32.8333 30.9463 31.5551 32.1318 29.7349 32.1318C27.9148 32.1318 26.6365 30.9463 26.6365 29.5912C26.6365 28.2325 27.8975 27.0505 29.7135 27.0505C30.3049 27.0505 30.8303 27.175 31.2962 27.3988L32.0127 27.7431V26.9481V18.598V17.9419L31.3801 18.1159L22.6198 20.525L22.2523 20.6261V21.0071V32.5149C22.2523 33.87 20.9741 35.0556 19.154 35.0556C17.3338 35.0556 16.0556 33.87 16.0556 32.5149C16.0556 31.1598 17.3338 29.9742 19.154 29.9742C19.7453 29.9742 20.2708 30.0987 20.7366 30.3225L21.4531 30.6668V29.8719V17.5454C21.4531 17.0209 21.7759 16.6024 22.1826 16.4826L31.623 13.8644C31.6233 13.8643 31.6236 13.8643 31.6238 13.8642C31.8999 13.7891 32.1937 13.8522 32.4018 14.0368Z" fill="white" stroke="white"/>
<defs>
<linearGradient id="paint0_linear" x1="5.23809" y1="2.87732e-05" x2="48.067" y2="2.20697" gradientUnits="userSpaceOnUse">
<stop stop-color="#B09CCA"/>
<stop offset="1" stop-color="#5C6A8B"/>
</linearGradient>
</defs>
</svg>
