<svg width="71" height="18" viewBox="0 0 71 18" fill="none" xmlns="http://www.w3.org/2000/svg">
<path d="M0.468 12.38L2.124 9.986C2.532 10.346 3.018 10.658 3.582 10.922C4.146 11.186 4.692 11.318 5.22 11.318C5.64 11.318 5.964 11.234 6.192 11.066C6.432 10.898 6.552 10.682 6.552 10.418C6.552 10.142 6.408 9.89 6.12 9.662C5.844 9.422 5.496 9.224 5.076 9.068C4.656 8.912 4.2 8.714 3.708 8.474C3.216 8.222 2.76 7.958 2.34 7.682C1.92 7.406 1.566 7.028 1.278 6.548C1.002 6.056 0.864 5.492 0.864 4.856C0.864 3.68 1.296 2.732 2.16 2.012C3.036 1.28 4.158 0.913999 5.526 0.913999C7.122 0.913999 8.466 1.4 9.558 2.372L8.226 4.946C7.854 4.622 7.41 4.352 6.894 4.136C6.378 3.92 5.874 3.812 5.382 3.812C4.926 3.812 4.584 3.896 4.356 4.064C4.128 4.232 4.014 4.454 4.014 4.73C4.014 5.006 4.152 5.258 4.428 5.486C4.716 5.714 5.07 5.906 5.49 6.062C5.91 6.206 6.366 6.398 6.858 6.638C7.35 6.866 7.806 7.118 8.226 7.394C8.646 7.658 8.994 8.036 9.27 8.528C9.558 9.008 9.702 9.566 9.702 10.202C9.702 11.342 9.294 12.296 8.478 13.064C7.674 13.832 6.558 14.216 5.13 14.216C4.266 14.216 3.42 14.06 2.592 13.748C1.776 13.436 1.068 12.98 0.468 12.38ZM10.7876 9.356C10.7876 7.964 11.2256 6.812 12.1016 5.9C12.9776 4.976 14.1476 4.514 15.6116 4.514C16.9436 4.514 17.9876 4.934 18.7436 5.774C19.5116 6.602 19.8956 7.676 19.8956 8.996C19.8956 9.212 19.8716 9.536 19.8236 9.968H13.9736C14.0816 10.508 14.3336 10.922 14.7296 11.21C15.1376 11.486 15.6056 11.624 16.1336 11.624C16.9016 11.624 17.7536 11.312 18.6896 10.688L19.8416 12.866C19.3496 13.286 18.7436 13.616 18.0236 13.856C17.3156 14.096 16.6016 14.216 15.8816 14.216C14.3096 14.216 13.0676 13.736 12.1556 12.776C11.2436 11.816 10.7876 10.676 10.7876 9.356ZM14.0456 8.186H16.8176C16.8176 7.79 16.6976 7.46 16.4576 7.196C16.2296 6.932 15.9236 6.8 15.5396 6.8C14.7476 6.8 14.2496 7.262 14.0456 8.186ZM22.0625 10.58V7.322H20.8745V4.892H22.1525V2.228H25.1765V4.892H27.1205V7.322H25.1765V10.166C25.1765 10.958 25.7285 11.354 26.8325 11.354C26.9765 11.354 27.1145 11.348 27.2465 11.336V14.036C26.7785 14.072 26.4965 14.09 26.4005 14.09C26.1125 14.09 25.8305 14.072 25.5545 14.036C25.2905 14.012 24.9785 13.958 24.6185 13.874C24.2705 13.79 23.9525 13.664 23.6645 13.496C23.3885 13.328 23.1245 13.124 22.8725 12.884C22.6205 12.632 22.4225 12.308 22.2785 11.912C22.1345 11.516 22.0625 11.072 22.0625 10.58ZM29.4629 10.58V7.322H28.2749V4.892H29.5529V2.228H32.5769V4.892H34.5209V7.322H32.5769V10.166C32.5769 10.958 33.1289 11.354 34.2329 11.354C34.3769 11.354 34.5149 11.348 34.6469 11.336V14.036C34.1789 14.072 33.8969 14.09 33.8009 14.09C33.5129 14.09 33.2309 14.072 32.9549 14.036C32.6909 14.012 32.3789 13.958 32.0189 13.874C31.6709 13.79 31.3529 13.664 31.0649 13.496C30.7889 13.328 30.5249 13.124 30.2729 12.884C30.0209 12.632 29.8229 12.308 29.6789 11.912C29.5349 11.516 29.4629 11.072 29.4629 10.58ZM36.3593 3.56V1.13H39.4013V3.56H36.3593ZM36.3233 14V4.73H39.4373V14H36.3233ZM41.5264 14V4.73H44.5144V5.54L44.4784 6.116H44.5144C45.1504 5.048 46.1344 4.514 47.4664 4.514C49.6864 4.514 50.7964 5.672 50.7964 7.988V14H47.6824V8.564C47.6824 7.748 47.3404 7.34 46.6564 7.34C45.9964 7.34 45.4924 7.574 45.1444 8.042C44.8084 8.51 44.6404 9.098 44.6404 9.806V14H41.5264ZM54.09 14.594C54.906 14.99 55.776 15.188 56.7 15.188C58.128 15.188 58.842 14.594 58.842 13.406V13.1L58.86 12.758H58.824C58.284 13.406 57.51 13.73 56.502 13.73C55.182 13.73 54.156 13.274 53.424 12.362C52.692 11.45 52.326 10.352 52.326 9.068C52.326 7.796 52.686 6.722 53.406 5.846C54.126 4.958 55.152 4.514 56.484 4.514C57.564 4.514 58.404 4.814 59.004 5.414H59.058C59.046 5.342 59.04 5.27 59.04 5.198V4.73H61.956V13.154C61.956 13.97 61.806 14.684 61.506 15.296C61.206 15.908 60.798 16.388 60.282 16.736C59.766 17.096 59.208 17.36 58.608 17.528C58.02 17.696 57.39 17.78 56.718 17.78C55.434 17.78 54.264 17.504 53.208 16.952L54.09 14.594ZM55.458 8.96C55.458 9.584 55.608 10.106 55.908 10.526C56.208 10.934 56.652 11.138 57.24 11.138C57.72 11.138 58.116 10.988 58.428 10.688C58.752 10.376 58.914 9.848 58.914 9.104C58.914 7.772 58.314 7.106 57.114 7.106C56.586 7.106 56.178 7.28 55.89 7.628C55.602 7.964 55.458 8.408 55.458 8.96ZM63.342 12.848L64.674 10.814C65.418 11.438 66.258 11.75 67.194 11.75C67.758 11.75 68.04 11.588 68.04 11.264C68.04 11.084 67.89 10.928 67.59 10.796C67.29 10.652 66.93 10.508 66.51 10.364C66.09 10.22 65.664 10.046 65.232 9.842C64.812 9.626 64.452 9.314 64.152 8.906C63.852 8.498 63.702 8.012 63.702 7.448C63.702 6.524 64.062 5.804 64.782 5.288C65.514 4.772 66.438 4.514 67.554 4.514C68.886 4.514 69.99 4.868 70.866 5.576L69.804 7.736C69.54 7.52 69.18 7.34 68.724 7.196C68.28 7.052 67.86 6.98 67.464 6.98C66.888 6.98 66.6 7.13 66.6 7.43C66.6 7.574 66.708 7.712 66.924 7.844C67.14 7.964 67.404 8.072 67.716 8.168C68.04 8.252 68.388 8.378 68.76 8.546C69.144 8.702 69.492 8.882 69.804 9.086C70.128 9.278 70.398 9.56 70.614 9.932C70.83 10.292 70.938 10.706 70.938 11.174C70.938 12.062 70.59 12.794 69.894 13.37C69.21 13.934 68.286 14.216 67.122 14.216C65.622 14.216 64.362 13.76 63.342 12.848Z" fill="#5A6989"/>
</svg>
