<svg width="50" height="50" viewBox="0 0 50 50" fill="none" xmlns="http://www.w3.org/2000/svg">
<circle cx="25" cy="25" r="25" fill="url(#paint0_linear)"/>
<path d="M31.5729 29L33.8125 31.2396V32.3333H16V31.2396L18.2396 29V23.4792C18.2396 21.7431 18.6736 20.2326 19.5417 18.9479C20.4444 17.6632 21.6771 16.8299 23.2396 16.4479V15.6667C23.2396 15.2153 23.3958 14.8333 23.7083 14.5208C24.0208 14.1736 24.4201 14 24.9062 14C25.3924 14 25.7917 14.1736 26.1042 14.5208C26.4167 14.8333 26.5729 15.2153 26.5729 15.6667V16.4479C28.1354 16.8299 29.3507 17.6632 30.2188 18.9479C31.1215 20.2326 31.5729 21.7431 31.5729 23.4792V29ZM24.9062 35.6667C24.2812 35.6667 23.7431 35.4583 23.2917 35.0417C22.875 34.5903 22.6667 34.0694 22.6667 33.4792H27.1458C27.1458 34.0694 26.9201 34.5903 26.4688 35.0417C26.0174 35.4583 25.4965 35.6667 24.9062 35.6667Z" fill="white"/>
<defs>
<linearGradient id="paint0_linear" x1="5.23809" y1="2.87732e-05" x2="48.067" y2="2.20697" gradientUnits="userSpaceOnUse">
<stop stop-color="#B09CCA"/>
<stop offset="1" stop-color="#5C6A8B"/>
</linearGradient>
</defs>
</svg>
