<svg width="640" height="360" viewBox="0 0 640 360" fill="none" xmlns="http://www.w3.org/2000/svg">
<mask id="mask0" mask-type="alpha" maskUnits="userSpaceOnUse" x="0" y="0" width="640" height="360">
<rect width="640" height="360" fill="#C4C4C4"/>
</mask>
<g mask="url(#mask0)">
<path d="M640 0H0V360H640V0Z" fill="url(#paint0_linear)"/>
<path d="M736.432 336.062C738.917 335.884 740.692 336.417 743 334.819C742.645 333.044 741.757 331.446 741.757 329.139C738.917 328.073 736.254 326.653 732.171 327.008C733.236 325.411 734.124 323.281 735.722 321.86C733.059 321.86 729.686 320.973 726.668 323.636C727.023 319.73 727.556 316.18 728.799 312.452C726.668 315.825 723.473 319.908 723.118 324.523C723.828 317.955 723.473 310.322 720.455 303.754C720.81 307.482 721.165 311.919 720.1 315.825C718.148 315.47 715.307 314.05 712.29 315.47C712.645 314.76 713.532 312.097 714.42 311.209C712.112 311.919 709.627 313.34 706.964 312.985C707.319 310.854 707.852 308.369 708.207 306.061C706.787 307.127 704.124 308.014 703.414 310.854C703.769 306.416 704.124 302.334 705.189 297.896C701.106 302.689 697.733 308.014 696.491 314.405C697.201 306.061 694.715 295.588 690.81 287.955C691.343 291.328 692.23 302.511 691.698 309.257C689.923 309.434 690.633 309.612 688.147 309.612C687.792 306.239 687.082 302.689 688.502 299.138C688.147 299.493 684.242 306.239 684.597 310.322C683.177 307.127 682.289 303.931 679.449 301.269C680.869 307.659 681.047 313.34 679.094 320.085C677.496 310.677 675.189 304.819 667.378 299.138C675.366 305.706 674.301 313.695 674.301 322.57C673.236 317.778 670.928 312.63 669.153 308.724C670.751 314.05 670.041 320.618 669.153 325.233C661.52 320.795 659.212 310.322 659.212 301.446C658.147 308.902 659.39 316.357 661.875 322.215C658.857 318.665 656.017 317.422 651.934 316.535C655.129 317.422 657.792 323.636 658.857 325.588C655.129 324.701 651.579 325.233 648.029 325.943C649.094 327.541 651.402 328.073 652.822 328.961C643.413 328.784 639.33 331.979 634.182 339.434C641.461 340.145 649.094 336.772 656.372 335.174C655.662 337.482 656.017 339.79 656.017 342.097C660.81 339.434 664.893 335.174 668.088 330.914C667.91 333.221 668.798 335.352 669.331 337.482C671.993 335.174 674.301 331.979 676.254 329.316C673.946 332.511 674.834 334.819 675.366 338.014C678.917 337.304 677.674 334.642 678.917 332.866C681.579 332.511 683.354 334.642 684.952 335.884C684.952 329.316 686.372 324.168 689.745 318.488C687.26 323.636 687.082 329.494 687.97 334.109C689.035 330.736 690.988 328.251 693.118 325.411C691.52 328.428 692.408 333.044 692.763 335.884C695.426 328.784 700.929 324.523 707.497 321.15C703.769 323.991 703.236 330.026 702.704 333.221H709.272C710.159 330.204 710.159 327.186 710.159 324.168C711.047 327.363 711.757 330.381 712.29 333.754C715.84 330.914 720.1 329.316 724.006 327.718C721.343 329.316 720.988 332.689 720.1 335.529C722.23 333.754 725.071 333.399 727.556 332.511C731.461 334.642 734.479 336.417 737.497 338.192L736.432 336.062Z" fill="url(#paint1_linear)"/>
<path d="M43.0539 292.925C38.9711 299.493 40.0362 307.659 35.5983 314.05C35.0657 313.872 34.5332 313.517 34.1781 313.34C32.9355 310.499 31.1604 307.482 28.6751 306.594C28.6751 308.014 28.8527 309.612 28.3201 311.032C27.7876 309.789 26.9 308.724 26.0124 307.127C25.6574 308.547 25.4799 310.677 24.7698 312.452C24.4148 312.807 24.0597 312.985 23.7047 313.34V300.736C21.9295 305.351 19.4443 309.967 18.7343 315.115C16.9591 312.274 16.0715 309.079 11.4561 308.192C10.5685 310.499 9.68093 312.63 8.61584 315.115C8.08329 314.76 7.72826 314.405 7.19571 314.227C7.72826 314.582 8.08329 314.937 8.61584 315.292C8.2608 315.825 8.08329 316.357 7.90578 317.067H5.77558C4.71048 319.553 3.11284 321.328 2.04774 324.523C1.33768 322.57 0.272587 319.553 -0.259964 317.067H-0.792511C-2.03512 319.908 -3.9878 322.57 -5.23041 325.588C-4.52035 323.103 -3.63277 320.618 -4.16531 317.777C-6.65054 320.085 -8.4257 322.393 -10.5559 325.233C-10.5559 322.57 -10.5559 319.908 -10.5559 317.245C-11.266 317.245 -12.1535 317.245 -12.8636 317.245C-15.7039 322.215 -18.1891 327.541 -21.0293 332.156C-21.0293 327.186 -20.6743 322.215 -23.8696 318.133C-24.0471 318.133 -24.0471 318.133 -24.2246 318.133C-24.7572 320.795 -25.2897 323.28 -25.8223 325.766C-26.5323 323.28 -27.0649 320.973 -28.3075 318.665C-28.485 318.665 -28.84 318.665 -29.0176 318.843C-30.2602 321.15 -31.8578 324.346 -32.2128 327.186C-32.9229 324.701 -33.633 322.393 -33.988 319.908C-34.6981 320.085 -35.4081 320.263 -36.2957 320.44C-37.0058 322.925 -37.1833 325.411 -37.0058 328.251C-38.0709 326.121 -38.9585 324.168 -41.6212 322.57C-40.7336 325.233 -39.136 327.718 -39.491 331.446C-41.7987 328.428 -44.994 326.653 -48.3668 324.878C-51.0296 326.121 -53.5148 327.363 -56 328.783V390.737H742.822V331.446C735.367 327.363 727.556 323.636 719.035 323.458C708.739 323.458 700.396 314.227 690.277 316.357C684.419 316.89 676.786 325.588 670.218 325.943C664.715 325.056 658.68 327.896 653.887 323.458C651.224 323.103 635.958 320.973 630.099 319.73H627.614C627.792 319.553 627.792 319.198 627.969 318.843C626.017 317.422 623.709 316.18 622.821 317.955C622.644 318.31 622.644 318.843 622.466 319.198C622.466 318.665 622.644 318.31 622.821 317.955C623.176 316.712 622.999 315.647 621.224 314.227C620.159 315.647 619.449 316.002 619.981 318.133C619.449 317.422 618.561 315.115 616.431 315.47C616.076 316.357 615.366 317.422 615.543 318.488C613.946 318.488 613.236 318.488 611.993 319.553V315.115C611.105 316.712 609.863 317.955 609.153 319.553H608.62C608.62 315.825 608.443 312.097 609.685 308.724C608.265 312.097 607.2 316.002 606.312 319.553H606.135C605.78 314.937 605.957 309.967 604.182 305.351C601.697 303.754 598.857 301.624 594.596 301.979C594.419 302.334 594.064 304.109 592.644 304.819C593.531 304.464 594.419 304.109 595.306 303.399C597.792 305.174 600.809 306.239 603.117 308.192V311.564C601.164 311.919 599.212 312.275 597.614 313.695C596.727 315.47 596.016 317.422 595.306 319.198H594.596C594.596 315.825 594.774 312.274 592.821 309.612C592.821 312.807 593.176 316.002 592.644 319.198H590.336C589.626 316.357 588.561 313.517 586.608 310.499C586.963 309.612 587.496 308.724 587.851 307.837C587.318 308.369 586.608 309.079 586.076 309.789C583.945 306.416 580.928 302.689 576.667 297.718C579.862 301.801 582.88 306.239 585.188 310.854C583.235 313.34 581.815 316.18 580.928 319.198H579.685C578.797 315.115 577.377 310.854 577.022 306.771C576.667 310.677 576.845 314.937 577.2 319.198H576.135C574.892 315.647 573.294 311.919 570.632 309.612C571.874 311.742 572.939 314.227 573.827 316.712C572.762 317.422 571.519 318.31 570.454 319.02C570.454 317.067 570.277 315.115 571.342 313.517C570.099 315.292 568.679 317.067 567.791 319.02H567.436C567.081 317.6 566.549 316.18 566.194 314.76C566.194 315.825 566.194 317.067 566.194 318.133C564.241 317.955 562.288 318.31 560.158 318.488C560.158 316.89 560.158 315.647 559.093 314.227C557.318 314.05 556.608 313.695 555.188 315.115C555.188 315.115 552.347 314.76 551.282 314.76C550.217 312.807 550.395 311.919 547.91 312.274C546.667 312.807 545.069 313.872 547.022 316.712C545.424 315.47 544.714 315.115 542.407 315.47C540.809 313.872 539.744 312.985 537.259 315.47C536.194 314.76 533.886 313.517 531.401 315.292C531.223 313.872 531.578 312.807 530.336 311.742C529.448 312.274 528.028 312.985 526.963 314.05C526.608 314.05 526.43 313.872 526.075 313.872C525.72 312.985 525.365 312.097 524.477 311.564C524.3 311.742 522.88 312.452 523.412 313.34C522.347 311.919 522.702 311.209 520.395 311.387C520.217 312.097 520.572 312.63 520.395 313.34C519.33 313.34 518.442 313.162 517.377 313.162C517.377 312.63 517.554 311.919 517.732 311.387C517.199 311.919 516.844 312.63 516.312 313.162C515.069 313.162 513.827 313.162 512.584 313.34C512.761 311.742 512.939 310.322 513.471 308.724C512.051 310.144 511.164 311.742 510.276 313.517C508.679 313.695 506.903 313.695 505.128 313.872C504.418 311.919 503.531 310.144 502.288 308.724C501.755 309.967 501.223 310.854 500.868 312.097C499.448 309.967 497.85 306.239 494.832 304.819C494.832 306.949 494.655 310.322 493.59 313.34C493.235 313.162 492.702 313.162 492.347 312.985C492.347 310.499 491.992 308.192 490.927 305.706C489.329 307.482 487.909 309.434 486.667 311.742C486.489 311.742 486.312 311.742 486.134 311.742C485.424 308.369 484.181 304.819 484.536 301.269C483.294 303.754 481.696 307.482 479.921 310.144C479.388 307.482 479.921 306.771 477.081 305.529C476.371 306.949 474.951 308.902 474.951 310.677V304.286C473.353 305.351 468.205 308.902 466.785 311.564C465.897 308.014 465.01 304.286 462.879 301.091C461.814 304.286 461.637 307.837 459.684 310.854C459.152 308.902 459.152 307.304 457.554 305.706C456.844 307.304 456.489 308.547 454.714 309.612C454.181 307.482 453.649 304.996 454.004 302.511C452.406 304.819 449.566 306.772 448.678 309.612C448.146 308.724 446.725 307.482 446.37 306.771C446.725 308.192 446.903 309.434 447.258 310.677C446.903 310.499 446.548 310.499 446.193 310.499C443.175 311.209 441.577 312.452 441.045 315.647C439.27 313.34 436.607 314.405 435.009 316.712C435.187 314.937 435.187 313.517 436.074 312.097C433.589 312.807 431.282 313.872 429.151 315.825C429.151 314.937 428.974 312.275 428.264 311.032C427.909 312.452 427.731 314.405 427.021 316.002C425.779 316.002 424.358 316.18 423.116 315.825C425.068 310.499 429.861 306.416 431.104 301.801C426.844 305.529 422.051 310.677 420.276 316.002C420.276 312.985 420.986 310.144 422.228 307.659C420.098 309.079 418.5 310.322 417.968 313.162C417.435 313.34 417.08 314.227 416.015 313.695C416.015 312.452 416.193 311.209 415.66 310.144C415.305 310.322 413.885 310.322 414.062 312.097C413.175 309.967 412.287 308.547 409.625 308.192C409.625 310.144 410.335 311.209 411.577 312.63C410.512 313.695 410.335 313.872 409.98 315.47C409.27 314.405 409.27 313.872 407.849 313.695C405.897 314.582 405.897 315.115 405.187 317.422C403.767 317.067 401.636 316.89 399.861 317.245C401.104 316.712 401.459 316.89 401.636 315.115C399.684 313.695 398.264 313.517 395.778 314.405C395.956 313.162 396.311 311.742 396.133 310.322C394.536 311.032 392.938 311.209 392.583 313.695C391.695 311.564 390.453 309.434 388.145 308.902C387.968 309.434 387.258 311.564 387.435 312.985C385.837 312.807 384.772 312.63 383.352 314.05C383.885 312.807 384.417 311.032 383.707 309.434C381.755 309.789 380.512 310.144 379.447 312.452C379.447 310.499 379.269 308.902 377.672 307.659C377.494 308.014 376.074 310.322 376.429 311.742C373.766 310.677 371.459 309.079 370.749 311.919C368.973 310.499 367.198 309.789 365.246 311.742C366.133 309.967 367.376 308.369 369.506 307.482C366.133 308.547 363.293 309.612 361.873 312.097H361.163C361.518 309.789 361.873 307.482 361.518 304.641C361.163 307.304 360.453 311.387 356.547 312.452H356.015C356.015 309.612 356.192 307.659 357.612 305.174C354.772 307.127 353.174 309.789 351.399 312.807H351.044C351.932 309.079 352.997 306.061 355.66 303.221C352.109 305.884 347.316 307.659 347.316 312.807C346.784 309.967 346.784 306.772 345.009 304.286C345.009 307.659 345.364 310.677 343.766 313.695L342.879 313.872C342.524 312.985 342.346 311.742 340.571 312.097C340.216 312.274 338.973 313.34 337.908 314.405L333.293 314.937C332.938 313.872 332.405 312.452 331.34 311.742C335.245 313.517 336.133 312.807 331.695 309.789C332.938 308.192 334.18 308.014 333.293 305.351C330.452 306.239 329.92 305.706 329.387 309.434C327.08 304.286 328.855 307.482 324.594 308.192C325.127 308.902 325.837 311.387 328.5 311.387C328.5 312.097 327.612 313.34 328.145 314.227C326.902 314.582 326.015 314.582 324.949 314.937C323.707 314.76 322.464 314.582 321.399 314.405C321.222 314.227 321.222 314.05 321.222 313.695C320.156 313.162 320.156 311.032 317.671 312.097C318.736 310.677 320.512 311.032 319.269 308.014C316.784 309.079 315.719 308.547 315.186 312.097C313.766 312.63 312.878 312.274 311.991 313.34C311.281 313.34 310.393 313.34 309.683 313.162C308.263 312.274 306.843 312.097 304.003 312.274C303.825 312.63 303.47 312.985 303.115 313.34C301.872 313.34 300.275 313.517 299.032 313.695C298.677 313.162 298.322 312.452 297.612 311.919C297.257 312.63 296.724 313.162 296.192 313.872C295.837 313.872 295.659 313.872 295.304 313.872C295.659 311.919 295.837 309.967 296.014 307.659C294.417 309.612 293.174 311.919 291.931 314.227C291.399 314.227 291.044 314.227 290.511 314.405C290.511 311.919 290.334 309.257 289.624 306.771C289.446 309.434 288.914 312.097 287.849 314.405H287.671C287.494 313.872 287.316 312.985 286.251 312.807C285.718 313.34 285.541 314.05 285.008 314.582C284.298 314.582 283.411 314.582 282.701 314.76C282.346 314.05 281.813 313.34 280.748 312.452C280.038 313.162 279.328 314.05 278.618 314.76C277.73 314.76 276.843 314.76 275.777 314.76C275.245 312.452 275.067 310.144 275.245 307.659C274.002 309.789 273.47 312.452 272.582 314.76C271.695 314.76 270.985 314.76 270.275 314.76C269.564 312.097 268.677 309.612 267.612 306.949C267.612 309.967 267.079 312.274 266.014 314.76C265.304 314.76 264.594 314.76 264.061 314.76C263.706 313.872 263.174 312.807 262.641 311.919C262.109 312.452 261.044 313.695 259.979 314.76C258.913 314.76 257.848 314.76 256.783 314.937C257.493 311.387 258.913 308.369 261.399 305.706C258.736 308.724 255.896 311.564 253.943 315.115C253.588 315.115 253.233 315.115 252.878 315.115C252.7 314.76 252.7 314.582 252.523 314.227V314.05C251.813 312.452 251.28 310.854 251.28 308.902C251.28 311.209 251.103 313.162 250.748 315.292C249.683 315.292 248.44 315.47 247.552 315.47C246.665 314.76 245.777 314.05 244.712 313.872C244.357 314.582 243.825 315.115 243.825 315.647C243.647 315.647 243.292 315.647 242.937 315.647C242.227 315.115 241.517 314.405 240.984 313.872C240.629 314.405 240.097 315.115 239.742 315.825C239.032 315.825 238.144 315.825 237.434 316.002C237.079 315.647 236.724 315.115 236.546 314.582C236.191 315.115 235.836 315.647 235.481 316.002C234.949 316.002 234.416 316.002 233.706 316.002C233.529 315.292 233.351 314.582 233.351 313.872C232.286 314.76 231.221 315.47 229.978 316.18C229.801 316.18 229.623 316.18 229.268 316.18C229.091 315.115 228.736 314.05 228.913 312.985C227.671 313.872 226.961 315.115 226.251 316.357C226.073 316.535 225.896 316.535 225.718 316.712C225.718 314.405 225.363 311.919 224.475 309.789C224.298 312.452 224.298 315.115 222.523 316.89C222.168 316.89 221.635 316.89 221.28 316.89C221.103 315.825 221.103 314.76 220.925 313.695C220.392 314.582 220.037 315.647 219.505 316.712C219.327 316.712 219.15 316.712 218.972 316.712C218.795 315.292 218.44 314.05 218.085 312.807C217.907 314.405 217.375 316.002 216.487 317.955C215.777 319.375 211.872 317.777 210.629 319.198C209.919 318.665 209.387 317.422 208.144 317.245C207.256 318.488 206.724 320.263 204.949 319.908C204.949 318.665 204.949 317.245 204.949 316.002C203.173 318.31 202.286 319.908 200.511 322.393C200.866 319.198 200.511 316.712 202.286 314.05C199.801 316.357 198.025 319.553 196.428 323.636C196.783 320.618 196.783 317.245 196.605 313.872C195.54 317.422 194.475 321.328 192.522 324.878C193.41 321.86 193.765 318.133 193.588 314.405C192.7 317.422 191.28 320.618 190.215 323.991C190.215 320.263 190.037 316.535 190.392 312.807C190.215 312.807 190.215 312.807 190.215 312.807C187.019 314.405 185.599 317.955 184.357 321.505C184.357 319.73 184.357 318.133 184.357 316.357C183.292 318.488 182.582 320.795 179.919 322.038V315.292H179.386C177.079 317.067 175.126 319.908 174.238 323.103C173.528 320.795 173.173 317.955 171.576 316.002C171.221 317.955 170.51 319.375 170.155 321.328C169.09 319.375 168.735 316.712 166.428 316.18C166.25 317.955 166.073 319.73 166.25 321.505C164.83 319.553 163.587 317.777 162.167 316.002C162.877 318.31 163.41 320.618 163.41 323.28C161.102 320.44 161.635 317.955 157.729 318.133C157.374 318.843 156.487 319.375 156.487 320.795C155.954 320.973 154.001 320.795 153.114 322.038C152.226 320.795 152.759 319.908 150.274 320.44C150.274 320.085 150.096 319.553 150.451 319.198C151.161 319.02 152.049 319.553 152.581 318.843C152.759 317.422 153.114 315.647 151.871 314.227C149.741 314.405 148.498 314.937 146.723 316.002C145.658 314.937 146.191 314.05 143.528 314.582C142.463 315.647 141.575 316.89 141.043 318.31C139.8 315.825 138.735 314.227 135.717 316.002C135.717 316.357 135.007 317.955 135.895 318.488C134.475 319.02 133.41 319.198 132.522 320.795C131.812 319.908 131.989 318.843 130.569 318.31C131.102 316.357 131.634 315.115 129.682 314.582C129.327 314.582 128.794 314.582 128.439 314.76C127.907 315.647 127.197 316.535 127.019 317.777C125.244 318.665 124.534 319.02 124.711 321.328C123.824 320.44 123.646 319.375 121.871 319.553C121.516 318.133 122.049 317.422 120.273 317.245C119.031 318.488 117.788 320.263 116.723 322.215C116.013 321.328 115.125 320.085 114.06 319.553C112.818 321.683 112.463 324.168 110.155 325.411C109.8 323.813 109.8 322.215 109.09 320.795C108.202 321.683 107.137 322.57 106.605 323.636C106.782 322.038 106.96 320.795 107.315 319.375C106.96 319.375 106.782 319.375 106.427 319.375C104.119 320.973 101.812 322.748 99.8591 324.701C99.504 323.28 99.3265 322.038 97.9064 320.973C97.3739 322.038 97.1964 322.925 95.7762 323.813C95.4212 322.215 95.0661 320.618 94.3561 319.198C94.1786 319.02 93.8235 318.843 93.646 318.665C93.1135 320.085 92.2259 321.683 92.5809 323.458C92.0484 320.795 90.8058 318.133 90.2732 315.47C89.3856 314.582 88.6756 313.695 87.9655 312.63C86.5454 313.695 85.3028 315.292 83.7051 315.825C81.7524 314.05 80.1548 311.564 77.4921 311.387C76.782 311.919 76.0719 312.63 75.1844 312.807C74.6518 311.564 74.4743 309.434 72.6991 308.369C71.1015 309.612 69.8589 310.499 67.9062 311.919C69.1488 307.837 71.9891 304.464 73.7642 299.671C68.6163 303.576 62.5807 306.771 59.918 313.34C59.2079 312.63 59.2079 311.209 57.9653 311.032C57.2552 312.452 57.0777 313.872 55.4801 314.937C53.8824 312.452 53.1724 309.257 51.2197 306.949C49.0895 309.257 46.4268 311.387 45.5392 314.76C45.5392 311.387 46.2492 308.547 46.9593 305.529C43.764 306.949 43.0539 309.789 40.2137 312.097C40.2137 306.239 40.3912 298.961 43.0539 292.925ZM252.878 314.76C253.055 314.582 253.233 314.405 253.41 314.405C253.233 313.695 253.055 314.05 252.878 314.76ZM566.371 315.292C566.371 313.872 566.016 312.452 565.661 311.032C565.661 312.452 566.016 313.872 566.371 315.292ZM592.644 304.996C592.289 305.174 591.934 305.351 591.401 305.351C591.934 305.351 592.289 305.174 592.644 304.996ZM602.94 312.274V319.73H598.147C598.324 318.31 598.502 317.067 599.034 315.647C600.099 314.227 601.342 312.985 602.94 312.274ZM585.898 312.452C586.431 313.517 586.786 314.582 587.141 315.647C586.431 316.89 585.721 318.31 585.01 319.553H583.59C584.123 317.245 585.01 314.76 585.898 312.452ZM457.021 315.47C458.797 315.647 460.217 315.825 461.282 316.357C459.862 316.535 458.441 316.712 457.021 316.712C456.844 316.357 456.844 316.002 457.021 315.47ZM574.359 318.843C574.359 319.02 574.537 319.375 574.537 319.553H574.359C574.359 319.375 574.359 319.02 574.359 318.843Z" fill="url(#paint2_linear)"/>
<path d="M398.441 317.422C397.198 314.582 398.086 312.097 398.974 309.434C393.826 311.209 391.518 314.05 389.21 317.067C388.5 314.405 385.482 312.275 382.82 310.677C383.175 313.162 382.642 315.115 381.755 317.422C380.512 314.937 378.559 312.985 375.896 311.032C373.056 311.387 372.524 314.582 372.524 314.76C368.086 312.985 368.086 311.032 368.086 307.659C364.713 310.677 363.648 315.292 362.228 318.488C359.21 315.825 355.127 314.937 350.867 313.872C352.819 316.002 352.819 318.665 352.819 321.15C351.222 319.73 348.559 319.73 346.429 319.02C344.654 319.73 345.719 320.795 345.364 321.683C340.038 321.505 334.18 321.683 329.21 322.038C330.452 322.748 331.873 323.281 333.115 323.813C324.417 323.636 312.346 323.636 305.6 324.701C308.085 325.411 310.038 326.121 311.991 326.831C300.452 329.849 290.334 334.464 278.618 336.772C288.026 338.902 295.659 336.062 303.647 334.109C306.488 333.221 309.15 332.689 311.991 331.979C312.346 333.931 313.766 335.529 315.008 337.304C318.204 337.127 321.932 334.642 324.772 333.576C324.772 334.642 324.772 335.529 324.772 336.594C332.228 331.269 336.843 329.849 348.381 328.606C340.926 329.671 337.553 333.576 335.6 337.482C338.796 336.949 340.748 336.062 342.879 335.174C343.589 337.127 344.121 338.902 344.831 340.677C349.979 336.594 353.529 330.559 356.192 327.186C357.257 332.334 354.95 337.127 352.819 341.565C355.837 340.145 358.145 338.369 360.63 336.949C360.275 338.902 360.453 340.677 360.098 342.452C367.021 338.902 369.151 333.754 369.861 328.606C370.393 333.754 369.683 338.724 367.376 343.34C373.056 338.192 378.737 333.576 387.08 330.736C379.092 333.044 379.092 337.837 378.204 342.452C381.044 341.032 384.417 340.677 387.613 340.145C391.34 340.855 391.873 342.097 393.471 343.34C394.891 340.322 393.648 337.837 392.405 335.352C396.488 336.772 398.086 339.612 399.684 342.097C401.991 339.257 401.636 336.062 401.636 333.044C405.187 336.062 405.364 339.079 406.962 342.452C409.625 339.434 414.417 337.127 417.79 334.819C416.725 337.659 416.193 340.322 415.838 342.985C420.986 340.855 424.358 338.902 430.039 337.482C427.909 336.239 425.779 337.304 423.648 337.127C428.796 331.091 430.394 324.523 428.086 317.422C429.329 322.393 426.489 326.121 423.648 330.026C422.938 322.748 420.63 314.227 426.666 308.369C418.5 312.985 420.63 319.553 417.79 325.056C415.483 321.86 414.417 318.843 411.932 316.002C411.932 319.02 409.092 321.328 406.607 323.636C408.914 320.44 404.299 311.919 403.234 318.31C401.991 320.263 398.619 321.683 397.908 322.393L398.441 317.422Z" fill="#66A02F"/>
<path d="M291.399 320.795C291.221 320.795 291.221 320.795 291.044 320.795C287.316 322.748 285.541 327.008 283.943 331.269C283.943 329.139 283.943 327.186 283.943 325.056C282.701 327.718 281.636 330.559 278.618 331.979V323.813H278.085C275.422 326.121 272.937 329.494 271.872 333.399C271.162 330.559 270.63 327.008 268.677 324.701C268.144 327.008 267.434 328.783 266.902 331.269C265.659 328.961 265.127 325.766 262.464 325.056C262.286 327.186 261.931 329.316 262.109 331.624C260.511 329.316 258.913 327.008 257.138 324.878C258.026 327.541 258.558 330.559 258.736 333.754C256.073 330.204 256.606 327.186 251.99 327.541C251.635 328.428 250.393 329.139 250.393 330.736C249.86 330.914 247.375 330.736 246.31 332.156C245.067 330.559 245.955 329.671 242.759 330.204C242.759 329.671 242.582 329.139 242.937 328.606C243.825 328.428 244.712 328.961 245.422 328.073C245.6 326.298 246.132 324.168 244.712 322.57C242.049 322.748 240.452 323.458 238.322 324.878C237.079 323.636 237.612 322.57 234.594 323.103C233.351 324.346 232.109 325.766 231.576 327.718C229.978 324.701 228.736 322.748 225.008 324.878C225.008 325.411 224.12 327.186 225.185 327.896C223.588 328.606 222.345 328.783 221.103 330.736C220.392 329.671 220.392 328.428 218.795 327.718C219.505 325.411 220.037 323.813 217.73 323.103C217.197 323.103 216.665 323.281 216.31 323.281C215.777 324.346 214.712 325.588 214.534 327.008C212.404 328.251 211.517 328.606 211.694 331.269C210.629 330.204 210.274 328.961 208.144 328.961C207.611 327.186 208.321 326.298 206.191 326.121C204.594 327.718 203.173 329.671 201.931 332.156C201.043 331.091 199.978 329.671 198.736 328.961C197.315 331.446 196.783 334.642 193.943 336.062C193.588 334.286 193.588 332.334 192.7 330.559C191.635 331.624 190.392 332.689 189.682 334.109C189.86 332.156 190.037 330.736 190.57 328.961C190.215 328.961 189.86 328.961 189.505 328.961C186.842 330.914 184.002 333.044 181.516 335.529C181.339 335.174 181.339 334.819 181.161 334.464C181.339 337.482 181.339 340.677 181.516 343.162C183.469 340.677 185.244 337.482 186.664 335.174C187.375 339.434 189.327 344.582 191.457 348.843C193.588 347.068 194.12 344.937 195.008 342.452C196.073 345.115 196.96 347.6 197.848 349.73C200.156 343.872 202.286 337.837 205.126 332.511C201.931 342.807 200.688 353.636 204.239 363.932C208.499 360.204 211.694 354.878 215.067 350.263C214.712 353.458 214.357 357.186 213.824 360.381C215.245 358.429 216.31 356.298 217.375 354.346C218.262 356.476 218.262 358.606 218.617 360.736C221.635 360.559 223.588 356.831 225.54 354.701C225.718 356.831 226.783 358.784 227.138 361.091C227.493 363.044 228.381 365.174 229.091 366.772C230.511 363.577 232.109 360.559 234.061 357.541C235.126 354.346 237.079 351.506 240.807 349.553C238.144 351.861 236.014 354.523 234.061 357.541C232.641 361.801 232.641 366.594 232.641 370.855C236.014 369.79 237.789 366.417 239.919 364.464C240.274 366.594 240.629 366.949 241.162 368.902C245.777 364.642 249.15 359.849 251.28 353.991C251.99 358.074 251.635 362.334 251.635 366.417C256.606 360.736 258.736 351.683 259.268 346.003C259.801 349.908 260.689 353.813 261.221 357.186C262.996 352.038 266.014 347.778 268.854 343.162C265.837 349.553 265.304 356.298 265.304 363.577C268.322 363.044 269.387 361.091 271.34 360.026C270.097 357.009 269.742 354.168 269.742 350.44C272.227 350.44 273.292 352.038 274.89 353.281C272.227 349.553 273.647 346.18 274.535 343.162C277.375 343.695 278.085 346.18 279.328 347.955C280.038 344.937 281.28 343.162 282.523 340.322C285.541 341.565 284.476 344.582 284.476 348.31C285.718 346.713 287.316 346.713 288.914 345.825C283.943 342.097 284.298 338.192 284.831 333.044C288.559 333.044 287.849 334.109 289.979 337.127C290.866 334.464 291.754 331.979 292.286 329.494C291.576 331.091 291.044 332.866 290.334 334.642C291.044 329.671 290.866 325.233 291.399 320.795Z" fill="#669F2F"/>
<path d="M510.454 338.192C511.341 337.482 514.004 338.014 513.472 335.884C515.247 336.062 521.105 336.949 524.477 335.707C522.17 332.866 519.507 330.381 515.069 330.559C519.33 330.736 523.235 331.624 523.59 328.251C521.105 327.186 518.619 325.943 515.247 325.943C515.247 324.878 515.602 323.991 515.247 322.925C511.874 323.281 509.389 323.103 507.791 326.121C507.258 321.505 508.146 317.955 509.211 313.517C506.903 317.422 504.773 321.328 503.353 325.588C502.643 318.488 502.11 312.807 497.85 306.416C502.821 311.387 502.643 320.795 498.205 325.588C497.495 325.233 496.43 324.523 495.187 324.168C495.542 321.86 495.187 319.553 496.252 317.422C494.3 318.488 491.46 319.553 491.104 322.215C490.749 318.31 490.394 315.292 493.235 312.097C489.862 313.34 488.264 315.47 486.844 319.198C486.489 316.18 485.601 310.677 487.022 307.127C483.649 312.097 481.874 315.825 484.004 321.683C483.116 322.57 481.164 322.215 481.164 324.168C479.921 322.038 479.921 320.085 476.193 320.085C475.483 320.973 473.175 321.505 474.595 324.346C476.903 326.121 477.791 325.411 477.081 328.428C473.708 328.783 471.578 328.961 469.98 331.091C468.737 328.606 467.85 326.476 464.477 325.411C464.832 324.346 466.785 321.683 464.832 319.553C461.814 320.44 459.862 320.618 457.376 323.103C454.891 323.458 452.584 323.636 450.453 324.701L450.098 322.215C447.968 322.748 444.95 323.636 442.288 325.056C441.755 322.748 442.288 322.393 439.447 321.505C438.56 323.458 437.85 324.878 436.785 326.831C438.027 327.541 431.814 318.31 425.424 316.357C428.619 320.085 429.329 323.103 429.861 327.363C428.264 326.653 426.844 326.121 425.068 325.411C422.051 324.878 420.808 326.121 419.21 326.831C420.453 329.316 424.713 329.494 425.956 329.849C422.406 330.914 422.761 332.156 422.228 334.464C425.068 335.352 428.086 334.997 431.104 334.819C423.826 333.754 421.518 337.659 422.051 342.985C426.489 343.162 430.039 340.855 432.524 338.902C432.702 340.677 432.879 342.63 432.879 342.807C436.785 342.807 439.447 340.145 441.578 337.304C441.933 339.434 443.885 339.789 445.128 340.855C445.66 339.434 448.323 337.837 449.743 336.949C450.453 333.931 449.388 334.286 446.548 332.866C454.891 333.399 460.039 338.014 463.589 343.695C463.412 341.742 463.945 339.967 464.477 338.014C465.01 340.145 467.672 341.565 468.915 342.985C467.85 339.612 469.803 337.659 471.933 335.174C471.755 337.304 473.175 338.902 474.24 340.677C474.951 335.707 479.921 333.044 483.826 330.736C480.631 333.576 481.341 336.594 481.696 340.322C483.649 336.594 487.022 334.464 490.749 332.334C491.104 334.464 493.235 336.949 494.122 338.192C497.673 337.127 499.27 335.174 500.69 333.399C501.223 337.837 506.193 337.304 510.454 338.192Z" fill="url(#paint3_linear)"/>
<path d="M186.309 324.346C186.309 337.659 187.019 350.263 182.404 362.689C181.339 356.654 180.451 350.085 179.031 344.05C177.434 349.908 174.948 356.831 174.238 363.222C174.238 350.085 174.061 336.594 176.723 324.878C172.463 338.192 168.025 353.991 166.073 367.66C163.41 357.896 165.007 344.582 164.652 333.221C163.765 344.227 161.812 355.766 160.925 367.304C161.28 371.742 161.102 376.18 160.747 380.441C160.57 376.003 160.57 371.742 160.925 367.304C160.215 355.588 157.019 343.872 150.096 334.997C154.889 348.31 154.356 366.062 151.516 380.441C151.516 370.322 151.871 360.559 148.676 351.328C147.966 347.778 147.256 344.05 147.256 340.322C145.481 346.18 142.64 352.393 141.398 358.429C141.398 352.038 141.575 346.003 142.285 340.322C136.96 350.44 131.989 361.446 130.747 373.163C130.392 372.807 126.486 366.594 124.534 366.594C124.001 370.677 123.646 374.405 122.049 378.666C120.983 371.742 119.741 364.642 116.723 358.429C116.723 365.707 115.48 368.37 111.398 374.228C111.398 363.222 112.64 352.926 115.303 342.452C108.735 355.411 106.605 371.387 101.279 383.991C100.037 377.068 100.037 369.08 100.747 361.624C98.4389 370.855 97.0188 379.198 95.4211 388.429C92.4034 382.748 91.8708 376.358 87.788 370.322C90.2732 377.068 91.6933 383.636 92.2259 390.737H248.085C248.795 386.831 250.038 383.281 252.523 379.731C246.842 380.441 243.115 382.038 238.144 385.234C239.387 383.103 240.452 381.328 242.049 379.198C248.795 369.08 257.138 372.807 266.192 374.76C254.476 367.304 244.535 363.754 233.529 374.228C239.742 364.819 249.86 361.624 259.091 356.121C246.842 356.121 235.836 360.559 225.895 369.257C229.801 364.819 233.351 357.896 234.594 350.618C231.043 356.831 225.718 362.867 219.15 364.819C220.215 362.334 221.458 358.606 223.943 356.121C220.747 357.541 216.665 358.251 214.357 362.157C215.955 356.298 218.44 353.458 218.617 347.423C214.534 351.328 206.724 356.476 202.286 362.157C201.753 357.009 201.753 351.861 200.333 346.89C198.735 352.926 196.25 359.849 195.008 366.062C195.008 353.636 194.12 336.594 186.309 324.346Z" fill="url(#paint4_linear)"/>
<path d="M-18.5441 324.878C-13.2186 338.547 -6.29551 361.979 -16.9465 374.405C-16.9465 368.015 -16.2364 361.269 -18.5441 355.411C-18.5441 363.222 -19.0767 371.032 -22.8045 377.778C-22.8045 371.21 -23.1595 364.642 -23.6921 358.251C-24.7572 364.997 -24.9347 372.097 -27.4199 378.666C-27.4199 364.819 -28.485 352.571 -34.5206 340.145C-33.4555 353.281 -32.5679 369.967 -40.3786 380.086C-40.9111 377.068 -41.7987 374.228 -42.5088 371.032C-43.7514 374.228 -45.7041 378.488 -45.5266 382.393C-46.4141 380.973 -48.3668 378.133 -49.7869 376.18C-51.7396 379.021 -54.0473 382.038 -56 384.879V390.559H46.7818C47.4919 389.494 48.0244 388.251 48.5569 387.009C48.7345 386.476 49.7996 381.861 49.7996 379.908C47.3143 380.796 44.6516 381.861 41.8113 382.748C43.0539 379.198 43.9415 375.293 45.5392 371.387C47.6694 371.387 49.7996 371.387 51.7522 371.387C49.267 370.145 47.4919 368.015 44.119 368.547C39.5036 370.855 34.0006 373.873 31.5154 379.908C33.4681 369.257 40.9238 361.801 38.261 349.375C36.4859 360.204 32.403 369.08 24.4148 376.003V366.949C22.8171 369.435 20.6869 371.21 18.9118 374.05C20.3319 365.884 21.5745 360.559 27.255 355.766C22.8171 358.606 18.2017 360.204 15.1839 365.529C15.1839 359.849 16.249 356.121 16.0715 350.263C14.4739 352.216 11.6336 354.523 11.1011 358.429C11.1011 350.44 10.746 342.275 11.4561 334.642C9.14839 338.724 6.66316 343.162 5.24303 347.955C3.82291 344.405 3.46787 340.677 1.87023 336.949C1.33768 340.145 0.805134 343.517 0.272587 346.89C-2.21264 339.434 -3.9878 331.446 -7.71563 324.523C-6.47302 337.837 2.04774 353.458 -5.23041 369.79C-5.05289 353.991 -9.66831 337.837 -18.5441 324.878ZM27.6101 356.121C28.6751 355.411 29.5627 354.701 30.6278 353.813C29.5627 354.701 28.4976 355.411 27.6101 356.121Z" fill="#3F6E35"/>
<path d="M567.614 315.47C568.147 313.872 569.212 312.63 569.212 310.499C567.081 312.985 564.596 312.63 565.484 318.133C565.484 313.34 565.661 309.079 563.354 305.174C563.354 309.612 564.241 316.357 559.626 317.067C559.093 316.535 553.768 319.908 556.963 314.937C558.206 314.05 558.916 311.919 561.401 311.742C558.916 312.275 556.253 310.499 554.3 313.34C553.413 311.919 552.525 308.724 550.572 307.304C549.507 309.434 551.46 312.275 547.91 313.34C546.667 310.499 546.667 307.482 543.472 305.174C543.472 308.547 543.472 312.097 543.472 315.47C541.874 315.47 541.519 316.712 539.744 315.47C539.744 315.47 537.081 312.275 533.708 313.872C532.466 315.47 528.738 315.115 529.981 318.843C529.093 318.488 526.785 316.712 525.01 316.712C525.188 315.825 525.365 314.937 525.543 314.05C525.01 313.695 524.3 310.322 522.347 311.92C521.637 314.05 518.087 314.582 520.217 318.488C518.087 316.357 516.489 313.34 513.117 311.92C511.341 316.18 514.004 316.535 515.247 319.02C510.809 317.423 511.874 321.328 509.744 322.748C512.229 325.233 514.182 322.748 516.844 322.748C518.087 322.748 519.33 322.748 520.572 322.748C515.779 323.636 518.087 325.766 516.844 327.718C520.217 328.428 522.347 326.653 525.01 325.588C524.833 327.363 526.075 328.251 526.608 329.316C527.318 325.233 529.27 323.991 532.111 321.15C535.129 320.085 535.306 323.458 536.549 324.346C536.549 321.683 536.549 318.843 536.549 316.18C537.969 318.488 539.211 320.44 540.276 322.215C535.839 316.89 540.632 320.795 540.809 320.085C543.649 319.553 544.182 320.795 546.312 321.15C550.572 317.6 548.087 322.925 548.442 323.281C551.993 324.878 556.43 324.168 560.336 323.813C562.999 322.393 564.419 322.215 566.904 321.15C574.537 320.618 572.052 318.665 567.614 315.47Z" fill="#BABA1C"/>
<path d="M420.631 357.186C418.678 354.878 417.08 350.44 415.66 348.665C416.725 351.151 416.903 353.636 417.08 356.298C414.773 355.233 412.643 354.701 410.512 353.636C412.998 355.056 413.708 357.719 414.595 360.204C409.98 358.961 405.542 359.316 401.281 360.736C403.944 360.559 406.607 361.624 409.092 362.334C405.187 362.867 401.281 365.884 398.974 367.837C403.234 368.192 407.317 367.127 411.577 366.417C411.222 365.529 411.755 364.464 411.755 363.754C412.82 364.464 413.708 365.352 414.595 366.062C417.08 364.642 416.903 362.512 417.435 359.849C419.033 359.849 420.453 360.204 421.873 360.381C422.228 358.606 421.341 358.606 420.631 357.186Z" fill="#60992D"/>
<path d="M692.408 319.908C688.502 318.31 685.307 316.89 681.047 317.955C680.159 315.115 679.981 308.902 680.337 304.286C678.029 308.902 675.899 313.517 675.721 318.843C673.413 315.825 672.526 315.47 668.975 314.582C668.265 315.292 666.845 316.357 666.313 317.422C665.248 314.937 664.538 312.452 661.697 311.564C660.987 312.985 659.922 314.582 659.39 316.357C658.68 312.63 658.502 307.304 659.035 303.399C657.259 307.482 654.774 312.097 653.532 317.6C654.952 312.097 653.709 304.109 658.324 299.138C655.484 301.624 653.354 304.819 651.579 308.192C651.934 303.754 652.644 299.493 655.839 295.943C650.159 301.091 645.721 309.434 644.123 317.067C644.478 313.695 644.301 309.079 643.236 305.351C642.526 308.724 641.816 312.452 639.33 315.115C640.395 311.032 640.04 306.949 638.975 302.511C638.62 303.576 637.555 307.659 636.668 309.612C636.668 304.819 636.668 300.026 637.023 295.41C632.585 300.736 629.922 308.192 630.809 315.47C628.857 309.079 626.549 302.689 622.644 297.718C626.549 304.996 626.904 312.452 628.502 320.085C626.017 318.133 624.419 316.712 621.756 315.47C620.869 317.067 621.046 318.665 621.046 320.263C620.691 321.328 621.756 321.328 621.934 321.86C617.851 317.422 613.235 317.955 609.863 320.618C611.283 323.636 614.656 325.056 616.963 326.121C612.348 325.588 612.348 328.073 612.348 331.979C616.963 331.269 620.869 331.269 624.951 328.784C626.017 331.801 628.679 333.754 630.809 335.529C637.733 336.417 642.171 328.784 649.271 327.363C649.449 329.849 651.224 331.091 652.466 332.866C658.857 327.896 666.135 324.701 674.833 324.701C681.047 321.86 686.905 319.908 692.408 319.908Z" fill="#E2D973"/>
<path d="M691.165 348.133C697.201 346.18 703.236 344.05 709.449 342.807C701.993 342.275 694.183 341.565 686.905 344.405C689.212 339.079 690.987 333.399 697.556 330.026C690.632 333.044 682.999 338.369 680.692 345.47C682.467 331.624 687.615 319.02 691.342 305.351C689.567 319.553 680.159 332.511 671.638 344.937C672.881 340.5 673.946 334.997 676.609 330.026C671.638 333.754 667.023 338.192 665.958 343.872C667.555 337.837 668.265 330.381 676.609 325.766C672.348 327.008 667.91 327.718 663.827 330.026C665.248 326.831 664.893 323.281 669.508 320.973C664.893 323.281 659.745 325.766 656.727 330.026C656.727 326.476 657.969 317.422 658.857 311.919C656.372 318.133 652.822 323.813 647.496 328.961C647.319 326.476 648.029 323.991 646.786 321.505C643.591 322.57 640.928 325.056 636.845 324.701C636.668 322.393 637.378 319.908 636.135 317.778C634.892 318.665 632.585 320.44 630.455 321.505C630.81 318.31 630.987 315.115 631.875 311.919C627.969 314.937 623.176 318.31 623.354 323.103C623.354 322.925 623.354 322.748 623.354 322.57C619.804 319.73 616.253 316.89 612.703 314.05C620.691 319.02 620.159 325.411 621.224 333.221C612.88 325.588 600.454 317.422 591.579 314.582C602.052 320.973 608.087 328.606 610.573 338.192C603.117 330.736 596.194 323.103 583.768 320.085C592.999 324.701 597.969 331.979 602.052 339.79C597.437 338.014 592.999 338.192 587.851 338.192C589.981 340.145 591.223 341.387 592.821 342.985C580.395 343.162 575.069 352.393 572.407 360.559C584.655 359.316 593.886 353.813 602.762 347.778C601.874 351.506 605.247 354.346 607.022 356.831C612.525 353.991 618.206 349.553 623.176 346.713C623.709 347.955 625.484 350.263 626.017 350.973C626.904 342.807 632.585 336.062 638.798 330.026C634.005 334.819 633.827 341.032 633.827 347.068C634.182 342.807 638.62 340.145 641.638 337.482C640.573 341.21 640.928 344.937 640.928 348.665C642.171 346.358 645.898 343.34 647.319 341.742C646.964 344.227 648.739 346.358 649.449 348.665C652.644 348.665 655.839 347.423 658.68 346.535C659.922 350.973 663.827 353.813 667.2 357.186C669.863 353.991 669.508 350.973 670.041 347.6C675.189 358.251 690.455 357.719 700.396 357.719C699.508 352.393 696.313 350.973 691.165 348.133Z" fill="url(#paint5_linear)"/>
<path d="M456.844 358.961C456.134 353.813 456.311 348.843 458.619 343.872C459.507 347.068 460.039 350.263 461.992 353.281C465.01 354.523 468.383 356.831 472.643 356.654C471.223 352.748 469.448 348.843 464.122 347.6C470.868 348.665 474.596 353.991 480.276 354.878C475.838 351.506 472.11 345.648 474.418 339.79C477.081 345.292 480.809 353.103 488.797 355.411C490.75 353.458 492.347 351.683 492.17 348.665C493.057 350.263 493.767 351.683 494.655 353.281C499.093 353.281 501.578 353.458 503.531 357.009C503.708 355.411 503.176 353.813 503.886 352.393C507.081 353.813 511.697 355.233 516.134 355.411C513.472 352.571 511.164 349.73 506.371 348.665C508.501 346.89 510.631 344.582 514.004 343.695C508.324 344.405 503.531 344.76 498.738 347.423C499.448 344.937 499.98 342.985 499.625 340.677C498.028 342.452 496.608 344.405 493.767 345.292C492.702 341.742 491.637 337.837 488.264 334.997C488.264 335.529 488.087 341.387 486.489 344.05C485.779 338.547 482.939 332.334 477.968 328.784C477.436 330.204 476.726 331.624 476.193 333.044C474.951 330.559 473.886 327.541 474.951 324.346C471.933 327.363 468.738 330.736 466.962 334.286C466.607 331.801 466.252 328.606 466.607 325.943C465.01 329.316 462.88 332.689 462.702 336.594C461.282 333.399 460.927 329.316 456.311 328.251C455.424 331.624 454.536 334.819 452.051 337.659C451.696 335.174 451.874 332.689 449.921 330.381C449.033 331.979 447.613 334.642 446.548 336.772C445.838 333.399 445.483 329.671 445.661 326.121C443.353 330.026 442.465 334.286 443.175 339.079C442.288 342.985 442.643 347.068 443.53 350.795C441.045 340.145 434.655 326.831 423.649 320.795C431.637 328.073 435.897 338.902 435.897 348.488C434.122 344.227 428.619 338.724 426.489 335.884C428.619 341.742 428.619 347.955 428.619 354.168C426.844 353.991 424.891 354.346 423.116 354.523C424.004 358.074 427.376 357.896 431.992 357.896C430.927 360.026 433.412 360.736 434.122 361.979C436.252 361.624 437.317 360.914 438.737 359.671C437.85 355.588 439.27 355.411 441.223 353.281C446.548 352.926 447.258 355.943 448.501 358.961C448.856 356.476 450.098 355.411 451.519 353.636C456.667 353.991 455.956 355.588 456.844 358.961Z" fill="#60992D"/>
</g>
<defs>
<linearGradient id="paint0_linear" x1="320.001" y1="359.998" x2="320.001" y2="-0.00154495" gradientUnits="userSpaceOnUse">
<stop stop-color="#EBF9CF"/>
<stop offset="1" stop-color="#97D0FC"/>
</linearGradient>
<linearGradient id="paint1_linear" x1="691.578" y1="311.862" x2="687.839" y2="343.066" gradientUnits="userSpaceOnUse">
<stop stop-color="#B8B715"/>
<stop offset="1" stop-color="#C8CB3A"/>
</linearGradient>
<linearGradient id="paint2_linear" x1="340.436" y1="385.592" x2="350.416" y2="303.653" gradientUnits="userSpaceOnUse">
<stop stop-color="#4D912B"/>
<stop offset="0.5438" stop-color="#85B736"/>
<stop offset="1" stop-color="#CACB3A"/>
</linearGradient>
<linearGradient id="paint3_linear" x1="432.433" y1="327.996" x2="513.489" y2="323.298" gradientUnits="userSpaceOnUse">
<stop stop-color="#74A928"/>
<stop offset="1" stop-color="#BABA1C"/>
</linearGradient>
<linearGradient id="paint4_linear" x1="195.593" y1="351.149" x2="153.303" y2="400.489" gradientUnits="userSpaceOnUse">
<stop stop-color="#49803E"/>
<stop offset="1" stop-color="#3F6E35"/>
</linearGradient>
<linearGradient id="paint5_linear" x1="635.664" y1="377.09" x2="646.204" y2="326.569" gradientUnits="userSpaceOnUse">
<stop stop-color="#4D912B"/>
<stop offset="0.5438" stop-color="#85B736"/>
<stop offset="1" stop-color="#CACB3A"/>
</linearGradient>
</defs>
</svg>
