<svg width="155" height="171" viewBox="0 0 155 171" fill="none" xmlns="http://www.w3.org/2000/svg">
<path d="M45.0394 124.614C36.899 123.731 -3.03525 129.081 -15.0001 132.149L-1.13706 87.5952C9.02482 87.7499 48.0636 87.771 60.8679 79.8232C84.5384 65.1677 100.967 71.3708 119.086 57.486C119.086 57.486 126.418 48.0295 131.671 44.086C131.671 44.086 136.304 37.694 138.118 35.7606C139.932 33.8271 144.623 38.3911 143.69 41.1564C143.69 41.1564 148.264 41.3428 145.984 47.0357C145.984 47.0357 150.811 48.9016 145.752 54.4818C145.752 54.4818 151.608 57.5648 143.788 64.6141C143.788 64.6141 150.683 65.8379 138.898 76.0431C138.898 76.0431 135.965 84.6128 135.003 88.1698C133.15 95.0625 126.91 100.93 116.905 102.376C106.9 103.823 99.0703 109.656 91.8573 117.016C84.6222 124.368 81.8847 139.401 68.4838 137.341C55.0746 135.231 48.6067 124.997 45.0394 124.614Z" fill="#FBC388"/>
<path d="M-11.2161 119.988C-3.94297 119.996 10.0825 119.97 20.3515 120.716C29.7694 121.391 43.7756 123.687 45.9681 124.903C44.0817 124.341 41.3011 124.47 39.9253 124.527C28.8647 124.844 -4.85677 129.557 -15.0001 132.149L-11.2161 119.988Z" fill="#EFA968"/>
<path d="M73.3316 125.269C78.6153 121.771 83.9409 118.53 88.5274 114.233C93.3803 109.705 98.0568 104.418 104.015 101.324C109.394 98.5355 115.719 99.0969 121.157 96.3509C128.958 92.4001 132.64 81.7352 138.898 76.043C138.027 78.6094 135.712 85.5041 135.003 88.1697C133.15 95.0625 126.91 100.93 116.905 102.376C106.9 103.823 99.0703 109.656 91.8573 117.016C84.6222 124.368 81.8847 139.401 68.4838 137.341C60.314 136.085 55.3961 132.639 45.9612 124.925C46.656 124.875 61.3106 133.194 73.3316 125.269Z" fill="#EFA968"/>
<path d="M123.861 59.9902C123.924 59.8644 130.509 47.1196 143.499 40.7575C143.586 40.7118 143.681 40.7172 143.777 40.7226C143.757 40.8621 143.745 40.9796 143.704 41.1122C143.414 41.2645 143.132 41.4679 142.868 41.7736C142.724 41.9229 142.618 42.1082 142.519 42.2713C130.724 48.69 124.716 60.2806 124.66 60.3843C124.547 60.5916 124.278 60.6776 124.063 60.5867C123.856 60.4737 123.77 60.2044 123.861 59.9902Z" fill="#EEA561"/>
<path d="M126.544 63.7595C126.607 63.6337 133.744 50.2846 145.85 46.6062C145.953 46.5895 146.048 46.5949 146.136 46.6225C146.095 46.7551 146.054 46.8878 145.984 47.0357C145.984 47.0357 145.984 47.0357 146.006 47.0426C145.503 47.1772 145.01 47.4361 144.66 47.8606C144.624 47.898 144.603 47.9643 144.567 48.0016C133.76 52.1813 127.422 64.0568 127.336 64.1757C127.223 64.3831 126.954 64.469 126.746 64.356C126.517 64.2361 126.453 63.9737 126.544 63.7595Z" fill="#EEA561"/>
<path d="M128.527 67.6747C128.825 67.1853 135.872 55.6032 145.692 54.0508C145.824 54.0189 145.949 54.0823 146.046 54.1609C145.961 54.2798 145.86 54.3697 145.752 54.4818C145.752 54.4818 145.752 54.4818 145.774 54.4887C145.122 54.4798 144.461 54.7348 143.902 55.3612C135.48 57.9548 129.34 68.0246 129.283 68.1283C129.17 68.3356 128.886 68.3926 128.678 68.2796C128.478 68.1445 128.414 67.8821 128.527 67.6747Z" fill="#EEA561"/>
<path d="M130.817 75.202C131.043 74.7873 136.663 65.0649 143.735 64.161C143.888 64.136 144.014 64.1994 144.104 64.3001C144.003 64.39 143.896 64.502 143.795 64.592C143.795 64.592 143.795 64.592 143.817 64.5988C143.335 64.6671 142.871 64.9108 142.448 65.3368C136.435 67.2008 131.637 75.5297 131.58 75.6334C131.467 75.8408 131.176 75.9199 130.968 75.8068C130.761 75.6938 130.682 75.4024 130.817 75.202Z" fill="#EEA561"/>
<path d="M133.661 41.4312C133.661 41.4312 135.545 44.0301 137.173 42.6937C138.801 41.3572 142.466 38.9325 140.834 37.5517C138.838 35.8633 138.276 35.6402 138.276 35.6402C138.276 35.6402 138.735 34.4005 133.661 41.4312Z" fill="#205FA9"/>
<path d="M138.476 44.8209C138.476 44.8209 139.638 48.0202 142.422 46.558C145.183 45.0889 145.38 42.895 143.472 41.2341L138.476 44.8209Z" fill="#205FA9"/>
<path d="M140.492 50.0318C140.492 50.0318 141.061 53.1918 143.86 52.1467C146.658 51.1017 147.357 48.6999 145.627 47.1673C145.597 47.1093 140.492 50.0318 140.492 50.0318Z" fill="#205FA9"/>
<path d="M140.056 57.1231C140.056 57.1231 140.482 60.1175 143.114 59.1418C145.739 58.1881 146.486 56.0198 144.928 54.6375C144.831 54.5589 140.056 57.1231 140.056 57.1231Z" fill="#205FA9"/>
<path d="M138.716 67.3528C138.716 67.3528 139.157 69.988 141.561 68.9655C144.604 67.6812 143.809 64.9359 143.256 64.7639C143.079 64.7089 141.594 65.5078 140.429 66.2124C139.409 66.8408 138.716 67.3528 138.716 67.3528Z" fill="#205FA9"/>
</svg>
