<svg width="187" height="29" viewBox="0 0 187 29" fill="none" xmlns="http://www.w3.org/2000/svg">
<path d="M3.056 23.096C2.13867 23.096 1.41333 22.8293 0.88 22.296C0.346667 21.7627 0.0800002 21.0373 0.0800002 20.12V3.576C0.314667 3.53333 0.688 3.48 1.2 3.416C1.712 3.33066 2.20267 3.288 2.672 3.288C3.16267 3.288 3.58933 3.33066 3.952 3.416C4.336 3.48 4.656 3.608 4.912 3.8C5.168 3.992 5.36 4.25867 5.488 4.6C5.616 4.94133 5.68 5.38933 5.68 5.944V18.584H13.008C13.1573 18.8187 13.296 19.1387 13.424 19.544C13.552 19.928 13.616 20.3333 13.616 20.76C13.616 21.6133 13.4347 22.2213 13.072 22.584C12.7093 22.9253 12.2293 23.096 11.632 23.096H3.056ZM23.9818 23.512C22.7231 23.512 21.5498 23.3413 20.4618 23C19.3951 22.6373 18.4564 22.104 17.6458 21.4C16.8564 20.696 16.2271 19.8107 15.7578 18.744C15.3098 17.6773 15.0858 16.4293 15.0858 15C15.0858 13.592 15.3098 12.3867 15.7578 11.384C16.2271 10.36 16.8351 9.528 17.5818 8.888C18.3284 8.22667 19.1818 7.74667 20.1418 7.448C21.1018 7.128 22.0831 6.968 23.0858 6.968C24.2164 6.968 25.2404 7.13867 26.1578 7.48C27.0964 7.82133 27.8964 8.29067 28.5578 8.888C29.2404 9.48533 29.7631 10.2 30.1258 11.032C30.5098 11.864 30.7018 12.7707 30.7018 13.752C30.7018 14.4773 30.4991 15.032 30.0938 15.416C29.6884 15.8 29.1231 16.0453 28.3978 16.152L20.4938 17.336C20.7284 18.04 21.2084 18.5733 21.9338 18.936C22.6591 19.2773 23.4911 19.448 24.4298 19.448C25.3044 19.448 26.1258 19.3413 26.8938 19.128C27.6831 18.8933 28.3231 18.6267 28.8138 18.328C29.1551 18.5413 29.4431 18.84 29.6778 19.224C29.9124 19.608 30.0298 20.0133 30.0298 20.44C30.0298 21.4 29.5818 22.1147 28.6858 22.584C28.0031 22.9467 27.2351 23.192 26.3818 23.32C25.5284 23.448 24.7284 23.512 23.9818 23.512ZM23.0858 10.936C22.5738 10.936 22.1258 11.0213 21.7418 11.192C21.3791 11.3627 21.0804 11.5867 20.8458 11.864C20.6111 12.12 20.4298 12.4187 20.3018 12.76C20.1951 13.08 20.1311 13.4107 20.1098 13.752L25.5818 12.856C25.5178 12.4293 25.2831 12.0027 24.8778 11.576C24.4724 11.1493 23.8751 10.936 23.0858 10.936ZM40.9043 6.968C42.1203 6.968 43.2189 7.128 44.2003 7.448C45.2029 7.74667 46.0456 8.14133 46.7283 8.632C47.1549 8.93067 47.4856 9.26133 47.7203 9.624C47.9763 9.98667 48.1042 10.456 48.1042 11.032V22.232C48.1042 23.3627 47.8909 24.3333 47.4643 25.144C47.0376 25.976 46.4509 26.6587 45.7043 27.192C44.9789 27.7467 44.1149 28.152 43.1123 28.408C42.1309 28.664 41.0749 28.792 39.9443 28.792C38.0029 28.792 36.4776 28.5253 35.3683 27.992C34.2589 27.48 33.7043 26.6373 33.7043 25.464C33.7043 24.9733 33.8003 24.536 33.9923 24.152C34.2056 23.7893 34.4403 23.512 34.6963 23.32C35.3149 23.6613 36.0083 23.9493 36.7763 24.184C37.5656 24.4187 38.3763 24.536 39.2083 24.536C40.3603 24.536 41.2776 24.344 41.9603 23.96C42.6429 23.576 42.9843 22.9573 42.9843 22.104V21.592C42.1096 21.976 41.0429 22.168 39.7843 22.168C38.8243 22.168 37.9069 22.0293 37.0323 21.752C36.1789 21.4533 35.4216 21.0053 34.7603 20.408C34.1203 19.7893 33.5976 19 33.1923 18.04C32.8083 17.08 32.6163 15.9387 32.6163 14.616C32.6163 13.3147 32.8189 12.184 33.2243 11.224C33.6509 10.264 34.2269 9.47467 34.9523 8.856C35.6989 8.216 36.5736 7.74667 37.5763 7.448C38.6003 7.128 39.7096 6.968 40.9043 6.968ZM42.8883 11.608C42.7389 11.5227 42.5149 11.4373 42.2163 11.352C41.9389 11.2667 41.5869 11.224 41.1603 11.224C40.1149 11.224 39.3256 11.5227 38.7923 12.12C38.2803 12.696 38.0243 13.528 38.0243 14.616C38.0243 15.8533 38.2803 16.7493 38.7923 17.304C39.3256 17.8373 39.9976 18.104 40.8083 18.104C41.6829 18.104 42.3763 17.9013 42.8883 17.496V11.608ZM60.1843 22.52C59.8856 22.776 59.4803 22.9787 58.9683 23.128C58.4563 23.2987 57.8483 23.384 57.1443 23.384C56.2696 23.384 55.5123 23.256 54.8723 23C54.2323 22.7653 53.8056 22.424 53.5923 21.976C53.3576 21.464 53.0803 20.6533 52.7603 19.544C52.4616 18.4347 52.1629 17.2187 51.8643 15.896C51.5656 14.5733 51.2776 13.2293 51.0003 11.864C50.7443 10.4987 50.5416 9.29333 50.3923 8.248C50.6909 7.94933 51.0856 7.69333 51.5763 7.48C52.0883 7.24533 52.6429 7.128 53.2403 7.128C53.9869 7.128 54.5949 7.29867 55.0643 7.64C55.5549 7.96 55.8536 8.52533 55.9603 9.336C56.1736 10.9573 56.3549 12.3013 56.5043 13.368C56.6536 14.4133 56.7709 15.2773 56.8563 15.96C56.9629 16.6213 57.0376 17.1333 57.0803 17.496C57.1443 17.8373 57.1976 18.1147 57.2403 18.328H57.3683C57.4323 17.9867 57.5389 17.496 57.6883 16.856C57.8589 16.1947 58.0509 15.448 58.2643 14.616C58.4776 13.784 58.7016 12.888 58.9363 11.928C59.1709 10.9467 59.4056 9.976 59.6403 9.016C60.0669 8.78133 60.4829 8.6 60.8883 8.472C61.3149 8.344 61.8376 8.28 62.4563 8.28C63.2029 8.28 63.8429 8.39733 64.3763 8.632C64.9096 8.86667 65.2509 9.22933 65.4003 9.72C65.6563 10.6587 65.9016 11.576 66.1363 12.472C66.3709 13.3467 66.5843 14.168 66.7763 14.936C66.9683 15.6827 67.1389 16.3547 67.2882 16.952C67.4376 17.528 67.5443 17.9867 67.6083 18.328H67.7683C68.0029 16.6853 68.2269 14.9787 68.4403 13.208C68.6749 11.4373 68.8883 9.63467 69.0803 7.8C69.4643 7.56533 69.8696 7.39467 70.2963 7.288C70.7229 7.18133 71.1496 7.128 71.5763 7.128C72.3229 7.128 72.9416 7.288 73.4323 7.608C73.9229 7.928 74.1683 8.48267 74.1683 9.272C74.1683 9.61333 74.1149 10.1253 74.0083 10.808C73.9016 11.4907 73.7629 12.2587 73.5923 13.112C73.4216 13.9653 73.2189 14.8613 72.9843 15.8C72.7709 16.7387 72.5469 17.6453 72.3123 18.52C72.0989 19.3947 71.8856 20.184 71.6723 20.888C71.4803 21.592 71.3096 22.136 71.1603 22.52C70.8616 22.776 70.4029 22.9787 69.7843 23.128C69.1656 23.2987 68.5043 23.384 67.8003 23.384C66.0083 23.384 64.9523 22.936 64.6323 22.04C64.5043 21.656 64.3443 21.176 64.1523 20.6C63.9603 20.0027 63.7576 19.352 63.5443 18.648C63.3309 17.944 63.1283 17.2187 62.9363 16.472C62.7443 15.704 62.5843 14.968 62.4563 14.264C62.3069 15.0107 62.1256 15.7893 61.9123 16.6C61.6989 17.3893 61.4749 18.168 61.2403 18.936C61.0269 19.6827 60.8243 20.376 60.6323 21.016C60.4403 21.6347 60.2909 22.136 60.1843 22.52ZM82.0728 22.968C81.8594 23.032 81.5181 23.096 81.0488 23.16C80.6008 23.224 80.1314 23.256 79.6408 23.256C79.1714 23.256 78.7448 23.224 78.3608 23.16C77.9981 23.096 77.6888 22.968 77.4328 22.776C77.1768 22.584 76.9741 22.328 76.8248 22.008C76.6968 21.6667 76.6328 21.2293 76.6328 20.696V11.096C76.6328 10.6053 76.7181 10.1893 76.8888 9.848C77.0808 9.48533 77.3474 9.16533 77.6888 8.888C78.0301 8.61067 78.4461 8.36533 78.9368 8.152C79.4488 7.91733 79.9928 7.71467 80.5688 7.544C81.1448 7.37333 81.7421 7.24533 82.3608 7.16C82.9794 7.05333 83.5981 7 84.2168 7C85.2408 7 86.0514 7.20267 86.6488 7.608C87.2461 7.992 87.5448 8.632 87.5448 9.528C87.5448 9.82667 87.5021 10.1253 87.4168 10.424C87.3314 10.7013 87.2248 10.9573 87.0968 11.192C86.6488 11.192 86.1901 11.2133 85.7208 11.256C85.2514 11.2987 84.7928 11.3627 84.3448 11.448C83.8968 11.5333 83.4701 11.6293 83.0648 11.736C82.6808 11.8213 82.3501 11.928 82.0728 12.056V22.968ZM97.4193 23.512C96.1606 23.512 94.9873 23.3413 93.8993 23C92.8326 22.6373 91.8939 22.104 91.0833 21.4C90.2939 20.696 89.6646 19.8107 89.1953 18.744C88.7473 17.6773 88.5233 16.4293 88.5233 15C88.5233 13.592 88.7473 12.3867 89.1953 11.384C89.6646 10.36 90.2726 9.528 91.0193 8.888C91.7659 8.22667 92.6193 7.74667 93.5793 7.448C94.5393 7.128 95.5206 6.968 96.5233 6.968C97.6539 6.968 98.6779 7.13867 99.5953 7.48C100.534 7.82133 101.334 8.29067 101.995 8.888C102.678 9.48533 103.201 10.2 103.563 11.032C103.947 11.864 104.139 12.7707 104.139 13.752C104.139 14.4773 103.937 15.032 103.531 15.416C103.126 15.8 102.561 16.0453 101.835 16.152L93.9313 17.336C94.1659 18.04 94.6459 18.5733 95.3713 18.936C96.0966 19.2773 96.9286 19.448 97.8673 19.448C98.7419 19.448 99.5633 19.3413 100.331 19.128C101.121 18.8933 101.761 18.6267 102.251 18.328C102.593 18.5413 102.881 18.84 103.115 19.224C103.35 19.608 103.467 20.0133 103.467 20.44C103.467 21.4 103.019 22.1147 102.123 22.584C101.441 22.9467 100.673 23.192 99.8193 23.32C98.9659 23.448 98.1659 23.512 97.4193 23.512ZM96.5233 10.936C96.0113 10.936 95.5633 11.0213 95.1793 11.192C94.8166 11.3627 94.5179 11.5867 94.2833 11.864C94.0486 12.12 93.8673 12.4187 93.7393 12.76C93.6326 13.08 93.5686 13.4107 93.5473 13.752L99.0193 12.856C98.9553 12.4293 98.7206 12.0027 98.3153 11.576C97.9099 11.1493 97.3126 10.936 96.5233 10.936ZM119.878 18.36C119.878 19.9813 119.27 21.2507 118.054 22.168C116.838 23.0853 115.046 23.544 112.678 23.544C111.782 23.544 110.95 23.48 110.182 23.352C109.414 23.224 108.752 23.032 108.198 22.776C107.664 22.4987 107.238 22.1573 106.918 21.752C106.619 21.3467 106.47 20.8667 106.47 20.312C106.47 19.8 106.576 19.3733 106.79 19.032C107.003 18.6693 107.259 18.3707 107.558 18.136C108.176 18.4773 108.88 18.7867 109.67 19.064C110.48 19.32 111.408 19.448 112.454 19.448C113.115 19.448 113.616 19.352 113.958 19.16C114.32 18.968 114.502 18.712 114.502 18.392C114.502 18.0933 114.374 17.8587 114.118 17.688C113.862 17.5173 113.435 17.3787 112.838 17.272L111.878 17.08C110.022 16.7173 108.635 16.152 107.718 15.384C106.822 14.5947 106.374 13.4747 106.374 12.024C106.374 11.2347 106.544 10.52 106.886 9.88C107.227 9.24 107.707 8.70667 108.326 8.28C108.944 7.85333 109.68 7.52267 110.534 7.288C111.408 7.05333 112.368 6.936 113.414 6.936C114.203 6.936 114.939 7 115.622 7.128C116.326 7.23467 116.934 7.40533 117.446 7.64C117.958 7.87467 118.363 8.184 118.662 8.568C118.96 8.93067 119.11 9.368 119.11 9.88C119.11 10.3707 119.014 10.7973 118.822 11.16C118.651 11.5013 118.427 11.7893 118.15 12.024C117.979 11.9173 117.723 11.8107 117.382 11.704C117.04 11.576 116.667 11.4693 116.262 11.384C115.856 11.2773 115.44 11.192 115.014 11.128C114.608 11.064 114.235 11.032 113.894 11.032C113.19 11.032 112.646 11.1173 112.262 11.288C111.878 11.4373 111.686 11.6827 111.686 12.024C111.686 12.2587 111.792 12.4507 112.006 12.6C112.219 12.7493 112.624 12.888 113.222 13.016L114.214 13.24C116.262 13.7093 117.712 14.36 118.566 15.192C119.44 16.0027 119.878 17.0587 119.878 18.36ZM127.948 17.656C127.948 18.2107 128.118 18.6053 128.46 18.84C128.822 19.0747 129.324 19.192 129.964 19.192C130.284 19.192 130.614 19.1707 130.956 19.128C131.297 19.064 131.596 18.9893 131.852 18.904C132.044 19.1387 132.204 19.4053 132.332 19.704C132.481 19.9813 132.556 20.3227 132.556 20.728C132.556 21.5387 132.246 22.2 131.628 22.712C131.03 23.224 129.964 23.48 128.428 23.48C126.55 23.48 125.1 23.0533 124.076 22.2C123.073 21.3467 122.572 19.96 122.572 18.04V4.344C122.806 4.28 123.137 4.216 123.564 4.152C124.012 4.06667 124.481 4.024 124.972 4.024C125.91 4.024 126.636 4.19467 127.148 4.536C127.681 4.856 127.948 5.54933 127.948 6.616V8.664H132.14C132.268 8.89867 132.385 9.19733 132.492 9.56C132.62 9.90133 132.684 10.2853 132.684 10.712C132.684 11.4587 132.513 12.0027 132.172 12.344C131.852 12.664 131.414 12.824 130.86 12.824H127.948V17.656ZM140.856 22.968C140.622 23.0107 140.27 23.064 139.8 23.128C139.352 23.2133 138.894 23.256 138.424 23.256C137.955 23.256 137.528 23.224 137.144 23.16C136.782 23.096 136.472 22.968 136.216 22.776C135.96 22.584 135.758 22.328 135.608 22.008C135.48 21.6667 135.416 21.2293 135.416 20.696V2.136C135.651 2.09333 135.992 2.04 136.44 1.976C136.91 1.89067 137.379 1.848 137.848 1.848C138.318 1.848 138.734 1.88 139.096 1.944C139.48 2.008 139.8 2.136 140.056 2.328C140.312 2.52 140.504 2.78667 140.632 3.128C140.782 3.448 140.856 3.87467 140.856 4.408V22.968ZM144.161 3.128C144.161 2.31733 144.428 1.63467 144.961 1.08C145.516 0.525332 146.241 0.247999 147.137 0.247999C148.033 0.247999 148.748 0.525332 149.281 1.08C149.836 1.63467 150.113 2.31733 150.113 3.128C150.113 3.93867 149.836 4.62133 149.281 5.176C148.748 5.73067 148.033 6.008 147.137 6.008C146.241 6.008 145.516 5.73067 144.961 5.176C144.428 4.62133 144.161 3.93867 144.161 3.128ZM149.857 22.968C149.622 23.0107 149.27 23.064 148.801 23.128C148.353 23.2133 147.894 23.256 147.425 23.256C146.956 23.256 146.529 23.224 146.145 23.16C145.782 23.096 145.473 22.968 145.217 22.776C144.961 22.584 144.758 22.328 144.609 22.008C144.481 21.6667 144.417 21.2293 144.417 20.696V7.672C144.652 7.62933 144.993 7.576 145.441 7.512C145.91 7.42667 146.38 7.384 146.849 7.384C147.318 7.384 147.734 7.416 148.097 7.48C148.481 7.544 148.801 7.672 149.057 7.864C149.313 8.056 149.505 8.32267 149.633 8.664C149.782 8.984 149.857 9.41067 149.857 9.944V22.968ZM163.176 13.144C163.176 12.4827 162.984 12.0027 162.6 11.704C162.238 11.384 161.736 11.224 161.096 11.224C160.67 11.224 160.243 11.2773 159.816 11.384C159.411 11.4907 159.059 11.6507 158.76 11.864V22.968C158.547 23.032 158.206 23.096 157.736 23.16C157.288 23.224 156.819 23.256 156.328 23.256C155.859 23.256 155.432 23.224 155.048 23.16C154.686 23.096 154.376 22.968 154.12 22.776C153.864 22.584 153.662 22.328 153.512 22.008C153.384 21.6667 153.32 21.2293 153.32 20.696V11.096C153.32 10.52 153.438 10.0507 153.672 9.688C153.928 9.32533 154.27 8.99467 154.696 8.696C155.422 8.184 156.328 7.768 157.416 7.448C158.526 7.128 159.752 6.968 161.096 6.968C163.507 6.968 165.363 7.50133 166.664 8.568C167.966 9.61333 168.616 11.0747 168.616 12.952V22.968C168.403 23.032 168.062 23.096 167.592 23.16C167.144 23.224 166.675 23.256 166.184 23.256C165.715 23.256 165.288 23.224 164.904 23.16C164.542 23.096 164.232 22.968 163.976 22.776C163.72 22.584 163.518 22.328 163.368 22.008C163.24 21.6667 163.176 21.2293 163.176 20.696V13.144ZM179.561 6.968C180.777 6.968 181.875 7.128 182.857 7.448C183.859 7.74667 184.702 8.14133 185.385 8.632C185.811 8.93067 186.142 9.26133 186.377 9.624C186.633 9.98667 186.76 10.456 186.76 11.032V22.232C186.76 23.3627 186.547 24.3333 186.121 25.144C185.694 25.976 185.107 26.6587 184.361 27.192C183.635 27.7467 182.771 28.152 181.769 28.408C180.787 28.664 179.731 28.792 178.601 28.792C176.659 28.792 175.134 28.5253 174.025 27.992C172.915 27.48 172.361 26.6373 172.361 25.464C172.361 24.9733 172.457 24.536 172.649 24.152C172.862 23.7893 173.097 23.512 173.353 23.32C173.971 23.6613 174.665 23.9493 175.433 24.184C176.222 24.4187 177.033 24.536 177.865 24.536C179.017 24.536 179.934 24.344 180.617 23.96C181.299 23.576 181.641 22.9573 181.641 22.104V21.592C180.766 21.976 179.699 22.168 178.441 22.168C177.481 22.168 176.563 22.0293 175.689 21.752C174.835 21.4533 174.078 21.0053 173.417 20.408C172.777 19.7893 172.254 19 171.849 18.04C171.465 17.08 171.273 15.9387 171.273 14.616C171.273 13.3147 171.475 12.184 171.881 11.224C172.307 10.264 172.883 9.47467 173.609 8.856C174.355 8.216 175.23 7.74667 176.233 7.448C177.257 7.128 178.366 6.968 179.561 6.968ZM181.545 11.608C181.395 11.5227 181.171 11.4373 180.873 11.352C180.595 11.2667 180.243 11.224 179.817 11.224C178.771 11.224 177.982 11.5227 177.449 12.12C176.937 12.696 176.681 13.528 176.681 14.616C176.681 15.8533 176.937 16.7493 177.449 17.304C177.982 17.8373 178.654 18.104 179.465 18.104C180.339 18.104 181.033 17.9013 181.545 17.496V11.608Z" fill="#5A6989"/>
</svg>
