<svg width="186" height="30" viewBox="0 0 186 30" fill="none" xmlns="http://www.w3.org/2000/svg">
<path d="M0.4 23V0.119999H6V18.2H15.344V23H0.4ZM16.428 14.744C16.428 12.2693 17.2067 10.2213 18.764 8.6C20.3213 6.95733 22.4013 6.136 25.004 6.136C27.372 6.136 29.228 6.88267 30.572 8.376C31.9373 9.848 32.62 11.7573 32.62 14.104C32.62 14.488 32.5773 15.064 32.492 15.832H22.092C22.284 16.792 22.732 17.528 23.436 18.04C24.1613 18.5307 24.9933 18.776 25.932 18.776C27.2973 18.776 28.812 18.2213 30.476 17.112L32.524 20.984C31.6493 21.7307 30.572 22.3173 29.292 22.744C28.0333 23.1707 26.764 23.384 25.484 23.384C22.6893 23.384 20.4813 22.5307 18.86 20.824C17.2387 19.1173 16.428 17.0907 16.428 14.744ZM22.22 12.664H27.148C27.148 11.96 26.9347 11.3733 26.508 10.904C26.1027 10.4347 25.5587 10.2 24.876 10.2C23.468 10.2 22.5827 11.0213 22.22 12.664ZM37.8163 24.056C39.2669 24.76 40.8136 25.112 42.4563 25.112C44.9949 25.112 46.2643 24.056 46.2643 21.944V21.4L46.2963 20.792H46.2323C45.2723 21.944 43.8963 22.52 42.1042 22.52C39.7576 22.52 37.9336 21.7093 36.6323 20.088C35.3309 18.4667 34.6803 16.5147 34.6803 14.232C34.6803 11.9707 35.3203 10.0613 36.6003 8.504C37.8803 6.92533 39.7043 6.136 42.0723 6.136C43.9923 6.136 45.4856 6.66933 46.5523 7.736H46.6483C46.6269 7.608 46.6163 7.48 46.6163 7.352V6.52H51.8003V21.496C51.8003 22.9467 51.5336 24.216 51.0003 25.304C50.4669 26.392 49.7416 27.2453 48.8243 27.864C47.9069 28.504 46.9149 28.9733 45.8483 29.272C44.8029 29.5707 43.6829 29.72 42.4883 29.72C40.2056 29.72 38.1256 29.2293 36.2483 28.248L37.8163 24.056ZM40.2483 14.04C40.2483 15.1493 40.5149 16.0773 41.0483 16.824C41.5816 17.5493 42.3709 17.912 43.4163 17.912C44.2696 17.912 44.9736 17.6453 45.5283 17.112C46.1043 16.5573 46.3923 15.6187 46.3923 14.296C46.3923 11.928 45.3256 10.744 43.1923 10.744C42.2536 10.744 41.5283 11.0533 41.0163 11.672C40.5043 12.2693 40.2483 13.0587 40.2483 14.04ZM58.6163 23L54.0083 6.52H59.8323L61.8802 16.248L62.0723 17.976H62.1363C62.1789 17.4213 62.2749 16.8453 62.4243 16.248L64.6963 6.52H69.4323L71.7043 16.248L71.9603 17.976H72.0243C72.0456 17.4213 72.1203 16.8453 72.2483 16.248L74.2963 6.52H80.0563L75.4483 23H69.2723L67.4163 15.384L67.0963 13.624H67.0323C66.9683 14.2 66.8616 14.7867 66.7123 15.384L64.8563 23H58.6163ZM82.2623 23V6.52H87.5743V9.304L87.5103 10.328H87.5743C87.9369 9.176 88.5983 8.20533 89.5583 7.416C90.5396 6.62667 91.6276 6.232 92.8223 6.232C92.9929 6.232 93.2063 6.25333 93.4623 6.296V11.736C93.2703 11.672 92.8969 11.64 92.3423 11.64C90.8489 11.64 89.7183 12.0773 88.9503 12.952C88.1823 13.8267 87.7983 15.0427 87.7983 16.6V23H82.2623ZM94.9593 14.744C94.9593 12.2693 95.7379 10.2213 97.2953 8.6C98.8526 6.95733 100.933 6.136 103.535 6.136C105.903 6.136 107.759 6.88267 109.103 8.376C110.469 9.848 111.151 11.7573 111.151 14.104C111.151 14.488 111.109 15.064 111.023 15.832H100.623C100.815 16.792 101.263 17.528 101.967 18.04C102.693 18.5307 103.525 18.776 104.463 18.776C105.829 18.776 107.343 18.2213 109.007 17.112L111.055 20.984C110.181 21.7307 109.103 22.3173 107.823 22.744C106.565 23.1707 105.295 23.384 104.015 23.384C101.221 23.384 99.0126 22.5307 97.3913 20.824C95.7699 19.1173 94.9593 17.0907 94.9593 14.744ZM100.751 12.664H105.679C105.679 11.96 105.466 11.3733 105.039 10.904C104.634 10.4347 104.09 10.2 103.407 10.2C101.999 10.2 101.114 11.0213 100.751 12.664ZM112.796 20.952L115.164 17.336C116.486 18.4453 117.98 19 119.644 19C120.646 19 121.148 18.712 121.148 18.136C121.148 17.816 120.881 17.5387 120.348 17.304C119.814 17.048 119.174 16.792 118.428 16.536C117.681 16.28 116.924 15.9707 116.156 15.608C115.409 15.224 114.769 14.6693 114.236 13.944C113.702 13.2187 113.436 12.3547 113.436 11.352C113.436 9.70933 114.076 8.42933 115.356 7.512C116.657 6.59467 118.3 6.136 120.284 6.136C122.652 6.136 124.614 6.76533 126.172 8.024L124.284 11.864C123.814 11.48 123.174 11.16 122.364 10.904C121.574 10.648 120.828 10.52 120.124 10.52C119.1 10.52 118.588 10.7867 118.588 11.32C118.588 11.576 118.78 11.8213 119.164 12.056C119.548 12.2693 120.017 12.4613 120.572 12.632C121.148 12.7813 121.766 13.0053 122.428 13.304C123.11 13.5813 123.729 13.9013 124.284 14.264C124.86 14.6053 125.34 15.1067 125.724 15.768C126.108 16.408 126.3 17.144 126.3 17.976C126.3 19.5547 125.681 20.856 124.444 21.88C123.228 22.8827 121.585 23.384 119.516 23.384C116.849 23.384 114.609 22.5733 112.796 20.952ZM129.074 16.92V0.119999H134.61V16.184C134.61 16.9947 134.706 17.5493 134.898 17.848C135.111 18.1467 135.527 18.296 136.146 18.296C136.423 18.296 136.647 18.2853 136.818 18.264V23.064C136.05 23.128 135.495 23.16 135.154 23.16C134.301 23.16 133.554 23.096 132.914 22.968C132.295 22.8187 131.666 22.5413 131.026 22.136C130.407 21.7307 129.927 21.0907 129.586 20.216C129.245 19.3413 129.074 18.2427 129.074 16.92ZM139.514 4.44V0.119999H144.922V4.44H139.514ZM139.45 23V6.52H144.986V23H139.45ZM148.7 23V6.52H154.012V7.96L153.948 8.984H154.012C155.142 7.08533 156.892 6.136 159.26 6.136C163.206 6.136 165.18 8.19467 165.18 12.312V23H159.644V13.336C159.644 11.8853 159.036 11.16 157.82 11.16C156.646 11.16 155.75 11.576 155.132 12.408C154.534 13.24 154.236 14.2853 154.236 15.544V23H148.7ZM171.035 24.056C172.486 24.76 174.032 25.112 175.675 25.112C178.214 25.112 179.483 24.056 179.483 21.944V21.4L179.515 20.792H179.451C178.491 21.944 177.115 22.52 175.323 22.52C172.976 22.52 171.152 21.7093 169.851 20.088C168.55 18.4667 167.899 16.5147 167.899 14.232C167.899 11.9707 168.539 10.0613 169.819 8.504C171.099 6.92533 172.923 6.136 175.291 6.136C177.211 6.136 178.704 6.66933 179.771 7.736H179.867C179.846 7.608 179.835 7.48 179.835 7.352V6.52H185.019V21.496C185.019 22.9467 184.752 24.216 184.219 25.304C183.686 26.392 182.96 27.2453 182.043 27.864C181.126 28.504 180.134 28.9733 179.067 29.272C178.022 29.5707 176.902 29.72 175.707 29.72C173.424 29.72 171.344 29.2293 169.467 28.248L171.035 24.056ZM173.467 14.04C173.467 15.1493 173.734 16.0773 174.267 16.824C174.8 17.5493 175.59 17.912 176.635 17.912C177.488 17.912 178.192 17.6453 178.747 17.112C179.323 16.5573 179.611 15.6187 179.611 14.296C179.611 11.928 178.544 10.744 176.411 10.744C175.472 10.744 174.747 11.0533 174.235 11.672C173.723 12.2693 173.467 13.0587 173.467 14.04Z" fill="#5A6989"/>
</svg>
