<svg width="154" height="173" viewBox="0 0 154 173" fill="none" xmlns="http://www.w3.org/2000/svg">
<path d="M109.31 124.614C117.451 123.73 157.385 129.081 169.35 132.149L155.487 87.5952C145.325 87.7498 106.286 87.7709 93.4819 79.8231C69.8114 65.1676 53.3829 71.3707 35.2633 57.4859C35.2633 57.4859 27.9313 48.0294 22.6785 44.0859C22.6785 44.0859 18.0462 37.694 16.232 35.7605C14.4178 33.8271 9.72648 38.391 10.6597 41.1564C10.6597 41.1564 6.08558 41.3428 8.3662 47.0356C8.3662 47.0356 3.53863 48.9015 8.59743 54.4817C8.59743 54.4817 2.74195 57.5648 10.5618 64.6141C10.5618 64.6141 3.66701 65.8378 15.4518 76.043C15.4518 76.043 18.385 84.6127 19.3463 88.1697C21.1999 95.0625 27.4395 100.93 37.4447 102.376C47.4499 103.823 55.2795 109.656 62.4925 117.016C69.7276 124.368 72.465 139.401 85.8659 137.341C99.2751 135.231 105.743 124.997 109.31 124.614Z" fill="#FBC388"/>
<path d="M165.566 119.988C158.293 119.996 144.267 119.97 133.998 120.716C124.58 121.391 110.574 123.687 108.382 124.903C110.268 124.34 113.049 124.47 114.424 124.527C125.485 124.844 159.206 129.557 169.35 132.149L165.566 119.988Z" fill="#EFA968"/>
<path d="M81.0181 125.269C75.7344 121.771 70.4088 118.53 65.8223 114.233C60.9694 109.705 56.2929 104.418 50.3345 101.324C44.956 98.5355 38.6312 99.0969 33.1932 96.3508C25.3916 92.4001 21.7095 81.7352 15.4517 76.0429C16.323 78.6093 18.6381 85.504 19.3462 88.1696C21.1999 95.0624 27.4395 100.93 37.4447 102.376C47.4498 103.822 55.2794 109.656 62.4924 117.016C69.7275 124.368 72.465 139.401 85.8659 137.341C94.0357 136.085 98.9536 132.639 108.389 124.925C107.694 124.875 93.0391 133.193 81.0181 125.269Z" fill="#EFA968"/>
<path d="M30.4889 59.9901C30.4255 59.8643 23.8407 47.1196 10.8508 40.7574C10.7638 40.7117 10.6685 40.7171 10.5732 40.7225C10.5924 40.8621 10.6047 40.9795 10.6459 41.1122C10.9358 41.2645 11.2174 41.4679 11.4823 41.7735C11.6257 41.9229 11.7319 42.1081 11.8311 42.2712C23.6261 48.69 29.6334 60.2805 29.6899 60.3842C29.8029 60.5916 30.0722 60.6775 30.2864 60.5866C30.4938 60.4736 30.5798 60.2043 30.4889 59.9901Z" fill="#EEA561"/>
<path d="M27.8057 63.7594C27.7423 63.6336 20.6057 50.2846 8.49937 46.6062C8.39717 46.5895 8.30184 46.5949 8.21339 46.6224C8.25467 46.7551 8.29596 46.8877 8.36623 47.0356C8.36623 47.0356 8.36622 47.0356 8.34411 47.0425C8.84678 47.1771 9.33963 47.436 9.68999 47.8606C9.72586 47.8979 9.7465 47.9642 9.78237 48.0016C20.5896 52.1812 26.9281 64.0567 27.0136 64.1756C27.1266 64.383 27.3959 64.469 27.6032 64.356C27.8327 64.2361 27.8966 63.9737 27.8057 63.7594Z" fill="#EEA561"/>
<path d="M25.8226 67.6747C25.5248 67.1853 18.4773 55.6031 8.65733 54.0508C8.52613 54.0189 8.40035 54.0822 8.30355 54.1609C8.38905 54.2798 8.48979 54.3697 8.5974 54.4817C8.5974 54.4817 8.5974 54.4817 8.57528 54.4886C9.22732 54.4797 9.88872 54.7347 10.4474 55.3612C18.8695 57.9548 25.0099 68.0246 25.0664 68.1282C25.1795 68.3356 25.464 68.3926 25.6713 68.2795C25.8718 68.1444 25.9356 67.882 25.8226 67.6747Z" fill="#EEA561"/>
<path d="M23.5326 75.2019C23.3066 74.7872 17.6865 65.0648 10.6147 64.161C10.4614 64.1359 10.3356 64.1993 10.2457 64.3C10.3465 64.39 10.4541 64.502 10.5548 64.5919C10.5548 64.5919 10.5548 64.5919 10.5327 64.5988C11.0147 64.6671 11.4786 64.9108 11.9022 65.3368C17.9146 67.2008 22.713 75.5297 22.7695 75.6334C22.8826 75.8407 23.1739 75.9198 23.3813 75.8068C23.5886 75.6938 23.6677 75.4024 23.5326 75.2019Z" fill="#EEA561"/>
<path d="M20.6884 41.4311C20.6884 41.4311 18.8051 44.03 17.1767 42.6936C15.5482 41.3571 11.8836 38.9324 13.5153 37.5516C15.5122 35.8632 16.0733 35.6401 16.0733 35.6401C16.0733 35.6401 15.6148 34.4004 20.6884 41.4311Z" fill="#FE1E1E"/>
<path d="M15.8742 44.8208C15.8742 44.8208 14.7113 48.0201 11.9281 46.5579C9.16709 45.0888 8.96948 42.8949 10.8779 41.234L15.8742 44.8208Z" fill="#FE1E1E"/>
<path d="M13.8578 50.0317C13.8578 50.0317 13.2889 53.1917 10.4901 52.1467C7.69124 51.1016 6.99243 48.6999 8.72247 47.1673C8.75293 47.1093 13.8578 50.0317 13.8578 50.0317Z" fill="#FE1E1E"/>
<path d="M14.2939 57.1231C14.2939 57.1231 13.8675 60.1174 11.2357 59.1417C8.61081 58.1881 7.86337 56.0197 9.42192 54.6374C9.51872 54.5588 14.2939 57.1231 14.2939 57.1231Z" fill="#FE1E1E"/>
<path d="M15.6338 67.3527C15.6338 67.3527 15.1927 69.9879 12.7889 68.9655C9.74581 67.6812 10.5407 64.9359 11.0935 64.7639C11.2704 64.7088 12.7558 65.5077 13.9209 66.2123C14.941 66.8407 15.6338 67.3527 15.6338 67.3527Z" fill="#FE1E1E"/>
</svg>
