<svg width="50" height="50" viewBox="0 0 50 50" fill="none" xmlns="http://www.w3.org/2000/svg">
<path d="M22.2695 27.4688C22.957 28.1562 23.7852 28.5 24.7539 28.5C25.7227 28.5 26.5508 28.1562 27.2383 27.4688C27.9258 26.7812 28.2695 25.9531 28.2695 24.9844C28.2695 24.0156 27.9258 23.1875 27.2383 22.5C26.5508 21.8125 25.7227 21.4688 24.7539 21.4688C23.7852 21.4688 22.957 21.8125 22.2695 22.5C21.582 23.1875 21.2383 24.0156 21.2383 24.9844C21.2383 25.9531 21.582 26.7812 22.2695 27.4688ZM32.207 25.9688L34.3164 27.6094C34.5352 27.7656 34.5664 27.9844 34.4102 28.2656L32.3945 31.7344C32.2695 31.9531 32.0664 32.0156 31.7852 31.9219L29.3008 30.9375C28.6445 31.4062 28.082 31.7344 27.6133 31.9219L27.2383 34.5469C27.1758 34.8281 27.0195 34.9688 26.7695 34.9688H22.7383C22.4883 34.9688 22.332 34.8281 22.2695 34.5469L21.8945 31.9219C21.3008 31.6719 20.7383 31.3438 20.207 30.9375L17.7227 31.9219C17.4414 32.0156 17.2383 31.9531 17.1133 31.7344L15.0977 28.2656C14.9414 27.9844 14.9727 27.7656 15.1914 27.6094L17.3008 25.9688C17.2695 25.75 17.2539 25.4219 17.2539 24.9844C17.2539 24.5469 17.2695 24.2188 17.3008 24L15.1914 22.3594C14.9727 22.2031 14.9414 21.9844 15.0977 21.7031L17.1133 18.2344C17.2383 18.0156 17.4414 17.9531 17.7227 18.0469L20.207 19.0312C20.8633 18.5625 21.4258 18.2344 21.8945 18.0469L22.2695 15.4219C22.332 15.1406 22.4883 15 22.7383 15H26.7695C27.0195 15 27.1758 15.1406 27.2383 15.4219L27.6133 18.0469C28.207 18.2969 28.7695 18.625 29.3008 19.0312L31.7852 18.0469C32.0664 17.9531 32.2695 18.0156 32.3945 18.2344L34.4102 21.7031C34.5664 21.9844 34.5352 22.2031 34.3164 22.3594L32.207 24C32.2383 24.2188 32.2539 24.5469 32.2539 24.9844C32.2539 25.4219 32.2383 25.75 32.207 25.9688Z" fill="url(#paint0_linear)"/>
<circle cx="25" cy="25" r="24.5" stroke="url(#paint1_linear)"/>
<defs>
<linearGradient id="paint0_linear" x1="17.0437" y1="15" x2="33.7557" y2="15.8413" gradientUnits="userSpaceOnUse">
<stop stop-color="#B09CCA"/>
<stop offset="1" stop-color="#5C6A8B"/>
</linearGradient>
<linearGradient id="paint1_linear" x1="5.23809" y1="2.87732e-05" x2="48.067" y2="2.20697" gradientUnits="userSpaceOnUse">
<stop stop-color="#B09CCA"/>
<stop offset="1" stop-color="#5C6A8B"/>
</linearGradient>
</defs>
</svg>
