<svg width="50" height="50" viewBox="0 0 50 50" fill="none" xmlns="http://www.w3.org/2000/svg">
<path d="M29.625 31.5938C30.0312 31.1875 30.5 30.9844 31.0312 30.9844C31.5625 30.9844 32.0156 31.1875 32.3906 31.5938C32.7969 32 33 32.4688 33 33C33 33.5312 32.7969 34 32.3906 34.4062C32.0156 34.7812 31.5625 34.9688 31.0312 34.9688C30.5 34.9688 30.0312 34.7812 29.625 34.4062C29.2188 34 29.0156 33.5312 29.0156 33C29.0156 32.4688 29.2188 32 29.625 31.5938ZM15 15H18.2812L19.2188 16.9688H34.0312C34.3125 16.9688 34.5469 17.0781 34.7344 17.2969C34.9219 17.4844 35.0156 17.7188 35.0156 18C35.0156 18.1562 34.9688 18.3125 34.875 18.4688L31.3125 24.9375C30.9375 25.625 30.3594 25.9688 29.5781 25.9688H22.125L21.2344 27.6094L21.1875 27.75C21.1875 27.9062 21.2656 27.9844 21.4219 27.9844H33V30H21C20.4688 30 20 29.7969 19.5938 29.3906C19.2188 28.9844 19.0312 28.5156 19.0312 27.9844C19.0312 27.6719 19.1094 27.3594 19.2656 27.0469L20.625 24.5625L17.0156 16.9688H15V15ZM19.5938 31.5938C20 31.1875 20.4688 30.9844 21 30.9844C21.5312 30.9844 22 31.1875 22.4062 31.5938C22.8125 32 23.0156 32.4688 23.0156 33C23.0156 33.5312 22.8125 34 22.4062 34.4062C22 34.7812 21.5312 34.9688 21 34.9688C20.4688 34.9688 20 34.7812 19.5938 34.4062C19.2188 34 19.0312 33.5312 19.0312 33C19.0312 32.4688 19.2188 32 19.5938 31.5938Z" fill="url(#paint0_linear)"/>
<circle cx="25" cy="25" r="24.5" stroke="url(#paint1_linear)"/>
<defs>
<linearGradient id="paint0_linear" x1="17.0969" y1="15" x2="34.2416" y2="15.8855" gradientUnits="userSpaceOnUse">
<stop stop-color="#B09CCA"/>
<stop offset="1" stop-color="#5C6A8B"/>
</linearGradient>
<linearGradient id="paint1_linear" x1="5.23809" y1="2.87732e-05" x2="48.067" y2="2.20697" gradientUnits="userSpaceOnUse">
<stop stop-color="#B09CCA"/>
<stop offset="1" stop-color="#5C6A8B"/>
</linearGradient>
</defs>
</svg>
