<svg width="270" height="105" viewBox="0 0 270 105" fill="none" xmlns="http://www.w3.org/2000/svg">
<g filter="url(#filter0_d)">
<rect x="30" y="15" width="210" height="45" rx="22.5" fill="url(#paint0_linear)"/>
</g>
<path d="M114.574 39.866L115.358 38.816C115.675 39.124 116.058 39.3807 116.506 39.586C116.954 39.782 117.402 39.88 117.85 39.88C118.373 39.88 118.793 39.754 119.11 39.502C119.427 39.2407 119.586 38.8953 119.586 38.466C119.586 38.0647 119.423 37.724 119.096 37.444C118.769 37.1547 118.368 36.912 117.892 36.716C117.425 36.52 116.959 36.31 116.492 36.086C116.025 35.862 115.629 35.5493 115.302 35.148C114.975 34.7467 114.812 34.2613 114.812 33.692C114.812 32.8707 115.115 32.208 115.722 31.704C116.338 31.2 117.113 30.948 118.046 30.948C119.175 30.948 120.095 31.284 120.804 31.956L120.174 33.09C119.894 32.8287 119.553 32.6187 119.152 32.46C118.76 32.3013 118.373 32.222 117.99 32.222C117.477 32.222 117.052 32.3527 116.716 32.614C116.38 32.866 116.212 33.202 116.212 33.622C116.212 33.9487 116.329 34.238 116.562 34.49C116.795 34.742 117.089 34.9427 117.444 35.092C117.799 35.232 118.181 35.4 118.592 35.596C119.003 35.7827 119.385 35.9787 119.74 36.184C120.095 36.3893 120.389 36.6787 120.622 37.052C120.855 37.4253 120.972 37.8593 120.972 38.354C120.972 39.1567 120.692 39.8287 120.132 40.37C119.572 40.902 118.802 41.168 117.822 41.168C116.543 41.168 115.461 40.734 114.574 39.866ZM125.241 41V32.32H121.839V31.116H130.015V32.32H126.613V41H125.241ZM129.632 41L133.174 31.116H134.644L138.186 41H136.758L135.764 38.158H132.04L131.046 41H129.632ZM132.404 37.01H135.4L134.308 33.888L133.916 32.474H133.888C133.748 33.0713 133.622 33.5427 133.51 33.888L132.404 37.01ZM139.693 41V31.116H142.829C143.659 31.116 144.271 31.2047 144.663 31.382C145.148 31.5967 145.531 31.928 145.811 32.376C146.091 32.824 146.231 33.356 146.231 33.972C146.231 34.6067 146.067 35.176 145.741 35.68C145.423 36.1747 144.999 36.5107 144.467 36.688V36.716C144.541 36.8093 144.635 36.9587 144.747 37.164L146.847 41H145.279L143.193 37.066H141.079V41H139.693ZM141.079 35.862H143.067C143.608 35.862 144.037 35.6987 144.355 35.372C144.672 35.036 144.831 34.5927 144.831 34.042C144.831 33.2673 144.523 32.7493 143.907 32.488C143.655 32.376 143.258 32.32 142.717 32.32H141.079V35.862ZM150.684 41V32.32H147.282V31.116H155.458V32.32H152.056V41H150.684Z" fill="white"/>
<path d="M114.574 39.866L115.358 38.816C115.675 39.124 116.058 39.3807 116.506 39.586C116.954 39.782 117.402 39.88 117.85 39.88C118.373 39.88 118.793 39.754 119.11 39.502C119.427 39.2407 119.586 38.8953 119.586 38.466C119.586 38.0647 119.423 37.724 119.096 37.444C118.769 37.1547 118.368 36.912 117.892 36.716C117.425 36.52 116.959 36.31 116.492 36.086C116.025 35.862 115.629 35.5493 115.302 35.148C114.975 34.7467 114.812 34.2613 114.812 33.692C114.812 32.8707 115.115 32.208 115.722 31.704C116.338 31.2 117.113 30.948 118.046 30.948C119.175 30.948 120.095 31.284 120.804 31.956L120.174 33.09C119.894 32.8287 119.553 32.6187 119.152 32.46C118.76 32.3013 118.373 32.222 117.99 32.222C117.477 32.222 117.052 32.3527 116.716 32.614C116.38 32.866 116.212 33.202 116.212 33.622C116.212 33.9487 116.329 34.238 116.562 34.49C116.795 34.742 117.089 34.9427 117.444 35.092C117.799 35.232 118.181 35.4 118.592 35.596C119.003 35.7827 119.385 35.9787 119.74 36.184C120.095 36.3893 120.389 36.6787 120.622 37.052C120.855 37.4253 120.972 37.8593 120.972 38.354C120.972 39.1567 120.692 39.8287 120.132 40.37C119.572 40.902 118.802 41.168 117.822 41.168C116.543 41.168 115.461 40.734 114.574 39.866ZM125.241 41V32.32H121.839V31.116H130.015V32.32H126.613V41H125.241ZM129.632 41L133.174 31.116H134.644L138.186 41H136.758L135.764 38.158H132.04L131.046 41H129.632ZM132.404 37.01H135.4L134.308 33.888L133.916 32.474H133.888C133.748 33.0713 133.622 33.5427 133.51 33.888L132.404 37.01ZM139.693 41V31.116H142.829C143.659 31.116 144.271 31.2047 144.663 31.382C145.148 31.5967 145.531 31.928 145.811 32.376C146.091 32.824 146.231 33.356 146.231 33.972C146.231 34.6067 146.067 35.176 145.741 35.68C145.423 36.1747 144.999 36.5107 144.467 36.688V36.716C144.541 36.8093 144.635 36.9587 144.747 37.164L146.847 41H145.279L143.193 37.066H141.079V41H139.693ZM141.079 35.862H143.067C143.608 35.862 144.037 35.6987 144.355 35.372C144.672 35.036 144.831 34.5927 144.831 34.042C144.831 33.2673 144.523 32.7493 143.907 32.488C143.655 32.376 143.258 32.32 142.717 32.32H141.079V35.862ZM150.684 41V32.32H147.282V31.116H155.458V32.32H152.056V41H150.684Z" fill="url(#paint1_linear)"/>
<defs>
<filter id="filter0_d" x="0" y="0" width="270" height="105" filterUnits="userSpaceOnUse" color-interpolation-filters="sRGB">
<feFlood flood-opacity="0" result="BackgroundImageFix"/>
<feColorMatrix in="SourceAlpha" type="matrix" values="0 0 0 0 0 0 0 0 0 0 0 0 0 0 0 0 0 0 127 0"/>
<feOffset dy="15"/>
<feGaussianBlur stdDeviation="15"/>
<feColorMatrix type="matrix" values="0 0 0 0 0 0 0 0 0 0 0 0 0 0 0 0 0 0 0.2 0"/>
<feBlend mode="normal" in2="BackgroundImageFix" result="effect1_dropShadow"/>
<feBlend mode="normal" in="SourceGraphic" in2="effect1_dropShadow" result="shape"/>
</filter>
<linearGradient id="paint0_linear" x1="52" y1="15" x2="222.5" y2="56" gradientUnits="userSpaceOnUse">
<stop stop-color="#B09CCA"/>
<stop offset="1" stop-color="#5C6A8B"/>
</linearGradient>
<linearGradient id="paint1_linear" x1="135" y1="28" x2="135" y2="47" gradientUnits="userSpaceOnUse">
<stop stop-color="white"/>
<stop offset="1" stop-color="white" stop-opacity="0"/>
</linearGradient>
</defs>
</svg>
