<svg width="270" height="105" viewBox="0 0 270 105" fill="none" xmlns="http://www.w3.org/2000/svg">
<g filter="url(#filter0_d)">
<rect x="30" y="15" width="210" height="45" rx="22.5" fill="url(#paint0_linear)"/>
</g>
<path d="M105.798 41V39.796H107.982V33.412L107.996 32.81H107.968C107.893 32.95 107.735 33.1413 107.492 33.384L106.568 34.28L105.728 33.412L108.094 31.116H109.326V39.796H111.496V41H105.798ZM116.72 41V31.116H120.346C121.261 31.116 122.003 31.4007 122.572 31.97C123.151 32.53 123.44 33.2767 123.44 34.21C123.44 35.1433 123.151 35.8993 122.572 36.478C121.993 37.0567 121.251 37.346 120.346 37.346H118.106V41H116.72ZM118.106 36.142H120.122C120.71 36.142 121.177 35.9693 121.522 35.624C121.867 35.2787 122.04 34.8073 122.04 34.21C122.04 33.622 121.867 33.16 121.522 32.824C121.186 32.488 120.724 32.32 120.136 32.32H118.106V36.142ZM125.21 41V31.116H126.596V39.796H131.034V41H125.21ZM131.487 41L135.029 31.116H136.499L140.041 41H138.613L137.619 38.158H133.895L132.901 41H131.487ZM134.259 37.01H137.255L136.163 33.888L135.771 32.474H135.743C135.603 33.0713 135.477 33.5427 135.365 33.888L134.259 37.01ZM142.938 41V36.814L139.62 31.116H141.188L143.008 34.364L143.61 35.61H143.638C143.834 35.162 144.035 34.7467 144.24 34.364L146.06 31.116H147.628L144.31 36.814V41H142.938ZM149.068 41V31.116H154.822V32.32H150.454V35.414H153.996V36.618H150.454V39.796H155.06V41H149.068ZM156.97 41V31.116H160.106C160.937 31.116 161.548 31.2047 161.94 31.382C162.425 31.5967 162.808 31.928 163.088 32.376C163.368 32.824 163.508 33.356 163.508 33.972C163.508 34.6067 163.345 35.176 163.018 35.68C162.701 36.1747 162.276 36.5107 161.744 36.688V36.716C161.819 36.8093 161.912 36.9587 162.024 37.164L164.124 41H162.556L160.47 37.066H158.356V41H156.97ZM158.356 35.862H160.344C160.885 35.862 161.315 35.6987 161.632 35.372C161.949 35.036 162.108 34.5927 162.108 34.042C162.108 33.2673 161.8 32.7493 161.184 32.488C160.932 32.376 160.535 32.32 159.994 32.32H158.356V35.862Z" fill="white"/>
<path d="M105.798 41V39.796H107.982V33.412L107.996 32.81H107.968C107.893 32.95 107.735 33.1413 107.492 33.384L106.568 34.28L105.728 33.412L108.094 31.116H109.326V39.796H111.496V41H105.798ZM116.72 41V31.116H120.346C121.261 31.116 122.003 31.4007 122.572 31.97C123.151 32.53 123.44 33.2767 123.44 34.21C123.44 35.1433 123.151 35.8993 122.572 36.478C121.993 37.0567 121.251 37.346 120.346 37.346H118.106V41H116.72ZM118.106 36.142H120.122C120.71 36.142 121.177 35.9693 121.522 35.624C121.867 35.2787 122.04 34.8073 122.04 34.21C122.04 33.622 121.867 33.16 121.522 32.824C121.186 32.488 120.724 32.32 120.136 32.32H118.106V36.142ZM125.21 41V31.116H126.596V39.796H131.034V41H125.21ZM131.487 41L135.029 31.116H136.499L140.041 41H138.613L137.619 38.158H133.895L132.901 41H131.487ZM134.259 37.01H137.255L136.163 33.888L135.771 32.474H135.743C135.603 33.0713 135.477 33.5427 135.365 33.888L134.259 37.01ZM142.938 41V36.814L139.62 31.116H141.188L143.008 34.364L143.61 35.61H143.638C143.834 35.162 144.035 34.7467 144.24 34.364L146.06 31.116H147.628L144.31 36.814V41H142.938ZM149.068 41V31.116H154.822V32.32H150.454V35.414H153.996V36.618H150.454V39.796H155.06V41H149.068ZM156.97 41V31.116H160.106C160.937 31.116 161.548 31.2047 161.94 31.382C162.425 31.5967 162.808 31.928 163.088 32.376C163.368 32.824 163.508 33.356 163.508 33.972C163.508 34.6067 163.345 35.176 163.018 35.68C162.701 36.1747 162.276 36.5107 161.744 36.688V36.716C161.819 36.8093 161.912 36.9587 162.024 37.164L164.124 41H162.556L160.47 37.066H158.356V41H156.97ZM158.356 35.862H160.344C160.885 35.862 161.315 35.6987 161.632 35.372C161.949 35.036 162.108 34.5927 162.108 34.042C162.108 33.2673 161.8 32.7493 161.184 32.488C160.932 32.376 160.535 32.32 159.994 32.32H158.356V35.862Z" fill="url(#paint1_linear)"/>
<defs>
<filter id="filter0_d" x="0" y="0" width="270" height="105" filterUnits="userSpaceOnUse" color-interpolation-filters="sRGB">
<feFlood flood-opacity="0" result="BackgroundImageFix"/>
<feColorMatrix in="SourceAlpha" type="matrix" values="0 0 0 0 0 0 0 0 0 0 0 0 0 0 0 0 0 0 127 0"/>
<feOffset dy="15"/>
<feGaussianBlur stdDeviation="15"/>
<feColorMatrix type="matrix" values="0 0 0 0 0 0 0 0 0 0 0 0 0 0 0 0 0 0 0.2 0"/>
<feBlend mode="normal" in2="BackgroundImageFix" result="effect1_dropShadow"/>
<feBlend mode="normal" in="SourceGraphic" in2="effect1_dropShadow" result="shape"/>
</filter>
<linearGradient id="paint0_linear" x1="52" y1="15" x2="222.5" y2="56" gradientUnits="userSpaceOnUse">
<stop stop-color="#B09CCA"/>
<stop offset="1" stop-color="#5C6A8B"/>
</linearGradient>
<linearGradient id="paint1_linear" x1="135" y1="28" x2="135" y2="47" gradientUnits="userSpaceOnUse">
<stop stop-color="white"/>
<stop offset="1" stop-color="white" stop-opacity="0"/>
</linearGradient>
</defs>
</svg>
