<svg width="62" height="16" viewBox="0 0 62 16" fill="none" xmlns="http://www.w3.org/2000/svg">
<path d="M0.88 12V9.6H3.312V4.832L3.328 3.952H3.296C3.2 4.16533 3.05067 4.368 2.848 4.56L2.16 5.184L0.544 3.456L3.632 0.559999H6.048V9.6H8.496V12H0.88ZM14.0281 12V0.559999H18.7801C19.8895 0.559999 20.7855 0.927999 21.4681 1.664C22.1615 2.4 22.5081 3.344 22.5081 4.496C22.5081 5.65867 22.1615 6.61333 21.4681 7.36C20.7855 8.096 19.8895 8.464 18.7801 8.464H16.8281V12H14.0281ZM16.8281 6.064H18.2041C18.6735 6.064 19.0308 5.92 19.2761 5.632C19.5321 5.344 19.6601 4.96533 19.6601 4.496C19.6601 4.02667 19.5375 3.65333 19.2921 3.376C19.0468 3.09867 18.7001 2.96 18.2521 2.96H16.8281V6.064ZM23.8026 8.96V0.559999H26.5706V8.592C26.5706 8.99733 26.6186 9.27467 26.7146 9.424C26.8213 9.57333 27.0293 9.648 27.3386 9.648C27.4773 9.648 27.5893 9.64267 27.6746 9.632V12.032C27.2906 12.064 27.0133 12.08 26.8426 12.08C26.416 12.08 26.0426 12.048 25.7226 11.984C25.4133 11.9093 25.0986 11.7707 24.7786 11.568C24.4693 11.3653 24.2293 11.0453 24.0586 10.608C23.888 10.1707 23.8026 9.62133 23.8026 8.96ZM28.4145 9.68C28.4145 9.15733 28.5585 8.704 28.8465 8.32C29.1345 7.936 29.5132 7.64267 29.9825 7.44C30.4625 7.23733 30.9585 7.09333 31.4705 7.008C31.9825 6.912 32.5158 6.864 33.0705 6.864H33.3105V6.72C33.3105 6.112 32.9212 5.808 32.1425 5.808C31.4172 5.808 30.6598 6.06933 29.8705 6.592L28.9105 4.64C29.2838 4.352 29.7958 4.10133 30.4465 3.888C31.1078 3.67467 31.7585 3.568 32.3985 3.568C33.5398 3.568 34.4358 3.86667 35.0865 4.464C35.7478 5.06133 36.0785 5.88267 36.0785 6.928V12H33.5505V11.504L33.5825 10.992H33.5505C33.2838 11.3653 32.9265 11.6587 32.4785 11.872C32.0412 12.0853 31.5825 12.192 31.1025 12.192C30.3132 12.192 29.6678 11.952 29.1665 11.472C28.6652 10.992 28.4145 10.3947 28.4145 9.68ZM31.1505 9.424C31.1505 9.62667 31.2198 9.79733 31.3585 9.936C31.4972 10.064 31.6892 10.128 31.9345 10.128C32.3185 10.128 32.6492 9.97333 32.9265 9.664C33.2038 9.35467 33.3425 9.024 33.3425 8.672V8.448H33.0865C32.5745 8.448 32.1212 8.528 31.7265 8.688C31.3425 8.83733 31.1505 9.08267 31.1505 9.424ZM37.758 12.752C38.0567 12.9547 38.3393 13.056 38.606 13.056C39.2673 13.056 39.71 12.7787 39.934 12.224L40.094 11.84L36.59 3.76H39.726L40.942 7.552L41.246 8.832H41.278C41.3847 8.30933 41.4753 7.89867 41.55 7.6L42.59 3.76H45.614L42.238 12.88C41.918 13.7333 41.4433 14.3573 40.814 14.752C40.1953 15.1573 39.5233 15.36 38.798 15.36C38.478 15.36 38.158 15.312 37.838 15.216C37.518 15.12 37.278 15.024 37.118 14.928L36.878 14.784L37.758 12.752ZM45.9328 7.872C45.9328 6.63467 46.3221 5.61067 47.1008 4.8C47.8794 3.97867 48.9194 3.568 50.2208 3.568C51.4048 3.568 52.3328 3.94133 53.0048 4.688C53.6874 5.424 54.0288 6.37867 54.0288 7.552C54.0288 7.744 54.0074 8.032 53.9648 8.416H48.7648C48.8608 8.896 49.0848 9.264 49.4368 9.52C49.7994 9.76533 50.2154 9.888 50.6848 9.888C51.3674 9.888 52.1248 9.61067 52.9568 9.056L53.9808 10.992C53.5434 11.3653 53.0048 11.6587 52.3648 11.872C51.7354 12.0853 51.1008 12.192 50.4608 12.192C49.0634 12.192 47.9594 11.7653 47.1488 10.912C46.3381 10.0587 45.9328 9.04533 45.9328 7.872ZM48.8288 6.832H51.2928C51.2928 6.48 51.1861 6.18667 50.9728 5.952C50.7701 5.71733 50.4981 5.6 50.1568 5.6C49.4528 5.6 49.0101 6.01067 48.8288 6.832ZM55.4749 12V3.76H58.1309V5.152L58.0989 5.664H58.1309C58.3122 5.088 58.6429 4.60267 59.1229 4.208C59.6135 3.81333 60.1575 3.616 60.7549 3.616C60.8402 3.616 60.9469 3.62667 61.0749 3.648V6.368C60.9789 6.336 60.7922 6.32 60.5149 6.32C59.7682 6.32 59.2029 6.53867 58.8189 6.976C58.4349 7.41333 58.2429 8.02133 58.2429 8.8V12H55.4749Z" fill="#5A6989"/>
</svg>
