<svg width="62" height="16" viewBox="0 0 62 16" fill="none" xmlns="http://www.w3.org/2000/svg">
<path d="M0.88 12C0.794667 11.52 0.752 11.1093 0.752 10.768C0.752 10.1067 0.874667 9.49333 1.12 8.928C1.36533 8.36267 1.66933 7.89867 2.032 7.536C2.39467 7.17333 2.78933 6.82667 3.216 6.496C3.65333 6.16533 4.05333 5.888 4.416 5.664C4.77867 5.42933 5.08267 5.184 5.328 4.928C5.57333 4.66133 5.696 4.4 5.696 4.144C5.696 3.77067 5.57333 3.488 5.328 3.296C5.08267 3.104 4.79467 3.008 4.464 3.008C4.112 3.008 3.78667 3.12533 3.488 3.36C3.18933 3.59467 2.94933 3.88267 2.768 4.224L0.688 2.832C1.06133 2.10667 1.584 1.51467 2.256 1.056C2.93867 0.597333 3.76 0.367999 4.72 0.367999C5.76533 0.367999 6.67733 0.671999 7.456 1.28C8.23467 1.87733 8.624 2.74133 8.624 3.872C8.624 4.53333 8.464 5.136 8.144 5.68C7.824 6.224 7.43467 6.672 6.976 7.024C6.51733 7.36533 6.05867 7.68 5.6 7.968C5.14133 8.24533 4.74133 8.52267 4.4 8.8C4.05867 9.06667 3.87733 9.33333 3.856 9.6H8.8V12H0.88ZM14.7781 12V0.559999H19.5301C20.6395 0.559999 21.5355 0.927999 22.2181 1.664C22.9115 2.4 23.2581 3.344 23.2581 4.496C23.2581 5.65867 22.9115 6.61333 22.2181 7.36C21.5355 8.096 20.6395 8.464 19.5301 8.464H17.5781V12H14.7781ZM17.5781 6.064H18.9541C19.4235 6.064 19.7808 5.92 20.0261 5.632C20.2821 5.344 20.4101 4.96533 20.4101 4.496C20.4101 4.02667 20.2875 3.65333 20.0421 3.376C19.7968 3.09867 19.4501 2.96 19.0021 2.96H17.5781V6.064ZM24.5526 8.96V0.559999H27.3206V8.592C27.3206 8.99733 27.3686 9.27467 27.4646 9.424C27.5713 9.57333 27.7793 9.648 28.0886 9.648C28.2273 9.648 28.3393 9.64267 28.4246 9.632V12.032C28.0406 12.064 27.7633 12.08 27.5926 12.08C27.166 12.08 26.7926 12.048 26.4726 11.984C26.1633 11.9093 25.8486 11.7707 25.5286 11.568C25.2193 11.3653 24.9793 11.0453 24.8086 10.608C24.638 10.1707 24.5526 9.62133 24.5526 8.96ZM29.1645 9.68C29.1645 9.15733 29.3085 8.704 29.5965 8.32C29.8845 7.936 30.2632 7.64267 30.7325 7.44C31.2125 7.23733 31.7085 7.09333 32.2205 7.008C32.7325 6.912 33.2658 6.864 33.8205 6.864H34.0605V6.72C34.0605 6.112 33.6712 5.808 32.8925 5.808C32.1672 5.808 31.4098 6.06933 30.6205 6.592L29.6605 4.64C30.0338 4.352 30.5458 4.10133 31.1965 3.888C31.8578 3.67467 32.5085 3.568 33.1485 3.568C34.2898 3.568 35.1858 3.86667 35.8365 4.464C36.4978 5.06133 36.8285 5.88267 36.8285 6.928V12H34.3005V11.504L34.3325 10.992H34.3005C34.0338 11.3653 33.6765 11.6587 33.2285 11.872C32.7912 12.0853 32.3325 12.192 31.8525 12.192C31.0632 12.192 30.4178 11.952 29.9165 11.472C29.4152 10.992 29.1645 10.3947 29.1645 9.68ZM31.9005 9.424C31.9005 9.62667 31.9698 9.79733 32.1085 9.936C32.2472 10.064 32.4392 10.128 32.6845 10.128C33.0685 10.128 33.3992 9.97333 33.6765 9.664C33.9538 9.35467 34.0925 9.024 34.0925 8.672V8.448H33.8365C33.3245 8.448 32.8712 8.528 32.4765 8.688C32.0925 8.83733 31.9005 9.08267 31.9005 9.424ZM38.508 12.752C38.8067 12.9547 39.0893 13.056 39.356 13.056C40.0173 13.056 40.46 12.7787 40.684 12.224L40.844 11.84L37.34 3.76H40.476L41.692 7.552L41.996 8.832H42.028C42.1347 8.30933 42.2253 7.89867 42.3 7.6L43.34 3.76H46.364L42.988 12.88C42.668 13.7333 42.1933 14.3573 41.564 14.752C40.9453 15.1573 40.2733 15.36 39.548 15.36C39.228 15.36 38.908 15.312 38.588 15.216C38.268 15.12 38.028 15.024 37.868 14.928L37.628 14.784L38.508 12.752ZM46.6828 7.872C46.6828 6.63467 47.0721 5.61067 47.8508 4.8C48.6294 3.97867 49.6694 3.568 50.9708 3.568C52.1548 3.568 53.0828 3.94133 53.7548 4.688C54.4374 5.424 54.7788 6.37867 54.7788 7.552C54.7788 7.744 54.7574 8.032 54.7148 8.416H49.5148C49.6108 8.896 49.8348 9.264 50.1868 9.52C50.5494 9.76533 50.9654 9.888 51.4348 9.888C52.1174 9.888 52.8748 9.61067 53.7068 9.056L54.7308 10.992C54.2934 11.3653 53.7548 11.6587 53.1148 11.872C52.4854 12.0853 51.8508 12.192 51.2108 12.192C49.8134 12.192 48.7094 11.7653 47.8988 10.912C47.0881 10.0587 46.6828 9.04533 46.6828 7.872ZM49.5788 6.832H52.0428C52.0428 6.48 51.9361 6.18667 51.7228 5.952C51.5201 5.71733 51.2481 5.6 50.9068 5.6C50.2028 5.6 49.7601 6.01067 49.5788 6.832ZM56.2249 12V3.76H58.8809V5.152L58.8489 5.664H58.8809C59.0622 5.088 59.3929 4.60267 59.8729 4.208C60.3635 3.81333 60.9075 3.616 61.5049 3.616C61.5902 3.616 61.6969 3.62667 61.8249 3.648V6.368C61.7289 6.336 61.5422 6.32 61.2649 6.32C60.5182 6.32 59.9529 6.53867 59.5689 6.976C59.1849 7.41333 58.9929 8.02133 58.9929 8.8V12H56.2249Z" fill="#5A6989"/>
</svg>
