<svg width="270" height="105" viewBox="0 0 270 105" fill="none" xmlns="http://www.w3.org/2000/svg">
<g filter="url(#filter0_d)">
<rect x="30" y="15" width="210" height="45" rx="22.5" fill="url(#paint0_linear)"/>
</g>
<path d="M101.84 41C101.793 40.7013 101.77 40.4493 101.77 40.244C101.77 39.768 101.859 39.3247 102.036 38.914C102.213 38.5033 102.442 38.1487 102.722 37.85C103.011 37.5513 103.329 37.2713 103.674 37.01C104.019 36.7393 104.365 36.4873 104.71 36.254C105.065 36.0207 105.382 35.7873 105.662 35.554C105.951 35.3207 106.185 35.064 106.362 34.784C106.539 34.4947 106.628 34.196 106.628 33.888C106.628 33.4027 106.46 33.0107 106.124 32.712C105.788 32.404 105.359 32.25 104.836 32.25C104.435 32.25 104.052 32.3667 103.688 32.6C103.333 32.8333 103.049 33.1367 102.834 33.51L101.812 32.824C102.111 32.2733 102.535 31.8253 103.086 31.48C103.637 31.1253 104.257 30.948 104.948 30.948C105.863 30.948 106.609 31.2093 107.188 31.732C107.767 32.2547 108.056 32.9407 108.056 33.79C108.056 34.294 107.939 34.7653 107.706 35.204C107.473 35.6427 107.179 36.0067 106.824 36.296C106.479 36.576 106.101 36.8653 105.69 37.164C105.279 37.4627 104.897 37.7287 104.542 37.962C104.187 38.1953 103.889 38.4753 103.646 38.802C103.413 39.1193 103.291 39.4507 103.282 39.796H108.21V41H101.84ZM113.827 41V31.116H117.453C118.368 31.116 119.11 31.4007 119.679 31.97C120.258 32.53 120.547 33.2767 120.547 34.21C120.547 35.1433 120.258 35.8993 119.679 36.478C119.101 37.0567 118.359 37.346 117.453 37.346H115.213V41H113.827ZM115.213 36.142H117.229C117.817 36.142 118.284 35.9693 118.629 35.624C118.975 35.2787 119.147 34.8073 119.147 34.21C119.147 33.622 118.975 33.16 118.629 32.824C118.293 32.488 117.831 32.32 117.243 32.32H115.213V36.142ZM122.318 41V31.116H123.704V39.796H128.142V41H122.318ZM128.595 41L132.137 31.116H133.607L137.149 41H135.721L134.727 38.158H131.003L130.009 41H128.595ZM131.367 37.01H134.363L133.271 33.888L132.879 32.474H132.851C132.711 33.0713 132.585 33.5427 132.473 33.888L131.367 37.01ZM140.046 41V36.814L136.728 31.116H138.296L140.116 34.364L140.718 35.61H140.746C140.942 35.162 141.143 34.7467 141.348 34.364L143.168 31.116H144.736L141.418 36.814V41H140.046ZM146.175 41V31.116H151.929V32.32H147.561V35.414H151.103V36.618H147.561V39.796H152.167V41H146.175ZM154.077 41V31.116H157.213C158.044 31.116 158.655 31.2047 159.047 31.382C159.533 31.5967 159.915 31.928 160.195 32.376C160.475 32.824 160.615 33.356 160.615 33.972C160.615 34.6067 160.452 35.176 160.125 35.68C159.808 36.1747 159.383 36.5107 158.851 36.688V36.716C158.926 36.8093 159.019 36.9587 159.131 37.164L161.231 41H159.663L157.577 37.066H155.463V41H154.077ZM155.463 35.862H157.451C157.993 35.862 158.422 35.6987 158.739 35.372C159.057 35.036 159.215 34.5927 159.215 34.042C159.215 33.2673 158.907 32.7493 158.291 32.488C158.039 32.376 157.643 32.32 157.101 32.32H155.463V35.862ZM162.14 39.866L162.924 38.816C163.242 39.124 163.624 39.3807 164.072 39.586C164.52 39.782 164.968 39.88 165.416 39.88C165.939 39.88 166.359 39.754 166.676 39.502C166.994 39.2407 167.152 38.8953 167.152 38.466C167.152 38.0647 166.989 37.724 166.662 37.444C166.336 37.1547 165.934 36.912 165.458 36.716C164.992 36.52 164.525 36.31 164.058 36.086C163.592 35.862 163.195 35.5493 162.868 35.148C162.542 34.7467 162.378 34.2613 162.378 33.692C162.378 32.8707 162.682 32.208 163.288 31.704C163.904 31.2 164.679 30.948 165.612 30.948C166.742 30.948 167.661 31.284 168.37 31.956L167.74 33.09C167.46 32.8287 167.12 32.6187 166.718 32.46C166.326 32.3013 165.939 32.222 165.556 32.222C165.043 32.222 164.618 32.3527 164.282 32.614C163.946 32.866 163.778 33.202 163.778 33.622C163.778 33.9487 163.895 34.238 164.128 34.49C164.362 34.742 164.656 34.9427 165.01 35.092C165.365 35.232 165.748 35.4 166.158 35.596C166.569 35.7827 166.952 35.9787 167.306 36.184C167.661 36.3893 167.955 36.6787 168.188 37.052C168.422 37.4253 168.538 37.8593 168.538 38.354C168.538 39.1567 168.258 39.8287 167.698 40.37C167.138 40.902 166.368 41.168 165.388 41.168C164.11 41.168 163.027 40.734 162.14 39.866Z" fill="white"/>
<path d="M101.84 41C101.793 40.7013 101.77 40.4493 101.77 40.244C101.77 39.768 101.859 39.3247 102.036 38.914C102.213 38.5033 102.442 38.1487 102.722 37.85C103.011 37.5513 103.329 37.2713 103.674 37.01C104.019 36.7393 104.365 36.4873 104.71 36.254C105.065 36.0207 105.382 35.7873 105.662 35.554C105.951 35.3207 106.185 35.064 106.362 34.784C106.539 34.4947 106.628 34.196 106.628 33.888C106.628 33.4027 106.46 33.0107 106.124 32.712C105.788 32.404 105.359 32.25 104.836 32.25C104.435 32.25 104.052 32.3667 103.688 32.6C103.333 32.8333 103.049 33.1367 102.834 33.51L101.812 32.824C102.111 32.2733 102.535 31.8253 103.086 31.48C103.637 31.1253 104.257 30.948 104.948 30.948C105.863 30.948 106.609 31.2093 107.188 31.732C107.767 32.2547 108.056 32.9407 108.056 33.79C108.056 34.294 107.939 34.7653 107.706 35.204C107.473 35.6427 107.179 36.0067 106.824 36.296C106.479 36.576 106.101 36.8653 105.69 37.164C105.279 37.4627 104.897 37.7287 104.542 37.962C104.187 38.1953 103.889 38.4753 103.646 38.802C103.413 39.1193 103.291 39.4507 103.282 39.796H108.21V41H101.84ZM113.827 41V31.116H117.453C118.368 31.116 119.11 31.4007 119.679 31.97C120.258 32.53 120.547 33.2767 120.547 34.21C120.547 35.1433 120.258 35.8993 119.679 36.478C119.101 37.0567 118.359 37.346 117.453 37.346H115.213V41H113.827ZM115.213 36.142H117.229C117.817 36.142 118.284 35.9693 118.629 35.624C118.975 35.2787 119.147 34.8073 119.147 34.21C119.147 33.622 118.975 33.16 118.629 32.824C118.293 32.488 117.831 32.32 117.243 32.32H115.213V36.142ZM122.318 41V31.116H123.704V39.796H128.142V41H122.318ZM128.595 41L132.137 31.116H133.607L137.149 41H135.721L134.727 38.158H131.003L130.009 41H128.595ZM131.367 37.01H134.363L133.271 33.888L132.879 32.474H132.851C132.711 33.0713 132.585 33.5427 132.473 33.888L131.367 37.01ZM140.046 41V36.814L136.728 31.116H138.296L140.116 34.364L140.718 35.61H140.746C140.942 35.162 141.143 34.7467 141.348 34.364L143.168 31.116H144.736L141.418 36.814V41H140.046ZM146.175 41V31.116H151.929V32.32H147.561V35.414H151.103V36.618H147.561V39.796H152.167V41H146.175ZM154.077 41V31.116H157.213C158.044 31.116 158.655 31.2047 159.047 31.382C159.533 31.5967 159.915 31.928 160.195 32.376C160.475 32.824 160.615 33.356 160.615 33.972C160.615 34.6067 160.452 35.176 160.125 35.68C159.808 36.1747 159.383 36.5107 158.851 36.688V36.716C158.926 36.8093 159.019 36.9587 159.131 37.164L161.231 41H159.663L157.577 37.066H155.463V41H154.077ZM155.463 35.862H157.451C157.993 35.862 158.422 35.6987 158.739 35.372C159.057 35.036 159.215 34.5927 159.215 34.042C159.215 33.2673 158.907 32.7493 158.291 32.488C158.039 32.376 157.643 32.32 157.101 32.32H155.463V35.862ZM162.14 39.866L162.924 38.816C163.242 39.124 163.624 39.3807 164.072 39.586C164.52 39.782 164.968 39.88 165.416 39.88C165.939 39.88 166.359 39.754 166.676 39.502C166.994 39.2407 167.152 38.8953 167.152 38.466C167.152 38.0647 166.989 37.724 166.662 37.444C166.336 37.1547 165.934 36.912 165.458 36.716C164.992 36.52 164.525 36.31 164.058 36.086C163.592 35.862 163.195 35.5493 162.868 35.148C162.542 34.7467 162.378 34.2613 162.378 33.692C162.378 32.8707 162.682 32.208 163.288 31.704C163.904 31.2 164.679 30.948 165.612 30.948C166.742 30.948 167.661 31.284 168.37 31.956L167.74 33.09C167.46 32.8287 167.12 32.6187 166.718 32.46C166.326 32.3013 165.939 32.222 165.556 32.222C165.043 32.222 164.618 32.3527 164.282 32.614C163.946 32.866 163.778 33.202 163.778 33.622C163.778 33.9487 163.895 34.238 164.128 34.49C164.362 34.742 164.656 34.9427 165.01 35.092C165.365 35.232 165.748 35.4 166.158 35.596C166.569 35.7827 166.952 35.9787 167.306 36.184C167.661 36.3893 167.955 36.6787 168.188 37.052C168.422 37.4253 168.538 37.8593 168.538 38.354C168.538 39.1567 168.258 39.8287 167.698 40.37C167.138 40.902 166.368 41.168 165.388 41.168C164.11 41.168 163.027 40.734 162.14 39.866Z" fill="url(#paint1_linear)"/>
<defs>
<filter id="filter0_d" x="0" y="0" width="270" height="105" filterUnits="userSpaceOnUse" color-interpolation-filters="sRGB">
<feFlood flood-opacity="0" result="BackgroundImageFix"/>
<feColorMatrix in="SourceAlpha" type="matrix" values="0 0 0 0 0 0 0 0 0 0 0 0 0 0 0 0 0 0 127 0"/>
<feOffset dy="15"/>
<feGaussianBlur stdDeviation="15"/>
<feColorMatrix type="matrix" values="0 0 0 0 0 0 0 0 0 0 0 0 0 0 0 0 0 0 0.2 0"/>
<feBlend mode="normal" in2="BackgroundImageFix" result="effect1_dropShadow"/>
<feBlend mode="normal" in="SourceGraphic" in2="effect1_dropShadow" result="shape"/>
</filter>
<linearGradient id="paint0_linear" x1="52" y1="15" x2="222.5" y2="56" gradientUnits="userSpaceOnUse">
<stop stop-color="#B09CCA"/>
<stop offset="1" stop-color="#5C6A8B"/>
</linearGradient>
<linearGradient id="paint1_linear" x1="135.5" y1="28" x2="135.5" y2="47" gradientUnits="userSpaceOnUse">
<stop stop-color="white"/>
<stop offset="1" stop-color="white" stop-opacity="0"/>
</linearGradient>
</defs>
</svg>
