<svg width="100" height="45" viewBox="0 0 100 45" fill="none" xmlns="http://www.w3.org/2000/svg">
<rect x="0.33783" width="99.6622" height="45" rx="22.5" fill="url(#paint0_linear)"/>
<path d="M38.5148 28V18.116H41.9728C42.8315 18.116 43.5222 18.34 44.0448 18.788C44.5768 19.236 44.8428 19.852 44.8428 20.636C44.8428 21.112 44.7308 21.5367 44.5068 21.91C44.2922 22.2833 43.9935 22.568 43.6108 22.764V22.792C44.1242 22.9413 44.5255 23.2353 44.8148 23.674C45.1042 24.1127 45.2488 24.6167 45.2488 25.186C45.2488 26.082 44.9455 26.7773 44.3388 27.272C43.7322 27.7573 42.9715 28 42.0568 28H38.5148ZM39.9008 22.274H41.9728C42.4115 22.274 42.7615 22.134 43.0228 21.854C43.2935 21.574 43.4288 21.2147 43.4288 20.776C43.4288 20.3373 43.2982 19.9873 43.0368 19.726C42.7755 19.4553 42.4162 19.32 41.9588 19.32H39.9008V22.274ZM39.9008 26.796H42.1268C42.6495 26.796 43.0602 26.642 43.3588 26.334C43.6668 26.026 43.8208 25.6153 43.8208 25.102C43.8208 24.598 43.6668 24.192 43.3588 23.884C43.0508 23.576 42.6402 23.422 42.1268 23.422H39.9008V26.796ZM47.1392 24.5V18.116H48.5252V24.486C48.5252 25.242 48.7492 25.8347 49.1972 26.264C49.6545 26.684 50.2658 26.894 51.0312 26.894C51.7965 26.894 52.4032 26.684 52.8512 26.264C53.2992 25.8347 53.5232 25.2373 53.5232 24.472V18.116H54.9092V24.5C54.9092 25.6013 54.5545 26.488 53.8452 27.16C53.1358 27.832 52.2025 28.168 51.0452 28.168C49.8785 28.168 48.9358 27.832 48.2172 27.16C47.4985 26.488 47.1392 25.6013 47.1392 24.5ZM59.5654 28V23.814L56.2474 18.116H57.8154L59.6354 21.364L60.2374 22.61H60.2654C60.4614 22.162 60.662 21.7467 60.8674 21.364L62.6874 18.116H64.2554L60.9374 23.814V28H59.5654Z" fill="white"/>
<defs>
<linearGradient id="paint0_linear" x1="10.7786" y1="2.58959e-05" x2="95.2734" y2="9.64275" gradientUnits="userSpaceOnUse">
<stop stop-color="#B09CCA"/>
<stop offset="1" stop-color="#5C6A8B"/>
</linearGradient>
</defs>
</svg>
