<svg width="26" height="26" viewBox="0 0 26 26" fill="none" xmlns="http://www.w3.org/2000/svg">
<path d="M12.7451 24.8634C19.784 24.8634 25.4902 19.2975 25.4902 12.4317C25.4902 5.56586 19.784 7.62939e-06 12.7451 7.62939e-06C5.70617 7.62939e-06 0 5.56586 0 12.4317C0 19.2975 5.70617 24.8634 12.7451 24.8634Z" fill="#DB8E05"/>
<path d="M18.3567 12.7409C18.547 13.1739 18.6262 13.6996 18.6262 14.3026C18.6262 15.0293 18.4835 15.6478 18.2299 16.1426C17.9763 16.6529 17.6275 17.0704 17.2154 17.3796C16.8032 17.7043 16.3277 17.9362 15.7887 18.1063C15.596 18.1616 15.4014 18.2109 15.2054 18.2529C14.6137 18.3798 14.1367 18.8714 14.1324 19.4766L14.1295 19.8791C14.1266 20.2916 13.7892 20.6232 13.3767 20.6189C12.9662 20.6147 12.6365 20.2791 12.6393 19.8686L12.6424 19.4375C12.6467 18.8249 12.1789 18.3183 11.5768 18.2057C11.087 18.1141 10.6003 17.9892 10.1136 17.828C9.83464 17.7407 9.56614 17.6449 9.30754 17.5417C8.46922 17.2071 8.18208 16.209 8.59058 15.4041L8.88864 14.8169C9.18733 14.2284 9.94226 14.0098 10.5258 14.3181C10.8428 14.4727 11.2233 14.6428 11.6513 14.7974C11.7651 14.8385 11.8788 14.8763 11.9929 14.9112C12.4866 15.0619 12.9557 14.6685 12.9608 14.1523C12.9645 13.7754 12.7146 13.4459 12.3543 13.3349C12.1781 13.2807 12.0019 13.2229 11.8257 13.1584C11.2391 12.9574 10.7477 12.7409 10.3197 12.509C9.90756 12.277 9.55882 12.0142 9.28933 11.7359C9.01984 11.4421 8.82962 11.1174 8.7028 10.7463C8.57599 10.3752 8.51258 9.9577 8.51258 9.47837C8.51258 8.81349 8.63939 8.22592 8.86132 7.73113C9.08325 7.22088 9.40029 6.78793 9.78075 6.4323C10.1612 6.0612 10.6209 5.78288 11.1282 5.56641C11.3757 5.46077 11.6346 5.37354 11.903 5.30653C12.3896 5.185 12.7801 4.77964 12.7844 4.2781L12.7863 4.05537C12.7898 3.64334 13.1271 3.31239 13.5391 3.31666C13.95 3.32093 14.2799 3.6571 14.2764 4.06805L14.2744 4.30746C14.2701 4.812 14.6502 5.23032 15.1414 5.3457C15.2474 5.37059 15.3522 5.39777 15.4558 5.42725C15.8362 5.53549 16.2008 5.64372 16.5654 5.78288C16.9142 5.92204 17.2471 6.04574 17.5483 6.20037C18.0132 6.41518 18.1984 6.98396 17.9552 7.43468L17.3019 8.64538C17.0407 9.1294 16.4257 9.28651 15.9314 9.04543C15.6619 8.90627 15.3607 8.78257 15.0119 8.65887C14.9915 8.65127 14.971 8.64378 14.9504 8.63641C14.4561 8.4594 13.977 8.85874 13.9719 9.38373L13.9692 9.66976C13.9671 9.88522 14.1121 10.0692 14.3144 10.1432C14.4413 10.1896 14.5681 10.236 14.7107 10.2669C15.3131 10.4525 15.868 10.669 16.3435 10.8854C16.8349 11.1174 17.2471 11.3802 17.5958 11.674C17.9129 11.9369 18.1665 12.308 18.3567 12.7409ZM14.5205 14.9984C14.6473 14.9056 14.7107 14.7665 14.7107 14.6118C14.7107 14.4418 14.6473 14.2871 14.4888 14.1634C14.2526 13.9331 13.8982 14.1757 13.8943 14.5056L13.8934 14.5896C13.8897 14.9063 14.1818 15.1913 14.4587 15.0377C14.4811 15.0253 14.5017 15.0122 14.5205 14.9984ZM12.4649 9.3646C12.6572 9.58082 12.9863 9.36057 12.9896 9.07126L12.9916 8.89568C12.9954 8.56606 12.6688 8.26745 12.4232 8.4874C12.3108 8.58817 12.2537 8.72208 12.2537 8.8908C12.2537 9.05991 12.3063 9.20332 12.4117 9.30935C12.4323 9.33007 12.4455 9.34277 12.4649 9.3646Z" fill="url(#paint0_linear)"/>
<path d="M12.9987 8.73333C12.9987 8.34082 12.572 7.97432 12.3461 8.2953C12.2847 8.38252 12.2537 8.488 12.2537 8.6124C12.2537 8.64891 12.2968 8.65133 12.3144 8.61934C12.3932 8.47602 12.5474 8.3801 12.7689 8.31949C12.8875 8.28704 12.9972 8.38397 12.9954 8.5069L12.983 9.37765C12.9829 9.38201 12.9805 9.38552 12.9848 9.38552C12.9892 9.38552 12.9987 9.38194 12.9987 9.37754V8.73333Z" fill="white"/>
<path d="M15.9155 8.72073C15.646 8.58157 15.3448 8.45787 14.9961 8.33417C14.7171 8.23052 14.427 8.14858 14.1351 8.08835C14.047 8.07017 13.9657 8.13841 13.9657 8.22839C13.9657 8.29853 14.0161 8.35836 14.0848 8.37209C14.3906 8.43313 14.6854 8.51842 14.9802 8.62796C15.3131 8.75165 15.6302 8.87535 15.8997 9.01451C16.3878 9.25259 17.0125 9.09203 17.2704 8.61406L18.3428 6.6267C18.359 6.59657 18.3464 6.55972 18.3145 6.54728C18.2845 6.53557 18.2495 6.54735 18.2341 6.57562L17.2866 8.31347C17.0248 8.79369 16.4163 8.94056 15.9155 8.72073Z" fill="white"/>
<path d="M14.5048 13.8697C14.4005 13.7679 14.2622 13.6827 14.1025 13.608C14.0153 13.5672 13.9182 13.6335 13.9182 13.7298C13.9182 13.7862 13.953 13.8364 14.0046 13.8592C14.2027 13.9468 14.3659 14.0551 14.5048 14.1635C14.5692 14.2174 14.6177 14.2765 14.6531 14.3408C14.6758 14.382 14.7426 14.3806 14.7426 14.3335C14.7267 14.1635 14.6633 14.0088 14.5048 13.8697Z" fill="white"/>
<path d="M13.3738 20.3252C12.9649 20.3209 12.6364 19.9867 12.6393 19.5777L12.6423 19.1438C12.6466 18.5312 12.1789 18.0246 11.5767 17.912C11.087 17.8204 10.6003 17.6955 10.1136 17.5342C9.37115 17.3025 8.68433 17.0029 8.0792 16.6609C8.01353 16.6238 7.92981 16.6494 7.89726 16.7174C7.86862 16.7773 7.89003 16.8492 7.94731 16.8827C8.58736 17.2573 9.29965 17.5629 10.0978 17.8126C10.5882 17.966 11.0787 18.0878 11.5723 18.1811C12.1714 18.2944 12.6308 18.8022 12.6266 19.4119L12.6234 19.8558C12.6206 20.2649 12.9491 20.5992 13.3582 20.6035L13.9677 20.6098C14.0452 20.6106 14.1084 20.548 14.1084 20.4706C14.1084 20.3943 14.0469 20.3323 13.9707 20.3315L13.3738 20.3252Z" fill="white"/>
<path d="M18.2299 15.8643C17.9763 16.3746 17.6275 16.7921 17.2154 17.1013C16.8032 17.426 16.3277 17.6579 15.7887 17.828C15.2922 17.9705 14.7823 18.0735 14.2713 18.1131C14.1977 18.1188 14.1401 18.1795 14.1401 18.2533C14.1401 18.3331 14.207 18.3966 14.2866 18.3908C14.8034 18.3527 15.2961 18.2618 15.7887 18.1064C16.3277 17.9517 16.8032 17.7043 17.2154 17.3796C17.6275 17.0549 17.9763 16.6529 18.2299 16.1426C18.4836 15.6633 18.6104 15.0757 18.6262 14.3799C18.5787 14.952 18.4518 15.4468 18.2299 15.8643Z" fill="white"/>
<path d="M9.25768 11.705C9.52717 11.9988 9.87591 12.2616 10.2881 12.4781C10.7002 12.71 11.2075 12.9265 11.794 13.1275C11.9842 13.1971 12.1744 13.2628 12.3646 13.3227C12.6957 13.427 12.9324 13.729 12.9283 14.0761L12.9196 14.805C12.9196 14.8094 12.9171 14.8129 12.9215 14.8129C12.9259 14.8129 12.9354 14.8094 12.9354 14.805L12.9443 13.8959C12.9484 13.4786 12.6716 13.1148 12.2734 12.9901C12.1189 12.9417 11.9644 12.8903 11.8099 12.8337C11.2233 12.6327 10.7319 12.4163 10.3039 12.1843C9.89176 11.9524 9.54302 11.6895 9.27353 11.4112C9.00405 11.1174 8.81382 10.7927 8.687 10.4216C8.56019 10.0505 8.49678 9.63305 8.49678 9.16918C8.49678 9.26196 8.48093 9.35473 8.48093 9.4475C8.48093 9.92683 8.54434 10.3443 8.67115 10.7154C8.79797 11.0865 8.98819 11.4112 9.25768 11.705Z" fill="white"/>
<path d="M12.7769 4.82416L12.7927 3.255C12.7927 3.2506 12.7892 3.24701 12.7848 3.24701C12.7804 3.24701 12.7769 3.25055 12.7769 3.25492V4.82416C12.7609 4.82416 12.7609 4.82416 12.7769 4.82416Z" fill="white"/>
<path d="M13.4108 1.73176C19.4346 1.79361 24.2853 6.67969 24.2219 12.6327C24.1744 18.5856 19.2285 23.3944 13.2047 23.3326C7.18092 23.2707 2.33018 18.3846 2.39359 12.4317C2.457 6.47868 7.387 1.66991 13.4108 1.73176ZM13.2206 22.745C18.9115 22.7914 23.5878 18.2609 23.6354 12.6327C23.683 7.0044 19.1017 2.38117 13.4108 2.31932C7.71989 2.27294 3.04353 6.80339 2.99597 12.4317C2.93256 18.0599 7.52967 22.6986 13.2206 22.745Z" fill="url(#paint1_linear)"/>
<path d="M13.4266 0.170113C20.3223 0.231962 25.8705 5.82931 25.8071 12.6482C25.7437 19.4825 20.1004 24.9562 13.1889 24.8943C6.2932 24.8325 0.744961 19.2351 0.808369 12.4162C0.871777 5.58191 6.53098 0.108264 13.4266 0.170113ZM13.2047 23.3326C19.2285 23.3945 24.1585 18.5857 24.2219 12.6327C24.2695 6.67973 19.4187 1.77819 13.4108 1.7318C7.38699 1.66995 2.45699 6.47872 2.39358 12.4317C2.34602 18.3847 7.19677 23.2708 13.2047 23.3326Z" fill="url(#paint2_linear)"/>
<path d="M14.4887 14.1634C14.2534 13.9339 13.898 14.169 13.8942 14.4976L13.8929 14.6024C13.8894 14.9091 14.162 15.1876 14.4359 15.0496C14.4673 15.0338 14.4954 15.0167 14.5204 14.9984C14.6472 14.9056 14.7106 14.7665 14.7106 14.6118C14.7106 14.4418 14.6472 14.2871 14.4887 14.1634ZM12.2939 8.64019C12.288 8.65238 12.2898 8.66433 12.2825 8.67577C12.2768 8.68471 12.2668 8.69452 12.2627 8.7043C12.2377 8.76351 12.2377 8.83488 12.2377 8.90625C12.2377 8.92171 12.2377 8.92171 12.2377 8.93718C12.2377 8.98356 12.2536 9.02995 12.2536 9.07634C12.2536 9.0918 12.2694 9.12272 12.2694 9.13819C12.2694 9.15365 12.2853 9.15365 12.2853 9.16911C12.2853 9.1921 12.3094 9.20996 12.3206 9.23005C12.3213 9.23141 12.3221 9.23277 12.323 9.23413C12.3285 9.243 12.3351 9.25129 12.3408 9.26004C12.358 9.28643 12.385 9.31281 12.4121 9.3392C12.6384 9.55996 12.9707 9.33242 12.9743 9.01627L12.9757 8.89614C12.9794 8.56643 12.6518 8.26779 12.4079 8.48964C12.3598 8.53335 12.3217 8.58344 12.2939 8.64019ZM23.6354 12.6327C23.6829 7.00439 19.1017 2.38117 13.4108 2.31932C7.71987 2.27293 3.0435 6.80338 2.99594 12.4317C2.94839 18.0599 7.52964 22.6832 13.2205 22.745C18.9115 22.8068 23.5878 18.2609 23.6354 12.6327ZM18.214 16.1426C17.9603 16.6529 17.6116 17.0703 17.1994 17.3796C16.7873 17.7043 16.3117 17.9362 15.7727 18.1063C15.5801 18.1616 15.3854 18.2109 15.1895 18.2529C14.5977 18.3797 14.1208 18.8714 14.1165 19.4766L14.1136 19.8791C14.1107 20.2916 13.7732 20.6232 13.3608 20.6189C12.9502 20.6146 12.6205 20.2791 12.6234 19.8686L12.6264 19.4374C12.6307 18.8249 12.1629 18.3183 11.5608 18.2057C11.0711 18.1141 10.5844 17.9892 10.0977 17.828C9.81869 17.7407 9.55018 17.6449 9.29158 17.5417C8.45327 17.2071 8.16613 16.209 8.57463 15.4041L8.87268 14.8169C9.17137 14.2283 9.92631 14.0097 10.5098 14.3181C10.8269 14.4727 11.2073 14.6428 11.6353 14.7974C11.7491 14.8385 11.8629 14.8763 11.977 14.9111C12.4707 15.0619 12.9398 14.6685 12.9448 14.1523C12.9485 13.7754 12.6987 13.4459 12.3384 13.3349C12.1622 13.2807 11.9859 13.2228 11.8097 13.1584C11.2232 12.9574 10.7318 12.7409 10.3038 12.509C9.89161 12.277 9.54286 12.0142 9.27338 11.7359C9.00389 11.4421 8.81366 11.1174 8.68685 10.7463C8.56003 10.3752 8.49662 9.95769 8.49662 9.47836C8.49662 8.81348 8.62344 8.22591 8.84537 7.73112C9.0673 7.22086 9.38434 6.78792 9.76479 6.43229C10.1452 6.06119 10.605 5.78287 11.1122 5.5664C11.3598 5.46076 11.6186 5.37353 11.887 5.30651C12.3736 5.18499 12.7641 4.77962 12.7684 4.27809L12.7703 4.05536C12.7738 3.64333 13.1111 3.31238 13.5231 3.31665C13.9341 3.32091 14.264 3.65709 14.2605 4.06804L14.2585 4.30745C14.2542 4.81199 14.6343 5.23031 15.1255 5.34569C15.2314 5.37058 15.3362 5.39776 15.4398 5.42724C15.8203 5.53547 16.1849 5.64371 16.5495 5.78287C16.8982 5.92203 17.2311 6.04573 17.5323 6.20035C17.9972 6.41516 18.1824 6.98394 17.9392 7.43466L17.286 8.64537C17.0248 9.12939 16.4097 9.2865 15.9154 9.04541C15.6459 8.90625 15.3447 8.78255 14.996 8.65886C14.9755 8.65125 14.955 8.64377 14.9344 8.6364C14.4402 8.45938 13.961 8.85873 13.956 9.38371L13.9532 9.66975C13.9512 9.88521 14.0961 10.0692 14.2985 10.1432C14.4253 10.1896 14.5521 10.236 14.6948 10.2669C15.2972 10.4525 15.852 10.669 16.3276 10.8854C16.819 11.1174 17.2311 11.3802 17.5799 11.674C17.9286 11.9832 18.1823 12.3389 18.3725 12.7718C18.5627 13.2048 18.642 13.7305 18.642 14.3335C18.6103 15.0293 18.4834 15.6323 18.214 16.1426Z" fill="url(#paint3_linear)"/>
<path d="M13.2682 2.55123C18.9591 2.59761 23.5562 7.2363 23.4928 12.8646C23.477 14.5963 23.0331 16.2199 22.2405 17.627C23.0965 16.158 23.6038 14.4417 23.6196 12.6326C23.6672 7.00436 19.0859 2.38114 13.395 2.31929C9.44785 2.28837 5.9921 4.45309 4.23251 7.66924C6.03965 4.57679 9.41615 2.5203 13.2682 2.55123Z" fill="#C47400"/>
<path d="M0.80832 12.4162C0.855876 7.99403 3.21784 4.14392 6.76871 1.99466C3.05932 4.113 0.538834 8.05588 0.50713 12.6018C0.443722 19.4361 5.99196 25.018 12.8876 25.0799C14.9642 25.0953 16.9141 24.616 18.6419 23.7501L19.387 23.3481C17.564 24.3531 15.4398 24.9252 13.2047 24.8943C6.29315 24.8325 0.744911 19.2506 0.80832 12.4162Z" fill="#DB8E05"/>
<path d="M12.1745 9.12278C12.1745 9.30833 12.2379 9.46295 12.3647 9.57118C12.463 9.6671 12.6281 9.77232 12.8155 9.85799C12.8955 9.89454 12.9829 9.8337 12.9829 9.74577C12.9829 9.69598 12.9537 9.65096 12.9086 9.62976C12.7223 9.54209 12.5259 9.43466 12.4281 9.33925C12.3013 9.21555 12.2379 9.07639 12.2379 8.89084C12.2379 8.87517 12.2183 8.87083 12.2128 8.88548C12.1846 8.95998 12.1745 9.03646 12.1745 9.12278Z" fill="#C47400"/>
<path d="M13.9246 10.1281C13.9295 10.0562 13.9993 10.0065 14.0685 10.0269C14.1365 10.0469 14.2068 10.0692 14.2828 10.097C14.4097 10.1433 14.5365 10.1897 14.6791 10.2207C15.2815 10.4062 15.8363 10.6227 16.3119 10.8391C16.8033 11.0711 17.2155 11.3339 17.5642 11.6277C17.913 11.937 18.1666 12.2926 18.3568 12.7255C18.5471 13.1585 18.6263 13.6842 18.6263 14.2872C18.6263 14.8284 18.5471 15.3232 18.3885 15.7407C18.4836 15.3696 18.5471 14.9676 18.5471 14.5192C18.5471 13.9007 18.4678 13.3904 18.2776 12.9575C18.1032 12.5245 17.8337 12.1534 17.485 11.8597C17.1362 11.5504 16.7241 11.2875 16.2327 11.0711C15.7412 10.8391 15.2023 10.6381 14.5999 10.4526C14.4831 10.4273 14.175 10.3087 14.0062 10.2495C13.9553 10.2317 13.9209 10.182 13.9246 10.1281Z" fill="#C47400"/>
<path d="M14.6002 15.038C14.6191 14.9908 14.5632 14.9706 14.5205 14.9984C14.2297 15.2111 13.89 14.8638 13.8942 14.5035L13.9022 13.8188C13.9022 13.8118 13.9 13.8051 13.8939 13.8016C13.8743 13.7904 13.8385 13.8144 13.8383 13.837L13.828 14.8933C13.8253 15.1682 14.0647 15.4104 14.319 15.3059C14.3726 15.2839 14.4185 15.2585 14.4571 15.2303C14.5223 15.1758 14.571 15.1107 14.6002 15.038Z" fill="#C47400"/>
<path d="M14.0693 18.3997C14.0584 18.4003 14.0449 18.409 14.0449 18.4199L14.0293 20.5792C14.0292 20.5968 14.0435 20.6112 14.0611 20.6112C14.0786 20.6112 14.0928 20.5971 14.093 20.5796L14.1083 18.4324C14.1084 18.4146 14.087 18.3987 14.0693 18.3997Z" fill="#C47400"/>
<path d="M8.79147 15.0323C9.09143 14.444 9.84677 14.226 10.4307 14.5345C10.7477 14.6892 11.1282 14.8592 11.5562 15.0139C11.9399 15.1525 12.3875 15.2663 12.7958 15.3329C12.8694 15.3449 12.9353 15.2875 12.9353 15.213C12.9353 15.1519 12.8905 15.1003 12.8303 15.0904C12.4307 15.0245 11.9996 14.9085 11.6354 14.7665C11.2074 14.6118 10.8428 14.4418 10.5099 14.2871C9.91659 13.9978 9.17139 14.1976 8.87263 14.7862L7.85875 16.7839C7.85326 16.7947 7.85819 16.8136 7.86838 16.8201C7.87352 16.8234 7.88022 16.8195 7.883 16.8141L8.79147 15.0323Z" fill="#C47400"/>
<path d="M8.76636 7.91666C8.98829 7.40641 9.30533 6.97346 9.68578 6.61783C10.0662 6.24674 10.5259 5.96841 11.0332 5.75194C11.5118 5.54771 12.1033 5.41229 12.6479 5.34569C12.7032 5.33892 12.7452 5.29221 12.7452 5.23644C12.7452 5.17263 12.6908 5.12232 12.6273 5.12889C12.0962 5.18392 11.5689 5.31845 11.0966 5.52001C10.5894 5.73648 10.1296 6.03026 9.74919 6.3859C9.36874 6.75699 9.0517 7.18994 8.82977 7.68473C8.75051 7.85481 8.70295 8.0249 8.6554 8.21045C8.6871 8.11767 8.7188 8.00944 8.76636 7.91666Z" fill="#C47400"/>
<path d="M13.4791 3.48664C13.8706 3.49093 14.1848 3.81129 14.1815 4.20283L14.1792 4.47722C14.1749 4.98191 14.5551 5.40036 15.0465 5.51579C15.1523 5.54066 15.257 5.56782 15.3606 5.59728C15.741 5.70551 16.1056 5.81375 16.4702 5.95291C16.819 6.09207 17.1519 6.21577 17.453 6.37039C17.6985 6.4901 17.9322 6.59836 18.1542 6.70503C18.2139 6.73371 18.2857 6.70979 18.3159 6.65087C18.3469 6.59026 18.3222 6.51594 18.261 6.48615C18.036 6.37672 17.7879 6.25759 17.5165 6.13846C17.2153 5.9993 16.8824 5.86014 16.5336 5.72097C16.1849 5.58181 15.8203 5.47358 15.424 5.36534C15.32 5.34 15.2149 5.31465 15.1086 5.29025C14.6179 5.17761 14.2416 4.74898 14.2501 4.24553L14.2542 4.00604C14.2611 3.59617 13.933 3.25901 13.5231 3.25476L12.8939 3.24823C12.8293 3.24756 12.7767 3.29968 12.7767 3.36421C12.7767 3.42778 12.8278 3.4795 12.8914 3.4802L13.4791 3.48664Z" fill="#C47400"/>
<defs>
<linearGradient id="paint0_linear" x1="10.2541" y1="2.75412" x2="16.395" y2="20.0263" gradientUnits="userSpaceOnUse">
<stop offset="0.0857019" stop-color="#FFF8D2"/>
<stop offset="0.5293" stop-color="#EDDC77"/>
<stop offset="0.8758" stop-color="#FFF8D2"/>
</linearGradient>
<linearGradient id="paint1_linear" x1="17.9912" y1="1.76613" x2="11.5849" y2="22.8834" gradientUnits="userSpaceOnUse">
<stop stop-color="#FFF8D2"/>
<stop offset="0.9214" stop-color="#FED702"/>
</linearGradient>
<linearGradient id="paint2_linear" x1="18.5007" y1="0.439454" x2="11.3137" y2="24.5425" gradientUnits="userSpaceOnUse">
<stop stop-color="#FED702"/>
<stop offset="0.9214" stop-color="#F8B100"/>
</linearGradient>
<linearGradient id="paint3_linear" x1="8.34841" y1="21.8874" x2="16.6554" y2="0.776411" gradientUnits="userSpaceOnUse">
<stop stop-color="#FED702"/>
<stop offset="0.883" stop-color="#F8B100"/>
</linearGradient>
</defs>
</svg>
