<svg width="100" height="45" viewBox="0 0 100 45" fill="none" xmlns="http://www.w3.org/2000/svg">
<rect width="99.6622" height="45" rx="22.5" fill="url(#paint0_linear)"/>
<path d="M29.302 29V19.116H32.592C34.1133 19.116 35.3267 19.5547 36.232 20.432C37.1373 21.3 37.59 22.504 37.59 24.044C37.59 25.5933 37.1373 26.8067 36.232 27.684C35.3267 28.5613 34.1133 29 32.592 29H29.302ZM30.688 27.796H32.494C33.6233 27.796 34.5147 27.474 35.168 26.83C35.8307 26.1767 36.162 25.248 36.162 24.044C36.162 22.8587 35.8307 21.944 35.168 21.3C34.5053 20.6467 33.614 20.32 32.494 20.32H30.688V27.796ZM39.0083 23.988C39.0083 22.56 39.4889 21.3653 40.4503 20.404C41.4116 19.4333 42.6249 18.948 44.0903 18.948C45.5463 18.948 46.7549 19.4333 47.7163 20.404C48.6776 21.3653 49.1583 22.56 49.1583 23.988C49.1583 25.4533 48.6776 26.6853 47.7163 27.684C46.7549 28.6733 45.5463 29.168 44.0903 29.168C42.6343 29.168 41.4209 28.6733 40.4503 27.684C39.4889 26.6853 39.0083 25.4533 39.0083 23.988ZM40.4363 23.988C40.4363 25.0987 40.7816 26.0273 41.4723 26.774C42.1629 27.5207 43.0356 27.894 44.0903 27.894C45.1356 27.894 46.0036 27.5207 46.6943 26.774C47.3849 26.0273 47.7303 25.0987 47.7303 23.988C47.7303 22.9147 47.3849 22.0187 46.6943 21.3C46.0036 20.572 45.1356 20.208 44.0903 20.208C43.0356 20.208 42.1629 20.572 41.4723 21.3C40.7816 22.0187 40.4363 22.9147 40.4363 23.988ZM51.1497 29V19.116H52.5217L56.9317 25.528L57.7437 26.97H57.7717C57.7157 26.382 57.6877 25.9013 57.6877 25.528V19.116H59.0597V29H57.7017L53.2917 22.588L52.4797 21.146H52.4517C52.5077 21.734 52.5357 22.2147 52.5357 22.588V29H51.1497ZM61.677 29V19.116H67.431V20.32H63.063V23.414H66.605V24.618H63.063V27.796H67.669V29H61.677Z" fill="white"/>
<defs>
<linearGradient id="paint0_linear" x1="10.4408" y1="2.58959e-05" x2="94.9355" y2="9.64275" gradientUnits="userSpaceOnUse">
<stop stop-color="#B09CCA"/>
<stop offset="1" stop-color="#5C6A8B"/>
</linearGradient>
</defs>
</svg>
