<svg width="305" height="16" viewBox="0 0 305 16" fill="none" xmlns="http://www.w3.org/2000/svg">
<path d="M0.2 12V0.559999H3V5.136H7.16V0.559999H9.96V12H7.16V7.52H3V12H0.2ZM12.7924 11.008C11.8964 10.208 11.4484 9.17333 11.4484 7.904C11.4484 6.63467 11.8964 5.59467 12.7924 4.784C13.6884 3.97333 14.7924 3.568 16.1044 3.568C17.427 3.568 18.5364 3.97333 19.4324 4.784C20.339 5.584 20.7924 6.624 20.7924 7.904C20.7924 9.17333 20.3444 10.208 19.4484 11.008C18.5524 11.7973 17.443 12.192 16.1204 12.192C14.7977 12.192 13.6884 11.7973 12.7924 11.008ZM14.2484 7.904C14.2484 8.50133 14.4297 8.98133 14.7924 9.344C15.155 9.70667 15.5977 9.888 16.1204 9.888C16.643 9.888 17.0857 9.70667 17.4484 9.344C17.811 8.98133 17.9924 8.50133 17.9924 7.904C17.9924 7.296 17.811 6.80533 17.4484 6.432C17.0857 6.05867 16.643 5.872 16.1204 5.872C15.5977 5.872 15.155 6.05867 14.7924 6.432C14.4297 6.80533 14.2484 7.296 14.2484 7.904ZM23.5894 12L21.2854 3.76H24.1974L25.2214 8.624L25.3174 9.488H25.3494C25.3707 9.21067 25.4187 8.92267 25.4934 8.624L26.6294 3.76H28.9974L30.1334 8.624L30.2614 9.488H30.2934C30.304 9.21067 30.3414 8.92267 30.4054 8.624L31.4294 3.76H34.3094L32.0054 12H28.9174L27.9894 8.192L27.8294 7.312H27.7974C27.7654 7.6 27.712 7.89333 27.6374 8.192L26.7094 12H23.5894ZM38.877 12L39.821 0.559999H42.861L44.525 5.392L45.101 7.28H45.133C45.3463 6.512 45.5383 5.88267 45.709 5.392L47.373 0.559999H50.413L51.341 12H48.541L48.189 6.848C48.1677 6.592 48.157 6.304 48.157 5.984C48.157 5.664 48.1623 5.408 48.173 5.216L48.189 4.928H48.157C47.901 5.728 47.6877 6.368 47.517 6.848L46.317 10.16H43.917L42.717 6.848L42.077 4.928H42.045C42.0877 5.632 42.0877 6.272 42.045 6.848L41.693 12H38.877ZM52.4614 9.68C52.4614 9.15733 52.6054 8.704 52.8934 8.32C53.1814 7.936 53.56 7.64267 54.0294 7.44C54.5094 7.23733 55.0054 7.09333 55.5174 7.008C56.0294 6.912 56.5627 6.864 57.1174 6.864H57.3574V6.72C57.3574 6.112 56.968 5.808 56.1894 5.808C55.464 5.808 54.7067 6.06933 53.9174 6.592L52.9574 4.64C53.3307 4.352 53.8427 4.10133 54.4934 3.888C55.1547 3.67467 55.8054 3.568 56.4454 3.568C57.5867 3.568 58.4827 3.86667 59.1334 4.464C59.7947 5.06133 60.1254 5.88267 60.1254 6.928V12H57.5974V11.504L57.6294 10.992H57.5974C57.3307 11.3653 56.9734 11.6587 56.5254 11.872C56.088 12.0853 55.6294 12.192 55.1494 12.192C54.36 12.192 53.7147 11.952 53.2134 11.472C52.712 10.992 52.4614 10.3947 52.4614 9.68ZM55.1974 9.424C55.1974 9.62667 55.2667 9.79733 55.4054 9.936C55.544 10.064 55.736 10.128 55.9814 10.128C56.3654 10.128 56.696 9.97333 56.9734 9.664C57.2507 9.35467 57.3894 9.024 57.3894 8.672V8.448H57.1334C56.6214 8.448 56.168 8.528 55.7734 8.688C55.3894 8.83733 55.1974 9.08267 55.1974 9.424ZM61.8811 12V3.76H64.5371V4.48L64.5051 4.992H64.5371C65.1025 4.04267 65.9771 3.568 67.1611 3.568C69.1345 3.568 70.1211 4.59733 70.1211 6.656V12H67.3531V7.168C67.3531 6.44267 67.0491 6.08 66.4411 6.08C65.8545 6.08 65.4065 6.288 65.0971 6.704C64.7985 7.12 64.6491 7.64267 64.6491 8.272V12H61.8811ZM71.8674 12.752C72.166 12.9547 72.4487 13.056 72.7154 13.056C73.3767 13.056 73.8194 12.7787 74.0434 12.224L74.2034 11.84L70.6994 3.76H73.8354L75.0514 7.552L75.3554 8.832H75.3874C75.494 8.30933 75.5847 7.89867 75.6594 7.6L76.6994 3.76H79.7234L76.3474 12.88C76.0274 13.7333 75.5527 14.3573 74.9234 14.752C74.3047 15.1573 73.6327 15.36 72.9074 15.36C72.5874 15.36 72.2674 15.312 71.9474 15.216C71.6274 15.12 71.3874 15.024 71.2274 14.928L70.9874 14.784L71.8674 12.752ZM84.6219 12V0.559999H89.3739C90.4832 0.559999 91.3792 0.927999 92.0619 1.664C92.7552 2.4 93.1019 3.344 93.1019 4.496C93.1019 5.65867 92.7552 6.61333 92.0619 7.36C91.3792 8.096 90.4832 8.464 89.3739 8.464H87.4219V12H84.6219ZM87.4219 6.064H88.7979C89.2672 6.064 89.6245 5.92 89.8699 5.632C90.1259 5.344 90.2539 4.96533 90.2539 4.496C90.2539 4.02667 90.1312 3.65333 89.8859 3.376C89.6405 3.09867 89.2939 2.96 88.8459 2.96H87.4219V6.064ZM94.3964 8.96V0.559999H97.1644V8.592C97.1644 8.99733 97.2124 9.27467 97.3084 9.424C97.415 9.57333 97.623 9.648 97.9324 9.648C98.071 9.648 98.183 9.64267 98.2684 9.632V12.032C97.8844 12.064 97.607 12.08 97.4364 12.08C97.0097 12.08 96.6364 12.048 96.3164 11.984C96.007 11.9093 95.6924 11.7707 95.3724 11.568C95.063 11.3653 94.823 11.0453 94.6524 10.608C94.4817 10.1707 94.3964 9.62133 94.3964 8.96ZM99.0083 9.68C99.0083 9.15733 99.1523 8.704 99.4403 8.32C99.7283 7.936 100.107 7.64267 100.576 7.44C101.056 7.23733 101.552 7.09333 102.064 7.008C102.576 6.912 103.11 6.864 103.664 6.864H103.904V6.72C103.904 6.112 103.515 5.808 102.736 5.808C102.011 5.808 101.254 6.06933 100.464 6.592L99.5043 4.64C99.8776 4.352 100.39 4.10133 101.04 3.888C101.702 3.67467 102.352 3.568 102.992 3.568C104.134 3.568 105.03 3.86667 105.68 4.464C106.342 5.06133 106.672 5.88267 106.672 6.928V12H104.144V11.504L104.176 10.992H104.144C103.878 11.3653 103.52 11.6587 103.072 11.872C102.635 12.0853 102.176 12.192 101.696 12.192C100.907 12.192 100.262 11.952 99.7603 11.472C99.2589 10.992 99.0083 10.3947 99.0083 9.68ZM101.744 9.424C101.744 9.62667 101.814 9.79733 101.952 9.936C102.091 10.064 102.283 10.128 102.528 10.128C102.912 10.128 103.243 9.97333 103.52 9.664C103.798 9.35467 103.936 9.024 103.936 8.672V8.448H103.68C103.168 8.448 102.715 8.528 102.32 8.688C101.936 8.83733 101.744 9.08267 101.744 9.424ZM108.352 12.752C108.65 12.9547 108.933 13.056 109.2 13.056C109.861 13.056 110.304 12.7787 110.528 12.224L110.688 11.84L107.184 3.76H110.32L111.536 7.552L111.84 8.832H111.872C111.978 8.30933 112.069 7.89867 112.144 7.6L113.184 3.76H116.208L112.832 12.88C112.512 13.7333 112.037 14.3573 111.408 14.752C110.789 15.1573 110.117 15.36 109.392 15.36C109.072 15.36 108.752 15.312 108.432 15.216C108.112 15.12 107.872 15.024 107.712 14.928L107.472 14.784L108.352 12.752ZM116.527 7.872C116.527 6.63467 116.916 5.61067 117.695 4.8C118.473 3.97867 119.513 3.568 120.815 3.568C121.999 3.568 122.927 3.94133 123.599 4.688C124.281 5.424 124.623 6.37867 124.623 7.552C124.623 7.744 124.601 8.032 124.559 8.416H119.359C119.455 8.896 119.679 9.264 120.031 9.52C120.393 9.76533 120.809 9.888 121.279 9.888C121.961 9.888 122.719 9.61067 123.551 9.056L124.575 10.992C124.137 11.3653 123.599 11.6587 122.959 11.872C122.329 12.0853 121.695 12.192 121.055 12.192C119.657 12.192 118.553 11.7653 117.743 10.912C116.932 10.0587 116.527 9.04533 116.527 7.872ZM119.423 6.832H121.887C121.887 6.48 121.78 6.18667 121.567 5.952C121.364 5.71733 121.092 5.6 120.751 5.6C120.047 5.6 119.604 6.01067 119.423 6.832ZM126.069 12V3.76H128.725V5.152L128.693 5.664H128.725C128.906 5.088 129.237 4.60267 129.717 4.208C130.207 3.81333 130.751 3.616 131.349 3.616C131.434 3.616 131.541 3.62667 131.669 3.648V6.368C131.573 6.336 131.386 6.32 131.109 6.32C130.362 6.32 129.797 6.53867 129.413 6.976C129.029 7.41333 128.837 8.02133 128.837 8.8V12H126.069ZM132.257 10.976L133.441 9.168C134.102 9.72267 134.849 10 135.681 10C136.182 10 136.433 9.856 136.433 9.568C136.433 9.408 136.3 9.26933 136.033 9.152C135.766 9.024 135.446 8.896 135.073 8.768C134.7 8.64 134.321 8.48533 133.937 8.304C133.564 8.112 133.244 7.83467 132.977 7.472C132.71 7.10933 132.577 6.67733 132.577 6.176C132.577 5.35467 132.897 4.71467 133.537 4.256C134.188 3.79733 135.009 3.568 136.001 3.568C137.185 3.568 138.166 3.88267 138.945 4.512L138.001 6.432C137.766 6.24 137.446 6.08 137.041 5.952C136.646 5.824 136.273 5.76 135.921 5.76C135.409 5.76 135.153 5.89333 135.153 6.16C135.153 6.288 135.249 6.41067 135.441 6.528C135.633 6.63467 135.868 6.73067 136.145 6.816C136.433 6.89067 136.742 7.00267 137.073 7.152C137.414 7.29067 137.724 7.45067 138.001 7.632C138.289 7.80267 138.529 8.05333 138.721 8.384C138.913 8.704 139.009 9.072 139.009 9.488C139.009 10.2773 138.7 10.928 138.081 11.44C137.473 11.9413 136.652 12.192 135.617 12.192C134.284 12.192 133.164 11.7867 132.257 10.976ZM146.039 12L143.255 0.559999H146.199L147.639 7.712C147.682 7.92533 147.714 8.13333 147.735 8.336C147.767 8.528 147.783 8.672 147.783 8.768V8.912H147.815C147.826 8.58133 147.89 8.18133 148.007 7.712L149.767 0.559999H152.023L153.735 7.712C153.788 7.92533 153.831 8.13333 153.863 8.336C153.895 8.528 153.916 8.672 153.927 8.768V8.912H153.959C153.959 8.58133 154.007 8.18133 154.103 7.712L155.671 0.559999H158.567L155.671 12H152.551L151.111 6.224L150.887 4.88H150.855C150.823 5.28533 150.748 5.73333 150.631 6.224L149.191 12H146.039ZM159.663 2.72V0.559999H162.367V2.72H159.663ZM159.631 12V3.76H162.399V12H159.631ZM164.24 8.96V0.559999H167.008V8.592C167.008 8.99733 167.056 9.27467 167.152 9.424C167.259 9.57333 167.467 9.648 167.776 9.648C167.915 9.648 168.027 9.64267 168.112 9.632V12.032C167.728 12.064 167.451 12.08 167.28 12.08C166.853 12.08 166.48 12.048 166.16 11.984C165.851 11.9093 165.536 11.7707 165.216 11.568C164.907 11.3653 164.667 11.0453 164.496 10.608C164.325 10.1707 164.24 9.62133 164.24 8.96ZM169.412 8.96V0.559999H172.18V8.592C172.18 8.99733 172.228 9.27467 172.324 9.424C172.431 9.57333 172.639 9.648 172.948 9.648C173.087 9.648 173.199 9.64267 173.284 9.632V12.032C172.9 12.064 172.623 12.08 172.452 12.08C172.025 12.08 171.652 12.048 171.332 11.984C171.023 11.9093 170.708 11.7707 170.388 11.568C170.079 11.3653 169.839 11.0453 169.668 10.608C169.497 10.1707 169.412 9.62133 169.412 8.96ZM178.872 12V0.559999H183.08C184.253 0.559999 185.192 0.821333 185.896 1.344C186.611 1.856 186.968 2.592 186.968 3.552C186.968 4.04267 186.851 4.512 186.616 4.96C186.381 5.39733 186.056 5.73867 185.64 5.984V6.016C186.248 6.19733 186.696 6.53333 186.984 7.024C187.283 7.504 187.432 8.02667 187.432 8.592C187.432 9.75467 187.021 10.6133 186.2 11.168C185.379 11.7227 184.339 12 183.08 12H178.872ZM181.672 4.992H183.112C183.443 4.992 183.693 4.89067 183.864 4.688C184.035 4.48533 184.12 4.23467 184.12 3.936C184.12 3.648 184.029 3.41333 183.848 3.232C183.677 3.05067 183.416 2.96 183.064 2.96H181.672V4.992ZM181.672 9.6H183.352C183.736 9.6 184.035 9.488 184.248 9.264C184.461 9.02933 184.568 8.74133 184.568 8.4C184.568 8.05867 184.467 7.78133 184.264 7.568C184.061 7.344 183.763 7.232 183.368 7.232H181.672V9.6ZM188.417 7.872C188.417 6.63467 188.806 5.61067 189.585 4.8C190.364 3.97867 191.404 3.568 192.705 3.568C193.889 3.568 194.817 3.94133 195.489 4.688C196.172 5.424 196.513 6.37867 196.513 7.552C196.513 7.744 196.492 8.032 196.449 8.416H191.249C191.345 8.896 191.569 9.264 191.921 9.52C192.284 9.76533 192.7 9.888 193.169 9.888C193.852 9.888 194.609 9.61067 195.441 9.056L196.465 10.992C196.028 11.3653 195.489 11.6587 194.849 11.872C194.22 12.0853 193.585 12.192 192.945 12.192C191.548 12.192 190.444 11.7653 189.633 10.912C188.822 10.0587 188.417 9.04533 188.417 7.872ZM191.313 6.832H193.777C193.777 6.48 193.67 6.18667 193.457 5.952C193.254 5.71733 192.982 5.6 192.641 5.6C191.937 5.6 191.494 6.01067 191.313 6.832ZM202.075 12V0.559999H204.875V12H202.075ZM206.912 12V3.76H209.568V4.48L209.536 4.992H209.568C210.134 4.04267 211.008 3.568 212.192 3.568C214.166 3.568 215.152 4.59733 215.152 6.656V12H212.384V7.168C212.384 6.44267 212.08 6.08 211.472 6.08C210.886 6.08 210.438 6.288 210.128 6.704C209.83 7.12 209.68 7.64267 209.68 8.272V12H206.912ZM223.195 12V2.96H219.723V0.559999H229.467V2.96H225.995V12H223.195ZM230.584 12V0.559999H233.352V4.176L233.32 4.88H233.352C233.587 4.47467 233.928 4.15467 234.376 3.92C234.824 3.68533 235.32 3.568 235.864 3.568C237.838 3.568 238.824 4.59733 238.824 6.656V12H236.056V7.168C236.056 6.44267 235.752 6.08 235.144 6.08C234.568 6.08 234.126 6.28267 233.816 6.688C233.507 7.09333 233.352 7.62667 233.352 8.288V12H230.584ZM240.136 7.872C240.136 6.63467 240.525 5.61067 241.304 4.8C242.083 3.97867 243.123 3.568 244.424 3.568C245.608 3.568 246.536 3.94133 247.208 4.688C247.891 5.424 248.232 6.37867 248.232 7.552C248.232 7.744 248.211 8.032 248.168 8.416H242.968C243.064 8.896 243.288 9.264 243.64 9.52C244.003 9.76533 244.419 9.888 244.888 9.888C245.571 9.888 246.328 9.61067 247.16 9.056L248.184 10.992C247.747 11.3653 247.208 11.6587 246.568 11.872C245.939 12.0853 245.304 12.192 244.664 12.192C243.267 12.192 242.163 11.7653 241.352 10.912C240.541 10.0587 240.136 9.04533 240.136 7.872ZM243.032 6.832H245.496C245.496 6.48 245.389 6.18667 245.176 5.952C244.973 5.71733 244.701 5.6 244.36 5.6C243.656 5.6 243.213 6.01067 243.032 6.832ZM253.186 6.256C253.186 4.58133 253.751 3.184 254.882 2.064C256.023 0.933332 257.458 0.367999 259.186 0.367999C260.967 0.367999 262.434 0.874666 263.586 1.888L262.242 3.984C261.911 3.68533 261.484 3.43467 260.962 3.232C260.439 3.02933 259.938 2.928 259.458 2.928C258.327 2.928 257.479 3.23733 256.914 3.856C256.359 4.464 256.082 5.232 256.082 6.16C256.082 7.216 256.396 8.05867 257.026 8.688C257.666 9.31733 258.444 9.632 259.362 9.632C260.194 9.632 260.967 9.35467 261.682 8.8V7.92H260.066V5.536H264.162V12H261.826V11.68L261.842 11.2H261.81C261.468 11.4987 261.02 11.7387 260.466 11.92C259.922 12.1013 259.367 12.192 258.802 12.192C257.266 12.192 255.943 11.6533 254.834 10.576C253.735 9.49867 253.186 8.05867 253.186 6.256ZM265.321 9.68C265.321 9.15733 265.465 8.704 265.753 8.32C266.041 7.936 266.419 7.64267 266.889 7.44C267.369 7.23733 267.865 7.09333 268.377 7.008C268.889 6.912 269.422 6.864 269.977 6.864H270.217V6.72C270.217 6.112 269.827 5.808 269.049 5.808C268.323 5.808 267.566 6.06933 266.777 6.592L265.817 4.64C266.19 4.352 266.702 4.10133 267.353 3.888C268.014 3.67467 268.665 3.568 269.305 3.568C270.446 3.568 271.342 3.86667 271.993 4.464C272.654 5.06133 272.985 5.88267 272.985 6.928V12H270.457V11.504L270.489 10.992H270.457C270.19 11.3653 269.833 11.6587 269.385 11.872C268.947 12.0853 268.489 12.192 268.009 12.192C267.219 12.192 266.574 11.952 266.073 11.472C265.571 10.992 265.321 10.3947 265.321 9.68ZM268.057 9.424C268.057 9.62667 268.126 9.79733 268.265 9.936C268.403 10.064 268.595 10.128 268.841 10.128C269.225 10.128 269.555 9.97333 269.833 9.664C270.11 9.35467 270.249 9.024 270.249 8.672V8.448H269.993C269.481 8.448 269.027 8.528 268.633 8.688C268.249 8.83733 268.057 9.08267 268.057 9.424ZM274.741 12V3.76H277.397V4.48L277.365 4.992H277.397C278.026 4.04267 278.842 3.568 279.845 3.568C280.943 3.568 281.711 4.032 282.149 4.96H282.181C282.415 4.576 282.767 4.25067 283.237 3.984C283.717 3.70667 284.245 3.568 284.821 3.568C285.631 3.568 286.277 3.81333 286.757 4.304C287.247 4.79467 287.493 5.57867 287.493 6.656V12H284.725V7.12C284.725 6.42667 284.511 6.08 284.085 6.08C283.53 6.08 283.125 6.31467 282.869 6.784C282.623 7.24267 282.501 7.81867 282.501 8.512V12H279.733V7.12C279.733 6.42667 279.519 6.08 279.093 6.08C278.517 6.08 278.106 6.31467 277.861 6.784C277.626 7.25333 277.509 7.82933 277.509 8.512V12H274.741ZM288.823 7.872C288.823 6.63467 289.213 5.61067 289.991 4.8C290.77 3.97867 291.81 3.568 293.111 3.568C294.295 3.568 295.223 3.94133 295.895 4.688C296.578 5.424 296.919 6.37867 296.919 7.552C296.919 7.744 296.898 8.032 296.855 8.416H291.655C291.751 8.896 291.975 9.264 292.327 9.52C292.69 9.76533 293.106 9.888 293.575 9.888C294.258 9.888 295.015 9.61067 295.847 9.056L296.871 10.992C296.434 11.3653 295.895 11.6587 295.255 11.872C294.626 12.0853 293.991 12.192 293.351 12.192C291.954 12.192 290.85 11.7653 290.039 10.912C289.229 10.0587 288.823 9.04533 288.823 7.872ZM291.719 6.832H294.183C294.183 6.48 294.077 6.18667 293.863 5.952C293.661 5.71733 293.389 5.6 293.047 5.6C292.343 5.6 291.901 6.01067 291.719 6.832ZM299.379 8.464V7.664C299.379 7.26933 299.464 6.90667 299.635 6.576C299.805 6.23467 300.013 5.95733 300.259 5.744C300.504 5.52 300.749 5.312 300.995 5.12C301.251 4.91733 301.464 4.704 301.635 4.48C301.805 4.256 301.891 4.02133 301.891 3.776C301.891 3.50933 301.779 3.28533 301.555 3.104C301.331 2.92267 301.064 2.832 300.755 2.832C300.264 2.832 299.757 3.06133 299.235 3.52L297.699 1.648C298.584 0.762666 299.699 0.32 301.043 0.32C302.024 0.32 302.888 0.602666 303.635 1.168C304.392 1.72267 304.771 2.48533 304.771 3.456C304.771 3.936 304.675 4.37867 304.483 4.784C304.301 5.17867 304.072 5.504 303.795 5.76C303.528 6.00533 303.261 6.24 302.995 6.464C302.728 6.67733 302.499 6.90667 302.307 7.152C302.125 7.38667 302.035 7.632 302.035 7.888V8.464H299.379ZM299.443 12V9.6H301.971V12H299.443Z" fill="#5A6989"/>
</svg>
