<svg width="32" height="32" viewBox="0 0 32 32" fill="none" xmlns="http://www.w3.org/2000/svg">
<path d="M27.3137 4.68628C24.2917 1.66431 20.2739 0 16 0C11.7263 0 7.70825 1.66431 4.68628 4.68628C1.66431 7.70825 0 11.7261 0 16C0 20.2737 1.66431 24.2917 4.68628 27.3137C7.70825 30.3357 11.7263 32 16 32C20.2739 32 24.2917 30.3357 27.3137 27.3137C30.3357 24.2917 32 20.2739 32 16C32 11.7261 30.3357 7.70825 27.3137 4.68628ZM23.7634 14.5327L16.6628 21.6333C16.1064 22.1897 15.3667 22.4961 14.5798 22.4961C13.793 22.4961 13.0532 22.1897 12.4968 21.6333L8.23657 17.3728C7.68018 16.8164 7.37378 16.0767 7.37378 15.29C7.37378 14.5032 7.68018 13.7634 8.23657 13.207C8.79297 12.6506 9.53271 12.3442 10.3196 12.3442C11.1064 12.3442 11.8462 12.6506 12.4026 13.207L14.5798 15.3843L19.5974 10.3667C20.1538 9.8103 20.8936 9.50391 21.6804 9.50391C22.4673 9.50391 23.207 9.8103 23.7634 10.3667C24.9121 11.5154 24.9121 13.3843 23.7634 14.5327Z" fill="#5BD031"/>
<path d="M21.6804 11.3789C21.3945 11.3789 21.1255 11.4902 20.9231 11.6926L15.2427 17.373C15.0669 17.5488 14.8286 17.6475 14.5798 17.6475C14.3311 17.6475 14.0928 17.5488 13.917 17.373L11.0769 14.533C10.8748 14.3306 10.6057 14.2192 10.3196 14.2192C10.0337 14.2192 9.76465 14.3306 9.5625 14.533C9.36035 14.7351 9.24878 15.0039 9.24878 15.29C9.24878 15.5759 9.36011 15.845 9.5625 16.0471L13.8228 20.3076C14.0251 20.5098 14.2939 20.6213 14.5798 20.6213C14.866 20.6213 15.1348 20.5098 15.3372 20.3076L22.4377 13.207C22.8552 12.7896 22.8552 12.1101 22.4377 11.6924C22.2356 11.4902 21.9666 11.3789 21.6804 11.3789Z" fill="white"/>
</svg>
