<svg width="212" height="183" viewBox="0 0 212 183" fill="none" xmlns="http://www.w3.org/2000/svg">
<mask id="mask0" mask-type="alpha" maskUnits="userSpaceOnUse" x="14" y="15" width="198" height="158">
<rect x="14" y="15" width="198" height="158" rx="10" fill="white"/>
</mask>
<g mask="url(#mask0)">
<path d="M87.0395 129.614C78.8991 128.731 25.9648 135.932 14 139L14 93.1698C24.1619 93.3244 90.0637 92.771 102.868 84.8232C126.538 70.1677 142.967 76.3708 161.086 62.486C161.086 62.486 168.418 53.0295 173.671 49.086C173.671 49.086 178.304 42.694 180.118 40.7606C181.932 38.8271 186.623 43.3911 185.69 46.1565C185.69 46.1565 190.264 46.3429 187.984 52.0357C187.984 52.0357 192.811 53.9016 187.752 59.4818C187.752 59.4818 193.608 62.5649 185.788 69.6141C185.788 69.6141 192.683 70.8379 180.898 81.0431C180.898 81.0431 177.965 89.6128 177.004 93.1698C175.15 100.063 168.91 105.93 158.905 107.376C148.9 108.823 141.07 114.656 133.857 122.016C126.622 129.368 123.885 144.401 110.484 142.341C97.0747 140.231 90.6067 129.997 87.0395 129.614Z" fill="#FBC388"/>
<path d="M13.9999 125.5C21.2731 125.508 52.0826 124.97 62.3515 125.716C71.7695 126.391 85.7757 128.687 87.9681 129.903C86.0818 129.34 83.3011 129.47 81.9253 129.527C70.8647 129.844 24.1432 136.408 13.9999 139L13.9999 125.5Z" fill="#EFA968"/>
<path d="M115.332 130.269C120.615 126.771 125.941 123.53 130.527 119.233C135.38 114.705 140.057 109.418 146.015 106.324C151.394 103.536 157.719 104.097 163.157 101.351C170.958 97.4001 174.64 86.7352 180.898 81.043C180.027 83.6094 177.712 90.5041 177.004 93.1697C175.15 100.062 168.91 105.93 158.905 107.376C148.9 108.823 141.07 114.656 133.857 122.016C126.622 129.368 123.885 144.401 110.484 142.341C102.314 141.085 97.3961 137.639 87.9613 129.925C88.656 129.875 103.311 138.194 115.332 130.269Z" fill="#EFA968"/>
<path d="M165.861 64.9901C165.924 64.8643 172.509 52.1196 185.499 45.7574C185.586 45.7117 185.681 45.7171 185.777 45.7225C185.757 45.8621 185.745 45.9795 185.704 46.1122C185.414 46.2645 185.132 46.4679 184.868 46.7735C184.724 46.9229 184.618 47.1081 184.519 47.2713C172.724 53.69 166.716 65.2806 166.66 65.3842C166.547 65.5916 166.278 65.6776 166.063 65.5867C165.856 65.4736 165.77 65.2044 165.861 64.9901Z" fill="#EEA561"/>
<path d="M168.544 68.7595C168.608 68.6337 175.744 55.2846 187.85 51.6062C187.953 51.5895 188.048 51.5949 188.136 51.6224C188.095 51.7551 188.054 51.8878 187.984 52.0356C187.984 52.0356 187.984 52.0357 188.006 52.0425C187.503 52.1771 187.01 52.4361 186.66 52.8606C186.624 52.8979 186.603 52.9643 186.567 53.0016C175.76 57.1812 169.422 69.0568 169.336 69.1757C169.223 69.383 168.954 69.469 168.747 69.356C168.517 69.2361 168.453 68.9737 168.544 68.7595Z" fill="#EEA561"/>
<path d="M170.527 72.6747C170.825 72.1853 177.872 60.6032 187.692 59.0508C187.824 59.0189 187.949 59.0823 188.046 59.1609C187.961 59.2798 187.86 59.3697 187.752 59.4818C187.752 59.4818 187.752 59.4818 187.774 59.4887C187.122 59.4798 186.461 59.7348 185.902 60.3612C177.48 62.9548 171.34 73.0246 171.283 73.1283C171.17 73.3356 170.886 73.3926 170.678 73.2796C170.478 73.1445 170.414 72.8821 170.527 72.6747Z" fill="#EEA561"/>
<path d="M172.817 80.202C173.043 79.7873 178.663 70.0649 185.735 69.1611C185.888 69.136 186.014 69.1994 186.104 69.3001C186.003 69.39 185.896 69.5021 185.795 69.592C185.795 69.592 185.795 69.592 185.817 69.5989C185.335 69.6672 184.871 69.9109 184.448 70.3368C178.435 72.2009 173.637 80.5298 173.58 80.6335C173.467 80.8408 173.176 80.9199 172.968 80.8069C172.761 80.6939 172.682 80.4025 172.817 80.202Z" fill="#EEA561"/>
<path d="M175.661 46.4313C175.661 46.4313 177.545 49.0302 179.173 47.6937C180.802 46.3573 184.466 43.9325 182.834 42.5517C180.838 40.8633 180.276 40.6402 180.276 40.6402C180.276 40.6402 180.735 39.4005 175.661 46.4313Z" fill="#EED39F"/>
<path d="M180.476 49.8209C180.476 49.8209 181.639 53.0202 184.422 51.558C187.183 50.0889 187.38 47.895 185.472 46.2341L180.476 49.8209Z" fill="#EED39F"/>
<path d="M182.492 55.0318C182.492 55.0318 183.061 58.1918 185.86 57.1468C188.659 56.1017 189.357 53.7 187.627 52.1673C187.597 52.1094 182.492 55.0318 182.492 55.0318Z" fill="#EED39F"/>
<path d="M182.056 62.1231C182.056 62.1231 182.482 65.1175 185.114 64.1417C187.739 63.1881 188.486 61.0197 186.928 59.6375C186.831 59.5588 182.056 62.1231 182.056 62.1231Z" fill="#EED39F"/>
<path d="M180.716 72.3528C180.716 72.3528 181.157 74.988 183.561 73.9656C186.604 72.6812 185.809 69.936 185.256 69.764C185.079 69.7089 183.594 70.5078 182.429 71.2124C181.409 71.8408 180.716 72.3528 180.716 72.3528Z" fill="#EED39F"/>
<path d="M193.825 37.3394C193.558 35.5941 185.525 28.4237 180.95 35.0809C176.383 41.7271 169.752 53.7447 161.022 60.4628C152.292 67.1809 120.333 74.957 114.502 79.4277C108.682 83.9064 111.566 94.1623 111.587 98.8763C111.596 103.582 109.921 113.602 105.596 116.047C101.272 118.493 94.5 124 89 127.5C89 128.5 85 130.5 91.8032 134.369C99.13 142.89 105.385 150.302 113.682 148.891C121.99 147.488 139.862 124.031 139.862 124.031L167.448 94.2588L191.564 59.7455L193.825 37.3394Z" fill="#AF1C4D"/>
<path d="M91.8143 134.377C91.26 133.734 90.7466 133.103 90.282 132.475C100.009 124.974 118.816 114.332 136.868 125.972C135.613 128.115 134.379 130.205 133.169 132.263C127.214 139.169 118.717 148.046 113.712 148.896C105.385 150.302 99.1411 142.897 91.8143 134.377Z" fill="#D83068"/>
<path d="M173.528 72.5222C173.52 72.5331 173.52 72.5331 173.528 72.5222C171.776 74.9053 170.04 77.082 168.312 79.1121L163.287 64.3685C163.444 64.2476 163.622 64.1428 163.778 64.0219C165.923 62.3651 168.061 60.3501 170.234 57.9223L174.664 70.9319C174.281 71.4756 173.906 72.0084 173.528 72.5222Z" fill="#D83068"/>
<path d="M158.37 89.4022L151.799 70.1191C154.754 68.9405 157.446 67.7535 159.709 66.5543L165.188 82.6262C162.881 85.1231 160.6 87.3538 158.37 89.4022Z" fill="#D83068"/>
<path d="M147.928 98.1965L139.834 74.4579C142.609 73.5008 145.366 72.5466 147.984 71.5747L155.062 92.343C152.607 94.445 150.221 96.3619 147.928 98.1965Z" fill="#D83068"/>
<path d="M137.456 106.917L127.787 78.5855C130.227 77.7184 132.784 76.8529 135.156 76.0543C135.424 75.9649 135.692 75.8756 135.96 75.7862L144.518 100.91C142.054 102.887 139.657 104.864 137.456 106.917Z" fill="#D83068"/>
<path d="M115.969 125.51C127.384 106.619 142.536 102.872 165.605 80.7769C182.924 64.1884 188.49 43.1515 190.192 33.6908C192.222 34.9146 193.712 36.5995 193.825 37.3393L191.567 59.7644L167.451 94.2777L139.865 124.05C139.865 124.05 121.982 147.499 113.685 148.91C110.431 149.465 107.503 148.659 104.691 146.962C107.449 140.67 111.172 133.453 115.969 125.51Z" fill="#D8A7BA"/>
<path d="M193.652 36.5891C193.652 36.5891 192.533 52.0367 181.219 69.3012C163.979 95.6321 146.493 102.598 136.385 114.467C126.265 126.328 121.551 138.441 117.741 143.303C113.922 148.175 111.457 148.687 110.556 148.95C111.669 151.857 121.974 159.671 124.032 159.095C126.089 158.52 133.422 153.907 141.848 141.509C150.275 129.111 146.741 127.893 155.656 116.09C164.579 104.276 179.267 92.524 184.839 83.366C190.411 74.2081 197.745 60.7536 197.073 49.345C196.854 41.7398 193.652 36.5891 193.652 36.5891Z" fill="#DE82FF"/>
<path d="M124.032 159.096C123.158 159.345 120.779 158.068 118.257 156.298C121.836 154.752 125.779 151.521 129.624 144.849C138.951 128.683 142.189 126.18 150.307 117.042C153.645 113.281 159.152 109.297 164.481 105.922C161.293 109.271 158.232 112.679 155.656 116.09C146.733 127.904 150.275 129.111 141.848 141.509C133.433 153.915 126.089 158.52 124.032 159.096Z" fill="#AB44CF"/>
<path d="M195.741 66.9604C195.862 66.7964 195.952 66.6273 196.029 66.4312C198.511 59.9865 199.615 54.179 199.321 49.1963C199.25 47.9648 198.182 47.0114 196.951 47.0828C195.719 47.1541 194.766 48.2216 194.837 49.453C195.093 53.8011 194.083 58.9536 191.832 64.8099C191.386 65.9648 191.963 67.2648 193.129 67.7178C194.08 68.0969 195.154 67.7584 195.741 66.9604Z" fill="#D83068"/>
<path d="M185.008 87.1451C185.683 86.2268 186.261 85.3719 186.775 84.5366C188.515 81.6895 191.076 77.3582 193.373 72.5627C193.911 71.4422 193.434 70.0978 192.313 69.5602C191.193 69.0225 189.857 69.4884 189.311 70.6199C187.102 75.2273 184.599 79.4332 182.923 82.1928C182.319 83.1973 181.545 84.2956 180.636 85.463C180.62 85.4849 180.612 85.4958 180.604 85.5068C179.881 86.4906 180.07 87.8594 181.03 88.6156C182.019 89.3771 183.429 89.2009 184.182 88.2222C184.467 87.8586 184.743 87.5058 185.008 87.1451Z" fill="#D83068"/>
<path d="M179.533 93.629C180.2 92.7216 180.09 91.4281 179.244 90.6545C178.33 89.8136 176.911 89.865 176.07 90.7794C173.878 93.1423 171.482 95.5749 168.942 98.1365C167.001 100.112 164.99 102.136 163.042 104.19C162.187 105.077 162.212 106.51 163.118 107.362C164.016 108.225 165.446 108.181 166.29 107.286C168.214 105.265 170.217 103.251 172.15 101.287C174.714 98.6926 177.145 96.2352 179.369 93.8286C179.417 93.763 179.484 93.6946 179.533 93.629Z" fill="#D83068"/>
<path d="M144.431 141.707C144.455 141.674 144.471 141.653 144.496 141.62C149.018 134.806 150.163 131.622 151.623 127.576C151.903 126.805 152.194 125.974 152.525 125.089C152.959 123.926 152.374 122.637 151.2 122.195C150.037 121.761 148.748 122.346 148.314 123.509C147.978 124.424 147.668 125.257 147.383 126.058C145.987 129.949 144.971 132.773 140.749 139.134C140.061 140.161 140.343 141.564 141.37 142.252C142.383 142.913 143.724 142.669 144.431 141.707Z" fill="#D83068"/>
<path d="M140.027 147.833C140.743 146.86 140.554 145.492 139.605 144.743C138.634 143.979 137.214 144.147 136.449 145.118C131.386 151.568 127.342 154.64 125.399 155.907C124.347 156.582 124.065 157.974 124.729 159.018C125.404 160.07 126.796 160.353 127.84 159.689C130.03 158.268 134.519 154.866 139.99 147.907C139.995 147.877 140.011 147.855 140.027 147.833Z" fill="#D83068"/>
<path d="M128.742 133.724C122.059 145.08 118.759 151.058 112.658 151.658C111.603 150.596 110.826 149.637 110.567 148.958C111.468 148.695 113.933 148.183 117.752 143.311C121.551 138.441 126.276 126.336 136.385 114.467C146.504 102.607 163.979 95.6322 181.219 69.3013C192.525 52.0478 193.652 36.5892 193.652 36.5892C193.652 36.5892 194.336 37.6982 195.087 39.6316C194.477 45.4995 192.298 55.3338 185.18 68.0372C173.279 89.2832 161.452 98.7256 152.894 104.981C144.339 111.255 136.187 121.059 128.742 133.724Z" fill="#AB44CF"/>
<path d="M184.746 32.415C188.972 31.6152 193.625 36.0303 193.817 37.3502L193.462 40.879C187.606 38.1226 185.477 34.7883 184.746 32.415Z" fill="#AB44CF"/>
<path d="M114.502 79.4275C120.166 75.0697 150.597 67.5849 160.267 60.9855C160.162 63.9229 157.222 66.9822 153.907 69.6814C149.288 73.4431 121.898 84.8996 110.871 89.7261C110.787 85.8079 111.42 81.8097 114.502 79.4275Z" fill="#DE82FF"/>
<path d="M146.272 70.7874C146.708 71.7983 147.895 72.2675 148.895 71.8238C149.914 71.3772 150.375 70.2004 149.94 69.1895C149.504 68.1786 148.316 67.7095 147.297 68.156C146.286 68.5917 145.825 69.7685 146.272 70.7874Z" fill="#66042C"/>
<path d="M140.309 73.3759C140.745 74.3868 141.933 74.856 142.941 74.4013C143.96 73.9548 144.421 72.778 143.985 71.7671C143.55 70.7562 142.362 70.287 141.343 70.7336C140.335 71.1882 139.874 72.365 140.309 73.3759Z" fill="#66042C"/>
<path d="M134.358 75.9726C134.793 76.9835 135.981 77.4526 136.992 77.017C138.011 76.5704 138.472 75.3936 138.025 74.3747C137.59 73.3638 136.402 72.8946 135.383 73.3412C134.372 73.7768 133.911 74.9536 134.358 75.9726Z" fill="#66042C"/>
<path d="M128.395 78.5609C128.842 79.5799 130.018 80.041 131.037 79.5944C132.048 79.1588 132.517 77.971 132.063 76.963C131.627 75.9521 130.44 75.483 129.429 75.9186C128.421 76.3732 127.959 77.55 128.395 78.5609Z" fill="#66042C"/>
<path d="M122.444 81.1573C122.879 82.1682 124.067 82.6373 125.067 82.1937C126.086 81.7471 126.547 80.5703 126.111 79.5594C125.676 78.5485 124.488 78.0793 123.469 78.5259C122.458 78.9615 121.997 80.1383 122.444 81.1573Z" fill="#66042C"/>
<path d="M116.481 83.7457C116.917 84.7566 118.104 85.2258 119.104 84.7821C120.134 84.3436 120.595 83.1668 120.149 82.1478C119.713 81.1369 118.525 80.6678 117.506 81.1143C116.506 81.558 116.037 82.7457 116.481 83.7457Z" fill="#66042C"/>
<path d="M116.711 76.4701L119.216 82.2028C119.39 82.5838 119.318 83.0024 119.085 83.3194C118.972 83.4725 118.816 83.5934 118.627 83.6902C118.054 83.9425 117.392 83.6747 117.151 83.1097L114.715 77.5121C115.284 77.1729 115.96 76.8273 116.711 76.4701Z" fill="#AB44CF"/>
<path d="M125.178 79.6144C125.353 79.9954 125.281 80.414 125.048 80.731C124.935 80.8841 124.771 81.0159 124.59 81.1018C124.017 81.3541 123.355 81.0863 123.113 80.5213L120.644 74.8318C121.323 74.573 122.021 74.3113 122.745 74.0357L125.178 79.6144Z" fill="#AB44CF"/>
<path d="M131.13 77.0178C131.304 77.3988 131.232 77.8174 131.007 78.1235C130.894 78.2766 130.73 78.4084 130.549 78.4942C129.976 78.7466 129.314 78.4788 129.073 77.9138L126.756 72.5892C127.457 72.3465 128.157 72.1037 128.896 71.8552L131.13 77.0178Z" fill="#AB44CF"/>
<path d="M137.092 74.4296C137.248 74.8135 137.195 75.2293 136.962 75.5463C136.849 75.6993 136.685 75.8312 136.504 75.917C135.931 76.1694 135.269 75.9015 135.027 75.3366L132.911 70.4959C133.022 70.4595 133.122 70.4152 133.225 70.3898C133.825 70.1914 134.434 69.9821 135.043 69.7728L137.092 74.4296Z" fill="#AB44CF"/>
<path d="M143.044 71.833C143.218 72.214 143.146 72.6326 142.913 72.9496C142.801 73.1027 142.644 73.2236 142.455 73.3203C141.89 73.5618 141.22 73.3049 140.979 72.7399L139.081 68.3802C139.801 68.1346 140.502 67.8919 141.21 67.6382L143.044 71.833Z" fill="#AB44CF"/>
<path d="M148.996 69.2365C149.17 69.6175 149.098 70.0362 148.865 70.3532C148.752 70.5062 148.596 70.6271 148.407 70.7239C147.834 70.9763 147.172 70.7084 146.931 70.1435L145.213 66.2027C145.93 65.9381 146.628 65.6764 147.326 65.4147L148.996 69.2365Z" fill="#AB44CF"/>
</g>
</svg>
