<svg width="135" height="152" viewBox="0 0 135 152" fill="none" xmlns="http://www.w3.org/2000/svg">
<path d="M115.825 24.3394C115.558 22.5941 107.525 15.4237 102.95 22.0809C98.3827 28.7271 91.752 40.7447 83.0223 47.4628C74.2925 54.1809 42.333 61.957 36.5022 66.4277C30.6824 70.9064 33.5665 81.1623 33.5866 85.8763C33.5957 90.5822 31.9209 100.602 27.5962 103.047C23.2715 105.493 16.5 111 11 114.5C11 115.5 7 117.5 13.8032 121.369C21.13 129.89 27.3851 137.302 35.6819 135.891C43.9897 134.488 61.8621 111.031 61.8621 111.031L89.4479 81.2588L113.564 46.7455L115.825 24.3394Z" fill="#AF1C4D"/>
<path d="M13.8143 121.377C13.26 120.734 12.7466 120.103 12.282 119.475C22.0085 111.974 40.8162 101.332 58.8681 112.972C57.6128 115.115 56.3787 117.205 55.1687 119.263C49.2144 126.169 40.7167 135.046 35.712 135.896C27.3853 137.302 21.1411 129.897 13.8143 121.377Z" fill="#D83068"/>
<path d="M95.5282 59.5222C95.5201 59.5331 95.5201 59.5331 95.5282 59.5222C93.7757 61.9053 92.0404 64.082 90.3118 66.1121L85.2874 51.3685C85.4436 51.2476 85.6218 51.1428 85.778 51.0219C87.9227 49.3651 90.0613 47.3501 92.2339 44.9223L96.6639 57.9319C96.2809 58.4756 95.906 59.0084 95.5282 59.5222Z" fill="#D83068"/>
<path d="M80.3699 76.4022L73.7991 57.1191C76.7543 55.9405 79.4462 54.7535 81.7092 53.5543L87.1885 69.6262C84.8808 72.1231 82.6004 74.3538 80.3699 76.4022Z" fill="#D83068"/>
<path d="M69.9283 85.1965L61.8336 61.4579C64.6091 60.5008 67.3656 59.5466 69.9835 58.5747L77.0623 79.343C74.607 81.445 72.2205 83.3619 69.9283 85.1965Z" fill="#D83068"/>
<path d="M59.4561 93.9175L49.7874 65.5855C52.2272 64.7184 54.7837 63.8529 57.1563 63.0543C57.4241 62.9649 57.692 62.8756 57.9598 62.7862L66.5181 87.9099C64.0535 89.8873 61.6568 91.8639 59.4561 93.9175Z" fill="#D83068"/>
<path d="M37.9689 112.51C49.3845 93.6192 64.5364 89.872 87.6054 67.7769C104.924 51.1884 110.49 30.1515 112.192 20.6908C114.222 21.9146 115.712 23.5995 115.825 24.3393L113.567 46.7644L89.4508 81.2777L61.8651 111.05C61.8651 111.05 43.9817 134.499 35.6849 135.91C32.4306 136.465 29.5028 135.659 26.6914 133.962C29.4491 127.67 33.1723 120.453 37.9689 112.51Z" fill="#D8A7BA"/>
<path d="M115.652 23.5891C115.652 23.5891 114.533 39.0367 103.219 56.3012C85.9789 82.6321 68.4935 89.5984 58.3848 101.467C48.2652 113.328 43.5514 125.441 39.7408 130.303C35.9221 135.175 33.4573 135.687 32.556 135.95C33.6691 138.857 43.9745 146.671 46.0317 146.095C48.0888 145.52 55.4218 140.907 63.8483 128.509C72.2747 116.111 68.7405 114.893 77.6557 103.09C86.5789 91.2758 101.267 79.524 106.839 70.366C112.411 61.2081 119.745 47.7536 119.073 36.345C118.854 28.7398 115.652 23.5891 115.652 23.5891Z" fill="#DE82FF"/>
<path d="M46.0318 146.096C45.1575 146.345 42.7789 145.068 40.2572 143.298C43.8359 141.752 47.7786 138.521 51.6237 131.849C60.9509 115.683 64.1894 113.18 72.3074 104.042C75.6453 100.281 81.1523 96.2965 86.4805 92.9216C83.2934 96.2709 80.2317 99.6787 77.6558 103.09C68.7326 114.904 72.2748 116.111 63.8484 128.509C55.4329 140.915 48.0889 145.52 46.0318 146.096Z" fill="#AB44CF"/>
<path d="M117.741 53.9604C117.862 53.7964 117.952 53.6273 118.029 53.4312C120.511 46.9865 121.615 41.179 121.321 36.1963C121.25 34.9648 120.182 34.0114 118.951 34.0828C117.719 34.1541 116.766 35.2216 116.837 36.453C117.093 40.8011 116.083 45.9536 113.832 51.8099C113.386 52.9648 113.963 54.2648 115.129 54.7178C116.08 55.0969 117.154 54.7584 117.741 53.9604Z" fill="#D83068"/>
<path d="M107.008 74.1451C107.683 73.2268 108.261 72.3719 108.775 71.5366C110.515 68.6895 113.076 64.3582 115.373 59.5627C115.911 58.4422 115.434 57.0978 114.313 56.5602C113.193 56.0225 111.857 56.4884 111.311 57.6199C109.102 62.2273 106.599 66.4332 104.923 69.1928C104.319 70.1973 103.545 71.2956 102.636 72.463C102.62 72.4849 102.612 72.4958 102.604 72.5068C101.881 73.4906 102.07 74.8594 103.03 75.6156C104.019 76.3771 105.429 76.2009 106.182 75.2222C106.467 74.8586 106.743 74.5058 107.008 74.1451Z" fill="#D83068"/>
<path d="M101.533 80.629C102.2 79.7216 102.09 78.4281 101.244 77.6545C100.33 76.8136 98.9107 76.865 98.0698 77.7794C95.8776 80.1423 93.4824 82.5749 90.9419 85.1365C89.0011 87.1116 86.9902 89.1362 85.0419 91.19C84.1873 92.0774 84.2117 93.5102 85.118 94.3619C86.0164 95.2246 87.4462 95.1813 88.2899 94.2858C90.214 92.2648 92.2169 90.2511 94.1497 88.2869C96.7143 85.6926 99.1445 83.2352 101.369 80.8286C101.417 80.763 101.484 80.6946 101.533 80.629Z" fill="#D83068"/>
<path d="M66.4313 128.707C66.4554 128.674 66.4715 128.653 66.4956 128.62C71.0178 121.806 72.1629 118.622 73.6228 114.576C73.9032 113.805 74.1939 112.974 74.5248 112.089C74.9589 110.926 74.374 109.637 73.2001 109.195C72.0372 108.761 70.7482 109.346 70.314 110.509C69.978 111.424 69.6684 112.257 69.3828 113.058C67.9866 116.949 66.9711 119.773 62.7485 126.134C62.0608 127.161 62.3427 128.564 63.3696 129.252C64.3828 129.913 65.7239 129.669 66.4313 128.707Z" fill="#D83068"/>
<path d="M62.0275 134.833C62.7429 133.86 62.5536 132.492 61.6048 131.743C60.6341 130.979 59.2136 131.147 58.4492 132.118C53.3862 138.568 49.3416 141.64 47.3995 142.907C46.3474 143.582 46.0647 144.974 46.7287 146.018C47.4035 147.07 48.7957 147.353 49.8398 146.689C52.0301 145.268 56.5194 141.866 61.9902 134.907C61.9953 134.877 62.0114 134.855 62.0275 134.833Z" fill="#D83068"/>
<path d="M50.7424 120.724C44.0593 132.08 40.7586 138.058 34.6578 138.658C33.6029 137.596 32.8258 136.637 32.567 135.958C33.4683 135.695 35.9331 135.183 39.7518 130.311C43.5515 125.441 48.2762 113.336 58.3848 101.467C68.5045 89.6066 85.9789 82.6322 103.219 56.3013C114.525 39.0478 115.652 23.5892 115.652 23.5892C115.652 23.5892 116.336 24.6982 117.087 26.6316C116.477 32.4995 114.298 42.3338 107.18 55.0372C95.2794 76.2832 83.4516 85.7256 74.8938 91.9806C66.339 98.2547 58.1866 108.059 50.7424 120.724Z" fill="#AB44CF"/>
<path d="M106.746 19.415C110.972 18.6152 115.625 23.0303 115.817 24.3502L115.462 27.879C109.606 25.1226 107.477 21.7883 106.746 19.415Z" fill="#AB44CF"/>
<path d="M36.5023 66.4275C42.1659 62.0697 72.5974 54.5849 82.2673 47.9855C82.1621 50.9229 79.2219 53.9822 75.9065 56.6814C71.2876 60.4431 43.8979 71.8996 32.8705 76.7261C32.7874 72.8079 33.42 68.8097 36.5023 66.4275Z" fill="#DE82FF"/>
<path d="M68.2719 57.7874C68.7076 58.7983 69.8953 59.2675 70.8952 58.8238C71.9142 58.3772 72.3753 57.2004 71.9397 56.1895C71.504 55.1786 70.3163 54.7095 69.2974 55.156C68.2865 55.5917 67.8253 56.7685 68.2719 57.7874Z" fill="#66042C"/>
<path d="M62.3094 60.3759C62.745 61.3868 63.9327 61.856 64.9407 61.4013C65.9597 60.9548 66.4208 59.778 65.9852 58.7671C65.5495 57.7562 64.3618 57.287 63.3429 57.7336C62.3348 58.1882 61.8737 59.365 62.3094 60.3759Z" fill="#66042C"/>
<path d="M56.3576 62.9726C56.7932 63.9835 57.981 64.4526 58.9919 64.017C60.0108 63.5704 60.4719 62.3936 60.0254 61.3747C59.5897 60.3638 58.402 59.8946 57.3831 60.3412C56.3722 60.7768 55.911 61.9536 56.3576 62.9726Z" fill="#66042C"/>
<path d="M50.3951 65.5609C50.8417 66.5799 52.0185 67.041 53.0374 66.5944C54.0483 66.1588 54.5175 64.971 54.0629 63.963C53.6272 62.9521 52.4395 62.483 51.4286 62.9186C50.4206 63.3732 49.9595 64.55 50.3951 65.5609Z" fill="#66042C"/>
<path d="M44.4435 68.1573C44.8792 69.1682 46.0669 69.6373 47.0669 69.1937C48.0858 68.7471 48.5469 67.5703 48.1113 66.5594C47.6757 65.5485 46.4879 65.0793 45.469 65.5259C44.4581 65.9615 43.997 67.1383 44.4435 68.1573Z" fill="#66042C"/>
<path d="M38.4809 70.7457C38.9165 71.7566 40.1042 72.2258 41.1042 71.7821C42.1341 71.3436 42.5952 70.1668 42.1486 69.1478C41.713 68.1369 40.5253 67.6678 39.5063 68.1143C38.5063 68.558 38.0372 69.7457 38.4809 70.7457Z" fill="#66042C"/>
<path d="M38.7107 63.4701L41.2156 69.2028C41.3902 69.5838 41.3181 70.0024 41.085 70.3194C40.9725 70.4725 40.8162 70.5934 40.6271 70.6902C40.0542 70.9425 39.3921 70.6747 39.1507 70.1097L36.715 64.5121C37.2844 64.1729 37.9596 63.8273 38.7107 63.4701Z" fill="#AB44CF"/>
<path d="M47.1782 66.6144C47.3527 66.9954 47.2807 67.414 47.0476 67.731C46.935 67.8841 46.7707 68.0159 46.5897 68.1018C46.0167 68.3541 45.3547 68.0863 45.1133 67.5213L42.6441 61.8318C43.3229 61.573 44.0206 61.3113 44.7453 61.0357L47.1782 66.6144Z" fill="#AB44CF"/>
<path d="M53.1296 64.0178C53.3041 64.3988 53.2321 64.8174 53.007 65.1235C52.8945 65.2766 52.7302 65.4084 52.5491 65.4942C51.9762 65.7466 51.3141 65.4788 51.0727 64.9138L48.7562 59.5892C49.4569 59.3465 50.1575 59.1037 50.8961 58.8552L53.1296 64.0178Z" fill="#AB44CF"/>
<path d="M59.0921 61.4296C59.2478 61.8135 59.1947 62.2293 58.9616 62.5463C58.849 62.6993 58.6847 62.8312 58.5037 62.917C57.9307 63.1694 57.2687 62.9015 57.0272 62.3366L54.9108 57.4959C55.0217 57.4595 55.1217 57.4152 55.2246 57.3898C55.8252 57.1914 56.4339 56.9821 57.0425 56.7728L59.0921 61.4296Z" fill="#AB44CF"/>
<path d="M65.0439 58.833C65.2185 59.214 65.1464 59.6326 64.9133 59.9496C64.8008 60.1027 64.6445 60.2236 64.4554 60.3203C63.8905 60.5618 63.2204 60.3049 62.979 59.7399L61.0814 55.3802C61.801 55.1346 62.5017 54.8919 63.2103 54.6382L65.0439 58.833Z" fill="#AB44CF"/>
<path d="M70.9955 56.2365C71.1701 56.6175 71.098 57.0362 70.8649 57.3532C70.7524 57.5062 70.5961 57.6271 70.4071 57.7239C69.8341 57.9763 69.1721 57.7084 68.9306 57.1435L67.2134 53.2027C67.9301 52.9381 68.6279 52.6764 69.3256 52.4147L70.9955 56.2365Z" fill="#AB44CF"/>
</svg>
