<svg width="212" height="183" viewBox="0 0 212 183" fill="none" xmlns="http://www.w3.org/2000/svg">
<mask id="mask0" mask-type="alpha" maskUnits="userSpaceOnUse" x="14" y="15" width="198" height="158">
<rect x="14" y="15" width="198" height="158" rx="10" fill="white"/>
</mask>
<g mask="url(#mask0)">
<path d="M87.0395 129.614C78.8991 128.731 25.9648 135.932 14 139L14 93.1698C24.1619 93.3244 90.0637 92.771 102.868 84.8232C126.538 70.1677 142.967 76.3708 161.087 62.486C161.087 62.486 168.419 53.0295 173.671 49.086C173.671 49.086 178.304 42.694 180.118 40.7606C181.932 38.8271 186.623 43.3911 185.69 46.1565C185.69 46.1565 190.264 46.3429 187.984 52.0357C187.984 52.0357 192.811 53.9016 187.752 59.4818C187.752 59.4818 193.608 62.5649 185.788 69.6141C185.788 69.6141 192.683 70.8379 180.898 81.0431C180.898 81.0431 177.965 89.6128 177.004 93.1698C175.15 100.063 168.91 105.93 158.905 107.376C148.9 108.823 141.07 114.656 133.857 122.016C126.622 129.368 123.885 144.401 110.484 142.341C97.0747 140.231 90.6068 129.997 87.0395 129.614Z" fill="#FBC388"/>
<path d="M14 125.5C21.2731 125.508 52.0826 124.97 62.3516 125.716C71.7695 126.391 85.7757 128.687 87.9682 129.903C86.0818 129.34 83.3012 129.47 81.9254 129.527C70.8648 129.844 24.1433 136.408 14 139L14 125.5Z" fill="#EFA968"/>
<path d="M115.332 130.269C120.615 126.771 125.941 123.53 130.528 119.233C135.38 114.705 140.057 109.418 146.015 106.324C151.394 103.536 157.719 104.097 163.157 101.351C170.958 97.4001 174.64 86.7352 180.898 81.043C180.027 83.6094 177.712 90.5041 177.004 93.1697C175.15 100.062 168.91 105.93 158.905 107.376C148.9 108.823 141.07 114.656 133.857 122.016C126.622 129.368 123.885 144.401 110.484 142.341C102.314 141.085 97.3962 137.639 87.9613 129.925C88.6561 129.875 103.311 138.194 115.332 130.269Z" fill="#EFA968"/>
<path d="M165.861 64.9901C165.924 64.8643 172.509 52.1196 185.499 45.7574C185.586 45.7117 185.681 45.7171 185.777 45.7225C185.758 45.8621 185.745 45.9795 185.704 46.1122C185.414 46.2645 185.132 46.4679 184.868 46.7735C184.724 46.9229 184.618 47.1081 184.519 47.2713C172.724 53.69 166.716 65.2806 166.66 65.3842C166.547 65.5916 166.278 65.6776 166.063 65.5867C165.856 65.4736 165.77 65.2044 165.861 64.9901Z" fill="#EEA561"/>
<path d="M168.544 68.7595C168.608 68.6337 175.744 55.2846 187.85 51.6062C187.953 51.5895 188.048 51.5949 188.136 51.6224C188.095 51.7551 188.054 51.8878 187.984 52.0356C187.984 52.0356 187.984 52.0357 188.006 52.0425C187.503 52.1771 187.01 52.4361 186.66 52.8606C186.624 52.8979 186.603 52.9643 186.567 53.0016C175.76 57.1812 169.422 69.0568 169.336 69.1757C169.223 69.383 168.954 69.469 168.747 69.356C168.517 69.2361 168.453 68.9737 168.544 68.7595Z" fill="#EEA561"/>
<path d="M170.527 72.6747C170.825 72.1853 177.873 60.6032 187.693 59.0508C187.824 59.0189 187.95 59.0823 188.046 59.1609C187.961 59.2798 187.86 59.3697 187.752 59.4818C187.752 59.4818 187.752 59.4818 187.775 59.4887C187.123 59.4798 186.461 59.7348 185.902 60.3612C177.48 62.9548 171.34 73.0246 171.283 73.1283C171.17 73.3356 170.886 73.3926 170.679 73.2796C170.478 73.1445 170.414 72.8821 170.527 72.6747Z" fill="#EEA561"/>
<path d="M172.817 80.202C173.043 79.7873 178.663 70.0649 185.735 69.1611C185.888 69.136 186.014 69.1994 186.104 69.3001C186.003 69.39 185.896 69.5021 185.795 69.592C185.795 69.592 185.795 69.592 185.817 69.5989C185.335 69.6672 184.871 69.9109 184.448 70.3368C178.435 72.2009 173.637 80.5298 173.58 80.6335C173.467 80.8408 173.176 80.9199 172.969 80.8069C172.761 80.6939 172.682 80.4025 172.817 80.202Z" fill="#EEA561"/>
<path d="M175.661 46.4313C175.661 46.4313 177.545 49.0302 179.173 47.6937C180.802 46.3573 184.466 43.9325 182.834 42.5517C180.838 40.8633 180.277 40.6402 180.277 40.6402C180.277 40.6402 180.735 39.4005 175.661 46.4313Z" fill="#EED39F"/>
<path d="M180.476 49.8209C180.476 49.8209 181.639 53.0202 184.422 51.558C187.183 50.0889 187.38 47.895 185.472 46.2341L180.476 49.8209Z" fill="#EED39F"/>
<path d="M182.492 55.0318C182.492 55.0318 183.061 58.1918 185.86 57.1468C188.659 56.1017 189.357 53.7 187.627 52.1673C187.597 52.1094 182.492 55.0318 182.492 55.0318Z" fill="#EED39F"/>
<path d="M182.056 62.1231C182.056 62.1231 182.482 65.1175 185.114 64.1417C187.739 63.1881 188.486 61.0197 186.928 59.6375C186.831 59.5588 182.056 62.1231 182.056 62.1231Z" fill="#EED39F"/>
<path d="M180.716 72.3528C180.716 72.3528 181.157 74.988 183.561 73.9656C186.604 72.6812 185.809 69.936 185.256 69.764C185.079 69.7089 183.594 70.5078 182.429 71.2124C181.409 71.8408 180.716 72.3528 180.716 72.3528Z" fill="#EED39F"/>
<path d="M128.758 71.7774L110.8 80.4657C110.8 80.4657 113.806 96.4778 129.219 91.9637C144.614 87.4542 128.758 71.7774 128.758 71.7774Z" fill="#AA4D09"/>
<path d="M203.641 27.567C203.641 27.567 196.338 21.4975 189.423 27.0587C182.509 32.6198 168.633 46.1378 156.038 54.8649C138.539 66.9766 120.601 69.9651 115.995 77.0324C111.389 84.0998 124.097 89.4533 115.585 105.908C107.074 122.362 91.9464 129.998 91.2688 130.621C91.4004 135.47 112.594 155.629 121.209 154.616C129.824 153.603 154.344 115.509 154.344 115.509L177.996 87.1792L196.586 56.0834L203.641 27.567Z" fill="#CC7723"/>
<path d="M99.7243 132.292C101.524 133.647 103.18 134.523 104.611 134.869C108.878 135.891 111.864 133.373 118.825 127.076C120.267 125.769 121.835 124.362 123.555 122.868C131.815 115.68 142.852 120.735 148.497 124.218C147.44 125.747 146.291 127.397 145.06 129.127C140.62 126.435 132.696 122.847 127.471 127.384C125.779 128.862 124.244 130.241 122.836 131.52C115.8 137.885 110.719 142.479 103.224 140.701C100.825 140.132 98.2798 138.772 95.5846 136.653C94.8605 136.06 98.2914 131.213 99.7243 132.292Z" fill="#AA4D09"/>
<path d="M92.3078 133.183C100.719 129.098 108.954 123.587 115.354 111.134C120.768 100.595 121.634 96.1341 122.462 91.8124C122.977 89.185 123.493 86.4768 124.987 82.7121C127.674 75.958 135.785 71.6231 145.151 66.5986C149.598 64.2176 154.51 61.5859 159.189 58.4858C160.372 57.7026 162.94 63.1926 161.245 64.2781C156.746 67.1644 152.155 69.6196 147.975 71.8567C139.635 76.3265 132.431 80.1953 130.54 84.9193C129.243 88.1544 128.821 90.3674 128.324 92.9404C127.448 97.4444 126.467 102.567 120.656 113.854C113.796 127.21 104.621 133.639 96.0383 137.975C94.4312 136.202 93.1434 134.544 92.3078 133.183Z" fill="#AA4D09"/>
<path d="M136.991 102.309C137.509 91.8727 144.099 83.8327 149.919 76.7497C152.487 73.616 154.923 70.6445 156.639 67.7329C159.643 62.6547 158.433 59.1578 155.47 55.2304C155.662 55.1045 155.846 54.9904 156.026 54.8573C157.444 53.8776 158.887 52.8317 160.328 51.7359C163.762 56.2962 166.677 62.4888 161.776 70.7732C159.82 74.0737 157.244 77.2192 154.528 80.5387C149.049 87.2293 143.369 94.1383 142.959 102.607C142.402 113.817 152.713 116.992 153.148 117.13L153.039 117.518C152.262 118.698 151.17 120.335 149.839 122.28C144.397 120.077 136.428 113.873 136.991 102.309Z" fill="#AA4D09"/>
<path d="M159.816 88.4236C160.78 86.5452 161.73 84.6903 162.676 82.8663C170.863 66.9922 179.338 50.5968 175.155 46.274C173.851 44.9324 171.677 44.5014 169.299 44.531C171.33 42.8227 173.31 41.1161 175.212 39.4584C176.784 40.022 178.232 40.8667 179.444 42.1193C186.61 49.5194 178.801 64.6502 167.983 85.6048C167.044 87.417 166.094 89.2719 165.138 91.1385C162.433 96.4175 161.347 101.605 161.824 106.554L156.893 112.46C154.685 104.832 155.623 96.6409 159.816 88.4236Z" fill="#AA4D09"/>
<path d="M177.887 46.4628C177.61 45.8038 177.232 45.2291 176.766 44.7459C176.538 44.5079 176.285 44.2862 176.028 44.0954L176.924 42.9072C177.244 43.1535 177.55 43.4233 177.829 43.7094C178.438 44.3298 178.906 45.0743 179.255 45.9076L177.887 46.4628Z" fill="#EA9942"/>
<path d="M159.647 101.012L158.164 100.829C158.312 99.6673 158.529 98.4991 158.819 97.3437L160.272 97.7039C159.995 98.7858 159.777 99.9041 159.647 101.012Z" fill="#EA9942"/>
<path d="M172.489 42.5786L172.662 41.6925C172.845 41.5286 173.02 41.3764 173.202 41.2124C174.341 41.4761 175.362 41.8784 176.254 42.4121L175.468 43.6847C174.624 43.1801 173.619 42.8042 172.489 42.5786Z" fill="#EA9942"/>
<path d="M157.958 105.144C157.921 103.966 157.971 102.777 158.084 101.593L159.568 101.745C159.45 102.859 159.417 103.994 159.448 105.104L157.958 105.144Z" fill="#EA9942"/>
<path d="M171.793 42.4418L171.79 42.4729C171.79 42.4729 171.778 42.4656 171.759 42.4701C171.766 42.4582 171.774 42.4463 171.793 42.4418Z" fill="#EA9942"/>
<path d="M179.535 46.6665C179.856 47.7274 179.988 48.964 179.928 50.3266L178.435 50.2675C178.481 49.0592 178.371 47.9985 178.104 47.0855L179.535 46.6665Z" fill="#EA9942"/>
<path d="M177.85 54.2999C178.131 53.1064 178.318 51.9853 178.407 50.9984L179.894 51.1192C179.805 52.1868 179.612 53.3696 179.311 54.6483L177.85 54.2999Z" fill="#EA9942"/>
<path d="M176.59 62.7488L175.21 62.19C175.663 61.0865 176.076 60.0229 176.442 58.9801L177.847 59.4728C177.473 60.5273 177.046 61.6145 176.59 62.7488Z" fill="#EA9942"/>
<path d="M174.905 66.6393L173.542 66.0261C174.031 64.9445 174.486 63.8909 174.919 62.8727L176.303 63.4506C175.863 64.4805 175.401 65.5459 174.905 66.6393Z" fill="#EA9942"/>
<path d="M178.091 58.7609L176.679 58.2801C177.081 57.1285 177.415 56.0331 177.668 55.0173L179.114 55.3894C178.847 56.4286 178.503 57.5667 178.091 58.7609Z" fill="#EA9942"/>
<path d="M163.56 89.3187L162.222 88.6393L163.816 85.5551L165.135 86.239L163.56 89.3187Z" fill="#EA9942"/>
<path d="M167.677 78.0503L169.008 78.7334L167.426 81.813L166.096 81.1299L167.677 78.0503Z" fill="#EA9942"/>
<path d="M171.77 69.8466C172.282 68.7795 172.772 67.7478 173.244 66.7206L174.599 67.3456C174.128 68.3728 173.642 69.4236 173.123 70.5025L171.77 69.8466Z" fill="#EA9942"/>
<path d="M160.45 96.9676L159.011 96.5838C159.31 95.4665 159.685 94.3312 160.119 93.2323L161.514 93.7675C161.102 94.8311 160.744 95.912 160.45 96.9676Z" fill="#EA9942"/>
<path d="M158.581 110.199L158.829 110.14L158.634 110.378C158.62 110.321 158.607 110.264 158.581 110.199Z" fill="#EA9942"/>
<path d="M158.432 109.44C158.206 108.275 158.057 107.093 157.989 105.912L159.477 105.821C159.54 106.853 159.665 107.89 159.858 108.921L159.608 109.222L158.432 109.44Z" fill="#EA9942"/>
<path d="M171.261 74.2839L169.927 73.6235C170.451 72.5637 170.96 71.5274 171.455 70.5148L172.796 71.1633C172.294 72.1878 171.785 73.224 171.261 74.2839Z" fill="#EA9942"/>
<path d="M163.214 89.9841L163.139 90.1328C162.628 91.1191 162.178 92.111 161.774 93.082L160.394 92.5232C160.808 91.5095 161.279 90.4823 161.808 89.4416L161.869 89.3165L163.214 89.9841Z" fill="#EA9942"/>
<path d="M165.748 81.805L167.078 82.4901L165.492 85.5673L164.162 84.8821L165.748 81.805Z" fill="#EA9942"/>
<path d="M169.349 78.0672L168.022 77.3951C168.558 76.3425 169.072 75.3253 169.586 74.3081L170.92 74.9685C170.406 75.9857 169.884 77.0147 169.349 78.0672Z" fill="#EA9942"/>
<path d="M145.208 89.2856L143.936 88.5001C144.547 87.5103 145.186 86.554 145.856 85.6005L147.077 86.4685C146.429 87.3866 145.805 88.3193 145.208 89.2856Z" fill="#EA9942"/>
<path d="M149.558 83.1342C148.863 84.0233 148.172 84.9314 147.505 85.854L146.303 84.9816C146.977 84.0471 147.675 83.1272 148.385 82.2146L149.558 83.1342Z" fill="#EA9942"/>
<path d="M152.173 79.8988C151.455 80.7733 150.74 81.6668 150.026 82.5604L148.86 81.629C149.581 80.7237 150.307 79.8374 151.021 78.9438L152.173 79.8988Z" fill="#EA9942"/>
<path d="M153.656 75.7041L154.815 76.6473C154.17 77.4538 153.507 78.2649 152.832 79.0687L152.637 79.3061L151.478 78.363L151.68 78.1137C152.355 77.31 153.011 76.5107 153.656 75.7041Z" fill="#EA9942"/>
<path d="M139.416 100.437C139.568 99.2944 139.804 98.1217 140.125 96.9691L141.568 97.372C141.272 98.4584 141.037 99.5503 140.903 100.639L139.416 100.437Z" fill="#EA9942"/>
<path d="M158.494 69.0246L159.774 69.7982C159.512 70.2225 159.27 70.6422 158.977 71.0636C158.623 71.6102 158.239 72.154 157.847 72.7096L156.633 71.8299C157.01 71.2978 157.387 70.7658 157.726 70.2428C157.992 69.8376 158.247 69.4252 158.494 69.0246Z" fill="#EA9942"/>
<path d="M159.361 57.1271C158.906 56.2284 158.348 55.3141 157.61 54.3216L158.82 53.4414C159.595 54.5056 160.21 55.4871 160.701 56.4575L159.361 57.1271Z" fill="#EA9942"/>
<path d="M140.341 96.2238C140.679 95.1474 141.09 94.0339 141.593 92.9287L142.963 93.5301C142.496 94.5764 142.103 95.6355 141.781 96.6575L140.341 96.2238Z" fill="#EA9942"/>
<path d="M143.251 92.878L141.903 92.2412C142.379 91.233 142.938 90.195 143.547 89.1553L144.835 89.9172C144.235 90.9143 143.717 91.9124 143.251 92.878Z" fill="#EA9942"/>
<path d="M140.808 101.345C140.768 101.727 140.739 102.116 140.718 102.494C140.678 103.218 140.681 103.951 140.724 104.646L139.236 104.736C139.187 103.973 139.194 103.197 139.22 102.416C139.233 102 139.276 101.587 139.312 101.186L140.808 101.345Z" fill="#EA9942"/>
<path d="M144.665 116.321C143.775 115.495 142.986 114.585 142.307 113.629L143.522 112.768C144.141 113.638 144.869 114.461 145.684 115.224L144.665 116.321Z" fill="#EA9942"/>
<path d="M160.158 69.1239L158.849 68.3973C159.405 67.3902 159.838 66.372 160.143 65.4044L161.572 65.8308C161.233 66.9072 160.761 68.0152 160.158 69.1239Z" fill="#EA9942"/>
<path d="M148.134 118.901C147.886 118.748 147.627 118.588 147.368 118.428C146.616 117.932 145.898 117.407 145.241 116.839L146.219 115.701C146.825 116.222 147.496 116.717 148.189 117.177C148.429 117.342 148.664 117.487 148.907 117.621L148.134 118.901Z" fill="#EA9942"/>
<path d="M148.808 119.284L149.523 117.968C150.573 118.535 151.454 118.9 151.991 119.085C151.732 119.478 151.432 119.911 151.136 120.363C150.552 120.149 149.733 119.79 148.808 119.284Z" fill="#EA9942"/>
<path d="M141.673 109.251C142.036 110.272 142.539 111.25 143.121 112.178L141.862 112.98C141.219 111.965 140.682 110.884 140.266 109.765L141.673 109.251Z" fill="#EA9942"/>
<path d="M160.322 64.7179C160.58 63.6405 160.682 62.5801 160.607 61.5413L162.095 61.4507C162.175 62.6392 162.06 63.8538 161.764 65.0708L160.322 64.7179Z" fill="#EA9942"/>
<path d="M159.664 57.7697L161.03 57.1646C161.535 58.3228 161.872 59.4908 162.029 60.6613L160.544 60.8517C160.4 59.8191 160.111 58.8108 159.664 57.7697Z" fill="#EA9942"/>
<path d="M154.124 75.1306C154.845 74.2253 155.54 73.3362 156.2 72.4254L157.395 73.3096C156.736 74.2205 156.026 75.1331 155.29 76.062L154.124 75.1306Z" fill="#EA9942"/>
<path d="M141.442 108.571L140.009 109.021C139.655 107.907 139.425 106.724 139.291 105.518L140.772 105.359C140.908 106.484 141.122 107.56 141.442 108.571Z" fill="#EA9942"/>
<path d="M157.138 62.4429L157.912 63.7185C156.919 64.326 155.929 64.9026 154.938 65.4791L154.19 64.1872C155.185 63.6297 156.163 63.0459 157.138 62.4429Z" fill="#EA9942"/>
<path d="M151.29 67.5402L150.568 66.232C151.556 65.6862 152.563 65.136 153.553 64.5594L154.294 65.8631C153.292 66.4324 152.285 66.9826 151.29 67.5402Z" fill="#EA9942"/>
<path d="M124.608 92.502L126.074 92.7888C125.866 93.8644 125.643 94.9636 125.355 96.1689L123.906 95.8277C124.187 94.6342 124.402 93.5468 124.608 92.502Z" fill="#EA9942"/>
<path d="M146.891 68.2095C147.883 67.6828 148.89 67.1325 149.915 66.5777L150.63 67.8977C149.604 68.4525 148.598 69.0027 147.605 69.5294L146.891 68.2095Z" fill="#EA9942"/>
<path d="M136.746 75.6822L135.937 74.4346C136.881 73.829 137.867 73.2333 138.898 72.6169L139.647 73.9088C138.637 74.4899 137.658 75.0737 136.746 75.6822Z" fill="#EA9942"/>
<path d="M130.036 81.3859C129.367 82.2587 128.848 83.1262 128.417 84.1943L127.064 83.5384C127.481 82.4939 128.09 81.4541 128.843 80.4708L130.036 81.3859Z" fill="#EA9942"/>
<path d="M132.841 78.5285C131.919 79.3102 131.143 80.0676 130.482 80.8478L129.338 79.8811C130.054 79.0374 130.879 78.2284 131.868 77.3905L132.841 78.5285Z" fill="#EA9942"/>
<path d="M127.114 88.0446L125.671 87.6417C125.982 86.5318 126.335 85.4318 126.757 84.3256L128.159 84.849C127.751 85.9317 127.415 86.9772 127.114 88.0446Z" fill="#EA9942"/>
<path d="M136.126 76.0805C135.093 76.7777 134.197 77.4124 133.405 78.0628L132.465 76.8967C133.302 76.2256 134.22 75.5555 135.298 74.8375L136.126 76.0805Z" fill="#EA9942"/>
<path d="M146.133 68.6203L146.588 69.2269L146.836 69.933L143.928 71.5068L143.213 70.1868L146.133 68.6203Z" fill="#EA9942"/>
<path d="M140.29 73.5251L139.542 72.2332C140.518 71.6802 141.52 71.1109 142.553 70.5443L143.275 71.8525C142.242 72.4191 141.247 72.9766 140.29 73.5251Z" fill="#EA9942"/>
<path d="M124.747 91.7747C124.958 90.6682 125.181 89.569 125.486 88.39L126.932 88.762C126.642 89.9174 126.422 90.9858 126.214 92.0614L124.747 91.7747Z" fill="#EA9942"/>
<path d="M117.845 111.158C118.395 110.082 118.885 109.051 119.344 108.097L120.692 108.734C120.238 109.706 119.729 110.743 119.171 111.831L117.845 111.158Z" fill="#EA9942"/>
<path d="M121.014 108.054L119.658 107.429C120.181 106.319 120.64 105.284 121.037 104.325L122.421 104.903C122.017 105.874 121.551 106.92 121.014 108.054Z" fill="#EA9942"/>
<path d="M122.776 99.768C123.141 98.6753 123.453 97.6152 123.731 96.5333L125.177 96.9053C124.897 98.0181 124.563 99.1135 124.195 100.237L122.776 99.768Z" fill="#EA9942"/>
<path d="M122.708 104.201L121.328 103.643C121.791 102.497 122.196 101.445 122.532 100.48L123.936 100.973C123.594 101.949 123.193 103.02 122.708 104.201Z" fill="#EA9942"/>
<path d="M95.1849 134.242C96.1816 133.735 97.1694 133.189 98.1599 132.612L98.9084 133.904C97.8916 134.497 96.8848 135.047 95.8617 135.571L95.1849 134.242Z" fill="#EA9942"/>
<path d="M93.5836 135.044C93.8895 134.891 94.2072 134.745 94.5322 134.588L95.2091 135.917C94.9821 136.021 94.767 136.132 94.5401 136.236C94.1913 135.826 93.8734 135.418 93.5836 135.044Z" fill="#EA9942"/>
<path d="M105.876 129.075C104.99 129.798 104.062 130.511 103.106 131.19L102.245 129.975C103.175 129.312 104.069 128.627 104.928 127.921L105.876 129.075Z" fill="#EA9942"/>
<path d="M109.027 126.236C108.214 127.053 107.342 127.833 106.466 128.593L105.492 127.456C106.354 126.718 107.181 125.959 107.979 125.166L109.027 126.236Z" fill="#EA9942"/>
<path d="M102.488 131.638C101.553 132.282 100.576 132.916 99.564 133.528L98.7891 132.252C99.775 131.657 100.726 131.039 101.634 130.412L102.488 131.638Z" fill="#EA9942"/>
<path d="M111.9 123.111C111.155 124.002 110.362 124.864 109.554 125.699L108.491 124.652C109.278 123.852 110.036 123.019 110.767 122.152L111.9 123.111Z" fill="#EA9942"/>
<path d="M118.676 112.843C118.194 113.783 117.703 114.684 117.203 115.547L115.901 114.808C116.387 113.969 116.871 113.08 117.338 112.164L117.518 111.819L118.837 112.503L118.676 112.843Z" fill="#EA9942"/>
<path d="M116.803 116.195C116.429 116.827 116.039 117.432 115.649 118.038C115.405 118.407 115.168 118.765 114.911 119.128L113.675 118.284C114.297 117.382 114.905 116.423 115.497 115.437L116.803 116.195Z" fill="#EA9942"/>
<path d="M114.495 119.75C113.818 120.715 113.101 121.639 112.394 122.521L111.235 121.578C111.927 120.72 112.63 119.819 113.285 118.889L114.495 119.75Z" fill="#EA9942"/>
<path d="M103.75 138.503C103.592 138.471 103.452 138.433 103.301 138.389L103.727 136.959C103.848 137.001 103.976 137.031 104.092 137.054C105.053 137.29 105.959 137.377 106.853 137.326L106.924 138.819C105.9 138.87 104.859 138.764 103.75 138.503Z" fill="#EA9942"/>
<path d="M113.991 134.198L114.886 135.384C113.819 136.19 112.842 136.824 111.914 137.326L111.211 136.013C112.067 135.549 112.984 134.959 113.991 134.198Z" fill="#EA9942"/>
<path d="M144.163 124.359C145.18 124.873 146.211 125.444 147.232 126.057L147.115 126.246C146.874 126.585 146.625 126.936 146.376 127.286C145.433 126.705 144.461 126.17 143.503 125.692L144.163 124.359Z" fill="#EA9942"/>
<path d="M118.154 132.699C117.23 133.511 116.341 134.265 115.492 134.929L114.571 133.758C115.401 133.099 116.268 132.381 117.166 131.585L118.154 132.699Z" fill="#EA9942"/>
<path d="M107.74 138.736L107.55 137.252C108.556 137.124 109.548 136.809 110.587 136.312L111.238 137.657C110.036 138.233 108.903 138.592 107.74 138.736Z" fill="#EA9942"/>
<path d="M121.277 129.907C120.371 130.715 119.526 131.479 118.721 132.203L117.733 131.088C118.549 130.372 119.395 129.608 120.281 128.805L121.277 129.907Z" fill="#EA9942"/>
<path d="M131.855 123.077L131.665 121.592C132.797 121.445 134.004 121.441 135.261 121.566L135.109 123.051C133.956 122.941 132.861 122.949 131.855 123.077Z" fill="#EA9942"/>
<path d="M139.477 122.459L139.032 123.893C137.924 123.551 136.828 123.298 135.797 123.15L136.01 121.67C137.134 121.827 138.292 122.086 139.477 122.459Z" fill="#EA9942"/>
<path d="M142.835 125.378C141.791 124.88 140.746 124.463 139.727 124.111L140.208 122.699C141.27 123.061 142.373 123.515 143.471 124.029L142.835 125.378Z" fill="#EA9942"/>
<path d="M131.156 123.181C130.087 123.384 129.073 123.735 128.133 124.229L127.437 122.904C128.501 122.341 129.656 121.947 130.87 121.719L131.156 123.181Z" fill="#EA9942"/>
<path d="M124.387 127.108C123.489 127.904 122.644 128.668 121.839 129.392L120.832 128.282C121.644 127.546 122.489 126.783 123.387 125.986L124.387 127.108Z" fill="#EA9942"/>
<path d="M126.756 123.297L127.531 124.573C127.004 124.899 126.498 125.27 126.02 125.675L124.954 126.612L123.966 125.497L125.051 124.556C125.573 124.081 126.157 123.66 126.756 123.297Z" fill="#EA9942"/>
<path d="M158.323 62.9473L157.781 62.0593C157.965 61.9453 158.157 61.8194 158.341 61.7053C158.355 62.1045 158.362 62.5155 158.323 62.9473Z" fill="#EA9942"/>
<path d="M100.529 135.523C101.404 136.03 102.261 136.461 103.043 136.749L102.551 138.154C101.527 137.782 100.455 137.251 99.3359 136.56L99.6632 136.03C99.9528 135.851 100.247 135.69 100.529 135.523Z" fill="#EA9942"/>
<path d="M104.02 145.634C119.718 112.868 150.748 99.0829 168.022 77.3947C181.612 60.3319 193.398 36.7532 198.826 25.1646C201.67 25.9603 203.645 27.5858 203.645 27.5858L196.595 56.1212L178.005 87.2171L154.353 115.547C154.353 115.547 129.833 153.641 121.218 154.654C117.118 155.101 110.184 150.806 104.02 145.634Z" fill="#AA4D09"/>
<path d="M206.668 26.8805L194.341 60.4584L177.481 90.018L150.301 122.403L120.695 157.716L119.232 156.422C122.476 151.851 133.67 136.14 141.068 126.842C143.324 124.004 146.393 120.561 149.947 116.57C158.192 107.323 169.469 94.6414 179.063 79.9131C180.785 77.2818 182.409 74.6231 183.91 72.0341C196.415 50.3478 202.563 30.1565 203.832 25.781L206.668 26.8805Z" fill="#702F12"/>
<path d="M205.354 25.2395C205.354 25.2395 199.375 47.846 185.055 72.7087C170.724 97.5642 150.56 117.079 142.112 127.682C133.355 138.68 119.408 158.484 119.408 158.484L131.758 166.79C131.758 166.79 146.454 148.278 157.391 128.633C154.787 126.945 151.377 125.247 151.377 125.247C151.377 125.247 167.733 105.417 176.444 96.522C185.151 87.6085 210.762 40.9445 210.663 26.8403C209.121 26.3602 205.354 25.2395 205.354 25.2395Z" fill="#381803"/>
<path d="M129.255 165.098C136.704 157.458 150.621 134.381 154.932 127.132C155.748 127.603 156.611 128.103 157.398 128.621C146.462 148.266 131.766 166.778 131.766 166.778L129.255 165.098Z" fill="#702F12"/>
<path d="M208.744 26.2581C209.483 26.4859 210.185 26.6918 210.663 26.8403C210.762 40.9445 185.151 87.6085 176.44 96.503C175.297 97.669 174.019 99.0281 172.668 100.505C200.491 58.2982 207.138 33.5008 208.744 26.2581Z" fill="#702F12"/>
<path d="M145.909 65.4229C146.478 66.4252 147.74 66.7806 148.747 66.2304C149.749 65.6611 150.104 64.3996 149.554 63.3929C148.992 62.3788 147.723 62.0351 146.716 62.5854C145.702 63.1474 145.347 64.4089 145.909 65.4229Z" fill="#381803"/>
<path d="M140.248 68.5845C140.817 69.5868 142.078 69.9422 143.085 69.392C144.087 68.8227 144.443 67.5612 143.893 66.5544C143.323 65.5522 142.062 65.1967 141.055 65.747C140.041 66.309 139.69 67.5895 140.248 68.5845Z" fill="#381803"/>
<path d="M134.579 71.7576C135.148 72.7598 136.41 73.1153 137.417 72.565C138.419 71.9957 138.774 70.7343 138.224 69.7275C137.655 68.7252 136.393 68.3698 135.387 68.92C134.384 69.4893 134.022 70.7626 134.579 71.7576Z" fill="#381803"/>
<path d="M128.922 74.9381C129.492 75.9404 130.753 76.2958 131.76 75.7455C132.762 75.1762 133.117 73.9148 132.567 72.908C131.998 71.9057 130.736 71.5503 129.73 72.1006C128.716 72.6626 128.353 73.9358 128.922 74.9381Z" fill="#381803"/>
<path d="M123.254 78.1113C123.823 79.1136 125.085 79.469 126.091 78.9188C127.094 78.3495 127.449 77.088 126.899 76.0812C126.329 75.079 125.068 74.7235 124.061 75.2738C123.047 75.8358 122.692 77.0973 123.254 78.1113Z" fill="#381803"/>
<path d="M125.89 76.2396C126.099 76.6127 126.065 77.0635 125.854 77.4053C125.759 77.5585 125.625 77.6708 125.467 77.7685C124.924 78.0681 124.245 77.8767 123.945 77.3338L120.546 71.2658C121.176 70.9055 121.824 70.5408 122.515 70.1861L125.89 76.2396Z" fill="#AA4D09"/>
<path d="M131.551 73.0783C131.76 73.4514 131.726 73.9022 131.515 74.2439C131.42 74.3971 131.286 74.5094 131.128 74.6072C130.585 74.9068 129.906 74.7154 129.606 74.1725L126.347 68.3532C127.021 68.0529 127.701 67.7408 128.394 67.436L131.551 73.0783Z" fill="#AA4D09"/>
<path d="M134.367 64.8247L137.208 69.8978C137.417 70.2709 137.383 70.7217 137.172 71.0635C137.077 71.2167 136.943 71.329 136.785 71.4267C136.242 71.7263 135.563 71.5349 135.263 70.992L132.315 65.7229C132.982 65.4344 133.667 65.1413 134.367 64.8247Z" fill="#AA4D09"/>
<path d="M142.876 66.7244C143.085 67.0976 143.051 67.5484 142.84 67.8901C142.746 68.0433 142.611 68.1556 142.454 68.2534C141.911 68.553 141.231 68.3616 140.932 67.8187L138.267 63.0661C138.941 62.7658 139.61 62.4464 140.305 62.1108L142.876 66.7244Z" fill="#AA4D09"/>
<path d="M148.538 63.5631C148.747 63.9362 148.713 64.3871 148.502 64.7288C148.407 64.882 148.273 64.9943 148.115 65.0921C147.572 65.3916 146.893 65.2002 146.593 64.6574L144.105 60.2252C144.769 59.8868 145.422 59.5411 146.094 59.1909L148.538 63.5631Z" fill="#AA4D09"/>
</g>
</svg>
