<svg width="133" height="161" viewBox="0 0 133 161" fill="none" xmlns="http://www.w3.org/2000/svg">
<path d="M94.6923 52.0264C94.6923 52.0264 62.9309 74.1766 20.9799 80.4665C23.8274 89.5854 35.0845 93.4364 39.5099 92.8606C43.9352 92.2848 96.3977 58.5265 96.3977 58.5265L94.6923 52.0264Z" fill="#E8390A"/>
<path d="M95.2106 44.0722C95.2106 44.0722 91.9473 54.682 78.4251 65.9289C62.1511 79.4647 31.42 85.5289 28.2852 92.9385C25.1503 100.348 20.0919 118.778 10.1474 128.537C25.134 137.487 35.2773 136.754 42.5364 141.391C49.7835 146.023 62.0258 153.978 68.8535 152.16C75.6813 150.343 105.181 76.8848 105.181 76.8848L112.221 43.9111L95.2106 44.0722Z" fill="#FC643A"/>
<path d="M28.285 92.9385C31.4198 85.5289 62.151 79.4647 78.4249 65.9289C91.9527 54.67 95.2105 44.0721 95.2105 44.0721L103.435 44.0011L103.838 51.3738C103.838 51.3738 95.1147 71.1646 66.6178 87.1142C55.0242 93.6143 39.8119 100.391 24.4396 103.136C26.0105 99.0109 27.2547 95.3762 28.285 92.9385Z" fill="#F4502A"/>
<path d="M43.4133 141.953C47.9879 134.767 60.772 119.545 85.924 121.937C78.8046 137.531 71.762 151.37 68.8412 152.155C62.2895 153.91 50.739 146.636 43.4133 141.953Z" fill="#F4502A"/>
<path d="M107.747 29.5799C107.747 29.5799 99.3527 31.1008 92.1444 49.4909C96.913 54.8634 108.346 54.8082 109.682 52.656C110.32 46.343 107.747 29.5799 107.747 29.5799Z" fill="#E2E2E2"/>
<path d="M88.6459 130.315C92.8184 121.213 97.1046 111.45 101.16 102.222C104.947 93.6127 108.519 85.4722 111.683 78.5707C121.064 58.1067 121 30.6645 120.996 29.4987C120.996 29.4987 113.807 25.3739 107.747 29.5798C107.612 31.5257 107.782 55.277 99.6351 73.0478C96.4272 80.0455 92.8334 88.234 89.0246 96.8915C80.0608 117.27 65.3305 149.498 62.937 152.053C64.9255 158.697 74.3172 158.841 74.3172 158.841C78.4289 151.967 83.4427 141.665 88.6459 130.315Z" fill="#E2E2E2"/>
<path d="M68.421 157.579C67.8449 157.344 67.2788 157.055 66.7292 156.73C74.2095 143.936 85.3767 118.878 95.245 96.7166C98.7105 88.9349 101.984 81.6035 104.817 75.4234C113.504 56.4743 113.443 29.8192 113.446 29.5587L115.34 29.5538C115.343 29.8319 115.412 56.8833 106.549 76.2171C103.721 82.3852 100.447 89.7165 96.9874 97.4863C93.0268 106.38 88.8513 115.742 84.7946 124.591C78.7305 137.788 72.924 149.851 68.421 157.579Z" fill="#232323"/>
<path d="M107.747 29.5799C107.746 29.3905 107.746 29.2011 107.745 29.0117C113.918 24.9736 120.941 28.9205 121.242 29.0879L121.472 29.2222L121.475 29.5002C121.482 30.5653 121.526 53.735 114.308 73.4157C112.055 72.7757 103.78 70.1318 101.189 69.308C107.758 52.1233 107.619 31.3834 107.747 29.5799Z" fill="#C1C1C1"/>
<path d="M78.0986 122.948C82.4089 113.545 86.7453 103.864 89.6796 97.1773C93.4773 88.5439 97.0601 80.3794 100.285 73.3456C103.674 65.9512 107.832 52.5648 108.413 30.7294C108.43 30.1843 108.442 29.811 108.448 29.6392C108.482 29.2474 108.186 28.9082 107.789 28.8862C107.397 28.8521 107.058 29.1476 107.036 29.5449C107.024 29.7288 107.014 30.1316 106.998 30.7062C106.426 52.2987 102.327 65.4937 98.9925 72.7679C95.768 79.8017 92.1798 87.9782 88.3821 96.6116C78.9186 118.144 64.6288 149.22 62.4297 151.573C62.1672 151.86 62.1822 152.304 62.4637 152.578C62.7508 152.841 63.1942 152.826 63.4687 152.544C65.0791 150.809 71.5725 137.184 78.0986 122.948Z" fill="#232323"/>
<path d="M82.2636 70.4097C82.9077 71.6071 84.4147 72.0651 85.6242 71.4265C86.8391 70.7758 87.2796 69.2753 86.641 68.0658C86.0023 66.8564 84.4898 66.4104 83.2803 67.0491C82.0654 67.6998 81.6073 69.2067 82.2636 70.4097Z" fill="black"/>
<path d="M74.5494 74.5415C75.1881 75.751 76.7006 76.197 77.91 75.5583C79.125 74.9076 79.5655 73.4071 78.9268 72.1977C78.2706 70.9947 76.7757 70.5422 75.5662 71.1809C74.3633 71.8371 73.9107 73.3321 74.5494 74.5415Z" fill="black"/>
<path d="M66.8474 78.6785C67.4981 79.8935 68.9986 80.334 70.208 79.6953C71.423 79.0446 71.8635 77.5441 71.2248 76.3347C70.5686 75.1317 69.0736 74.6792 67.8642 75.3179C66.6492 75.9686 66.2087 77.4691 66.8474 78.6785Z" fill="black"/>
<path d="M59.1332 82.8102C59.7839 84.0252 61.2843 84.4657 62.4938 83.827C63.7087 83.1763 64.1492 81.6758 63.5106 80.4664C62.8543 79.2634 61.3594 78.8109 60.1499 79.4496C58.9525 80.0938 58.4945 81.6007 59.1332 82.8102Z" fill="black"/>
<path d="M51.4365 86.9354C52.0752 88.1448 53.5876 88.5908 54.7971 87.9522C56.0121 87.3015 56.4646 85.8065 55.8139 84.5915C55.1752 83.3821 53.6627 82.9361 52.4533 83.5748C51.2383 84.2255 50.7923 85.7379 51.4365 86.9354Z" fill="black"/>
<path d="M43.7345 91.0726C44.3907 92.2756 45.8857 92.7281 47.0951 92.0894C48.3101 91.4387 48.7506 89.9383 48.1119 88.7288C47.4732 87.5193 45.9607 87.0733 44.7513 87.712C43.5363 88.3627 43.0838 89.8577 43.7345 91.0726Z" fill="black"/>
<path d="M37.0596 76.2415C37.9635 76.0156 38.8608 75.7722 39.7405 75.5353L46.9103 88.9054C47.264 89.5623 47.0194 90.3814 46.3626 90.735C45.7058 91.0887 44.8866 90.8441 44.533 90.1873L37.0596 76.2415Z" fill="#E2E2E2"/>
<path d="M45.6836 73.8075C46.5623 73.541 47.4346 73.257 48.3013 72.9851L54.6245 84.774C54.9782 85.4309 54.7336 86.25 54.0768 86.6036C53.42 86.9573 52.6009 86.7127 52.2472 86.0559L45.6836 73.8075Z" fill="#E2E2E2"/>
<path d="M54.0875 70.996C54.9588 70.6824 55.8005 70.3699 56.6422 70.0573L62.3212 80.6488C62.6748 81.3057 62.4303 82.1248 61.7734 82.4784C61.1166 82.8321 60.2975 82.5875 59.9438 81.9307L54.0875 70.996Z" fill="#E2E2E2"/>
<path d="M62.3197 67.8292C63.1659 67.4751 64.0066 67.133 64.8232 66.7798L70.0409 76.5051C70.3946 77.1619 70.15 77.981 69.4932 78.3347C68.8363 78.6883 68.0172 78.4438 67.6636 77.787L62.3197 67.8292Z" fill="#E2E2E2"/>
<path d="M70.3571 64.3259C71.1903 63.9367 72.0059 63.554 72.804 63.1778L77.7377 72.38C78.0913 73.0368 77.8468 73.8559 77.1779 74.2041C76.5211 74.5577 75.702 74.3132 75.3483 73.6563L70.3571 64.3259Z" fill="#E2E2E2"/>
<path d="M78.2234 60.4967C79.0436 60.0724 79.8462 59.6546 80.6138 59.2499L85.4462 68.2602C85.7999 68.917 85.5553 69.7362 84.8985 70.0898C84.2417 70.4435 83.4226 70.1989 83.0689 69.5421L78.2234 60.4967Z" fill="#E2E2E2"/>
<path d="M37.8743 129.025C44.0544 131.858 51.3666 129.143 54.1997 122.963C57.0328 116.783 54.3175 109.471 48.1374 106.637C41.9573 103.804 34.645 106.52 31.8119 112.7C28.9788 118.88 31.6942 126.192 37.8743 129.025Z" fill="#C1C1C1"/>
<path d="M38.927 126.729C43.8446 128.983 49.6488 126.828 51.9032 121.91C54.152 117.004 52.0022 111.188 47.0846 108.934C42.1669 106.679 36.3627 108.835 34.1083 113.752C31.8595 118.658 34.0093 124.474 38.927 126.729Z" fill="#E2E2E2"/>
<path d="M40.4098 123.494C43.5359 124.928 47.2359 123.554 48.669 120.427C50.102 117.301 48.7281 113.601 45.602 112.168C42.4759 110.735 38.7759 112.109 37.3428 115.235C35.8977 118.356 37.2716 122.056 40.4098 123.494Z" fill="#FC643A"/>
</svg>
