<svg width="140" height="168" viewBox="0 0 140 168" fill="none" xmlns="http://www.w3.org/2000/svg">
<path d="M50.7577 71.7774L32.8004 80.4657C32.8004 80.4657 35.806 96.4778 51.2195 91.9637C66.6139 87.4542 50.7577 71.7774 50.7577 71.7774Z" fill="#AA4D09"/>
<path d="M125.641 27.567C125.641 27.567 118.338 21.4975 111.423 27.0587C104.509 32.6198 90.6328 46.1378 78.0379 54.8649C60.5389 66.9766 42.6008 69.9651 37.9949 77.0324C33.389 84.0998 46.0972 89.4533 37.5854 105.908C29.0737 122.362 13.9464 129.998 13.2688 130.621C13.4004 135.47 34.5941 155.629 43.2092 154.616C51.8242 153.603 76.3442 115.509 76.3442 115.509L99.996 87.1792L118.586 56.0834L125.641 27.567Z" fill="#CC7723"/>
<path d="M21.7243 132.292C23.5242 133.647 25.1805 134.523 26.6106 134.869C30.8776 135.891 33.8637 133.373 40.8255 127.076C42.2669 125.769 43.8354 124.362 45.5547 122.868C53.8149 115.68 64.8524 120.735 70.4969 124.218C69.4398 125.747 68.291 127.397 67.0604 129.127C62.6196 126.435 54.6964 122.847 49.4715 127.384C47.7786 128.862 46.2436 130.241 44.8358 131.52C37.7996 137.885 32.7188 142.479 25.2241 140.701C22.8254 140.132 20.2798 138.772 17.5846 136.653C16.8605 136.06 20.2914 131.213 21.7243 132.292Z" fill="#AA4D09"/>
<path d="M14.3078 133.183C22.7191 129.098 30.9535 123.587 37.3536 111.134C42.7678 100.595 43.6336 96.1341 44.462 91.8124C44.9771 89.185 45.4932 86.4768 46.9868 82.7121C49.6745 75.958 57.7849 71.6231 67.1509 66.5986C71.5983 64.2176 76.5096 61.5859 81.1892 58.4858C82.3723 57.7026 84.9398 63.1926 83.2446 64.2781C78.7458 67.1644 74.155 69.6196 69.9754 71.8567C61.6352 76.3265 54.4308 80.1953 52.5404 84.9193C51.2435 88.1544 50.8215 90.3674 50.3237 92.9404C49.4479 97.4444 48.4669 102.567 42.6562 113.854C35.7959 127.21 26.6214 133.639 18.0383 137.975C16.4312 136.202 15.1434 134.544 14.3078 133.183Z" fill="#AA4D09"/>
<path d="M58.9915 102.309C59.5095 91.8727 66.0988 83.8327 71.9186 76.7497C74.4872 73.616 76.9233 70.6445 78.6389 67.7329C81.6429 62.6547 80.4327 59.1578 77.4704 55.2304C77.662 55.1045 77.8463 54.9904 78.0261 54.8573C79.4444 53.8776 80.8873 52.8317 82.3284 51.7359C85.7625 56.2962 88.6774 62.4888 83.776 70.7732C81.8203 74.0737 79.2444 77.2192 76.5285 80.5387C71.0485 87.2293 65.3687 94.1383 64.9585 102.607C64.4024 113.817 74.7129 116.992 75.1482 117.13L75.0388 117.518C74.2616 118.698 73.17 120.335 71.8393 122.28C66.3973 120.077 58.4285 113.873 58.9915 102.309Z" fill="#AA4D09"/>
<path d="M81.816 88.4236C82.7801 86.5452 83.7296 84.6903 84.6764 82.8663C92.8626 66.9922 101.338 50.5968 97.1551 46.274C95.8515 44.9324 93.6766 44.5014 91.2988 44.531C93.3295 42.8227 95.3103 41.1161 97.2121 39.4584C98.7844 40.022 100.232 40.8667 101.444 42.1193C108.61 49.5194 100.801 64.6502 89.9835 85.6048C89.044 87.417 88.0945 89.2719 87.1377 91.1385C84.4328 96.4175 83.3465 101.605 83.8236 106.554L78.8927 112.46C76.6845 104.832 77.6232 96.6409 81.816 88.4236Z" fill="#AA4D09"/>
<path d="M99.8867 46.4628C99.6099 45.8038 99.2324 45.2291 98.7658 44.7459C98.5384 44.5079 98.2847 44.2862 98.0282 44.0954L98.9242 42.9072C99.2441 43.1535 99.5495 43.4233 99.8286 43.7094C100.438 44.3298 100.906 45.0743 101.255 45.9076L99.8867 46.4628Z" fill="#EA9942"/>
<path d="M81.6466 101.012L80.1645 100.829C80.312 99.6673 80.5285 98.4991 80.8185 97.3437L82.2723 97.7039C81.9951 98.7858 81.7768 99.9041 81.6466 101.012Z" fill="#EA9942"/>
<path d="M94.4894 42.5786L94.662 41.6925C94.8446 41.5286 95.0199 41.3764 95.2024 41.2124C96.3415 41.4761 97.3625 41.8784 98.2535 42.4121L97.4681 43.6847C96.6241 43.1801 95.6195 42.8042 94.4894 42.5786Z" fill="#EA9942"/>
<path d="M79.9583 105.144C79.9208 103.966 79.9714 102.777 80.0836 101.593L81.5685 101.745C81.45 102.859 81.4168 103.994 81.448 105.104L79.9583 105.144Z" fill="#EA9942"/>
<path d="M93.7929 42.4418L93.7901 42.4729C93.7901 42.4729 93.7782 42.4656 93.759 42.4701C93.7663 42.4582 93.7737 42.4463 93.7929 42.4418Z" fill="#EA9942"/>
<path d="M101.535 46.6665C101.856 47.7274 101.988 48.964 101.928 50.3266L100.435 50.2675C100.481 49.0592 100.371 47.9985 100.104 47.0855L101.535 46.6665Z" fill="#EA9942"/>
<path d="M99.85 54.2999C100.131 53.1064 100.318 51.9853 100.407 50.9984L101.894 51.1192C101.805 52.1868 101.612 53.3696 101.311 54.6483L99.85 54.2999Z" fill="#EA9942"/>
<path d="M98.59 62.7488L97.21 62.19C97.6632 61.0865 98.0755 60.0229 98.4425 58.9801L99.8471 59.4728C99.4728 60.5273 99.0459 61.6145 98.59 62.7488Z" fill="#EA9942"/>
<path d="M96.9048 66.6393L95.5421 66.0261C96.0307 64.9445 96.4856 63.8909 96.9188 62.8727L98.3033 63.4506C97.8629 64.4805 97.4006 65.5459 96.9048 66.6393Z" fill="#EA9942"/>
<path d="M100.091 58.7609L98.6792 58.2801C99.0808 57.1285 99.4152 56.0331 99.6678 55.0173L101.114 55.3894C100.847 56.4286 100.503 57.5667 100.091 58.7609Z" fill="#EA9942"/>
<path d="M85.5598 89.3187L84.2217 88.6393L85.816 85.5551L87.135 86.239L85.5598 89.3187Z" fill="#EA9942"/>
<path d="M89.6771 78.0503L91.0075 78.7334L89.4262 81.813L88.0958 81.1299L89.6771 78.0503Z" fill="#EA9942"/>
<path d="M93.7699 69.8466C94.282 68.7795 94.7723 67.7478 95.2436 66.7206L96.599 67.3456C96.1278 68.3728 95.642 69.4236 95.1225 70.5025L93.7699 69.8466Z" fill="#EA9942"/>
<path d="M82.4501 96.9676L81.0109 96.5838C81.3099 95.4665 81.6852 94.3312 82.1193 93.2323L83.5139 93.7675C83.1015 94.8311 82.7436 95.912 82.4501 96.9676Z" fill="#EA9942"/>
<path d="M80.5813 110.199L80.829 110.14L80.6337 110.378C80.6201 110.321 80.6066 110.264 80.5813 110.199Z" fill="#EA9942"/>
<path d="M80.4317 109.44C80.2064 108.275 80.0573 107.093 79.989 105.912L81.4769 105.821C81.54 106.853 81.6647 107.89 81.8584 108.921L81.6077 109.222L80.4317 109.44Z" fill="#EA9942"/>
<path d="M93.2606 74.2839L91.927 73.6235C92.4509 72.5637 92.9603 71.5274 93.4551 70.5148L94.796 71.1633C94.2939 72.1878 93.7845 73.224 93.2606 74.2839Z" fill="#EA9942"/>
<path d="M85.2142 89.9841L85.1387 90.1328C84.6276 91.1191 84.1781 92.111 83.7741 93.082L82.3941 92.5232C82.8082 91.5095 83.2794 90.4823 83.8079 89.4416L83.8688 89.3165L85.2142 89.9841Z" fill="#EA9942"/>
<path d="M87.7484 81.805L89.0777 82.4901L87.4918 85.5673L86.1625 84.8821L87.7484 81.805Z" fill="#EA9942"/>
<path d="M91.3488 78.0672L90.0224 77.3951C90.5581 76.3425 91.072 75.3253 91.5859 74.3081L92.9195 74.9685C92.4056 75.9857 91.8845 77.0147 91.3488 78.0672Z" fill="#EA9942"/>
<path d="M67.2085 89.2856L65.9358 88.5001C66.5467 87.5103 67.1857 86.554 67.8556 85.6005L69.0773 86.4685C68.4293 87.3866 67.8048 88.3193 67.2085 89.2856Z" fill="#EA9942"/>
<path d="M71.5583 83.1342C70.8631 84.0233 70.1725 84.9314 69.5054 85.854L68.3027 84.9816C68.9771 84.0471 69.675 83.1272 70.3847 82.2146L71.5583 83.1342Z" fill="#EA9942"/>
<path d="M74.1733 79.8988C73.4546 80.7733 72.7403 81.6668 72.0261 82.5604L70.8598 81.629C71.5813 80.7237 72.3073 79.8374 73.0215 78.9438L74.1733 79.8988Z" fill="#EA9942"/>
<path d="M75.6557 75.7041L76.8147 76.6473C76.1705 77.4538 75.5072 78.2649 74.8321 79.0687L74.6367 79.3061L73.4777 78.363L73.6803 78.1137C74.3554 77.31 75.0114 76.5107 75.6557 75.7041Z" fill="#EA9942"/>
<path d="M61.4161 100.437C61.5682 99.2944 61.8038 98.1217 62.1246 96.9691L63.5683 97.372C63.2721 98.4584 63.0375 99.5503 62.9027 100.639L61.4161 100.437Z" fill="#EA9942"/>
<path d="M80.4942 69.0246L81.7742 69.7982C81.5123 70.2225 81.2696 70.6422 80.9769 71.0636C80.6233 71.6102 80.2389 72.154 79.8471 72.7096L78.6327 71.8299C79.0098 71.2978 79.387 70.7658 79.7261 70.2428C79.9924 69.8376 80.247 69.4252 80.4942 69.0246Z" fill="#EA9942"/>
<path d="M81.3606 57.1271C80.9064 56.2284 80.3478 55.3141 79.6098 54.3216L80.8202 53.4414C81.5953 54.5056 82.21 55.4871 82.7014 56.4575L81.3606 57.1271Z" fill="#EA9942"/>
<path d="M62.3405 96.2238C62.6794 95.1474 63.09 94.0339 63.5931 92.9287L64.9631 93.5301C64.4963 94.5764 64.1031 95.6355 63.7815 96.6575L62.3405 96.2238Z" fill="#EA9942"/>
<path d="M65.2514 92.878L63.9032 92.2412C64.379 91.233 64.9382 90.195 65.5474 89.1553L66.8346 89.9172C66.2355 90.9143 65.7171 91.9124 65.2514 92.878Z" fill="#EA9942"/>
<path d="M62.8084 101.345C62.768 101.727 62.7393 102.116 62.718 102.494C62.678 103.218 62.6807 103.951 62.7243 104.646L61.2364 104.736C61.1866 103.973 61.1939 103.197 61.2203 102.416C61.2327 102 61.2758 101.587 61.3117 101.186L62.8084 101.345Z" fill="#EA9942"/>
<path d="M66.6652 116.321C65.7754 115.495 64.9864 114.585 64.3073 113.629L65.5222 112.768C66.1407 113.638 66.869 114.461 67.6835 115.224L66.6652 116.321Z" fill="#EA9942"/>
<path d="M82.1579 69.1239L80.8488 68.3973C81.4053 67.3902 81.8385 66.372 82.1427 65.4044L83.5719 65.8308C83.233 66.9072 82.7608 68.0152 82.1579 69.1239Z" fill="#EA9942"/>
<path d="M70.1337 118.901C69.8862 118.748 69.6269 118.588 69.3677 118.428C68.6163 117.932 67.8985 117.407 67.2406 116.839L68.2191 115.701C68.8254 116.222 69.496 116.717 70.1885 117.177C70.4287 117.342 70.6644 117.487 70.9073 117.621L70.1337 118.901Z" fill="#EA9942"/>
<path d="M70.8082 119.284L71.523 117.968C72.5727 118.535 73.454 118.9 73.9909 119.085C73.7318 119.478 73.4319 119.911 73.1364 120.363C72.5525 120.149 71.7329 119.79 70.8082 119.284Z" fill="#EA9942"/>
<path d="M63.6734 109.251C64.0359 110.272 64.539 111.25 65.1211 112.178L63.8618 112.98C63.219 111.965 62.6816 110.884 62.2657 109.765L63.6734 109.251Z" fill="#EA9942"/>
<path d="M82.3223 64.7179C82.5804 63.6405 82.6816 62.5801 82.6068 61.5413L84.0947 61.4507C84.1748 62.6392 84.0598 63.8538 83.7643 65.0708L82.3223 64.7179Z" fill="#EA9942"/>
<path d="M81.6636 57.7697L83.0297 57.1646C83.5353 58.3228 83.8722 59.4908 84.0285 60.6613L82.5441 60.8517C82.4003 59.8191 82.1113 58.8108 81.6636 57.7697Z" fill="#EA9942"/>
<path d="M76.1236 75.1306C76.8451 74.2253 77.5403 73.3362 78.2001 72.4254L79.3955 73.3096C78.7357 74.2205 78.026 75.1331 77.29 76.062L76.1236 75.1306Z" fill="#EA9942"/>
<path d="M63.4422 108.571L62.0092 109.021C61.655 107.907 61.4252 106.724 61.2907 105.518L62.7723 105.359C62.9078 106.484 63.1224 107.56 63.4422 108.571Z" fill="#EA9942"/>
<path d="M79.1375 62.4429L79.9124 63.7185C78.9191 64.326 77.9287 64.9026 76.9382 65.4791L76.1896 64.1872C77.1846 63.6297 78.1633 63.0459 79.1375 62.4429Z" fill="#EA9942"/>
<path d="M73.2904 67.5402L72.5682 66.232C73.5559 65.6862 74.5627 65.136 75.5532 64.5594L76.2945 65.8631C75.2922 66.4324 74.2854 66.9826 73.2904 67.5402Z" fill="#EA9942"/>
<path d="M46.6077 92.502L48.0742 92.7888C47.866 93.8644 47.6432 94.9636 47.355 96.1689L45.9057 95.8277C46.1867 94.6342 46.4022 93.5468 46.6077 92.502Z" fill="#EA9942"/>
<path d="M68.8905 68.2095C69.8827 67.6828 70.8895 67.1325 71.9154 66.5777L72.6303 67.8977C71.6045 68.4525 70.5977 69.0027 69.6055 69.5294L68.8905 68.2095Z" fill="#EA9942"/>
<path d="M58.7458 75.6822L57.9374 74.4346C58.8807 73.829 59.8667 73.2333 60.8981 72.6169L61.6466 73.9088C60.6371 74.4899 59.6584 75.0737 58.7458 75.6822Z" fill="#EA9942"/>
<path d="M52.0361 81.3859C51.3673 82.2587 50.8481 83.1262 50.4167 84.1943L49.0641 83.5384C49.4809 82.4939 50.0901 81.4541 50.8434 80.4708L52.0361 81.3859Z" fill="#EA9942"/>
<path d="M54.8413 78.5285C53.9195 79.3102 53.1429 80.0676 52.4823 80.8478L51.3378 79.8811C52.0538 79.0374 52.8785 78.2284 53.8676 77.3905L54.8413 78.5285Z" fill="#EA9942"/>
<path d="M49.1144 88.0446L47.6707 87.6417C47.9815 86.5318 48.3349 85.4318 48.7573 84.3256L50.1591 84.849C49.7513 85.9317 49.4152 86.9772 49.1144 88.0446Z" fill="#EA9942"/>
<path d="M58.1256 76.0805C57.0932 76.7777 56.197 77.4124 55.4051 78.0628L54.4649 76.8967C55.3022 76.2256 56.2202 75.5555 57.298 74.8375L58.1256 76.0805Z" fill="#EA9942"/>
<path d="M68.1326 68.6203L68.5881 69.2269L68.8358 69.933L65.928 71.5068L65.213 70.1868L68.1326 68.6203Z" fill="#EA9942"/>
<path d="M62.2903 73.5251L61.5417 72.2332C62.5177 71.6802 63.5199 71.1109 64.5531 70.5443L65.2753 71.8525C64.2422 72.4191 63.2472 72.9766 62.2903 73.5251Z" fill="#EA9942"/>
<path d="M46.7473 91.7747C46.9583 90.6682 47.1811 89.569 47.4857 88.39L48.9321 88.762C48.6421 89.9174 48.4221 90.9858 48.2139 92.0614L46.7473 91.7747Z" fill="#EA9942"/>
<path d="M39.8447 111.158C40.395 110.082 40.8853 109.051 41.3438 108.097L42.6919 108.734C42.238 109.706 41.7286 110.743 41.1711 111.831L39.8447 111.158Z" fill="#EA9942"/>
<path d="M43.0139 108.054L41.6585 107.429C42.1806 106.319 42.6401 105.284 43.0369 104.325L44.4214 104.903C44.0173 105.874 43.5506 106.92 43.0139 108.054Z" fill="#EA9942"/>
<path d="M44.7757 99.768C45.1409 98.6753 45.4534 97.6152 45.7306 96.5333L47.1771 96.9053C46.8971 98.0181 46.5627 99.1135 46.1948 100.237L44.7757 99.768Z" fill="#EA9942"/>
<path d="M44.7081 104.201L43.3281 103.643C43.7913 102.497 44.1964 101.445 44.5315 100.48L45.9361 100.973C45.5937 101.949 45.1932 103.02 44.7081 104.201Z" fill="#EA9942"/>
<path d="M17.1849 134.242C18.1816 133.735 19.1694 133.189 20.1599 132.612L20.9084 133.904C19.8916 134.497 18.8848 135.047 17.8617 135.571L17.1849 134.242Z" fill="#EA9942"/>
<path d="M15.5836 135.044C15.8895 134.891 16.2072 134.745 16.5322 134.588L17.2091 135.917C16.9821 136.021 16.767 136.132 16.5401 136.236C16.1913 135.826 15.8734 135.418 15.5836 135.044Z" fill="#EA9942"/>
<path d="M27.8756 129.075C26.9902 129.798 26.0621 130.511 25.106 131.19L24.2448 129.975C25.1746 129.312 26.0691 128.627 26.9282 127.921L27.8756 129.075Z" fill="#EA9942"/>
<path d="M31.0273 126.236C30.2143 127.053 29.3423 127.833 28.4659 128.593L27.4922 127.456C28.3541 126.718 29.1806 125.959 29.979 125.166L31.0273 126.236Z" fill="#EA9942"/>
<path d="M24.4876 131.638C23.5532 132.282 22.5763 132.916 21.564 133.528L20.7891 132.252C21.775 131.657 22.7257 131.039 23.6337 130.412L24.4876 131.638Z" fill="#EA9942"/>
<path d="M33.8997 123.111C33.1547 124.002 32.3625 124.864 31.554 125.699L30.4912 124.652C31.2779 123.852 32.0365 123.019 32.767 122.152L33.8997 123.111Z" fill="#EA9942"/>
<path d="M40.6762 112.843C40.1942 113.783 39.7031 114.684 39.2031 115.547L37.9013 114.808C38.3868 113.969 38.8706 113.08 39.3381 112.164L39.5182 111.819L40.8372 112.503L40.6762 112.843Z" fill="#EA9942"/>
<path d="M38.803 116.195C38.4293 116.827 38.0393 117.432 37.6493 118.038C37.4048 118.407 37.1676 118.765 36.9113 119.128L35.675 118.284C36.2967 117.382 36.9048 116.423 37.4967 115.437L38.803 116.195Z" fill="#EA9942"/>
<path d="M36.495 119.75C35.8179 120.715 35.101 121.639 34.394 122.521L33.235 121.578C33.9274 120.72 34.6298 119.819 35.2851 118.889L36.495 119.75Z" fill="#EA9942"/>
<path d="M25.7504 138.503C25.5917 138.471 25.4521 138.433 25.3006 138.389L25.727 136.959C25.8476 137.001 25.9755 137.031 26.0916 137.054C27.0529 137.29 27.9591 137.377 28.8527 137.326L28.9243 138.819C27.9 138.87 26.8587 138.764 25.7504 138.503Z" fill="#EA9942"/>
<path d="M35.9908 134.198L36.8855 135.384C35.8185 136.19 34.8416 136.824 33.9138 137.326L33.2106 136.013C34.0667 135.549 34.9837 134.959 35.9908 134.198Z" fill="#EA9942"/>
<path d="M66.1631 124.359C67.1803 124.873 68.211 125.444 69.2317 126.057L69.1153 126.246C68.8736 126.585 68.6246 126.936 68.3755 127.286C67.4328 126.705 66.461 126.17 65.5027 125.692L66.1631 124.359Z" fill="#EA9942"/>
<path d="M40.1543 132.699C39.2297 133.511 38.3415 134.265 37.4924 134.929L36.5713 133.758C37.4013 133.099 38.2677 132.381 39.166 131.585L40.1543 132.699Z" fill="#EA9942"/>
<path d="M29.74 138.736L29.5496 137.252C30.5558 137.124 31.5478 136.809 32.5872 136.312L33.2377 137.657C32.0358 138.233 30.9032 138.592 29.74 138.736Z" fill="#EA9942"/>
<path d="M43.2766 129.907C42.3711 130.715 41.5255 131.479 40.7208 132.203L39.7325 131.088C40.549 130.372 41.3946 129.608 42.2811 128.805L43.2766 129.907Z" fill="#EA9942"/>
<path d="M53.8552 123.077L53.6648 121.592C54.7972 121.445 56.0037 121.441 57.2609 121.566L57.1093 123.051C55.9564 122.941 54.8614 122.949 53.8552 123.077Z" fill="#EA9942"/>
<path d="M61.4771 122.459L61.0317 123.893C59.9244 123.551 58.828 123.298 57.7967 123.15L58.01 121.67C59.1338 121.827 60.2919 122.086 61.4771 122.459Z" fill="#EA9942"/>
<path d="M64.8345 125.378C63.791 124.88 62.7465 124.463 61.7273 124.111L62.2081 122.699C63.2699 123.061 64.3734 123.515 65.4713 124.029L64.8345 125.378Z" fill="#EA9942"/>
<path d="M53.1555 123.181C52.0866 123.384 51.0728 123.735 50.1332 124.229L49.4373 122.904C50.5013 122.341 51.6557 121.947 52.8698 121.719L53.1555 123.181Z" fill="#EA9942"/>
<path d="M46.3875 127.108C45.4892 127.904 44.6436 128.668 43.8389 129.392L42.8316 128.282C43.6435 127.546 44.4891 126.783 45.3874 125.986L46.3875 127.108Z" fill="#EA9942"/>
<path d="M48.7556 123.297L49.5305 124.573C49.0039 124.899 48.4981 125.27 48.0204 125.675L46.9542 126.612L45.9659 125.497L47.0512 124.556C47.5725 124.081 48.1573 123.66 48.7556 123.297Z" fill="#EA9942"/>
<path d="M80.3234 62.9473L79.7811 62.0593C79.9654 61.9453 80.157 61.8194 80.3413 61.7053C80.3553 62.1045 80.3621 62.5155 80.3234 62.9473Z" fill="#EA9942"/>
<path d="M22.5293 135.523C23.4041 136.03 24.2608 136.461 25.0433 136.749L24.5507 138.154C23.527 137.782 22.4554 137.251 21.3359 136.56L21.6632 136.03C21.9528 135.851 22.247 135.69 22.5293 135.523Z" fill="#EA9942"/>
<path d="M26.0196 145.634C41.7184 112.868 72.7476 99.0829 90.0223 77.3947C103.612 60.3319 115.398 36.7532 120.826 25.1646C123.67 25.9603 125.645 27.5858 125.645 27.5858L118.595 56.1212L100.005 87.2171L76.3531 115.547C76.3531 115.547 51.8331 153.641 43.2181 154.654C39.1179 155.101 32.1845 150.806 26.0196 145.634Z" fill="#AA4D09"/>
<path d="M128.668 26.8805L116.341 60.4584L99.4805 90.018L72.3009 122.403L42.6952 157.716L41.2318 156.422C44.4764 151.851 55.6697 136.14 63.0681 126.842C65.3244 124.004 68.3933 120.561 71.9465 116.57C80.1921 107.323 91.4686 94.6414 101.063 79.9131C102.785 77.2818 104.409 74.6231 105.91 72.0341C118.415 50.3478 124.563 30.1565 125.832 25.781L128.668 26.8805Z" fill="#702F12"/>
<path d="M127.354 25.2395C127.354 25.2395 121.375 47.846 107.055 72.7087C92.724 97.5642 72.5601 117.079 64.1122 127.682C55.3553 138.68 41.4079 158.484 41.4079 158.484L53.7584 166.79C53.7584 166.79 68.4544 148.278 79.3906 128.633C76.7874 126.945 73.3768 125.247 73.3768 125.247C73.3768 125.247 89.7328 105.417 98.4443 96.522C107.151 87.6085 132.762 40.9445 132.663 26.8403C131.121 26.3602 127.354 25.2395 127.354 25.2395Z" fill="#381803"/>
<path d="M51.2548 165.098C58.7037 157.458 72.6209 134.381 76.9322 127.132C77.7481 127.603 78.6111 128.103 79.3978 128.621C68.4615 148.266 53.7656 166.778 53.7656 166.778L51.2548 165.098Z" fill="#702F12"/>
<path d="M130.744 26.2581C131.483 26.4859 132.185 26.6918 132.663 26.8403C132.762 40.9445 107.151 87.6085 98.4398 96.503C97.297 97.669 96.0188 99.0281 94.6679 100.505C122.491 58.2982 129.138 33.5008 130.744 26.2581Z" fill="#702F12"/>
<path d="M67.909 65.4229C68.4784 66.4252 69.7398 66.7806 70.7466 66.2304C71.7488 65.6611 72.1043 64.3996 71.554 63.3929C70.992 62.3788 69.7233 62.0351 68.7165 62.5854C67.7024 63.1474 67.347 64.4089 67.909 65.4229Z" fill="#381803"/>
<path d="M62.2477 68.5845C62.817 69.5868 64.0784 69.9422 65.0852 69.392C66.0875 68.8227 66.4429 67.5612 65.8927 66.5544C65.3234 65.5522 64.0619 65.1967 63.0552 65.747C62.0411 66.309 61.6902 67.5895 62.2477 68.5845Z" fill="#381803"/>
<path d="M56.5791 71.7576C57.1484 72.7598 58.4098 73.1153 59.4166 72.565C60.4189 71.9957 60.7743 70.7343 60.2241 69.7275C59.6547 68.7252 58.3933 68.3698 57.3865 68.92C56.3843 69.4893 56.0215 70.7626 56.5791 71.7576Z" fill="#381803"/>
<path d="M50.9222 74.9381C51.4915 75.9404 52.753 76.2958 53.7597 75.7455C54.762 75.1762 55.1175 73.9148 54.5672 72.908C53.9979 71.9057 52.7365 71.5503 51.7297 72.1006C50.7156 72.6626 50.3529 73.9358 50.9222 74.9381Z" fill="#381803"/>
<path d="M45.2538 78.1113C45.8231 79.1136 47.0846 79.469 48.0913 78.9188C49.0936 78.3495 49.4491 77.088 48.8988 76.0812C48.3295 75.079 47.0681 74.7235 46.0613 75.2738C45.0472 75.8358 44.6918 77.0973 45.2538 78.1113Z" fill="#381803"/>
<path d="M47.8897 76.2396C48.0988 76.6127 48.0646 77.0635 47.8537 77.4053C47.7592 77.5585 47.6247 77.6708 47.4668 77.7685C46.9239 78.0681 46.2446 77.8767 45.9451 77.3338L42.5465 71.2658C43.1756 70.9055 43.8238 70.5408 44.5147 70.1861L47.8897 76.2396Z" fill="#AA4D09"/>
<path d="M53.551 73.0783C53.76 73.4514 53.7259 73.9022 53.515 74.2439C53.4204 74.3971 53.286 74.5094 53.128 74.6072C52.5852 74.9068 51.9059 74.7154 51.6064 74.1725L48.3472 68.3532C49.0207 68.0529 49.7015 67.7408 50.3941 67.436L53.551 73.0783Z" fill="#AA4D09"/>
<path d="M56.3668 64.8247L59.2078 69.8978C59.4169 70.2709 59.3827 70.7217 59.1718 71.0635C59.0773 71.2167 58.9429 71.329 58.7849 71.4267C58.242 71.7263 57.5628 71.5349 57.2632 70.992L54.3154 65.7229C54.9816 65.4344 55.6669 65.1413 56.3668 64.8247Z" fill="#AA4D09"/>
<path d="M64.8764 66.7244C65.0855 67.0976 65.0513 67.5484 64.8404 67.8901C64.7459 68.0433 64.6115 68.1556 64.4535 68.2534C63.9106 68.553 63.2314 68.3616 62.9318 67.8187L60.2672 63.0661C60.9408 62.7658 61.6098 62.4464 62.3051 62.1108L64.8764 66.7244Z" fill="#AA4D09"/>
<path d="M70.5377 63.5631C70.7468 63.9362 70.7126 64.3871 70.5017 64.7288C70.4071 64.882 70.2727 64.9943 70.1148 65.0921C69.5719 65.3916 68.8926 65.2002 68.5931 64.6574L66.105 60.2252C66.7695 59.8868 67.4222 59.5411 68.094 59.1909L70.5377 63.5631Z" fill="#AA4D09"/>
</svg>
