<svg width="212" height="183" viewBox="0 0 212 183" fill="none" xmlns="http://www.w3.org/2000/svg">
<mask id="mask0" mask-type="alpha" maskUnits="userSpaceOnUse" x="14" y="15" width="198" height="158">
<rect x="14" y="15" width="198" height="158" rx="10" fill="white"/>
</mask>
<g mask="url(#mask0)">
<path d="M87.0395 129.614C78.8991 128.731 25.9648 135.932 14 139L14 93.1698C24.1619 93.3244 90.0637 92.771 102.868 84.8232C126.538 70.1677 142.967 76.3708 161.087 62.486C161.087 62.486 168.419 53.0295 173.671 49.086C173.671 49.086 178.304 42.694 180.118 40.7606C181.932 38.8271 186.623 43.3911 185.69 46.1565C185.69 46.1565 190.264 46.3429 187.984 52.0357C187.984 52.0357 192.811 53.9016 187.752 59.4818C187.752 59.4818 193.608 62.5649 185.788 69.6141C185.788 69.6141 192.683 70.8379 180.898 81.0431C180.898 81.0431 177.965 89.6128 177.004 93.1698C175.15 100.063 168.91 105.93 158.905 107.376C148.9 108.823 141.07 114.656 133.857 122.016C126.622 129.368 123.885 144.401 110.484 142.341C97.0747 140.231 90.6068 129.997 87.0395 129.614Z" fill="#FBC388"/>
<path d="M14 125.5C21.2731 125.508 52.0826 124.97 62.3516 125.716C71.7695 126.391 85.7757 128.687 87.9682 129.903C86.0818 129.34 83.3012 129.47 81.9254 129.527C70.8648 129.844 24.1433 136.408 14 139L14 125.5Z" fill="#EFA968"/>
<path d="M115.332 130.269C120.616 126.771 125.941 123.53 130.528 119.233C135.38 114.705 140.057 109.418 146.015 106.324C151.394 103.536 157.719 104.097 163.157 101.351C170.958 97.4001 174.64 86.7352 180.898 81.043C180.027 83.6094 177.712 90.5041 177.004 93.1697C175.15 100.062 168.91 105.93 158.905 107.376C148.9 108.823 141.07 114.656 133.857 122.016C126.622 129.368 123.885 144.401 110.484 142.341C102.314 141.085 97.3962 137.639 87.9614 129.925C88.6562 129.875 103.311 138.194 115.332 130.269Z" fill="#EFA968"/>
<path d="M165.861 64.9901C165.924 64.8643 172.509 52.1196 185.499 45.7574C185.586 45.7117 185.681 45.7171 185.777 45.7225C185.757 45.8621 185.745 45.9795 185.704 46.1122C185.414 46.2645 185.132 46.4679 184.868 46.7735C184.724 46.9229 184.618 47.1081 184.519 47.2713C172.724 53.69 166.716 65.2806 166.66 65.3842C166.547 65.5916 166.278 65.6776 166.063 65.5867C165.856 65.4736 165.77 65.2044 165.861 64.9901Z" fill="#EEA561"/>
<path d="M168.544 68.7595C168.608 68.6337 175.744 55.2846 187.851 51.6062C187.953 51.5895 188.048 51.5949 188.137 51.6224C188.095 51.7551 188.054 51.8878 187.984 52.0356C187.984 52.0356 187.984 52.0357 188.006 52.0425C187.503 52.1771 187.01 52.4361 186.66 52.8606C186.624 52.8979 186.603 52.9643 186.568 53.0016C175.76 57.1812 169.422 69.0568 169.336 69.1757C169.223 69.383 168.954 69.469 168.747 69.356C168.517 69.2361 168.453 68.9737 168.544 68.7595Z" fill="#EEA561"/>
<path d="M170.527 72.6747C170.825 72.1853 177.873 60.6032 187.693 59.0508C187.824 59.0189 187.95 59.0823 188.046 59.1609C187.961 59.2798 187.86 59.3697 187.752 59.4818C187.752 59.4818 187.752 59.4818 187.775 59.4887C187.123 59.4798 186.461 59.7348 185.902 60.3612C177.48 62.9548 171.34 73.0246 171.283 73.1283C171.17 73.3356 170.886 73.3926 170.679 73.2796C170.478 73.1445 170.414 72.8821 170.527 72.6747Z" fill="#EEA561"/>
<path d="M172.817 80.202C173.043 79.7873 178.663 70.0649 185.735 69.1611C185.888 69.136 186.014 69.1994 186.104 69.3001C186.003 69.39 185.896 69.5021 185.795 69.592C185.795 69.592 185.795 69.592 185.817 69.5989C185.335 69.6672 184.871 69.9109 184.448 70.3368C178.435 72.2009 173.637 80.5298 173.58 80.6335C173.467 80.8408 173.176 80.9199 172.969 80.8069C172.761 80.6939 172.682 80.4025 172.817 80.202Z" fill="#EEA561"/>
<path d="M175.661 46.4313C175.661 46.4313 177.545 49.0302 179.173 47.6937C180.802 46.3573 184.466 43.9325 182.835 42.5517C180.838 40.8633 180.277 40.6402 180.277 40.6402C180.277 40.6402 180.735 39.4005 175.661 46.4313Z" fill="#EED39F"/>
<path d="M180.476 49.8209C180.476 49.8209 181.639 53.0202 184.422 51.558C187.183 50.0889 187.38 47.895 185.472 46.2341L180.476 49.8209Z" fill="#EED39F"/>
<path d="M182.492 55.0318C182.492 55.0318 183.061 58.1918 185.86 57.1468C188.659 56.1017 189.357 53.7 187.627 52.1673C187.597 52.1094 182.492 55.0318 182.492 55.0318Z" fill="#EED39F"/>
<path d="M182.056 62.1231C182.056 62.1231 182.482 65.1175 185.114 64.1417C187.739 63.1881 188.486 61.0197 186.928 59.6375C186.831 59.5588 182.056 62.1231 182.056 62.1231Z" fill="#EED39F"/>
<path d="M180.716 72.3528C180.716 72.3528 181.157 74.988 183.561 73.9656C186.604 72.6812 185.809 69.936 185.256 69.764C185.079 69.7089 183.594 70.5078 182.429 71.2124C181.409 71.8408 180.716 72.3528 180.716 72.3528Z" fill="#EED39F"/>
<path d="M168.692 55.0264C168.692 55.0264 136.931 77.1766 94.9799 83.4665C97.8274 92.5854 109.085 96.4364 113.51 95.8606C117.935 95.2848 170.398 61.5265 170.398 61.5265L168.692 55.0264Z" fill="#E8390A"/>
<path d="M169.211 47.0722C169.211 47.0722 165.947 57.682 152.425 68.9289C136.151 82.4647 105.42 88.5289 102.285 95.9385C99.1503 103.348 94.0919 121.778 84.1474 131.537C99.134 140.487 109.277 139.754 116.536 144.391C123.783 149.023 136.026 156.978 142.854 155.16C149.681 153.343 179.181 79.8848 179.181 79.8848L186.221 46.9111L169.211 47.0722Z" fill="#FC643A"/>
<path d="M102.285 95.9385C105.42 88.5289 136.151 82.4647 152.425 68.9289C165.953 57.67 169.21 47.0721 169.21 47.0721L177.435 47.0011L177.838 54.3738C177.838 54.3738 169.115 74.1646 140.618 90.1142C129.024 96.6143 113.812 103.391 98.4396 106.136C100.01 102.011 101.255 98.3762 102.285 95.9385Z" fill="#F4502A"/>
<path d="M117.413 144.953C121.988 137.767 134.772 122.545 159.924 124.937C152.805 140.531 145.762 154.37 142.841 155.155C136.289 156.91 124.739 149.636 117.413 144.953Z" fill="#F4502A"/>
<path d="M181.747 32.5799C181.747 32.5799 173.353 34.1008 166.144 52.4909C170.913 57.8634 182.346 57.8082 183.682 55.656C184.32 49.343 181.747 32.5799 181.747 32.5799Z" fill="#E2E2E2"/>
<path d="M162.646 133.315C166.818 124.213 171.105 114.45 175.16 105.222C178.947 96.6127 182.519 88.4722 185.683 81.5707C195.064 61.1067 195 33.6645 194.996 32.4987C194.996 32.4987 187.807 28.3739 181.747 32.5798C181.612 34.5257 181.782 58.277 173.635 76.0478C170.427 83.0455 166.833 91.234 163.025 99.8915C154.061 120.27 139.33 152.498 136.937 155.053C138.925 161.697 148.317 161.841 148.317 161.841C152.429 154.967 157.443 144.665 162.646 133.315Z" fill="#E2E2E2"/>
<path d="M142.421 160.579C141.845 160.344 141.279 160.055 140.729 159.73C148.21 146.936 159.377 121.878 169.245 99.7166C172.71 91.9349 175.984 84.6035 178.817 78.4234C187.504 59.4743 187.443 32.8192 187.446 32.5587L189.34 32.5538C189.343 32.8319 189.412 59.8833 180.549 79.2171C177.721 85.3852 174.447 92.7165 170.987 100.486C167.027 109.38 162.851 118.742 158.795 127.591C152.731 140.788 146.924 152.851 142.421 160.579Z" fill="#232323"/>
<path d="M181.747 32.5799C181.746 32.3905 181.746 32.2011 181.745 32.0117C187.918 27.9736 194.941 31.9205 195.242 32.0879L195.472 32.2222L195.475 32.5002C195.482 33.5653 195.526 56.735 188.308 76.4157C186.055 75.7757 177.78 73.1318 175.189 72.308C181.758 55.1233 181.619 34.3834 181.747 32.5799Z" fill="#C1C1C1"/>
<path d="M152.099 125.948C156.409 116.545 160.745 106.864 163.68 100.177C167.477 91.5439 171.06 83.3794 174.285 76.3456C177.674 68.9512 181.832 55.5648 182.413 33.7294C182.43 33.1843 182.442 32.811 182.448 32.6392C182.482 32.2474 182.186 31.9082 181.789 31.8862C181.397 31.8521 181.058 32.1476 181.036 32.5449C181.024 32.7288 181.014 33.1316 180.998 33.7062C180.426 55.2987 176.327 68.4937 172.992 75.7679C169.768 82.8017 166.18 90.9782 162.382 99.6116C152.919 121.144 138.629 152.22 136.43 154.573C136.167 154.86 136.182 155.304 136.464 155.578C136.751 155.841 137.194 155.826 137.469 155.544C139.079 153.809 145.573 140.184 152.099 125.948Z" fill="#232323"/>
<path d="M156.264 73.4097C156.908 74.6071 158.415 75.0651 159.624 74.4265C160.839 73.7758 161.28 72.2753 160.641 71.0658C160.002 69.8564 158.49 69.4104 157.28 70.0491C156.065 70.6998 155.607 72.2067 156.264 73.4097Z" fill="black"/>
<path d="M148.549 77.5415C149.188 78.751 150.701 79.197 151.91 78.5583C153.125 77.9076 153.565 76.4071 152.927 75.1977C152.271 73.9947 150.776 73.5422 149.566 74.1809C148.363 74.8371 147.911 76.3321 148.549 77.5415Z" fill="black"/>
<path d="M140.847 81.6785C141.498 82.8935 142.999 83.334 144.208 82.6953C145.423 82.0446 145.863 80.5441 145.225 79.3347C144.569 78.1317 143.074 77.6792 141.864 78.3179C140.649 78.9686 140.209 80.4691 140.847 81.6785Z" fill="black"/>
<path d="M133.133 85.8102C133.784 87.0252 135.284 87.4657 136.494 86.827C137.709 86.1763 138.149 84.6758 137.511 83.4664C136.854 82.2634 135.359 81.8109 134.15 82.4496C132.953 83.0938 132.494 84.6007 133.133 85.8102Z" fill="black"/>
<path d="M125.436 89.9354C126.075 91.1448 127.588 91.5908 128.797 90.9522C130.012 90.3015 130.465 88.8065 129.814 87.5915C129.175 86.3821 127.663 85.9361 126.453 86.5748C125.238 87.2255 124.792 88.7379 125.436 89.9354Z" fill="black"/>
<path d="M117.735 94.0726C118.391 95.2756 119.886 95.7281 121.095 95.0894C122.31 94.4387 122.751 92.9383 122.112 91.7288C121.473 90.5193 119.961 90.0733 118.751 90.712C117.536 91.3627 117.084 92.8577 117.735 94.0726Z" fill="black"/>
<path d="M111.06 79.2415C111.963 79.0156 112.861 78.7722 113.741 78.5353L120.91 91.9054C121.264 92.5623 121.019 93.3814 120.363 93.735C119.706 94.0887 118.887 93.8441 118.533 93.1873L111.06 79.2415Z" fill="#E2E2E2"/>
<path d="M119.684 76.8075C120.562 76.541 121.435 76.257 122.301 75.9851L128.625 87.774C128.978 88.4309 128.734 89.25 128.077 89.6036C127.42 89.9573 126.601 89.7127 126.247 89.0559L119.684 76.8075Z" fill="#E2E2E2"/>
<path d="M128.087 73.996C128.959 73.6824 129.8 73.3699 130.642 73.0573L136.321 83.6488C136.675 84.3057 136.43 85.1248 135.773 85.4784C135.117 85.8321 134.297 85.5875 133.944 84.9307L128.087 73.996Z" fill="#E2E2E2"/>
<path d="M136.32 70.8292C137.166 70.4751 138.007 70.133 138.823 69.7798L144.041 79.5051C144.395 80.1619 144.15 80.981 143.493 81.3347C142.836 81.6883 142.017 81.4438 141.664 80.787L136.32 70.8292Z" fill="#E2E2E2"/>
<path d="M144.357 67.3259C145.19 66.9367 146.006 66.554 146.804 66.1778L151.738 75.38C152.091 76.0368 151.847 76.8559 151.178 77.2041C150.521 77.5577 149.702 77.3132 149.348 76.6563L144.357 67.3259Z" fill="#E2E2E2"/>
<path d="M152.223 63.4967C153.044 63.0724 153.846 62.6546 154.614 62.2499L159.446 71.2602C159.8 71.917 159.555 72.7362 158.899 73.0898C158.242 73.4435 157.423 73.1989 157.069 72.5421L152.223 63.4967Z" fill="#E2E2E2"/>
<path d="M111.874 132.025C118.054 134.858 125.367 132.143 128.2 125.963C131.033 119.783 128.317 112.471 122.137 109.637C115.957 106.804 108.645 109.52 105.812 115.7C102.979 121.88 105.694 129.192 111.874 132.025Z" fill="#C1C1C1"/>
<path d="M112.927 129.729C117.845 131.983 123.649 129.828 125.903 124.91C128.152 120.004 126.002 114.188 121.085 111.934C116.167 109.679 110.363 111.835 108.108 116.752C105.859 121.658 108.009 127.474 112.927 129.729Z" fill="#E2E2E2"/>
<path d="M114.41 126.494C117.536 127.928 121.236 126.554 122.669 123.427C124.102 120.301 122.728 116.601 119.602 115.168C116.476 113.735 112.776 115.109 111.343 118.235C109.898 121.356 111.272 125.056 114.41 126.494Z" fill="#FC643A"/>
</g>
</svg>
