<svg width="100" height="45" viewBox="0 0 100 45" fill="none" xmlns="http://www.w3.org/2000/svg">
<rect width="99.6622" height="45" rx="22.5" fill="url(#paint0_linear)"/>
<path d="M27.574 27.866L28.358 26.816C28.6753 27.124 29.058 27.3807 29.506 27.586C29.954 27.782 30.402 27.88 30.85 27.88C31.3727 27.88 31.7927 27.754 32.11 27.502C32.4273 27.2407 32.586 26.8953 32.586 26.466C32.586 26.0647 32.4227 25.724 32.096 25.444C31.7693 25.1547 31.368 24.912 30.892 24.716C30.4253 24.52 29.9587 24.31 29.492 24.086C29.0253 23.862 28.6287 23.5493 28.302 23.148C27.9753 22.7467 27.812 22.2613 27.812 21.692C27.812 20.8707 28.1153 20.208 28.722 19.704C29.338 19.2 30.1127 18.948 31.046 18.948C32.1753 18.948 33.0947 19.284 33.804 19.956L33.174 21.09C32.894 20.8287 32.5533 20.6187 32.152 20.46C31.76 20.3013 31.3727 20.222 30.99 20.222C30.4767 20.222 30.052 20.3527 29.716 20.614C29.38 20.866 29.212 21.202 29.212 21.622C29.212 21.9487 29.3287 22.238 29.562 22.49C29.7953 22.742 30.0893 22.9427 30.444 23.092C30.7987 23.232 31.1813 23.4 31.592 23.596C32.0027 23.7827 32.3853 23.9787 32.74 24.184C33.0947 24.3893 33.3887 24.6787 33.622 25.052C33.8553 25.4253 33.972 25.8593 33.972 26.354C33.972 27.1567 33.692 27.8287 33.132 28.37C32.572 28.902 31.802 29.168 30.822 29.168C29.5433 29.168 28.4607 28.734 27.574 27.866ZM35.9309 29V19.116H37.3169V23.456H42.4549V19.116H43.8269V29H42.4549V24.66H37.3169V29H35.9309ZM45.8149 23.988C45.8149 22.56 46.2956 21.3653 47.2569 20.404C48.2182 19.4333 49.4316 18.948 50.8969 18.948C52.3529 18.948 53.5616 19.4333 54.5229 20.404C55.4842 21.3653 55.9649 22.56 55.9649 23.988C55.9649 25.4533 55.4842 26.6853 54.5229 27.684C53.5616 28.6733 52.3529 29.168 50.8969 29.168C49.4409 29.168 48.2276 28.6733 47.2569 27.684C46.2956 26.6853 45.8149 25.4533 45.8149 23.988ZM47.2429 23.988C47.2429 25.0987 47.5882 26.0273 48.2789 26.774C48.9696 27.5207 49.8422 27.894 50.8969 27.894C51.9422 27.894 52.8102 27.5207 53.5009 26.774C54.1916 26.0273 54.5369 25.0987 54.5369 23.988C54.5369 22.9147 54.1916 22.0187 53.5009 21.3C52.8102 20.572 51.9422 20.208 50.8969 20.208C49.8422 20.208 48.9696 20.572 48.2789 21.3C47.5882 22.0187 47.2429 22.9147 47.2429 23.988ZM57.9563 29V19.116H63.7103V20.32H59.3423V23.414H62.8843V24.618H59.3423V27.796H63.9483V29H57.9563ZM65.1306 27.866L65.9146 26.816C66.232 27.124 66.6146 27.3807 67.0626 27.586C67.5106 27.782 67.9586 27.88 68.4066 27.88C68.9293 27.88 69.3493 27.754 69.6666 27.502C69.984 27.2407 70.1426 26.8953 70.1426 26.466C70.1426 26.0647 69.9793 25.724 69.6526 25.444C69.326 25.1547 68.9246 24.912 68.4486 24.716C67.982 24.52 67.5153 24.31 67.0486 24.086C66.582 23.862 66.1853 23.5493 65.8586 23.148C65.532 22.7467 65.3686 22.2613 65.3686 21.692C65.3686 20.8707 65.672 20.208 66.2786 19.704C66.8946 19.2 67.6693 18.948 68.6026 18.948C69.732 18.948 70.6513 19.284 71.3606 19.956L70.7306 21.09C70.4506 20.8287 70.11 20.6187 69.7086 20.46C69.3166 20.3013 68.9293 20.222 68.5466 20.222C68.0333 20.222 67.6086 20.3527 67.2726 20.614C66.9366 20.866 66.7686 21.202 66.7686 21.622C66.7686 21.9487 66.8853 22.238 67.1186 22.49C67.352 22.742 67.646 22.9427 68.0006 23.092C68.3553 23.232 68.738 23.4 69.1486 23.596C69.5593 23.7827 69.942 23.9787 70.2966 24.184C70.6513 24.3893 70.9453 24.6787 71.1786 25.052C71.412 25.4253 71.5286 25.8593 71.5286 26.354C71.5286 27.1567 71.2486 27.8287 70.6886 28.37C70.1286 28.902 69.3586 29.168 68.3786 29.168C67.1 29.168 66.0173 28.734 65.1306 27.866Z" fill="white"/>
<defs>
<linearGradient id="paint0_linear" x1="10.4408" y1="2.58959e-05" x2="94.9355" y2="9.64275" gradientUnits="userSpaceOnUse">
<stop stop-color="#B09CCA"/>
<stop offset="1" stop-color="#5C6A8B"/>
</linearGradient>
</defs>
</svg>
