<svg width="124" height="145" viewBox="0 0 124 145" fill="none" xmlns="http://www.w3.org/2000/svg">
<path d="M38.9755 113.325L92.4425 128.821C92.4425 128.821 91.0819 137.572 87.2222 137.123C83.3625 136.674 28.869 126.766 23.565 126.329C18.2576 125.905 38.9755 113.325 38.9755 113.325Z" fill="#454444"/>
<path d="M20.5733 123.758L50.8579 96.4511L94.592 74.1602C94.592 74.1602 108.869 25.2453 108.222 22.3331C108.004 21.3902 108.104 21.0175 108.336 20.9512C108.816 20.8089 110.416 21.6514 111.34 22.9972C113.304 25.8347 114.596 31.1309 114.903 37.8612C115.265 45.7757 115.579 64.6762 106.849 79.7411C103.355 85.7524 92.855 88.203 85.1736 90.4102C83.3666 90.9246 81.4825 91.4611 79.6363 92.122C78.5973 92.4855 77.4714 92.8543 76.2851 93.2355C66.5112 96.437 53.6274 102.3 40.7738 120.084C37.4855 124.21 33.3137 126.416 29.022 127.206C21.5418 127.384 20.5733 123.758 20.5733 123.758Z" fill="#454444"/>
<path d="M85.0319 136.778C87.6794 134.777 89.0405 130.762 89.6749 128.022L92.4425 128.821C92.4425 128.821 91.0819 137.572 87.2222 137.123C86.8787 137.073 86.1119 136.954 85.0319 136.778Z" fill="#1F1E1D"/>
<path d="M1.70122 114.165C2.70155 109.739 7.00586 100.65 19.8966 93.3761C34.1437 85.353 69.8246 84.3856 87.0295 71.0209C97.4403 62.94 91.3708 50.9853 88.4831 46.8021C91.4544 43.4326 97.4583 30.8755 99.8899 26.8051C106.83 15.2264 109.122 22.0035 109.122 22.0035C109.122 22.0035 115.966 47.7323 104.11 75.5833C99.9627 83.8732 86.3421 87.6417 76.8769 90.9687C67.4118 94.2957 53.862 97.427 39.1946 117.72C33.6697 124.656 26.5857 128.308 18.9032 125.407C15.3295 124.05 8.24333 119.085 1.70122 114.165Z" fill="#F7290D"/>
<path d="M19.8978 93.3764C34.1448 85.3533 69.8258 84.386 87.0306 71.0212C97.4414 62.9403 79.8878 51.6833 77 47.5C79.9714 44.1306 88.5 33 96.5 25.5C106.5 19.5 102.968 22.2947 104.139 21.2815C105.256 34.3629 106.68 66.5285 94.87 75.5184C79.955 86.8861 59.7458 86.7066 45.6241 99.0001C35.1357 108.116 26.4522 120.611 17.4015 124.734C13.5666 122.808 7.42592 118.466 1.68904 114.161C2.70267 109.74 7.00698 100.65 19.8978 93.3764Z" fill="#FD5E3B"/>
</svg>
