<svg width="212" height="183" viewBox="0 0 212 183" fill="none" xmlns="http://www.w3.org/2000/svg">
<mask id="mask0" mask-type="alpha" maskUnits="userSpaceOnUse" x="14" y="15" width="198" height="158">
<rect x="14" y="15" width="198" height="158" rx="10" fill="white"/>
</mask>
<g mask="url(#mask0)">
<path d="M87.0395 129.614C78.8991 128.731 25.9648 135.932 14 139L14 93.1698C24.1619 93.3244 90.0637 92.771 102.868 84.8232C126.538 70.1677 142.967 76.3708 161.086 62.486C161.086 62.486 168.418 53.0295 173.671 49.086C173.671 49.086 178.304 42.694 180.118 40.7606C181.932 38.8271 186.623 43.3911 185.69 46.1565C185.69 46.1565 190.264 46.3429 187.984 52.0357C187.984 52.0357 192.811 53.9016 187.752 59.4818C187.752 59.4818 193.608 62.5649 185.788 69.6141C185.788 69.6141 192.683 70.8379 180.898 81.0431C180.898 81.0431 177.965 89.6128 177.004 93.1698C175.15 100.063 168.91 105.93 158.905 107.376C148.9 108.823 141.07 114.656 133.857 122.016C126.622 129.368 123.885 144.401 110.484 142.341C97.0747 140.231 90.6067 129.997 87.0395 129.614Z" fill="#FBC388"/>
<path d="M13.9999 125.5C21.2731 125.508 52.0826 124.97 62.3515 125.716C71.7695 126.391 85.7757 128.687 87.9681 129.903C86.0818 129.34 83.3011 129.47 81.9253 129.527C70.8647 129.844 24.1432 136.408 13.9999 139L13.9999 125.5Z" fill="#EFA968"/>
<path d="M115.332 130.269C120.615 126.771 125.941 123.53 130.527 119.233C135.38 114.705 140.057 109.418 146.015 106.324C151.394 103.536 157.719 104.097 163.157 101.351C170.958 97.4001 174.64 86.7352 180.898 81.043C180.027 83.6094 177.712 90.5041 177.004 93.1697C175.15 100.062 168.91 105.93 158.905 107.376C148.9 108.823 141.07 114.656 133.857 122.016C126.622 129.368 123.885 144.401 110.484 142.341C102.314 141.085 97.3961 137.639 87.9613 129.925C88.656 129.875 103.311 138.194 115.332 130.269Z" fill="#EFA968"/>
<path d="M165.861 64.9901C165.924 64.8643 172.509 52.1196 185.499 45.7574C185.586 45.7117 185.681 45.7171 185.777 45.7225C185.757 45.8621 185.745 45.9795 185.704 46.1122C185.414 46.2645 185.132 46.4679 184.868 46.7735C184.724 46.9229 184.618 47.1081 184.519 47.2713C172.724 53.69 166.716 65.2806 166.66 65.3842C166.547 65.5916 166.278 65.6776 166.063 65.5867C165.856 65.4736 165.77 65.2044 165.861 64.9901Z" fill="#EEA561"/>
<path d="M168.544 68.7595C168.608 68.6337 175.744 55.2846 187.85 51.6062C187.953 51.5895 188.048 51.5949 188.136 51.6224C188.095 51.7551 188.054 51.8878 187.984 52.0356C187.984 52.0356 187.984 52.0357 188.006 52.0425C187.503 52.1771 187.01 52.4361 186.66 52.8606C186.624 52.8979 186.603 52.9643 186.567 53.0016C175.76 57.1812 169.422 69.0568 169.336 69.1757C169.223 69.383 168.954 69.469 168.747 69.356C168.517 69.2361 168.453 68.9737 168.544 68.7595Z" fill="#EEA561"/>
<path d="M170.527 72.6747C170.825 72.1853 177.872 60.6032 187.692 59.0508C187.824 59.0189 187.949 59.0823 188.046 59.1609C187.961 59.2798 187.86 59.3697 187.752 59.4818C187.752 59.4818 187.752 59.4818 187.774 59.4887C187.122 59.4798 186.461 59.7348 185.902 60.3612C177.48 62.9548 171.34 73.0246 171.283 73.1283C171.17 73.3356 170.886 73.3926 170.678 73.2796C170.478 73.1445 170.414 72.8821 170.527 72.6747Z" fill="#EEA561"/>
<path d="M172.817 80.202C173.043 79.7873 178.663 70.0649 185.735 69.1611C185.888 69.136 186.014 69.1994 186.104 69.3001C186.003 69.39 185.896 69.5021 185.795 69.592C185.795 69.592 185.795 69.592 185.817 69.5989C185.335 69.6672 184.871 69.9109 184.448 70.3368C178.435 72.2009 173.637 80.5298 173.58 80.6335C173.467 80.8408 173.176 80.9199 172.968 80.8069C172.761 80.6939 172.682 80.4025 172.817 80.202Z" fill="#EEA561"/>
<path d="M175.661 46.4313C175.661 46.4313 177.545 49.0302 179.173 47.6937C180.802 46.3573 184.466 43.9325 182.834 42.5517C180.838 40.8633 180.276 40.6402 180.276 40.6402C180.276 40.6402 180.735 39.4005 175.661 46.4313Z" fill="#EED39F"/>
<path d="M180.476 49.8209C180.476 49.8209 181.639 53.0202 184.422 51.558C187.183 50.0889 187.38 47.895 185.472 46.2341L180.476 49.8209Z" fill="#EED39F"/>
<path d="M182.492 55.0318C182.492 55.0318 183.061 58.1918 185.86 57.1468C188.659 56.1017 189.357 53.7 187.627 52.1673C187.597 52.1094 182.492 55.0318 182.492 55.0318Z" fill="#EED39F"/>
<path d="M182.056 62.1231C182.056 62.1231 182.482 65.1175 185.114 64.1417C187.739 63.1881 188.486 61.0197 186.928 59.6375C186.831 59.5588 182.056 62.1231 182.056 62.1231Z" fill="#EED39F"/>
<path d="M180.716 72.3528C180.716 72.3528 181.157 74.988 183.561 73.9656C186.604 72.6812 185.809 69.936 185.256 69.764C185.079 69.7089 183.594 70.5078 182.429 71.2124C181.409 71.8408 180.716 72.3528 180.716 72.3528Z" fill="#EED39F"/>
<path d="M122.976 128.325L176.442 143.821C176.442 143.821 175.082 152.572 171.222 152.123C167.362 151.674 112.869 141.766 107.565 141.329C102.258 140.905 122.976 128.325 122.976 128.325Z" fill="#454444"/>
<path d="M104.573 138.758L134.858 111.451L178.592 89.1602C178.592 89.1602 192.869 40.2453 192.222 37.3331C192.004 36.3902 192.104 36.0175 192.336 35.9512C192.816 35.8089 194.416 36.6514 195.34 37.9972C197.304 40.8347 198.596 46.1309 198.903 52.8612C199.265 60.7757 199.579 79.6762 190.849 94.7411C187.355 100.752 176.855 103.203 169.174 105.41C167.367 105.925 165.482 106.461 163.636 107.122C162.597 107.486 161.471 107.854 160.285 108.235C150.511 111.437 137.627 117.3 124.774 135.084C121.486 139.21 117.314 141.416 113.022 142.206C105.542 142.384 104.573 138.758 104.573 138.758Z" fill="#454444"/>
<path d="M169.032 151.778C171.679 149.777 173.041 145.762 173.675 143.022L176.442 143.821C176.442 143.821 175.082 152.572 171.222 152.123C170.879 152.073 170.112 151.954 169.032 151.778Z" fill="#1F1E1D"/>
<path d="M85.7012 129.165C86.7015 124.739 91.0059 115.65 103.897 108.376C118.144 100.353 153.825 99.3856 171.029 86.0209C181.44 77.94 175.371 65.9853 172.483 61.8021C175.454 58.4326 181.458 45.8755 183.89 41.8051C190.83 30.2264 193.122 37.0035 193.122 37.0035C193.122 37.0035 199.966 62.7323 188.11 90.5833C183.963 98.8732 170.342 102.642 160.877 105.969C151.412 109.296 137.862 112.427 123.195 132.72C117.67 139.656 110.586 143.308 102.903 140.407C99.3295 139.05 92.2433 134.085 85.7012 129.165Z" fill="#F7290D"/>
<path d="M103.898 108.376C118.145 100.353 153.826 99.386 171.031 86.0212C181.441 77.9403 163.888 66.6833 161 62.5C163.971 59.1306 172.5 48 180.5 40.5C190.5 34.5 186.968 37.2947 188.139 36.2815C189.256 49.3629 190.68 81.5285 178.87 90.5184C163.955 101.886 143.746 101.707 129.624 114C119.136 123.116 110.452 135.611 101.402 139.734C97.5666 137.808 91.4259 133.466 85.689 129.161C86.7027 124.74 91.007 115.65 103.898 108.376Z" fill="#FD5E3B"/>
</g>
</svg>
