<svg width="133" height="18" viewBox="0 0 133 18" fill="none" xmlns="http://www.w3.org/2000/svg">
<path d="M0.468 12.38L2.124 9.986C2.532 10.346 3.018 10.658 3.582 10.922C4.146 11.186 4.692 11.318 5.22 11.318C5.64 11.318 5.964 11.234 6.192 11.066C6.432 10.898 6.552 10.682 6.552 10.418C6.552 10.142 6.408 9.89 6.12 9.662C5.844 9.422 5.496 9.224 5.076 9.068C4.656 8.912 4.2 8.714 3.708 8.474C3.216 8.222 2.76 7.958 2.34 7.682C1.92 7.406 1.566 7.028 1.278 6.548C1.002 6.056 0.864 5.492 0.864 4.856C0.864 3.68 1.296 2.732 2.16 2.012C3.036 1.28 4.158 0.913999 5.526 0.913999C7.122 0.913999 8.466 1.4 9.558 2.372L8.226 4.946C7.854 4.622 7.41 4.352 6.894 4.136C6.378 3.92 5.874 3.812 5.382 3.812C4.926 3.812 4.584 3.896 4.356 4.064C4.128 4.232 4.014 4.454 4.014 4.73C4.014 5.006 4.152 5.258 4.428 5.486C4.716 5.714 5.07 5.906 5.49 6.062C5.91 6.206 6.366 6.398 6.858 6.638C7.35 6.866 7.806 7.118 8.226 7.394C8.646 7.658 8.994 8.036 9.27 8.528C9.558 9.008 9.702 9.566 9.702 10.202C9.702 11.342 9.294 12.296 8.478 13.064C7.674 13.832 6.558 14.216 5.13 14.216C4.266 14.216 3.42 14.06 2.592 13.748C1.776 13.436 1.068 12.98 0.468 12.38ZM11.7266 10.58V7.322H10.5386V4.892H11.8166V2.228H14.8406V4.892H16.7846V7.322H14.8406V10.166C14.8406 10.958 15.3926 11.354 16.4966 11.354C16.6406 11.354 16.7786 11.348 16.9106 11.336V14.036C16.4426 14.072 16.1606 14.09 16.0646 14.09C15.7766 14.09 15.4946 14.072 15.2186 14.036C14.9546 14.012 14.6426 13.958 14.2826 13.874C13.9346 13.79 13.6166 13.664 13.3286 13.496C13.0526 13.328 12.7886 13.124 12.5366 12.884C12.2846 12.632 12.0866 12.308 11.9426 11.912C11.7986 11.516 11.7266 11.072 11.7266 10.58ZM19.5067 12.884C18.4987 11.984 17.9947 10.82 17.9947 9.392C17.9947 7.964 18.4987 6.794 19.5067 5.882C20.5147 4.97 21.7567 4.514 23.2327 4.514C24.7207 4.514 25.9687 4.97 26.9767 5.882C27.9967 6.782 28.5067 7.952 28.5067 9.392C28.5067 10.82 28.0027 11.984 26.9947 12.884C25.9867 13.772 24.7387 14.216 23.2507 14.216C21.7627 14.216 20.5147 13.772 19.5067 12.884ZM21.1447 9.392C21.1447 10.064 21.3487 10.604 21.7567 11.012C22.1647 11.42 22.6627 11.624 23.2507 11.624C23.8387 11.624 24.3367 11.42 24.7447 11.012C25.1527 10.604 25.3567 10.064 25.3567 9.392C25.3567 8.708 25.1527 8.156 24.7447 7.736C24.3367 7.316 23.8387 7.106 23.2507 7.106C22.6627 7.106 22.1647 7.316 21.7567 7.736C21.3487 8.156 21.1447 8.708 21.1447 9.392ZM30.0655 14V4.73H33.0535V6.296L33.0175 6.872H33.0535C33.2575 6.224 33.6295 5.678 34.1695 5.234C34.7215 4.79 35.3335 4.568 36.0055 4.568C36.1015 4.568 36.2215 4.58 36.3655 4.604V7.664C36.2575 7.628 36.0475 7.61 35.7355 7.61C34.8955 7.61 34.2595 7.856 33.8275 8.348C33.3955 8.84 33.1795 9.524 33.1795 10.4V14H30.0655ZM37.2075 9.356C37.2075 7.964 37.6455 6.812 38.5215 5.9C39.3975 4.976 40.5675 4.514 42.0315 4.514C43.3635 4.514 44.4075 4.934 45.1635 5.774C45.9315 6.602 46.3155 7.676 46.3155 8.996C46.3155 9.212 46.2915 9.536 46.2435 9.968H40.3935C40.5015 10.508 40.7535 10.922 41.1495 11.21C41.5575 11.486 42.0255 11.624 42.5535 11.624C43.3215 11.624 44.1735 11.312 45.1095 10.688L46.2615 12.866C45.7695 13.286 45.1635 13.616 44.4435 13.856C43.7355 14.096 43.0215 14.216 42.3015 14.216C40.7295 14.216 39.4875 13.736 38.5755 12.776C37.6635 11.816 37.2075 10.676 37.2075 9.356ZM40.4655 8.186H43.2375C43.2375 7.79 43.1175 7.46 42.8775 7.196C42.6495 6.932 42.3435 6.8 41.9595 6.8C41.1675 6.8 40.6695 7.262 40.4655 8.186ZM52.2847 10.184V7.484H57.9367V10.184H52.2847ZM64.4822 14V11.3H67.2182V5.936L67.2362 4.946H67.2002C67.0922 5.186 66.9242 5.414 66.6962 5.63L65.9222 6.332L64.1042 4.388L67.5782 1.13H70.2962V11.3H73.0502V14H64.4822ZM79.2738 14V1.13H84.6198C85.8678 1.13 86.8758 1.544 87.6438 2.372C88.4238 3.2 88.8138 4.262 88.8138 5.558C88.8138 6.866 88.4238 7.94 87.6438 8.78C86.8758 9.608 85.8678 10.022 84.6198 10.022H82.4238V14H79.2738ZM82.4238 7.322H83.9718C84.4998 7.322 84.9018 7.16 85.1778 6.836C85.4658 6.512 85.6098 6.086 85.6098 5.558C85.6098 5.03 85.4718 4.61 85.1958 4.298C84.9198 3.986 84.5298 3.83 84.0258 3.83H82.4238V7.322ZM90.2701 10.58V1.13H93.3841V10.166C93.3841 10.622 93.4381 10.934 93.5461 11.102C93.6661 11.27 93.9001 11.354 94.2481 11.354C94.4041 11.354 94.5301 11.348 94.6261 11.336V14.036C94.1941 14.072 93.8821 14.09 93.6901 14.09C93.2101 14.09 92.7901 14.054 92.4301 13.982C92.0821 13.898 91.7281 13.742 91.3681 13.514C91.0201 13.286 90.7501 12.926 90.5581 12.434C90.3661 11.942 90.2701 11.324 90.2701 10.58ZM95.4585 11.39C95.4585 10.802 95.6205 10.292 95.9445 9.86C96.2685 9.428 96.6945 9.098 97.2225 8.87C97.7625 8.642 98.3205 8.48 98.8965 8.384C99.4725 8.276 100.073 8.222 100.697 8.222H100.967V8.06C100.967 7.376 100.529 7.034 99.6525 7.034C98.8365 7.034 97.9845 7.328 97.0965 7.916L96.0165 5.72C96.4365 5.396 97.0125 5.114 97.7445 4.874C98.4885 4.634 99.2205 4.514 99.9405 4.514C101.225 4.514 102.233 4.85 102.965 5.522C103.709 6.194 104.081 7.118 104.081 8.294V14H101.237V13.442L101.273 12.866H101.237C100.937 13.286 100.535 13.616 100.031 13.856C99.5385 14.096 99.0225 14.216 98.4825 14.216C97.5945 14.216 96.8685 13.946 96.3045 13.406C95.7405 12.866 95.4585 12.194 95.4585 11.39ZM98.5365 11.102C98.5365 11.33 98.6145 11.522 98.7705 11.678C98.9265 11.822 99.1425 11.894 99.4185 11.894C99.8505 11.894 100.223 11.72 100.535 11.372C100.847 11.024 101.003 10.652 101.003 10.256V10.004H100.715C100.139 10.004 99.6285 10.094 99.1845 10.274C98.7525 10.442 98.5365 10.718 98.5365 11.102ZM105.97 14.846C106.306 15.074 106.624 15.188 106.924 15.188C107.668 15.188 108.166 14.876 108.418 14.252L108.598 13.82L104.656 4.73H108.184L109.552 8.996L109.894 10.436H109.93C110.05 9.848 110.152 9.386 110.236 9.05L111.406 4.73H114.808L111.01 14.99C110.65 15.95 110.116 16.652 109.408 17.096C108.712 17.552 107.956 17.78 107.14 17.78C106.78 17.78 106.42 17.726 106.06 17.618C105.7 17.51 105.43 17.402 105.25 17.294L104.98 17.132L105.97 14.846ZM115.167 9.356C115.167 7.964 115.605 6.812 116.481 5.9C117.357 4.976 118.527 4.514 119.991 4.514C121.323 4.514 122.367 4.934 123.123 5.774C123.891 6.602 124.275 7.676 124.275 8.996C124.275 9.212 124.251 9.536 124.203 9.968H118.353C118.461 10.508 118.713 10.922 119.109 11.21C119.517 11.486 119.985 11.624 120.513 11.624C121.281 11.624 122.133 11.312 123.069 10.688L124.221 12.866C123.729 13.286 123.123 13.616 122.403 13.856C121.695 14.096 120.981 14.216 120.261 14.216C118.689 14.216 117.447 13.736 116.535 12.776C115.623 11.816 115.167 10.676 115.167 9.356ZM118.425 8.186H121.197C121.197 7.79 121.077 7.46 120.837 7.196C120.609 6.932 120.303 6.8 119.919 6.8C119.127 6.8 118.629 7.262 118.425 8.186ZM125.901 14V4.73H128.889V6.296L128.853 6.872H128.889C129.093 6.224 129.465 5.678 130.005 5.234C130.557 4.79 131.169 4.568 131.841 4.568C131.937 4.568 132.057 4.58 132.201 4.604V7.664C132.093 7.628 131.883 7.61 131.571 7.61C130.731 7.61 130.095 7.856 129.663 8.348C129.231 8.84 129.015 9.524 129.015 10.4V14H125.901Z" fill="#5A6989"/>
</svg>
