<svg width="142" height="18" viewBox="0 0 142 18" fill="none" xmlns="http://www.w3.org/2000/svg">
<path d="M0.468 12.38L2.124 9.986C2.532 10.346 3.018 10.658 3.582 10.922C4.146 11.186 4.692 11.318 5.22 11.318C5.64 11.318 5.964 11.234 6.192 11.066C6.432 10.898 6.552 10.682 6.552 10.418C6.552 10.142 6.408 9.89 6.12 9.662C5.844 9.422 5.496 9.224 5.076 9.068C4.656 8.912 4.2 8.714 3.708 8.474C3.216 8.222 2.76 7.958 2.34 7.682C1.92 7.406 1.566 7.028 1.278 6.548C1.002 6.056 0.864 5.492 0.864 4.856C0.864 3.68 1.296 2.732 2.16 2.012C3.036 1.28 4.158 0.913999 5.526 0.913999C7.122 0.913999 8.466 1.4 9.558 2.372L8.226 4.946C7.854 4.622 7.41 4.352 6.894 4.136C6.378 3.92 5.874 3.812 5.382 3.812C4.926 3.812 4.584 3.896 4.356 4.064C4.128 4.232 4.014 4.454 4.014 4.73C4.014 5.006 4.152 5.258 4.428 5.486C4.716 5.714 5.07 5.906 5.49 6.062C5.91 6.206 6.366 6.398 6.858 6.638C7.35 6.866 7.806 7.118 8.226 7.394C8.646 7.658 8.994 8.036 9.27 8.528C9.558 9.008 9.702 9.566 9.702 10.202C9.702 11.342 9.294 12.296 8.478 13.064C7.674 13.832 6.558 14.216 5.13 14.216C4.266 14.216 3.42 14.06 2.592 13.748C1.776 13.436 1.068 12.98 0.468 12.38ZM11.7266 10.58V7.322H10.5386V4.892H11.8166V2.228H14.8406V4.892H16.7846V7.322H14.8406V10.166C14.8406 10.958 15.3926 11.354 16.4966 11.354C16.6406 11.354 16.7786 11.348 16.9106 11.336V14.036C16.4426 14.072 16.1606 14.09 16.0646 14.09C15.7766 14.09 15.4946 14.072 15.2186 14.036C14.9546 14.012 14.6426 13.958 14.2826 13.874C13.9346 13.79 13.6166 13.664 13.3286 13.496C13.0526 13.328 12.7886 13.124 12.5366 12.884C12.2846 12.632 12.0866 12.308 11.9426 11.912C11.7986 11.516 11.7266 11.072 11.7266 10.58ZM19.5067 12.884C18.4987 11.984 17.9947 10.82 17.9947 9.392C17.9947 7.964 18.4987 6.794 19.5067 5.882C20.5147 4.97 21.7567 4.514 23.2327 4.514C24.7207 4.514 25.9687 4.97 26.9767 5.882C27.9967 6.782 28.5067 7.952 28.5067 9.392C28.5067 10.82 28.0027 11.984 26.9947 12.884C25.9867 13.772 24.7387 14.216 23.2507 14.216C21.7627 14.216 20.5147 13.772 19.5067 12.884ZM21.1447 9.392C21.1447 10.064 21.3487 10.604 21.7567 11.012C22.1647 11.42 22.6627 11.624 23.2507 11.624C23.8387 11.624 24.3367 11.42 24.7447 11.012C25.1527 10.604 25.3567 10.064 25.3567 9.392C25.3567 8.708 25.1527 8.156 24.7447 7.736C24.3367 7.316 23.8387 7.106 23.2507 7.106C22.6627 7.106 22.1647 7.316 21.7567 7.736C21.3487 8.156 21.1447 8.708 21.1447 9.392ZM30.0655 14V4.73H33.0535V6.296L33.0175 6.872H33.0535C33.2575 6.224 33.6295 5.678 34.1695 5.234C34.7215 4.79 35.3335 4.568 36.0055 4.568C36.1015 4.568 36.2215 4.58 36.3655 4.604V7.664C36.2575 7.628 36.0475 7.61 35.7355 7.61C34.8955 7.61 34.2595 7.856 33.8275 8.348C33.3955 8.84 33.1795 9.524 33.1795 10.4V14H30.0655ZM37.2075 9.356C37.2075 7.964 37.6455 6.812 38.5215 5.9C39.3975 4.976 40.5675 4.514 42.0315 4.514C43.3635 4.514 44.4075 4.934 45.1635 5.774C45.9315 6.602 46.3155 7.676 46.3155 8.996C46.3155 9.212 46.2915 9.536 46.2435 9.968H40.3935C40.5015 10.508 40.7535 10.922 41.1495 11.21C41.5575 11.486 42.0255 11.624 42.5535 11.624C43.3215 11.624 44.1735 11.312 45.1095 10.688L46.2615 12.866C45.7695 13.286 45.1635 13.616 44.4435 13.856C43.7355 14.096 43.0215 14.216 42.3015 14.216C40.7295 14.216 39.4875 13.736 38.5755 12.776C37.6635 11.816 37.2075 10.676 37.2075 9.356ZM40.4655 8.186H43.2375C43.2375 7.79 43.1175 7.46 42.8775 7.196C42.6495 6.932 42.3435 6.8 41.9595 6.8C41.1675 6.8 40.6695 7.262 40.4655 8.186ZM52.2847 10.184V7.484H57.9367V10.184H52.2847ZM64.4822 14C64.3862 13.46 64.3382 12.998 64.3382 12.614C64.3382 11.87 64.4762 11.18 64.7522 10.544C65.0282 9.908 65.3702 9.386 65.7782 8.978C66.1862 8.57 66.6302 8.18 67.1102 7.808C67.6022 7.436 68.0522 7.124 68.4602 6.872C68.8682 6.608 69.2102 6.332 69.4862 6.044C69.7622 5.744 69.9002 5.45 69.9002 5.162C69.9002 4.742 69.7622 4.424 69.4862 4.208C69.2102 3.992 68.8862 3.884 68.5142 3.884C68.1182 3.884 67.7522 4.016 67.4162 4.28C67.0802 4.544 66.8102 4.868 66.6062 5.252L64.2662 3.686C64.6862 2.87 65.2742 2.204 66.0302 1.688C66.7982 1.172 67.7222 0.913999 68.8022 0.913999C69.9782 0.913999 71.0042 1.256 71.8802 1.94C72.7562 2.612 73.1942 3.584 73.1942 4.856C73.1942 5.6 73.0142 6.278 72.6542 6.89C72.2942 7.502 71.8562 8.006 71.3402 8.402C70.8242 8.786 70.3082 9.14 69.7922 9.464C69.2762 9.776 68.8262 10.088 68.4422 10.4C68.0582 10.7 67.8542 11 67.8302 11.3H73.3922V14H64.4822ZM80.1176 14V1.13H85.4636C86.7116 1.13 87.7196 1.544 88.4876 2.372C89.2676 3.2 89.6576 4.262 89.6576 5.558C89.6576 6.866 89.2676 7.94 88.4876 8.78C87.7196 9.608 86.7116 10.022 85.4636 10.022H83.2676V14H80.1176ZM83.2676 7.322H84.8156C85.3436 7.322 85.7456 7.16 86.0216 6.836C86.3096 6.512 86.4536 6.086 86.4536 5.558C86.4536 5.03 86.3156 4.61 86.0396 4.298C85.7636 3.986 85.3736 3.83 84.8696 3.83H83.2676V7.322ZM91.1139 10.58V1.13H94.2279V10.166C94.2279 10.622 94.2819 10.934 94.3899 11.102C94.5099 11.27 94.7439 11.354 95.0919 11.354C95.2479 11.354 95.3739 11.348 95.4699 11.336V14.036C95.0379 14.072 94.7259 14.09 94.5339 14.09C94.0539 14.09 93.6339 14.054 93.2739 13.982C92.9259 13.898 92.5719 13.742 92.2119 13.514C91.8639 13.286 91.5939 12.926 91.4019 12.434C91.2099 11.942 91.1139 11.324 91.1139 10.58ZM96.3023 11.39C96.3023 10.802 96.4643 10.292 96.7883 9.86C97.1123 9.428 97.5383 9.098 98.0663 8.87C98.6063 8.642 99.1643 8.48 99.7403 8.384C100.316 8.276 100.916 8.222 101.54 8.222H101.81V8.06C101.81 7.376 101.372 7.034 100.496 7.034C99.6803 7.034 98.8283 7.328 97.9403 7.916L96.8603 5.72C97.2803 5.396 97.8563 5.114 98.5883 4.874C99.3323 4.634 100.064 4.514 100.784 4.514C102.068 4.514 103.076 4.85 103.808 5.522C104.552 6.194 104.924 7.118 104.924 8.294V14H102.08V13.442L102.116 12.866H102.08C101.78 13.286 101.378 13.616 100.874 13.856C100.382 14.096 99.8663 14.216 99.3263 14.216C98.4383 14.216 97.7123 13.946 97.1483 13.406C96.5843 12.866 96.3023 12.194 96.3023 11.39ZM99.3803 11.102C99.3803 11.33 99.4583 11.522 99.6143 11.678C99.7703 11.822 99.9863 11.894 100.262 11.894C100.694 11.894 101.066 11.72 101.378 11.372C101.69 11.024 101.846 10.652 101.846 10.256V10.004H101.558C100.982 10.004 100.472 10.094 100.028 10.274C99.5963 10.442 99.3803 10.718 99.3803 11.102ZM106.814 14.846C107.15 15.074 107.468 15.188 107.768 15.188C108.512 15.188 109.01 14.876 109.262 14.252L109.442 13.82L105.5 4.73H109.028L110.396 8.996L110.738 10.436H110.774C110.894 9.848 110.996 9.386 111.08 9.05L112.25 4.73H115.652L111.854 14.99C111.494 15.95 110.96 16.652 110.252 17.096C109.556 17.552 108.8 17.78 107.984 17.78C107.624 17.78 107.264 17.726 106.904 17.618C106.544 17.51 106.274 17.402 106.094 17.294L105.824 17.132L106.814 14.846ZM116.01 9.356C116.01 7.964 116.448 6.812 117.324 5.9C118.2 4.976 119.37 4.514 120.834 4.514C122.166 4.514 123.21 4.934 123.966 5.774C124.734 6.602 125.118 7.676 125.118 8.996C125.118 9.212 125.094 9.536 125.046 9.968H119.196C119.304 10.508 119.556 10.922 119.952 11.21C120.36 11.486 120.828 11.624 121.356 11.624C122.124 11.624 122.976 11.312 123.912 10.688L125.064 12.866C124.572 13.286 123.966 13.616 123.246 13.856C122.538 14.096 121.824 14.216 121.104 14.216C119.532 14.216 118.29 13.736 117.378 12.776C116.466 11.816 116.01 10.676 116.01 9.356ZM119.268 8.186H122.04C122.04 7.79 121.92 7.46 121.68 7.196C121.452 6.932 121.146 6.8 120.762 6.8C119.97 6.8 119.472 7.262 119.268 8.186ZM126.745 14V4.73H129.733V6.296L129.697 6.872H129.733C129.937 6.224 130.309 5.678 130.849 5.234C131.401 4.79 132.013 4.568 132.685 4.568C132.781 4.568 132.901 4.58 133.045 4.604V7.664C132.937 7.628 132.727 7.61 132.415 7.61C131.575 7.61 130.939 7.856 130.507 8.348C130.075 8.84 129.859 9.524 129.859 10.4V14H126.745ZM133.707 12.848L135.039 10.814C135.783 11.438 136.623 11.75 137.559 11.75C138.123 11.75 138.405 11.588 138.405 11.264C138.405 11.084 138.255 10.928 137.955 10.796C137.655 10.652 137.295 10.508 136.875 10.364C136.455 10.22 136.029 10.046 135.597 9.842C135.177 9.626 134.817 9.314 134.517 8.906C134.217 8.498 134.067 8.012 134.067 7.448C134.067 6.524 134.427 5.804 135.147 5.288C135.879 4.772 136.803 4.514 137.919 4.514C139.251 4.514 140.355 4.868 141.231 5.576L140.169 7.736C139.905 7.52 139.545 7.34 139.089 7.196C138.645 7.052 138.225 6.98 137.829 6.98C137.253 6.98 136.965 7.13 136.965 7.43C136.965 7.574 137.073 7.712 137.289 7.844C137.505 7.964 137.769 8.072 138.081 8.168C138.405 8.252 138.753 8.378 139.125 8.546C139.509 8.702 139.857 8.882 140.169 9.086C140.493 9.278 140.763 9.56 140.979 9.932C141.195 10.292 141.303 10.706 141.303 11.174C141.303 12.062 140.955 12.794 140.259 13.37C139.575 13.934 138.651 14.216 137.487 14.216C135.987 14.216 134.727 13.76 133.707 12.848Z" fill="#5A6989"/>
</svg>
