<svg width="26" height="26" viewBox="0 0 26 26" fill="none" xmlns="http://www.w3.org/2000/svg">
<path d="M12.7451 24.8634C19.784 24.8634 25.4902 19.2975 25.4902 12.4317C25.4902 5.56585 19.784 0 12.7451 0C5.70617 0 0 5.56585 0 12.4317C0 19.2975 5.70617 24.8634 12.7451 24.8634Z" fill="#DB8E05"/>
<path d="M18.3568 12.741C18.547 13.1739 18.6262 13.6996 18.6262 14.3026C18.6262 15.0294 18.4836 15.6479 18.2299 16.1427C17.9763 16.6529 17.6276 17.0704 17.2154 17.3796C16.8033 17.7043 16.3277 17.9363 15.7887 18.1064C15.5961 18.1616 15.4014 18.211 15.2054 18.253C14.6137 18.3798 14.1367 18.8715 14.1324 19.4767L14.1296 19.8792C14.1266 20.2916 13.7892 20.6232 13.3767 20.619C12.9662 20.6147 12.6365 20.2792 12.6394 19.8686L12.6424 19.4375C12.6467 18.825 12.1789 18.3184 11.5768 18.2058C11.087 18.1142 10.6004 17.9893 10.1137 17.828C9.83467 17.7408 9.56617 17.6449 9.30757 17.5417C8.46926 17.2072 8.18211 16.2091 8.59061 15.4042L8.88867 14.8169C9.18736 14.2284 9.94229 14.0098 10.5258 14.3181C10.8429 14.4727 11.2233 14.6428 11.6513 14.7974C11.7651 14.8385 11.8789 14.8764 11.9929 14.9112C12.4867 15.062 12.9558 14.6686 12.9608 14.1524C12.9645 13.7754 12.7146 13.4459 12.3544 13.335C12.1781 13.2807 12.0019 13.2229 11.8257 13.1584C11.2392 12.9574 10.7478 12.741 10.3197 12.509C9.90759 12.2771 9.55885 12.0142 9.28936 11.7359C9.01987 11.4421 8.82965 11.1174 8.70283 10.7463C8.57602 10.3752 8.51261 9.95774 8.51261 9.47841C8.51261 8.81353 8.63942 8.22597 8.86135 7.73117C9.08328 7.22092 9.40033 6.78797 9.78078 6.43234C10.1612 6.06125 10.6209 5.78293 11.1282 5.56645C11.3758 5.46081 11.6346 5.37359 11.903 5.30657C12.3896 5.18504 12.7801 4.77968 12.7844 4.27814L12.7863 4.05541C12.7898 3.64338 13.1271 3.31243 13.5391 3.31671C13.9501 3.32097 14.28 3.65715 14.2765 4.06809L14.2744 4.3075C14.2702 4.81204 14.6503 5.23037 15.1415 5.34574C15.2474 5.37063 15.3522 5.39781 15.4558 5.42729C15.8363 5.53553 16.2009 5.64377 16.5655 5.78293C16.9142 5.92209 17.2471 6.04578 17.5483 6.20041C18.0132 6.41522 18.1984 6.984 17.9552 7.43472L17.302 8.64542C17.0408 9.12944 16.4257 9.28656 15.9314 9.04547C15.6619 8.90631 15.3607 8.78261 15.012 8.65891C14.9915 8.65131 14.971 8.64382 14.9504 8.63645C14.4561 8.45944 13.977 8.85878 13.972 9.38377L13.9692 9.66981C13.9672 9.88527 14.1121 10.0693 14.3145 10.1433C14.4413 10.1897 14.5681 10.2361 14.7108 10.267C15.3132 10.4525 15.868 10.669 16.3435 10.8855C16.835 11.1174 17.2471 11.3803 17.5959 11.6741C17.9129 11.9369 18.1665 12.308 18.3568 12.741ZM14.5206 14.9984C14.6474 14.9057 14.7108 14.7665 14.7108 14.6119C14.7108 14.4418 14.6474 14.2872 14.4889 14.1635C14.2527 13.9331 13.8982 14.1758 13.8944 14.5057L13.8934 14.5897C13.8897 14.9064 14.1818 15.1914 14.4588 15.0377C14.4811 15.0253 14.5017 15.0122 14.5206 14.9984ZM12.465 9.36464C12.6572 9.58086 12.9864 9.36061 12.9897 9.0713L12.9917 8.89572C12.9954 8.56611 12.6688 8.26749 12.4233 8.48744C12.3108 8.58821 12.2537 8.72213 12.2537 8.89084C12.2537 9.05995 12.3064 9.20336 12.4117 9.30939C12.4323 9.33011 12.4456 9.34281 12.465 9.36464Z" fill="url(#paint0_linear)"/>
<path d="M12.9987 8.73331C12.9987 8.3408 12.572 7.97431 12.3461 8.29528C12.2847 8.3825 12.2537 8.48799 12.2537 8.61239C12.2537 8.6489 12.2968 8.65132 12.3144 8.61932C12.3932 8.47601 12.5474 8.38008 12.7689 8.31948C12.8874 8.28702 12.9971 8.38396 12.9954 8.50689L12.983 9.37763C12.9829 9.382 12.9804 9.3855 12.9848 9.3855C12.9892 9.3855 12.9987 9.38193 12.9987 9.37752V8.73331Z" fill="white"/>
<path d="M15.9155 8.72067C15.646 8.58151 15.3448 8.45781 14.9961 8.33411C14.7171 8.23046 14.427 8.14851 14.1351 8.08829C14.047 8.07011 13.9657 8.13835 13.9657 8.22833C13.9657 8.29847 14.0161 8.3583 14.0848 8.37203C14.3906 8.43307 14.6854 8.51835 14.9802 8.6279C15.3131 8.75159 15.6302 8.87529 15.8997 9.01445C16.3878 9.25253 17.0125 9.09197 17.2704 8.614L18.3428 6.62664C18.359 6.59651 18.3464 6.55966 18.3145 6.54722C18.2845 6.53551 18.2495 6.54728 18.2341 6.57556L17.2866 8.31341C17.0248 8.79363 16.4163 8.9405 15.9155 8.72067Z" fill="white"/>
<path d="M14.5047 13.8697C14.4004 13.768 14.2622 13.6827 14.1025 13.608C14.0152 13.5672 13.9182 13.6335 13.9182 13.7298C13.9182 13.7862 13.953 13.8364 14.0045 13.8592C14.2027 13.9468 14.3659 14.0551 14.5047 14.1635C14.5692 14.2174 14.6176 14.2765 14.6531 14.3408C14.6758 14.3821 14.7425 14.3806 14.7425 14.3336C14.7267 14.1635 14.6633 14.0089 14.5047 13.8697Z" fill="white"/>
<path d="M13.3738 20.3252C12.9649 20.3209 12.6365 19.9867 12.6393 19.5777L12.6424 19.1438C12.6467 18.5312 12.1789 18.0246 11.5767 17.912C11.087 17.8204 10.6003 17.6955 10.1137 17.5343C9.37119 17.3025 8.68436 17.0029 8.07923 16.6609C8.01356 16.6238 7.92984 16.6494 7.89729 16.7175C7.86865 16.7773 7.89006 16.8492 7.94734 16.8828C8.58739 17.2574 9.29968 17.5629 10.0978 17.8126C10.5883 17.966 11.0787 18.0879 11.5723 18.1812C12.1714 18.2944 12.6309 18.8022 12.6266 19.4119L12.6235 19.8558C12.6206 20.2649 12.9492 20.5992 13.3582 20.6035L13.9678 20.6098C14.0452 20.6106 14.1084 20.5481 14.1084 20.4706C14.1084 20.3944 14.047 20.3323 13.9707 20.3315L13.3738 20.3252Z" fill="white"/>
<path d="M18.23 15.8643C17.9763 16.3745 17.6276 16.792 17.2154 17.1012C16.8033 17.426 16.3277 17.6579 15.7888 17.828C15.2923 17.9704 14.7824 18.0735 14.2714 18.113C14.1978 18.1187 14.1401 18.1795 14.1401 18.2533C14.1401 18.333 14.2071 18.3966 14.2866 18.3907C14.8035 18.3526 15.2961 18.2618 15.7888 18.1063C16.3277 17.9517 16.8033 17.7043 17.2154 17.3796C17.6276 17.0549 17.9763 16.6528 18.23 16.1426C18.4836 15.6633 18.6104 15.0757 18.6263 14.3799C18.5787 14.952 18.4519 15.4468 18.23 15.8643Z" fill="white"/>
<path d="M9.25771 11.705C9.5272 11.9988 9.87594 12.2616 10.2881 12.4781C10.7003 12.7101 11.2075 12.9265 11.794 13.1275C11.9843 13.1971 12.1745 13.2628 12.3647 13.3227C12.6958 13.427 12.9325 13.729 12.9283 14.0761L12.9196 14.805C12.9196 14.8094 12.9171 14.8129 12.9215 14.8129C12.9259 14.8129 12.9354 14.8094 12.9355 14.805L12.9444 13.8959C12.9484 13.4786 12.6716 13.1148 12.2735 12.9901C12.1189 12.9417 11.9644 12.8903 11.8099 12.8338C11.2234 12.6327 10.732 12.4163 10.3039 12.1843C9.89179 11.9524 9.54305 11.6895 9.27356 11.4112C9.00408 11.1174 8.81385 10.7927 8.68703 10.4216C8.56022 10.0505 8.49681 9.63306 8.49681 9.16919C8.49681 9.26196 8.48096 9.35474 8.48096 9.44751C8.48096 9.92684 8.54437 10.3443 8.67118 10.7154C8.798 11.0865 8.98822 11.4112 9.25771 11.705Z" fill="white"/>
<path d="M12.7768 4.8241L12.7927 3.25494C12.7927 3.25054 12.7891 3.24695 12.7847 3.24695C12.7804 3.24695 12.7768 3.25049 12.7768 3.25486V4.8241C12.7609 4.8241 12.7609 4.8241 12.7768 4.8241Z" fill="white"/>
<path d="M13.4108 1.73179C19.4346 1.79364 24.2853 6.67972 24.2219 12.6327C24.1743 18.5857 19.2285 23.3945 13.2047 23.3326C7.18089 23.2708 2.33015 18.3847 2.39356 12.4317C2.45697 6.47871 7.38697 1.66994 13.4108 1.73179ZM13.2205 22.745C18.9114 22.7914 23.5878 18.261 23.6354 12.6327C23.6829 7.00443 19.1017 2.38121 13.4108 2.31936C7.71986 2.27297 3.04349 6.80342 2.99594 12.4317C2.93253 18.06 7.52964 22.6987 13.2205 22.745Z" fill="url(#paint1_linear)"/>
<path d="M13.4267 0.170075C20.3223 0.231924 25.8706 5.82927 25.8072 12.6481C25.7438 19.4825 20.1004 24.9561 13.1889 24.8943C6.29323 24.8324 0.744991 19.2351 0.808399 12.4162C0.871808 5.58187 6.53101 0.108226 13.4267 0.170075ZM13.2047 23.3326C19.2285 23.3944 24.1585 18.5857 24.222 12.6327C24.2695 6.6797 19.4188 1.77815 13.4108 1.73177C7.38702 1.66992 2.45702 6.47869 2.39361 12.4317C2.34605 18.3846 7.1968 23.2707 13.2047 23.3326Z" fill="url(#paint2_linear)"/>
<path d="M14.4887 14.1634C14.2535 13.9339 13.898 14.169 13.8942 14.4976L13.893 14.6024C13.8894 14.9091 14.1621 15.1876 14.436 15.0496C14.4673 15.0338 14.4954 15.0167 14.5205 14.9984C14.6473 14.9056 14.7107 14.7665 14.7107 14.6118C14.7107 14.4418 14.6473 14.2871 14.4887 14.1634ZM12.294 8.6402C12.288 8.65238 12.2898 8.66434 12.2825 8.67577C12.2768 8.68472 12.2668 8.69453 12.2627 8.7043C12.2377 8.76351 12.2377 8.83488 12.2377 8.90626C12.2377 8.92172 12.2377 8.92172 12.2377 8.93718C12.2377 8.98357 12.2536 9.02995 12.2536 9.07634C12.2536 9.0918 12.2695 9.12273 12.2695 9.13819C12.2695 9.15365 12.2853 9.15365 12.2853 9.16912C12.2853 9.1921 12.3094 9.20997 12.3206 9.23005C12.3214 9.23141 12.3222 9.23277 12.323 9.23414C12.3286 9.243 12.3351 9.25129 12.3408 9.26005C12.358 9.28643 12.3851 9.31282 12.4121 9.3392C12.6385 9.55997 12.9707 9.33242 12.9743 9.01627L12.9757 8.89614C12.9794 8.56643 12.6519 8.26779 12.4079 8.48965C12.3599 8.53336 12.3218 8.58344 12.294 8.6402ZM23.6354 12.6327C23.683 7.00439 19.1017 2.38117 13.4108 2.31932C7.7199 2.27294 3.04353 6.80339 2.99597 12.4317C2.94842 18.0599 7.52967 22.6832 13.2206 22.745C18.9115 22.8069 23.5879 18.2609 23.6354 12.6327ZM18.214 16.1426C17.9604 16.6529 17.6116 17.0703 17.1995 17.3796C16.7873 17.7043 16.3117 17.9362 15.7728 18.1063C15.5801 18.1616 15.3855 18.2109 15.1895 18.2529C14.5977 18.3798 14.1208 18.8714 14.1165 19.4766L14.1136 19.8791C14.1107 20.2916 13.7732 20.6232 13.3608 20.6189C12.9503 20.6147 12.6205 20.2791 12.6234 19.8686L12.6264 19.4375C12.6307 18.8249 12.163 18.3183 11.5609 18.2057C11.0711 18.1141 10.5844 17.9892 10.0977 17.828C9.81872 17.7407 9.55021 17.6449 9.29162 17.5417C8.4533 17.2071 8.16616 16.209 8.57466 15.4041L8.87272 14.8169C9.1714 14.2283 9.92634 14.0097 10.5099 14.3181C10.8269 14.4727 11.2074 14.6428 11.6354 14.7974C11.7491 14.8385 11.8629 14.8763 11.977 14.9111C12.4707 15.0619 12.9398 14.6685 12.9449 14.1523C12.9485 13.7754 12.6987 13.4459 12.3384 13.3349C12.1622 13.2807 11.986 13.2228 11.8097 13.1584C11.2232 12.9574 10.7318 12.7409 10.3038 12.509C9.89164 12.277 9.54289 12.0142 9.27341 11.7359C9.00392 11.4421 8.81369 11.1174 8.68688 10.7463C8.56006 10.3752 8.49665 9.95769 8.49665 9.47836C8.49665 8.81348 8.62347 8.22592 8.8454 7.73112C9.06733 7.22087 9.38437 6.78792 9.76482 6.43229C10.1453 6.0612 10.605 5.78287 11.1122 5.5664C11.3598 5.46076 11.6187 5.37354 11.887 5.30652C12.3736 5.18499 12.7642 4.77963 12.7684 4.27809L12.7703 4.05536C12.7739 3.64333 13.1111 3.31238 13.5232 3.31665C13.9341 3.32092 14.264 3.65709 14.2605 4.06804L14.2585 4.30745C14.2542 4.81199 14.6343 5.23031 15.1255 5.34569C15.2315 5.37058 15.3363 5.39776 15.4399 5.42724C15.8203 5.53548 16.1849 5.64371 16.5495 5.78287C16.8983 5.92204 17.2312 6.04573 17.5324 6.20036C17.9973 6.41517 18.1825 6.98395 17.9393 7.43467L17.286 8.64537C17.0248 9.12939 16.4098 9.28651 15.9154 9.04542C15.646 8.90626 15.3448 8.78256 14.996 8.65886C14.9756 8.65126 14.955 8.64377 14.9345 8.6364C14.4402 8.45939 13.961 8.85873 13.956 9.38372L13.9533 9.66976C13.9512 9.88522 14.0962 10.0692 14.2985 10.1432C14.4253 10.1896 14.5522 10.236 14.6948 10.2669C15.2972 10.4525 15.852 10.669 16.3276 10.8854C16.819 11.1174 17.2312 11.3802 17.5799 11.674C17.9287 11.9833 18.1823 12.3389 18.3725 12.7718C18.5627 13.2048 18.642 13.7305 18.642 14.3335C18.6103 15.0293 18.4835 15.6323 18.214 16.1426Z" fill="url(#paint3_linear)"/>
<path d="M13.2682 2.55123C18.9591 2.59762 23.5563 7.2363 23.4928 12.8646C23.477 14.5964 23.0331 16.2199 22.2405 17.627C23.0965 16.158 23.6038 14.4417 23.6197 12.6326C23.6672 7.00437 19.086 2.38115 13.3951 2.3193C9.44789 2.28837 5.99213 4.45309 4.23254 7.66925C6.03968 4.57679 9.41618 2.52031 13.2682 2.55123Z" fill="#C47400"/>
<path d="M0.80832 12.4162C0.855876 7.994 3.21784 4.14389 6.76871 1.99463C3.05932 4.11296 0.538834 8.05584 0.50713 12.6018C0.443722 19.4361 5.99196 25.018 12.8876 25.0798C14.9642 25.0953 16.9141 24.616 18.6419 23.7501L19.387 23.348C17.564 24.3531 15.4398 24.9252 13.2047 24.8943C6.29315 24.8324 0.744911 19.2505 0.80832 12.4162Z" fill="#DB8E05"/>
<path d="M12.1744 9.12276C12.1744 9.30831 12.2378 9.46293 12.3647 9.57117C12.463 9.66709 12.6281 9.7723 12.8155 9.85798C12.8954 9.89453 12.9829 9.83368 12.9829 9.74576C12.9829 9.69596 12.9536 9.65095 12.9086 9.62975C12.7223 9.54208 12.5259 9.43465 12.4281 9.33924C12.3013 9.21554 12.2378 9.07638 12.2378 8.89083C12.2378 8.87516 12.2183 8.87081 12.2127 8.88547C12.1845 8.95996 12.1744 9.03645 12.1744 9.12276Z" fill="#C47400"/>
<path d="M13.9245 10.1281C13.9295 10.0561 13.9993 10.0065 14.0685 10.0268C14.1365 10.0468 14.2068 10.0691 14.2828 10.0969C14.4096 10.1433 14.5364 10.1897 14.6791 10.2206C15.2815 10.4061 15.8363 10.6226 16.3119 10.8391C16.8033 11.071 17.2155 11.3339 17.5642 11.6276C17.9129 11.9369 18.1666 12.2925 18.3568 12.7255C18.547 13.1584 18.6263 13.6841 18.6263 14.2872C18.6263 14.8283 18.547 15.3231 18.3885 15.7406C18.4836 15.3695 18.547 14.9675 18.547 14.5191C18.547 13.9006 18.4678 13.3904 18.2775 12.9574C18.1032 12.5245 17.8337 12.1534 17.4849 11.8596C17.1362 11.5503 16.724 11.2875 16.2326 11.071C15.7412 10.8391 15.2022 10.6381 14.5999 10.4525C14.483 10.4272 14.175 10.3086 14.0062 10.2495C13.9553 10.2316 13.9209 10.1819 13.9245 10.1281Z" fill="#C47400"/>
<path d="M14.6001 15.038C14.6191 14.9908 14.5631 14.9706 14.5205 14.9984C14.2297 15.2111 13.89 14.8638 13.8942 14.5035L13.9021 13.8188C13.9022 13.8118 13.9 13.8051 13.8939 13.8016C13.8742 13.7904 13.8385 13.8144 13.8383 13.837L13.8279 14.8933C13.8253 15.1682 14.0646 15.4104 14.3189 15.3059C14.3726 15.2839 14.4185 15.2585 14.4571 15.2303C14.5222 15.1758 14.571 15.1107 14.6001 15.038Z" fill="#C47400"/>
<path d="M14.0693 18.3997C14.0583 18.4003 14.0449 18.409 14.0448 18.4199L14.0293 20.5792C14.0292 20.5968 14.0434 20.6112 14.0611 20.6112C14.0786 20.6112 14.0928 20.5971 14.0929 20.5796L14.1083 18.4324C14.1084 18.4146 14.087 18.3987 14.0693 18.3997Z" fill="#C47400"/>
<path d="M8.7915 15.0323C9.09146 14.4439 9.8468 14.226 10.4307 14.5345C10.7477 14.6891 11.1282 14.8592 11.5562 15.0138C11.94 15.1525 12.3875 15.2663 12.7959 15.3329C12.8695 15.3449 12.9353 15.2875 12.9353 15.2129C12.9353 15.1519 12.8905 15.1003 12.8303 15.0904C12.4307 15.0245 11.9996 14.9085 11.6355 14.7664C11.2074 14.6118 10.8428 14.4417 10.51 14.2871C9.91662 13.9977 9.17142 14.1975 8.87266 14.7862L7.85878 16.7839C7.85329 16.7947 7.85822 16.8135 7.86841 16.8201C7.87355 16.8234 7.88025 16.8195 7.88303 16.8141L8.7915 15.0323Z" fill="#C47400"/>
<path d="M8.76636 7.91672C8.98829 7.40646 9.30533 6.97352 9.68578 6.61788C10.0662 6.24679 10.5259 5.96847 11.0332 5.752C11.5118 5.54776 12.1033 5.41234 12.6479 5.34574C12.7032 5.33897 12.7452 5.29226 12.7452 5.2365C12.7452 5.17269 12.6908 5.12237 12.6273 5.12895C12.0962 5.18397 11.5689 5.31851 11.0966 5.52006C10.5894 5.73653 10.1296 6.03032 9.74919 6.38595C9.36874 6.75704 9.0517 7.18999 8.82977 7.68478C8.75051 7.85487 8.70295 8.02495 8.6554 8.2105C8.6871 8.11773 8.7188 8.00949 8.76636 7.91672Z" fill="#C47400"/>
<path d="M13.4792 3.48658C13.8707 3.49087 14.1849 3.81123 14.1816 4.20277L14.1792 4.47715C14.175 4.98185 14.5552 5.4003 15.0465 5.51573C15.1524 5.5406 15.2571 5.56776 15.3606 5.59722C15.7411 5.70545 16.1057 5.81369 16.4703 5.95285C16.819 6.09201 17.1519 6.21571 17.4531 6.37033C17.6986 6.49004 17.9323 6.5983 18.1543 6.70497C18.214 6.73365 18.2857 6.70973 18.3159 6.65081C18.347 6.5902 18.3223 6.51588 18.261 6.48608C18.0361 6.37666 17.7879 6.25753 17.5165 6.1384C17.2153 5.99924 16.8824 5.86007 16.5337 5.72091C16.1849 5.58175 15.8203 5.47352 15.424 5.36528C15.3201 5.33994 15.215 5.31459 15.1087 5.29019C14.6179 5.17755 14.2416 4.74891 14.2502 4.24547L14.2542 4.00597C14.2612 3.59611 13.9331 3.25895 13.5232 3.25469L12.8939 3.24816C12.8294 3.24749 12.7767 3.29962 12.7767 3.36415C12.7767 3.42772 12.8279 3.47944 12.8915 3.48014L13.4792 3.48658Z" fill="#C47400"/>
<rect y="15" width="26" height="10" rx="1" fill="#F04B26"/>
<path d="M5.70942 17.0938V18.2451H6.59711V18.8735H5.70942V21.8223C5.70942 22.0127 5.74897 22.1562 5.82807 22.2529C5.90717 22.3467 6.04193 22.3936 6.23236 22.3936C6.32611 22.3936 6.45502 22.376 6.61908 22.3408V23C6.40522 23.0586 6.19721 23.0879 5.99506 23.0879C5.63178 23.0879 5.35785 22.978 5.17328 22.7583C4.98871 22.5386 4.89643 22.2266 4.89643 21.8223V18.8735H4.0307V18.2451H4.89643V17.0938H5.70942ZM7.2475 20.5786C7.2475 20.1128 7.33832 19.6938 7.51996 19.3218C7.70453 18.9497 7.95942 18.6626 8.28461 18.4604C8.61274 18.2583 8.98627 18.1572 9.40522 18.1572C10.0527 18.1572 10.5756 18.3813 10.9741 18.8296C11.3754 19.2778 11.5761 19.874 11.5761 20.6182V20.6753C11.5761 21.1382 11.4868 21.5542 11.308 21.9233C11.1323 22.2896 10.8788 22.5752 10.5478 22.7803C10.2197 22.9854 9.84174 23.0879 9.41401 23.0879C8.76947 23.0879 8.24652 22.8638 7.84516 22.4155C7.44672 21.9673 7.2475 21.374 7.2475 20.6357V20.5786ZM8.06488 20.6753C8.06488 21.2026 8.18647 21.626 8.42963 21.9453C8.67572 22.2646 9.00385 22.4243 9.41401 22.4243C9.82709 22.4243 10.1552 22.2632 10.3984 21.9409C10.6415 21.6157 10.7631 21.1616 10.7631 20.5786C10.7631 20.0571 10.6386 19.6353 10.3896 19.313C10.1435 18.9878 9.81537 18.8252 9.40522 18.8252C9.00385 18.8252 8.68012 18.9849 8.43402 19.3042C8.18793 19.6235 8.06488 20.0806 8.06488 20.6753ZM13.6987 17.0938V18.2451H14.5864V18.8735H13.6987V21.8223C13.6987 22.0127 13.7382 22.1562 13.8173 22.2529C13.8964 22.3467 14.0312 22.3936 14.2216 22.3936C14.3154 22.3936 14.4443 22.376 14.6083 22.3408V23C14.3945 23.0586 14.1865 23.0879 13.9843 23.0879C13.621 23.0879 13.3471 22.978 13.1625 22.7583C12.978 22.5386 12.8857 22.2266 12.8857 21.8223V18.8735H12.02V18.2451H12.8857V17.0938H13.6987ZM18.4755 23C18.4287 22.9062 18.3906 22.7393 18.3613 22.499C17.9833 22.8916 17.5322 23.0879 17.0078 23.0879C16.539 23.0879 16.1538 22.9561 15.852 22.6924C15.5532 22.4258 15.4038 22.0889 15.4038 21.6816C15.4038 21.1865 15.5913 20.8027 15.9663 20.5303C16.3442 20.2549 16.8745 20.1172 17.5571 20.1172H18.3481V19.7437C18.3481 19.4595 18.2631 19.2339 18.0932 19.0669C17.9233 18.897 17.6728 18.812 17.3417 18.812C17.0517 18.812 16.8085 18.8853 16.6122 19.0317C16.416 19.1782 16.3178 19.3555 16.3178 19.5635H15.5004C15.5004 19.3262 15.5839 19.0977 15.7509 18.8779C15.9208 18.6553 16.1494 18.4795 16.4365 18.3506C16.7265 18.2217 17.0444 18.1572 17.3901 18.1572C17.9379 18.1572 18.3671 18.2949 18.6777 18.5703C18.9882 18.8428 19.1494 19.2192 19.1611 19.6997V21.8882C19.1611 22.3247 19.2167 22.6719 19.3281 22.9297V23H18.4755ZM17.1264 22.3804C17.3813 22.3804 17.623 22.3145 17.8515 22.1826C18.08 22.0508 18.2455 21.8794 18.3481 21.6685V20.6929H17.7109C16.7148 20.6929 16.2167 20.9844 16.2167 21.5674C16.2167 21.8223 16.3017 22.0215 16.4716 22.165C16.6415 22.3086 16.8598 22.3804 17.1264 22.3804ZM21.3188 23H20.5058V16.25H21.3188V23Z" fill="white"/>
<defs>
<linearGradient id="paint0_linear" x1="10.2541" y1="2.75416" x2="16.395" y2="20.0263" gradientUnits="userSpaceOnUse">
<stop offset="0.0857019" stop-color="#FFF8D2"/>
<stop offset="0.5293" stop-color="#EDDC77"/>
<stop offset="0.8758" stop-color="#FFF8D2"/>
</linearGradient>
<linearGradient id="paint1_linear" x1="17.9912" y1="1.76616" x2="11.5849" y2="22.8834" gradientUnits="userSpaceOnUse">
<stop stop-color="#FFF8D2"/>
<stop offset="0.9214" stop-color="#FED702"/>
</linearGradient>
<linearGradient id="paint2_linear" x1="18.5008" y1="0.439416" x2="11.3137" y2="24.5425" gradientUnits="userSpaceOnUse">
<stop stop-color="#FED702"/>
<stop offset="0.9214" stop-color="#F8B100"/>
</linearGradient>
<linearGradient id="paint3_linear" x1="8.34844" y1="21.8874" x2="16.6555" y2="0.776415" gradientUnits="userSpaceOnUse">
<stop stop-color="#FED702"/>
<stop offset="0.883" stop-color="#F8B100"/>
</linearGradient>
</defs>
</svg>
