<svg width="85" height="91" viewBox="0 0 85 91" fill="none" xmlns="http://www.w3.org/2000/svg">
<g filter="url(#filter0_d)">
<path d="M43.3071 82.0328C42.6454 81.8903 42.0856 81.4627 41.7191 80.8418C41.3119 80.1394 40.9658 78.8569 41.6275 76.6582C42.2281 74.663 41.4036 72.9224 39.4695 72.1182C36.2427 70.7644 37.2199 67.6699 37.2301 67.6394L37.9426 67.8735C37.9121 67.9753 37.1792 70.3471 39.7647 71.4261C42.0448 72.3829 43.0628 74.5205 42.3502 76.8821C41.77 78.8161 42.0448 79.9053 42.3706 80.4753C42.7167 81.0657 43.2053 81.2591 43.4699 81.31L43.3071 82.0328Z" fill="#3ABDA7"/>
<path d="M41.8514 66.1532C42.0041 66.5401 41.8107 66.9778 41.4239 67.1203L33.7081 70.1028C33.3213 70.2555 32.8836 70.0621 32.7309 69.6752L24.2923 47.8511C24.1397 47.4643 24.3331 47.0266 24.7199 46.8739L32.4357 43.8914C32.8225 43.7387 33.2602 43.9423 33.4129 44.3189L41.8514 66.1532Z" fill="#3ABDA7"/>
<path d="M33.9323 56.6661L34.9095 57.5721L36.2023 57.2769L35.6526 58.4882L36.3346 59.6283L35.0113 59.4756L34.1359 60.4731L33.8712 59.1702L32.6497 58.6511L33.8101 57.9996L33.9323 56.6661Z" fill="#FFE082"/>
<path d="M28.1299 46.2935L29.4023 47.4641L31.1022 47.0874L30.3795 48.6652L31.2651 50.1514L29.5448 49.9478L28.4047 51.2609L28.0586 49.561L26.4605 48.879L27.9772 48.0239L28.1299 46.2935Z" fill="#FFE082"/>
<path d="M29.0564 56.717L29.7791 55.1392L28.0893 55.526L26.8068 54.3452L28.2217 58.0097L29.9521 58.2133L29.0564 56.717Z" fill="#FFE082"/>
<path d="M39.2763 59.7402L39.1134 61.4707L37.6069 62.3257L39.205 63.0078L39.5511 64.7077L40.6912 63.4047L40.793 63.4149L39.4289 59.8827L39.2763 59.7402Z" fill="#FFE082"/>
<path d="M38.309 66.2142L36.6702 66.5909L35.4385 65.4508L35.296 67.1202L33.8302 67.9447L35.3774 68.6064L35.5301 69.4003L38.024 68.4333L37.6067 67.7411L38.309 66.2142Z" fill="#FFE082"/>
<path d="M31.825 62.7432L32.4052 63.2827L33.189 63.0994L32.8531 63.8323L33.2603 64.5143L32.4663 64.4227L31.9472 65.0233L31.7843 64.2395L31.0514 63.9239L31.7436 63.5371L31.825 62.7432Z" fill="#FFE082"/>
<path d="M33.7997 50.019L34.6242 50.7723L35.7134 50.528L35.2452 51.5357L35.8152 52.5028L34.7057 52.3704L33.9829 53.2051L33.759 52.116L32.7309 51.6783L33.6979 51.1286L33.7997 50.019Z" fill="#FFE082"/>
<path d="M3.27224 17.1811L5.66435 18.2092L7.86306 16.8147L7.62893 19.4002L9.62405 21.0696L7.08944 21.6396L6.13259 24.0521L4.79912 21.8229L2.20343 21.66L3.91353 19.7056L3.27224 17.1811Z" fill="#D1BB97"/>
<path d="M42.1467 17.2118L41.3425 19.0746L42.4215 20.7847L40.406 20.6014L39.1133 22.1487L38.6654 20.1841L36.7822 19.4308L38.5229 18.3926L38.6552 16.3771L40.1821 17.7105L42.1467 17.2118Z" fill="#3ABDA7"/>
<path d="M33.4129 8.52874L32.1914 8.91554L31.825 10.137L31.0819 9.09877L29.8095 9.11913L30.5628 8.09103L30.1454 6.88989L31.3567 7.29706L32.3747 6.52344L32.3645 7.79584L33.4129 8.52874Z" fill="#D1BB97"/>
<path d="M4.05619 33.1624L3.59813 31.5439L2 30.9943L3.40473 30.0578L3.42509 28.368L4.75856 29.4165L6.36687 28.9177L5.78666 30.4955L6.75368 31.8799L5.07411 31.8086L4.05619 33.1624Z" fill="#FFE082"/>
<path d="M38.1462 30.3428L38.4414 31.7271L39.7342 32.2565L38.5229 32.969L38.4109 34.3737L37.3624 33.4271L35.9882 33.763L36.5685 32.4702L35.8254 31.2691L37.2301 31.4116L38.1462 30.3428Z" fill="#A8864D"/>
<path d="M23.9872 25.8334L24.1806 26.7699L25.0662 27.1261L24.2417 27.6147L24.1602 28.5614L23.4579 27.9201L22.5214 28.144L22.9082 27.2686L22.4094 26.4543L23.3663 26.5561L23.9872 25.8334Z" fill="#A8864D"/>
<path d="M18.9484 5.28174L18.7652 6.90023L19.9969 7.96904L18.4089 8.29478L17.7778 9.80129L16.9736 8.38639L15.345 8.25406L16.4443 7.04274L16.0677 5.46496L17.5539 6.12661L18.9484 5.28174Z" fill="#E32D20"/>
<path d="M28.8933 43.6674C29.1274 43.7387 27.8041 38.4557 27.7024 32.8979C27.6107 28.2053 27.8347 22.8816 27.8958 19.2781C28.0179 11.6641 28.8831 2.87946 26.8778 2.83875C24.8725 2.79803 25.5545 12.8958 25.7887 18.7488C26.0126 24.6018 28.3029 43.4944 28.8933 43.6674Z" fill="#FFE082"/>
<path d="M30.7662 43.1889C30.8986 43.2602 30.7561 40.0029 31.3566 36.7252C31.8656 33.9666 32.629 30.8721 33.0973 28.765C34.0745 24.3167 35.6421 19.2679 34.4613 19.0032C33.2907 18.7386 32.4865 24.7443 31.9165 28.2052C31.3566 31.6661 30.4405 43.0159 30.7662 43.1889Z" fill="#D1BB97"/>
<path d="M25.9618 44.8685C25.9109 45.0008 24.0481 42.4968 21.6153 40.4304C19.5693 38.6898 17.1263 36.8575 15.5078 35.5749C12.0876 32.8673 7.88358 30.068 8.59613 29.162C9.30867 28.2561 13.533 32.226 16.0473 34.445C18.5514 36.6845 26.0941 44.553 25.9618 44.8685Z" fill="#E32D20"/>
<path d="M27.1018 43.9218C27.1018 43.9218 12.5761 17.9445 10.469 14.7686C8.36193 11.5927 10.9067 10.7886 11.9145 12.5801C12.9222 14.3716 23.6714 35.2899 27.1018 43.9218Z" fill="#3ABDA7"/>
<path d="M34.4514 14.7075C34.5837 15.0536 34.4107 15.4506 34.0646 15.5829C33.7185 15.7153 33.3215 15.5422 33.1892 15.1961C33.0568 14.85 33.2299 14.453 33.576 14.3207C33.9221 14.1884 34.3191 14.3614 34.4514 14.7075Z" fill="#E32D20"/>
<path d="M19.8236 32.9995C19.956 33.3456 19.7829 33.7426 19.4368 33.8749C19.0907 34.0072 18.6938 33.8342 18.5614 33.4881C18.4291 33.142 18.6021 32.745 18.9482 32.6127C19.2943 32.4804 19.6913 32.6534 19.8236 32.9995Z" fill="#5D153B"/>
<path d="M15.7418 41.0615C15.9454 41.5908 15.6808 42.1914 15.1514 42.395C14.6221 42.5986 14.0216 42.3339 13.818 41.8046C13.6144 41.2753 13.879 40.6747 14.4084 40.4711C14.9377 40.2675 15.5281 40.5322 15.7418 41.0615Z" fill="#3ABDA7"/>
<path d="M34.655 35.3307C34.5634 35.0966 34.3089 34.9846 34.0748 35.0762C33.8407 35.1678 33.7287 35.4223 33.8203 35.6564C33.9119 35.8906 34.1766 36.0025 34.4005 35.9109C34.6346 35.8295 34.7466 35.5648 34.655 35.3307Z" fill="#3ABDA7"/>
<path d="M22.684 13.6693C22.5924 13.4352 22.3277 13.3232 22.1038 13.4149C21.8697 13.5065 21.7475 13.7711 21.8391 14.0052C21.9307 14.2394 22.1954 14.3513 22.4295 14.2597C22.6636 14.1579 22.7756 13.9035 22.684 13.6693Z" fill="#3ABDA7"/>
<path d="M21.0962 18.1991C21.2692 18.6571 21.0453 19.1661 20.5872 19.3493C20.1292 19.5224 19.61 19.2984 19.437 18.8404C19.2639 18.3823 19.4879 17.8733 19.9459 17.6901C20.404 17.5069 20.9231 17.741 21.0962 18.1991Z" fill="#D1BB97"/>
<path d="M9.90915 34.6791C10.0415 35.015 9.87861 35.3916 9.53252 35.524C9.1966 35.6563 8.81997 35.4832 8.68765 35.1473C8.55532 34.8114 8.72836 34.4348 9.06428 34.3025C9.41037 34.1803 9.787 34.3534 9.90915 34.6791Z" fill="#D1BB97"/>
<path d="M13.828 25.5892C14.0215 26.0982 13.7772 26.6784 13.258 26.8718C12.7491 27.0652 12.1688 26.8209 11.9754 26.3018C11.782 25.7928 12.0365 25.2126 12.5455 25.0192C13.0544 24.8258 13.6245 25.0803 13.828 25.5892Z" fill="#FFCB47"/>
<path d="M6.143 13.3435C6.27533 13.6794 6.10228 14.056 5.77655 14.1781C5.44064 14.3105 5.07419 14.1374 4.94186 13.8117C4.80953 13.4758 4.98257 13.0992 5.30831 12.977C5.64422 12.8447 6.02085 13.0075 6.143 13.3435Z" fill="#E32D20"/>
<path d="M45.0986 76.8518C45.6075 76.7398 46.0452 76.4039 46.3201 75.9255C46.6356 75.386 46.9003 74.3782 46.3811 72.6783C45.9129 71.1311 46.544 69.7772 48.0403 69.1461C50.5444 68.0875 49.7708 65.6852 49.7606 65.6547L49.211 65.8379C49.2313 65.9193 49.8115 67.7516 47.8062 68.6066C46.035 69.3599 45.2614 71.0191 45.8213 72.8513C46.2793 74.3579 46.0758 75.1926 45.8111 75.6404C45.5464 76.0985 45.1596 76.2512 44.9561 76.2919L45.0986 76.8518Z" fill="#AD1F15"/>
<path d="M46.1673 64.5146C46.0554 64.8098 46.2081 65.1559 46.5032 65.2679L52.4988 67.5582C52.8042 67.6702 53.1401 67.5175 53.252 67.2223L59.726 50.2536C59.838 49.9584 59.6853 49.6123 59.3901 49.5003L53.3946 47.21C53.0892 47.098 52.7533 47.2507 52.6413 47.5459L46.1673 64.5146Z" fill="#D1BB97"/>
<path d="M52.2849 57.1245L51.5317 57.8269L50.5239 57.6029L50.9616 58.5394L50.4323 59.425L51.4604 59.3029L52.1424 60.0765L52.346 59.0687L53.2927 58.6514L52.3867 58.1526L52.2849 57.1245Z" fill="#E32D20"/>
<path d="M56.7639 49.0524L55.7663 49.9685L54.4532 49.6733L55.0232 50.8948L54.3311 52.0552L55.6747 51.8924L56.5705 52.9103L56.825 51.5768L58.0668 51.0475L56.886 50.3858L56.7639 49.0524Z" fill="#E32D20"/>
<path d="M56.0717 57.1449L55.5017 55.9234L56.825 56.2186L57.8124 55.3025L56.7232 58.1425L55.3897 58.3053L56.0717 57.1449Z" fill="#E32D20"/>
<path d="M48.1523 59.5269L48.2744 60.8705L49.4552 61.5322L48.2134 62.0615L47.9589 63.3848L47.0631 62.377L46.9817 62.3872L48.0301 59.6388L48.1523 59.5269Z" fill="#E32D20"/>
<path d="M48.9257 64.5553L50.1879 64.8403L51.1447 63.9547L51.2669 65.2475L52.4069 65.8786L51.2058 66.3977L51.0938 67.0186L49.1496 66.2756L49.4652 65.7361L48.9257 64.5553Z" fill="#E32D20"/>
<path d="M53.9544 61.8273L53.4964 62.2548L52.8856 62.1225L53.1503 62.6823L52.8347 63.2116L53.4455 63.1404L53.8628 63.6086L53.985 62.9979L54.5448 62.7536L54.0053 62.4482L53.9544 61.8273Z" fill="#E32D20"/>
<path d="M52.3666 51.9534L51.7354 52.5438L50.8906 52.3605L51.2468 53.1443L50.8091 53.8874L51.6642 53.7856L52.2444 54.4371L52.4073 53.5922L53.2012 53.2461L52.448 52.8186L52.3666 51.9534Z" fill="#E32D20"/>
<path d="M75.9617 26.3528L74.109 27.1569L72.3989 26.0881L72.5923 28.0934L71.0451 29.3964L73.0097 29.8341L73.7731 31.707L74.791 29.9664L76.8065 29.8239L75.473 28.3174L75.9617 26.3528Z" fill="#3ABDA7"/>
<path d="M47.857 27.3606L48.1624 28.0528L47.7552 28.7042L48.5085 28.6228L48.9971 29.2132L49.16 28.4701L49.8725 28.1851L49.2109 27.7983L49.16 27.045L48.5899 27.5438L47.857 27.3606Z" fill="#D1BB97"/>
<path d="M62.0671 47.1489L62.4641 48.0447L61.9449 48.8692L62.912 48.7776L63.5431 49.5207L63.7568 48.574L64.6628 48.2075L63.8179 47.7088L63.7467 46.7316L63.0138 47.383L62.0671 47.1489Z" fill="#3ABDA7"/>
<path d="M53.1606 19.9806L54.1072 20.2758L54.4024 21.2225L54.9725 20.4082L55.9599 20.4285L55.3695 19.6345L55.685 18.6879L54.7485 19.0136L53.9546 18.4232L53.9647 19.4106L53.1606 19.9806Z" fill="#3ABDA7"/>
<path d="M75.4018 38.7714L75.758 37.5091L76.9999 37.0714L75.9006 36.3487L75.8802 35.0458L74.8521 35.8601L73.6001 35.4733L74.0581 36.705L73.3049 37.784L74.618 37.7229L75.4018 38.7714Z" fill="#E32D20"/>
<path d="M48.9259 36.6948L48.702 37.7636L47.6942 38.1912L48.6409 38.7307L48.7427 39.8198L49.5468 39.0869L50.6055 39.3414L50.1576 38.3439L50.7276 37.4074L49.6384 37.5295L48.9259 36.6948Z" fill="#A8864D"/>
<path d="M59.9092 33.1423L59.7565 33.8651L59.0745 34.1603L59.7158 34.5267L59.7768 35.2596L60.3265 34.7608L61.0492 34.9339L60.7438 34.2519L61.1307 33.6208L60.3978 33.7022L59.9092 33.1423Z" fill="#A8864D"/>
<path d="M64.9478 19.9298L65.0903 21.1818L64.1335 22.0165L65.3753 22.271L65.8639 23.4314L66.4951 22.3321L67.7471 22.2201L66.892 21.2836L67.1771 20.052L66.0268 20.5813L64.9478 19.9298Z" fill="#FFE082"/>
<path d="M56.1734 47.0166C56.0207 47.0573 56.8452 43.7186 56.8961 40.1966C56.9368 37.2242 56.7841 33.8549 56.7434 31.5748C56.6416 26.76 56.0716 21.192 57.344 21.1615C58.6164 21.1309 58.2092 27.5235 58.0769 31.2389C57.9344 34.9339 56.5398 46.9046 56.1734 47.0166Z" fill="#E32D20"/>
<path d="M54.6975 46.64C54.5957 46.6909 54.6975 44.1665 54.2191 41.6319C53.8119 39.4841 53.2114 37.0919 52.8449 35.4531C52.0611 32.0024 50.8396 28.0834 51.7456 27.8798C52.6515 27.666 53.303 32.3281 53.7509 35.0154C54.1988 37.7027 54.952 46.5077 54.6975 46.64Z" fill="#3ABDA7"/>
<path d="M58.4434 47.9326C58.4841 48.0344 59.9295 46.0902 61.8025 44.4717C63.3904 43.1077 65.2736 41.6826 66.5256 40.6851C69.1722 38.5678 72.4296 36.3793 71.8697 35.6769C71.32 34.9745 68.0525 38.069 66.1083 39.8097C64.1641 41.5503 58.3314 47.6883 58.4434 47.9326Z" fill="#FFE082"/>
<path d="M57.5475 47.1998C57.5475 47.1998 68.7446 26.9738 70.3631 24.5002C71.9918 22.0267 70.0069 21.4159 69.2332 22.8105C68.4596 24.205 60.184 40.4917 57.5475 47.1998Z" fill="#D1BB97"/>
<path d="M51.7454 24.541C51.6436 24.8057 51.7759 25.1111 52.0508 25.223C52.3256 25.3248 52.6208 25.1925 52.7328 24.9177C52.8346 24.6428 52.7022 24.3374 52.4274 24.2356C52.1526 24.1339 51.8472 24.2764 51.7454 24.541Z" fill="#FFE082"/>
<path d="M63.1667 38.7002C63.0649 38.975 63.1972 39.2702 63.4721 39.3822C63.7469 39.484 64.0523 39.3516 64.1541 39.0768C64.2559 38.802 64.1235 38.5068 63.8487 38.3948C63.5739 38.293 63.2685 38.4253 63.1667 38.7002Z" fill="#3ABDA7"/>
<path d="M66.1898 44.034C66.0269 44.4514 66.2407 44.9094 66.658 45.0723C67.0652 45.2352 67.5334 45.0214 67.6861 44.6041C67.849 44.1867 67.6352 43.7286 67.2281 43.576C66.8107 43.4131 66.3527 43.6269 66.1898 44.034Z" fill="#D1BB97"/>
<path d="M51.6541 40.563C51.7253 40.3797 51.9289 40.2881 52.1121 40.3594C52.2954 40.4306 52.387 40.6342 52.3157 40.8073C52.2445 40.9905 52.0409 41.0821 51.8678 41.0109C51.6744 40.9396 51.5828 40.7462 51.6541 40.563Z" fill="#5D153B"/>
<path d="M60.8761 23.6962C60.9474 23.5129 61.151 23.4213 61.3342 23.4926C61.5174 23.5638 61.609 23.7674 61.5378 23.9506C61.4665 24.1339 61.2629 24.2255 61.0899 24.1542C60.8965 24.0728 60.8049 23.8692 60.8761 23.6962Z" fill="#5D153B"/>
<path d="M62.1283 27.1977C61.9959 27.554 62.169 27.951 62.5252 28.0935C62.8815 28.2258 63.2785 28.0528 63.4108 27.6965C63.5432 27.3402 63.3701 26.9432 63.0138 26.8007C62.6576 26.6684 62.2606 26.8516 62.1283 27.1977Z" fill="#3ABDA7"/>
<path d="M70.862 39.9726C70.7602 40.2372 70.8925 40.5324 71.1572 40.6241C71.4218 40.7258 71.7068 40.5935 71.8086 40.3289C71.9104 40.0642 71.7781 39.7792 71.5134 39.6774C71.2589 39.5756 70.9637 39.7079 70.862 39.9726Z" fill="#3ABDA7"/>
<path d="M67.7982 32.9184C67.6455 33.3154 67.8491 33.7633 68.2461 33.916C68.6431 34.0687 69.0909 33.8651 69.2436 33.4681C69.3963 33.0711 69.1927 32.6232 68.7957 32.4705C68.3886 32.328 67.9509 32.5214 67.7982 32.9184Z" fill="#FFCB47"/>
<path d="M73.7225 23.3806C73.6207 23.6453 73.753 23.9303 74.0177 24.0321C74.2823 24.1339 74.5674 24.0016 74.6692 23.7369C74.7709 23.4824 74.6386 23.1872 74.374 23.0854C74.1093 22.9938 73.8141 23.1262 73.7225 23.3806Z" fill="#FFE082"/>
</g>
<defs>
<filter id="filter0_d" x="0" y="0.838623" width="84.9999" height="89.1941" filterUnits="userSpaceOnUse" color-interpolation-filters="sRGB">
<feFlood flood-opacity="0" result="BackgroundImageFix"/>
<feColorMatrix in="SourceAlpha" type="matrix" values="0 0 0 0 0 0 0 0 0 0 0 0 0 0 0 0 0 0 127 0"/>
<feOffset dx="3" dy="3"/>
<feGaussianBlur stdDeviation="2.5"/>
<feColorMatrix type="matrix" values="0 0 0 0 1 0 0 0 0 1 0 0 0 0 1 0 0 0 0.25 0"/>
<feBlend mode="normal" in2="BackgroundImageFix" result="effect1_dropShadow"/>
<feBlend mode="normal" in="SourceGraphic" in2="effect1_dropShadow" result="shape"/>
</filter>
</defs>
</svg>
