<svg width="173" height="86" viewBox="0 0 173 86" fill="none" xmlns="http://www.w3.org/2000/svg">
<rect width="173" height="86" rx="5" fill="black" fill-opacity="0.3"/>
<path d="M54.184 40.512C54.184 37.1627 55.3147 34.368 57.576 32.128C59.8587 29.8667 62.728 28.736 66.184 28.736C69.7467 28.736 72.68 29.7493 74.984 31.776L72.296 35.968C71.6347 35.3707 70.7813 34.8693 69.736 34.464C68.6907 34.0587 67.688 33.856 66.728 33.856C64.4667 33.856 62.7707 34.4747 61.64 35.712C60.5307 36.928 59.976 38.464 59.976 40.32C59.976 42.432 60.6053 44.1173 61.864 45.376C63.144 46.6347 64.7013 47.264 66.536 47.264C68.2 47.264 69.7467 46.7093 71.176 45.6V43.84H67.944V39.072H76.136V52H71.464V51.36L71.496 50.4H71.432C70.7493 50.9973 69.8533 51.4773 68.744 51.84C67.656 52.2027 66.5467 52.384 65.416 52.384C62.344 52.384 59.6987 51.3067 57.48 49.152C55.2827 46.9973 54.184 44.1173 54.184 40.512ZM78.902 40.416C78.902 37.088 80.022 34.3147 82.262 32.096C84.502 29.856 87.3713 28.736 90.87 28.736C94.3687 28.736 97.238 29.856 99.478 32.096C101.718 34.3147 102.838 37.088 102.838 40.416C102.838 43.8293 101.718 46.6773 99.478 48.96C97.238 51.2427 94.3687 52.384 90.87 52.384C87.3713 52.384 84.502 51.2427 82.262 48.96C80.022 46.6773 78.902 43.8293 78.902 40.416ZM84.694 40.416C84.694 42.3787 85.27 44.0107 86.422 45.312C87.5953 46.6133 89.078 47.264 90.87 47.264C92.662 47.264 94.134 46.6133 95.286 45.312C96.4593 44.0107 97.046 42.3787 97.046 40.416C97.046 38.5387 96.4593 36.9813 95.286 35.744C94.134 34.4853 92.662 33.856 90.87 33.856C89.078 33.856 87.5953 34.4853 86.422 35.744C85.27 36.9813 84.694 38.5387 84.694 40.416ZM106.56 44.928L106.048 29.12H111.808L111.296 44.928H106.56ZM106.4 52V47.2H111.456V52H106.4Z" fill="white"/>
</svg>
