<svg width="173" height="86" viewBox="0 0 173 86" fill="none" xmlns="http://www.w3.org/2000/svg">
<rect width="173" height="86" rx="5" fill="black" fill-opacity="0.3"/>
<path d="M32.4 52V29.12H40.368C42.3947 29.12 43.8773 29.3013 44.816 29.664C46.1387 30.176 47.1733 31.008 47.92 32.16C48.6667 33.2907 49.04 34.6773 49.04 36.32C49.04 37.6 48.7413 38.8267 48.144 40C47.5467 41.152 46.704 42.0053 45.616 42.56V42.624C45.8293 42.9013 46.1173 43.36 46.48 44L50.928 52H44.688L40.624 44.288H38V52H32.4ZM38 39.488H40.432C41.3493 39.488 42.064 39.2427 42.576 38.752C43.088 38.2613 43.344 37.568 43.344 36.672C43.344 35.4133 42.896 34.6027 42 34.24C41.5093 34.0267 40.8053 33.92 39.888 33.92H38V39.488ZM51.3655 43.744C51.3655 41.2693 52.1442 39.2213 53.7015 37.6C55.2588 35.9573 57.3388 35.136 59.9415 35.136C62.3095 35.136 64.1655 35.8827 65.5095 37.376C66.8748 38.848 67.5575 40.7573 67.5575 43.104C67.5575 43.488 67.5148 44.064 67.4295 44.832H57.0295C57.2215 45.792 57.6695 46.528 58.3735 47.04C59.0988 47.5307 59.9308 47.776 60.8695 47.776C62.2348 47.776 63.7495 47.2213 65.4135 46.112L67.4615 49.984C66.5868 50.7307 65.5095 51.3173 64.2295 51.744C62.9708 52.1707 61.7015 52.384 60.4215 52.384C57.6268 52.384 55.4188 51.5307 53.7975 49.824C52.1762 48.1173 51.3655 46.0907 51.3655 43.744ZM57.1575 41.664H62.0855C62.0855 40.96 61.8722 40.3733 61.4455 39.904C61.0402 39.4347 60.4962 39.2 59.8135 39.2C58.4055 39.2 57.5202 40.0213 57.1575 41.664ZM69.2978 47.36C69.2978 46.3147 69.5858 45.408 70.1618 44.64C70.7378 43.872 71.4951 43.2853 72.4338 42.88C73.3938 42.4747 74.3858 42.1867 75.4098 42.016C76.4338 41.824 77.5004 41.728 78.6098 41.728H79.0898V41.44C79.0898 40.224 78.3111 39.616 76.7538 39.616C75.3031 39.616 73.7884 40.1387 72.2098 41.184L70.2898 37.28C71.0364 36.704 72.0604 36.2027 73.3618 35.776C74.6844 35.3493 75.9858 35.136 77.2658 35.136C79.5484 35.136 81.3404 35.7333 82.6418 36.928C83.9644 38.1227 84.6258 39.7653 84.6258 41.856V52H79.5698V51.008L79.6338 49.984H79.5698C79.0364 50.7307 78.3218 51.3173 77.4258 51.744C76.5511 52.1707 75.6338 52.384 74.6738 52.384C73.0951 52.384 71.8044 51.904 70.8018 50.944C69.7991 49.984 69.2978 48.7893 69.2978 47.36ZM74.7698 46.848C74.7698 47.2533 74.9084 47.5947 75.1858 47.872C75.4631 48.128 75.8471 48.256 76.3378 48.256C77.1058 48.256 77.7671 47.9467 78.3218 47.328C78.8764 46.7093 79.1538 46.048 79.1538 45.344V44.896H78.6418C77.6178 44.896 76.7111 45.056 75.9218 45.376C75.1538 45.6747 74.7698 46.1653 74.7698 46.848ZM89.2893 50.016C87.9453 48.416 87.2733 46.3253 87.2733 43.744C87.2733 41.1627 87.9666 39.0827 89.3533 37.504C90.7613 35.9253 92.5746 35.136 94.7933 35.136C96.7986 35.136 98.2386 35.5733 99.1133 36.448H99.1773C99.1559 36.2347 99.1453 35.9893 99.1453 35.712V29.12H104.681V52H99.4973V50.912L99.5293 49.984H99.4653C98.4199 51.584 96.8306 52.384 94.6973 52.384C92.4573 52.384 90.6546 51.5947 89.2893 50.016ZM93.7693 40.864C93.1506 41.568 92.8413 42.528 92.8413 43.744C92.8413 44.96 93.1399 45.9413 93.7373 46.688C94.3346 47.4347 95.1133 47.808 96.0733 47.808C96.9906 47.808 97.7586 47.4667 98.3773 46.784C98.9959 46.1013 99.3053 45.088 99.3053 43.744C99.3053 42.6773 99.0173 41.76 98.4413 40.992C97.8866 40.2027 97.0973 39.808 96.0733 39.808C95.1559 39.808 94.3879 40.16 93.7693 40.864ZM108.547 53.504C109.145 53.9093 109.71 54.112 110.243 54.112C111.566 54.112 112.451 53.5573 112.899 52.448L113.219 51.68L106.211 35.52H112.483L114.915 43.104L115.523 45.664H115.587C115.801 44.6187 115.982 43.7973 116.131 43.2L118.211 35.52H124.259L117.507 53.76C116.867 55.4667 115.918 56.7147 114.659 57.504C113.422 58.3147 112.078 58.72 110.627 58.72C109.987 58.72 109.347 58.624 108.707 58.432C108.067 58.24 107.587 58.048 107.267 57.856L106.787 57.568L108.547 53.504ZM128.789 44.928V43.328C128.789 42.5387 128.959 41.8133 129.301 41.152C129.642 40.4693 130.058 39.9147 130.549 39.488C131.039 39.04 131.53 38.624 132.021 38.24C132.533 37.8347 132.959 37.408 133.301 36.96C133.642 36.512 133.813 36.0427 133.813 35.552C133.813 35.0187 133.589 34.5707 133.141 34.208C132.693 33.8453 132.159 33.664 131.541 33.664C130.559 33.664 129.546 34.1227 128.501 35.04L125.429 31.296C127.199 29.5253 129.429 28.64 132.117 28.64C134.079 28.64 135.807 29.2053 137.301 30.336C138.815 31.4453 139.573 32.9707 139.573 34.912C139.573 35.872 139.381 36.7573 138.997 37.568C138.634 38.3573 138.175 39.008 137.621 39.52C137.087 40.0107 136.554 40.48 136.021 40.928C135.487 41.3547 135.029 41.8133 134.645 42.304C134.282 42.7733 134.101 43.264 134.101 43.776V44.928H128.789ZM128.917 52V47.2H133.973V52H128.917Z" fill="white"/>
</svg>
