<svg width="461" height="86" viewBox="0 0 461 86" fill="none" xmlns="http://www.w3.org/2000/svg">
<g filter="url(#filter0_d)">
<path d="M34 17.084V35.8535C34 37.2663 33.4837 38.4772 32.4511 39.4863C31.4582 40.4954 30.2667 41 28.8766 41H19.6426C18.2128 41 17.0014 40.4954 16.0085 39.4863L6 29.1328C7.07234 28.0833 7.62837 27.5586 7.66809 27.5586C7.9461 27.3164 8.28369 27.1953 8.68085 27.1953C8.95887 27.1953 9.21702 27.2559 9.45532 27.377L14.9362 30.5254V15.1465C14.9362 14.6217 15.1149 14.1777 15.4723 13.8145C15.8695 13.4108 16.3262 13.209 16.8426 13.209C17.3589 13.209 17.7957 13.4108 18.1532 13.8145C18.5504 14.1777 18.7489 14.6217 18.7489 15.1465V24.2285H20V11.9375C20 11.3724 20.1787 10.9082 20.5362 10.5449C20.8936 10.1816 21.3504 10 21.9064 10C22.4624 10 22.9191 10.1816 23.2766 10.5449C23.634 10.9082 23.8128 11.3724 23.8128 11.9375V24.2285H25.0638V13.209C25.0638 12.6842 25.2426 12.2402 25.6 11.877C25.9972 11.4733 26.4539 11.2715 26.9702 11.2715C27.4865 11.2715 27.9234 11.4733 28.2808 11.877C28.678 12.2402 28.8766 12.6842 28.8766 13.209V24.2285H30.1872V17.084C30.1872 16.5592 30.366 16.1152 30.7234 15.752C31.1206 15.3483 31.5773 15.1465 32.0936 15.1465C32.6099 15.1465 33.0468 15.3483 33.4043 15.752C33.8014 16.1152 34 16.5592 34 17.084Z" fill="white"/>
<path d="M14.4362 29.6615L9.70437 26.9434L9.69326 26.937L9.68183 26.9312C9.37051 26.773 9.03433 26.6953 8.68085 26.6953C8.19224 26.6953 7.75067 26.842 7.38269 27.1451C7.35805 27.161 7.33669 27.1771 7.32216 27.1884C7.28885 27.2143 7.25062 27.2469 7.211 27.2818C7.12995 27.3532 7.01822 27.4563 6.8781 27.5885C6.59669 27.8541 6.18698 28.2502 5.65028 28.7755L5.29513 29.123L5.64051 29.4803L15.649 39.8338L15.649 39.8339L15.6521 39.837C16.7401 40.9427 18.0803 41.5 19.6426 41.5H28.8766C30.4018 41.5 31.7197 40.9409 32.804 39.8405C33.9282 38.7403 34.5 37.4026 34.5 35.8535V17.084C34.5 16.4236 34.2462 15.8533 33.761 15.4009C33.3161 14.9081 32.7514 14.6465 32.0936 14.6465C31.4296 14.6465 30.8481 14.9123 30.367 15.4013C29.9145 15.8611 29.6872 16.4324 29.6872 17.084V23.7285H29.3766V13.209C29.3766 12.5486 29.1227 11.9783 28.6376 11.5259C28.1927 11.0331 27.628 10.7715 26.9702 10.7715C26.3062 10.7715 25.7247 11.0373 25.2436 11.5263C24.7911 11.9861 24.5638 12.5574 24.5638 13.209V23.7285H24.3128V11.9375C24.3128 11.2568 24.0929 10.6616 23.633 10.1942C23.1725 9.72625 22.583 9.5 21.9064 9.5C21.2298 9.5 20.6402 9.72625 20.1798 10.1942C19.7199 10.6616 19.5 11.2568 19.5 11.9375V23.7285H19.2489V15.1465C19.2489 14.4861 18.9951 13.9158 18.51 13.4634C18.0651 12.9706 17.5004 12.709 16.8426 12.709C16.1786 12.709 15.5971 12.9748 15.1159 13.4638C14.6635 13.9236 14.4362 14.4949 14.4362 15.1465V29.6615Z" stroke="#7C7C7C"/>
</g>
<g filter="url(#filter1_d)">
<path d="M456 17.084V35.8535C456 37.2663 455.484 38.4772 454.451 39.4863C453.458 40.4954 452.267 41 450.877 41H441.643C440.213 41 439.001 40.4954 438.009 39.4863L428 29.1328C429.072 28.0833 429.628 27.5586 429.668 27.5586C429.946 27.3164 430.284 27.1953 430.681 27.1953C430.959 27.1953 431.217 27.2559 431.455 27.377L436.936 30.5254V15.1465C436.936 14.6217 437.115 14.1777 437.472 13.8145C437.87 13.4108 438.326 13.209 438.843 13.209C439.359 13.209 439.796 13.4108 440.153 13.8145C440.55 14.1777 440.749 14.6217 440.749 15.1465V24.2285H442V11.9375C442 11.3724 442.179 10.9082 442.536 10.5449C442.894 10.1816 443.35 10 443.906 10C444.462 10 444.919 10.1816 445.277 10.5449C445.634 10.9082 445.813 11.3724 445.813 11.9375V24.2285H447.064V13.209C447.064 12.6842 447.243 12.2402 447.6 11.877C447.997 11.4733 448.454 11.2715 448.97 11.2715C449.487 11.2715 449.923 11.4733 450.281 11.877C450.678 12.2402 450.877 12.6842 450.877 13.209V24.2285H452.187V17.084C452.187 16.5592 452.366 16.1152 452.723 15.752C453.121 15.3483 453.577 15.1465 454.094 15.1465C454.61 15.1465 455.047 15.3483 455.404 15.752C455.801 16.1152 456 16.5592 456 17.084Z" fill="white"/>
<path d="M436.436 29.6615L431.704 26.9434L431.693 26.937L431.682 26.9312C431.371 26.773 431.034 26.6953 430.681 26.6953C430.192 26.6953 429.751 26.842 429.383 27.1451C429.358 27.161 429.337 27.1771 429.322 27.1884C429.289 27.2143 429.251 27.2469 429.211 27.2818C429.13 27.3532 429.018 27.4563 428.878 27.5885C428.597 27.8541 428.187 28.2502 427.65 28.7755L427.295 29.123L427.641 29.4803L437.649 39.8338L437.649 39.8339L437.652 39.837C438.74 40.9427 440.08 41.5 441.643 41.5H450.877C452.402 41.5 453.72 40.9409 454.804 39.8405C455.928 38.7403 456.5 37.4026 456.5 35.8535V17.084C456.5 16.4236 456.246 15.8533 455.761 15.4009C455.316 14.9081 454.751 14.6465 454.094 14.6465C453.43 14.6465 452.848 14.9123 452.367 15.4013C451.915 15.8611 451.687 16.4324 451.687 17.084V23.7285H451.377V13.209C451.377 12.5486 451.123 11.9783 450.638 11.5259C450.193 11.0331 449.628 10.7715 448.97 10.7715C448.306 10.7715 447.725 11.0373 447.244 11.5263C446.791 11.9861 446.564 12.5574 446.564 13.209V23.7285H446.313V11.9375C446.313 11.2568 446.093 10.6616 445.633 10.1942C445.173 9.72625 444.583 9.5 443.906 9.5C443.23 9.5 442.64 9.72625 442.18 10.1942C441.72 10.6616 441.5 11.2568 441.5 11.9375V23.7285H441.249V15.1465C441.249 14.4861 440.995 13.9158 440.51 13.4634C440.065 12.9706 439.5 12.709 438.843 12.709C438.179 12.709 437.597 12.9748 437.116 13.4638C436.663 13.9236 436.436 14.4949 436.436 15.1465V29.6615Z" stroke="#7C7C7C"/>
</g>
<rect x="144" width="173" height="86" rx="5" fill="black" fill-opacity="0.3"/>
<path d="M167.206 27V19.09H164.168V16.99H172.694V19.09H169.656V27H167.206ZM172.101 24.97C172.101 24.5127 172.227 24.116 172.479 23.78C172.731 23.444 173.062 23.1873 173.473 23.01C173.893 22.8327 174.327 22.7067 174.775 22.632C175.223 22.548 175.69 22.506 176.175 22.506H176.385V22.38C176.385 21.848 176.044 21.582 175.363 21.582C174.728 21.582 174.066 21.8107 173.375 22.268L172.535 20.56C172.862 20.308 173.31 20.0887 173.879 19.902C174.458 19.7153 175.027 19.622 175.587 19.622C176.586 19.622 177.37 19.8833 177.939 20.406C178.518 20.9287 178.807 21.6473 178.807 22.562V27H176.595V26.566L176.623 26.118H176.595C176.362 26.4447 176.049 26.7013 175.657 26.888C175.274 27.0747 174.873 27.168 174.453 27.168C173.762 27.168 173.198 26.958 172.759 26.538C172.32 26.118 172.101 25.5953 172.101 24.97ZM174.495 24.746C174.495 24.9233 174.556 25.0727 174.677 25.194C174.798 25.306 174.966 25.362 175.181 25.362C175.517 25.362 175.806 25.2267 176.049 24.956C176.292 24.6853 176.413 24.396 176.413 24.088V23.892H176.189C175.741 23.892 175.344 23.962 174.999 24.102C174.663 24.2327 174.495 24.4473 174.495 24.746ZM180.343 29.8V19.79H182.527V20.154L182.499 20.616H182.527C183.022 19.9533 183.75 19.622 184.711 19.622C185.691 19.622 186.475 19.972 187.063 20.672C187.661 21.3627 187.959 22.2727 187.959 23.402C187.959 24.5313 187.642 25.4413 187.007 26.132C186.373 26.8227 185.57 27.168 184.599 27.168C183.909 27.168 183.297 26.9393 182.765 26.482H182.737C182.756 26.65 182.765 26.8553 182.765 27.098V29.8H180.343ZM182.695 23.444C182.695 23.9107 182.817 24.3167 183.059 24.662C183.311 24.998 183.661 25.166 184.109 25.166C184.511 25.166 184.847 25.012 185.117 24.704C185.388 24.396 185.523 23.976 185.523 23.444C185.523 22.912 185.393 22.4827 185.131 22.156C184.87 21.8293 184.529 21.666 184.109 21.666C183.708 21.666 183.372 21.8153 183.101 22.114C182.831 22.4127 182.695 22.856 182.695 23.444ZM193.473 26.132C192.689 25.432 192.297 24.5267 192.297 23.416C192.297 22.3053 192.689 21.3953 193.473 20.686C194.257 19.9767 195.223 19.622 196.371 19.622C197.528 19.622 198.499 19.9767 199.283 20.686C200.076 21.386 200.473 22.296 200.473 23.416C200.473 24.5267 200.081 25.432 199.297 26.132C198.513 26.8227 197.542 27.168 196.385 27.168C195.227 27.168 194.257 26.8227 193.473 26.132ZM194.747 23.416C194.747 23.9387 194.905 24.3587 195.223 24.676C195.54 24.9933 195.927 25.152 196.385 25.152C196.842 25.152 197.229 24.9933 197.547 24.676C197.864 24.3587 198.023 23.9387 198.023 23.416C198.023 22.884 197.864 22.4547 197.547 22.128C197.229 21.8013 196.842 21.638 196.385 21.638C195.927 21.638 195.54 21.8013 195.223 22.128C194.905 22.4547 194.747 22.884 194.747 23.416ZM201.685 27V19.79H204.009V20.42L203.981 20.868H204.009C204.504 20.0373 205.269 19.622 206.305 19.622C208.032 19.622 208.895 20.5227 208.895 22.324V27H206.473V22.772C206.473 22.1373 206.207 21.82 205.675 21.82C205.162 21.82 204.77 22.002 204.499 22.366C204.238 22.73 204.107 23.1873 204.107 23.738V27H201.685ZM213.65 27.658C213.911 27.8353 214.158 27.924 214.392 27.924C214.97 27.924 215.358 27.6813 215.554 27.196L215.694 26.86L212.628 19.79H215.372L216.436 23.108L216.702 24.228H216.73C216.823 23.7707 216.902 23.4113 216.968 23.15L217.878 19.79H220.524L217.57 27.77C217.29 28.5167 216.874 29.0627 216.324 29.408C215.782 29.7627 215.194 29.94 214.56 29.94C214.28 29.94 214 29.898 213.72 29.814C213.44 29.73 213.23 29.646 213.09 29.562L212.88 29.436L213.65 27.658ZM221.951 26.132C221.167 25.432 220.775 24.5267 220.775 23.416C220.775 22.3053 221.167 21.3953 221.951 20.686C222.735 19.9767 223.701 19.622 224.849 19.622C226.006 19.622 226.977 19.9767 227.761 20.686C228.554 21.386 228.951 22.296 228.951 23.416C228.951 24.5267 228.559 25.432 227.775 26.132C226.991 26.8227 226.02 27.168 224.863 27.168C223.706 27.168 222.735 26.8227 221.951 26.132ZM223.225 23.416C223.225 23.9387 223.384 24.3587 223.701 24.676C224.018 24.9933 224.406 25.152 224.863 25.152C225.32 25.152 225.708 24.9933 226.025 24.676C226.342 24.3587 226.501 23.9387 226.501 23.416C226.501 22.884 226.342 22.4547 226.025 22.128C225.708 21.8013 225.32 21.638 224.863 21.638C224.406 21.638 224.018 21.8013 223.701 22.128C223.384 22.4547 223.225 22.884 223.225 23.416ZM230.094 24.466V19.79H232.516V24.018C232.516 24.6527 232.772 24.97 233.286 24.97C233.78 24.97 234.158 24.7833 234.42 24.41C234.681 24.0273 234.812 23.5513 234.812 22.982V19.79H237.234V27H234.91V26.37L234.938 25.922H234.91C234.714 26.3047 234.41 26.608 234 26.832C233.589 27.056 233.141 27.168 232.656 27.168C231.872 27.168 231.246 26.958 230.78 26.538C230.322 26.1087 230.094 25.418 230.094 24.466ZM238.859 27V19.79H241.183V21.008L241.155 21.456H241.183C241.342 20.952 241.631 20.5273 242.051 20.182C242.48 19.8367 242.956 19.664 243.479 19.664C243.554 19.664 243.647 19.6733 243.759 19.692V22.072C243.675 22.044 243.512 22.03 243.269 22.03C242.616 22.03 242.121 22.2213 241.785 22.604C241.449 22.9867 241.281 23.5187 241.281 24.2V27H238.859ZM247.542 24.97C247.542 24.5127 247.668 24.116 247.92 23.78C248.172 23.444 248.504 23.1873 248.914 23.01C249.334 22.8327 249.768 22.7067 250.216 22.632C250.664 22.548 251.131 22.506 251.616 22.506H251.826V22.38C251.826 21.848 251.486 21.582 250.804 21.582C250.17 21.582 249.507 21.8107 248.816 22.268L247.976 20.56C248.303 20.308 248.751 20.0887 249.32 19.902C249.899 19.7153 250.468 19.622 251.028 19.622C252.027 19.622 252.811 19.8833 253.38 20.406C253.959 20.9287 254.248 21.6473 254.248 22.562V27H252.036V26.566L252.064 26.118H252.036C251.803 26.4447 251.49 26.7013 251.098 26.888C250.716 27.0747 250.314 27.168 249.894 27.168C249.204 27.168 248.639 26.958 248.2 26.538C247.762 26.118 247.542 25.5953 247.542 24.97ZM249.936 24.746C249.936 24.9233 249.997 25.0727 250.118 25.194C250.24 25.306 250.408 25.362 250.622 25.362C250.958 25.362 251.248 25.2267 251.49 24.956C251.733 24.6853 251.854 24.396 251.854 24.088V23.892H251.63C251.182 23.892 250.786 23.962 250.44 24.102C250.104 24.2327 249.936 24.4473 249.936 24.746ZM255.785 27V19.79H258.109V21.008L258.081 21.456H258.109C258.267 20.952 258.557 20.5273 258.977 20.182C259.406 19.8367 259.882 19.664 260.405 19.664C260.479 19.664 260.573 19.6733 260.685 19.692V22.072C260.601 22.044 260.437 22.03 260.195 22.03C259.541 22.03 259.047 22.2213 258.711 22.604C258.375 22.9867 258.207 23.5187 258.207 24.2V27H255.785ZM261.34 23.388C261.34 22.3053 261.68 21.4093 262.362 20.7C263.043 19.9813 263.953 19.622 265.092 19.622C266.128 19.622 266.94 19.9487 267.528 20.602C268.125 21.246 268.424 22.0813 268.424 23.108C268.424 23.276 268.405 23.528 268.368 23.864H263.818C263.902 24.284 264.098 24.606 264.406 24.83C264.723 25.0447 265.087 25.152 265.498 25.152C266.095 25.152 266.758 24.9093 267.486 24.424L268.382 26.118C267.999 26.4447 267.528 26.7013 266.968 26.888C266.417 27.0747 265.862 27.168 265.302 27.168C264.079 27.168 263.113 26.7947 262.404 26.048C261.694 25.3013 261.34 24.4147 261.34 23.388ZM263.874 22.478H266.03C266.03 22.17 265.936 21.9133 265.75 21.708C265.572 21.5027 265.334 21.4 265.036 21.4C264.42 21.4 264.032 21.7593 263.874 22.478ZM269.185 24.97C269.185 24.5127 269.311 24.116 269.563 23.78C269.815 23.444 270.146 23.1873 270.557 23.01C270.977 22.8327 271.411 22.7067 271.859 22.632C272.307 22.548 272.774 22.506 273.259 22.506H273.469V22.38C273.469 21.848 273.128 21.582 272.447 21.582C271.812 21.582 271.15 21.8107 270.459 22.268L269.619 20.56C269.946 20.308 270.394 20.0887 270.963 19.902C271.542 19.7153 272.111 19.622 272.671 19.622C273.67 19.622 274.454 19.8833 275.023 20.406C275.602 20.9287 275.891 21.6473 275.891 22.562V27H273.679V26.566L273.707 26.118H273.679C273.446 26.4447 273.133 26.7013 272.741 26.888C272.358 27.0747 271.957 27.168 271.537 27.168C270.846 27.168 270.282 26.958 269.843 26.538C269.404 26.118 269.185 25.5953 269.185 24.97ZM271.579 24.746C271.579 24.9233 271.64 25.0727 271.761 25.194C271.882 25.306 272.05 25.362 272.265 25.362C272.601 25.362 272.89 25.2267 273.133 24.956C273.376 24.6853 273.497 24.396 273.497 24.088V23.892H273.273C272.825 23.892 272.428 23.962 272.083 24.102C271.747 24.2327 271.579 24.4473 271.579 24.746ZM280.703 23.444C280.703 22.3893 281.072 21.512 281.809 20.812C282.547 20.1027 283.447 19.748 284.511 19.748C285.585 19.748 286.49 20.098 287.227 20.798C287.965 21.498 288.333 22.38 288.333 23.444C288.333 24.508 287.965 25.3947 287.227 26.104C286.49 26.8133 285.589 27.168 284.525 27.168C283.461 27.168 282.556 26.8133 281.809 26.104C281.072 25.3947 280.703 24.508 280.703 23.444ZM282.089 23.444C282.089 24.1813 282.323 24.7927 282.789 25.278C283.265 25.754 283.844 25.992 284.525 25.992C285.197 25.992 285.771 25.7493 286.247 25.264C286.723 24.7787 286.961 24.172 286.961 23.444C286.961 22.716 286.723 22.114 286.247 21.638C285.771 21.162 285.197 20.924 284.525 20.924C283.844 20.924 283.265 21.162 282.789 21.638C282.323 22.114 282.089 22.716 282.089 23.444ZM290.224 27V21.092H289.342V19.986H290.224V19.678C290.224 19.23 290.289 18.8427 290.42 18.516C290.551 18.18 290.709 17.9233 290.896 17.746C291.092 17.5593 291.316 17.4147 291.568 17.312C291.829 17.2 292.063 17.13 292.268 17.102C292.473 17.0647 292.683 17.046 292.898 17.046C293.066 17.046 293.239 17.06 293.416 17.088V18.264C293.341 18.2453 293.225 18.236 293.066 18.236C292.077 18.236 291.582 18.7213 291.582 19.692V19.986H293.248V21.092H291.582V27H290.224ZM165.344 43.41V40.092H164.42V38.986H165.372V36.97H166.702V38.986H168.41V40.092H166.702V43.256C166.702 43.5267 166.739 43.7647 166.814 43.97C166.889 44.166 166.977 44.32 167.08 44.432C167.192 44.544 167.318 44.6327 167.458 44.698C167.607 44.7633 167.738 44.8053 167.85 44.824C167.971 44.8427 168.093 44.852 168.214 44.852C168.335 44.852 168.443 44.8427 168.536 44.824V46.028C168.312 46.056 168.153 46.07 168.06 46.07C167.845 46.07 167.631 46.0513 167.416 46.014C167.211 45.986 166.977 45.9207 166.716 45.818C166.455 45.706 166.226 45.5613 166.03 45.384C165.843 45.1973 165.68 44.936 165.54 44.6C165.409 44.2547 165.344 43.858 165.344 43.41ZM169.931 46V36.116H171.289V39.784L171.233 40.372H171.261C171.457 39.9613 171.788 39.588 172.255 39.252C172.722 38.916 173.277 38.748 173.921 38.748C175.536 38.748 176.343 39.6533 176.343 41.464V46H174.985V41.772C174.985 41.2027 174.892 40.764 174.705 40.456C174.528 40.148 174.178 39.994 173.655 39.994C172.974 39.994 172.409 40.246 171.961 40.75C171.513 41.2447 171.289 41.8747 171.289 42.64V46H169.931ZM177.904 42.458C177.904 41.3473 178.24 40.4513 178.912 39.77C179.584 39.0887 180.434 38.748 181.46 38.748C182.422 38.748 183.173 39.0653 183.714 39.7C184.256 40.3253 184.526 41.114 184.526 42.066C184.526 42.1873 184.508 42.3787 184.47 42.64H179.318C179.356 43.3773 179.603 43.956 180.06 44.376C180.527 44.7867 181.092 44.992 181.754 44.992C182.529 44.992 183.224 44.7167 183.84 44.166L184.414 45.16C184.078 45.468 183.658 45.7153 183.154 45.902C182.66 46.0793 182.165 46.168 181.67 46.168C180.569 46.168 179.664 45.818 178.954 45.118C178.254 44.4087 177.904 43.522 177.904 42.458ZM179.36 41.66H183.154C183.136 41.072 182.963 40.6147 182.636 40.288C182.319 39.9613 181.918 39.798 181.432 39.798C180.9 39.798 180.443 39.966 180.06 40.302C179.687 40.6287 179.454 41.0813 179.36 41.66ZM189.057 45.132L189.701 44.208C190.271 44.7587 190.966 45.034 191.787 45.034C192.151 45.034 192.441 44.9547 192.655 44.796C192.879 44.628 192.991 44.3993 192.991 44.11C192.991 43.8673 192.865 43.6573 192.613 43.48C192.361 43.3027 192.058 43.1487 191.703 43.018C191.349 42.8873 190.994 42.7427 190.639 42.584C190.285 42.4253 189.981 42.1967 189.729 41.898C189.477 41.59 189.351 41.2213 189.351 40.792C189.351 40.148 189.594 39.6487 190.079 39.294C190.565 38.93 191.171 38.748 191.899 38.748C192.851 38.748 193.617 39.0093 194.195 39.532L193.649 40.512C193.444 40.316 193.173 40.162 192.837 40.05C192.511 39.938 192.184 39.882 191.857 39.882C191.493 39.882 191.199 39.9567 190.975 40.106C190.761 40.2553 190.653 40.4747 190.653 40.764C190.653 41.016 190.779 41.2307 191.031 41.408C191.283 41.5853 191.587 41.7393 191.941 41.87C192.296 41.9913 192.651 42.1313 193.005 42.29C193.369 42.4487 193.677 42.682 193.929 42.99C194.181 43.2887 194.307 43.6527 194.307 44.082C194.307 44.6887 194.069 45.188 193.593 45.58C193.117 45.972 192.506 46.168 191.759 46.168C190.639 46.168 189.739 45.8227 189.057 45.132ZM195.459 42.458C195.459 41.4033 195.814 40.5213 196.523 39.812C197.242 39.1027 198.152 38.748 199.253 38.748C200.373 38.748 201.26 39.0933 201.913 39.784L201.269 40.736C200.728 40.1947 200.074 39.924 199.309 39.924C198.6 39.924 198.012 40.1667 197.545 40.652C197.078 41.128 196.845 41.7253 196.845 42.444C196.845 43.172 197.078 43.7787 197.545 44.264C198.021 44.7493 198.623 44.992 199.351 44.992C199.743 44.992 200.135 44.908 200.527 44.74C200.928 44.5627 201.264 44.3293 201.535 44.04L202.081 45.034C201.754 45.3793 201.339 45.6547 200.835 45.86C200.331 46.0653 199.804 46.168 199.253 46.168C198.142 46.168 197.232 45.818 196.523 45.118C195.814 44.418 195.459 43.5313 195.459 42.458ZM203.55 46V38.916H204.866V40.19L204.824 40.708H204.852C205.029 40.1667 205.319 39.7187 205.72 39.364C206.121 39.0093 206.583 38.832 207.106 38.832C207.199 38.832 207.321 38.8413 207.47 38.86V40.204C207.395 40.1853 207.265 40.176 207.078 40.176C206.369 40.176 205.827 40.4653 205.454 41.044C205.09 41.6133 204.908 42.2853 204.908 43.06V46H203.55ZM208.174 42.458C208.174 41.3473 208.51 40.4513 209.182 39.77C209.854 39.0887 210.703 38.748 211.73 38.748C212.691 38.748 213.443 39.0653 213.984 39.7C214.525 40.3253 214.796 41.114 214.796 42.066C214.796 42.1873 214.777 42.3787 214.74 42.64H209.588C209.625 43.3773 209.873 43.956 210.33 44.376C210.797 44.7867 211.361 44.992 212.024 44.992C212.799 44.992 213.494 44.7167 214.11 44.166L214.684 45.16C214.348 45.468 213.928 45.7153 213.424 45.902C212.929 46.0793 212.435 46.168 211.94 46.168C210.839 46.168 209.933 45.818 209.224 45.118C208.524 44.4087 208.174 43.522 208.174 42.458ZM209.63 41.66H213.424C213.405 41.072 213.233 40.6147 212.906 40.288C212.589 39.9613 212.187 39.798 211.702 39.798C211.17 39.798 210.713 39.966 210.33 40.302C209.957 40.6287 209.723 41.0813 209.63 41.66ZM215.967 42.458C215.967 41.3473 216.303 40.4513 216.975 39.77C217.647 39.0887 218.496 38.748 219.523 38.748C220.484 38.748 221.236 39.0653 221.777 39.7C222.318 40.3253 222.589 41.114 222.589 42.066C222.589 42.1873 222.57 42.3787 222.533 42.64H217.381C217.418 43.3773 217.666 43.956 218.123 44.376C218.59 44.7867 219.154 44.992 219.817 44.992C220.592 44.992 221.287 44.7167 221.903 44.166L222.477 45.16C222.141 45.468 221.721 45.7153 221.217 45.902C220.722 46.0793 220.228 46.168 219.733 46.168C218.632 46.168 217.726 45.818 217.017 45.118C216.317 44.4087 215.967 43.522 215.967 42.458ZM217.423 41.66H221.217C221.198 41.072 221.026 40.6147 220.699 40.288C220.382 39.9613 219.98 39.798 219.495 39.798C218.963 39.798 218.506 39.966 218.123 40.302C217.75 40.6287 217.516 41.0813 217.423 41.66ZM224.222 46V38.916H225.538V39.882L225.496 40.414H225.524C225.701 40.0127 226.019 39.6347 226.476 39.28C226.943 38.9253 227.521 38.748 228.212 38.748C229.827 38.748 230.634 39.6533 230.634 41.464V46H229.276V41.772C229.276 41.2027 229.183 40.764 228.996 40.456C228.819 40.148 228.469 39.994 227.946 39.994C227.265 39.994 226.7 40.246 226.252 40.75C225.804 41.2447 225.58 41.8607 225.58 42.598V46H224.222ZM236.178 43.41V40.092H235.254V38.986H236.206V36.97H237.536V38.986H239.244V40.092H237.536V43.256C237.536 43.5267 237.573 43.7647 237.648 43.97C237.723 44.166 237.811 44.32 237.914 44.432C238.026 44.544 238.152 44.6327 238.292 44.698C238.441 44.7633 238.572 44.8053 238.684 44.824C238.805 44.8427 238.927 44.852 239.048 44.852C239.169 44.852 239.277 44.8427 239.37 44.824V46.028C239.146 46.056 238.987 46.07 238.894 46.07C238.679 46.07 238.465 46.0513 238.25 46.014C238.045 45.986 237.811 45.9207 237.55 45.818C237.289 45.706 237.06 45.5613 236.864 45.384C236.677 45.1973 236.514 44.936 236.374 44.6C236.243 44.2547 236.178 43.858 236.178 43.41ZM240.221 42.444C240.221 41.3893 240.589 40.512 241.327 39.812C242.064 39.1027 242.965 38.748 244.029 38.748C245.102 38.748 246.007 39.098 246.745 39.798C247.482 40.498 247.851 41.38 247.851 42.444C247.851 43.508 247.482 44.3947 246.745 45.104C246.007 45.8133 245.107 46.168 244.043 46.168C242.979 46.168 242.073 45.8133 241.327 45.104C240.589 44.3947 240.221 43.508 240.221 42.444ZM241.607 42.444C241.607 43.1813 241.84 43.7927 242.307 44.278C242.783 44.754 243.361 44.992 244.043 44.992C244.715 44.992 245.289 44.7493 245.765 44.264C246.241 43.7787 246.479 43.172 246.479 42.444C246.479 41.716 246.241 41.114 245.765 40.638C245.289 40.162 244.715 39.924 244.043 39.924C243.361 39.924 242.783 40.162 242.307 40.638C241.84 41.114 241.607 41.716 241.607 42.444ZM252.554 42.458C252.554 41.338 252.852 40.442 253.45 39.77C254.047 39.0887 254.817 38.748 255.76 38.748C256.217 38.748 256.642 38.8507 257.034 39.056C257.426 39.252 257.734 39.5367 257.958 39.91H257.986C257.967 39.77 257.958 39.6113 257.958 39.434V36.116H259.302V46H258.014V45.286L258.056 44.81H258.028C257.813 45.2113 257.5 45.538 257.09 45.79C256.688 46.042 256.217 46.168 255.676 46.168C254.733 46.168 253.977 45.8273 253.408 45.146C252.838 44.4647 252.554 43.5687 252.554 42.458ZM253.94 42.458C253.94 43.2233 254.122 43.8393 254.486 44.306C254.859 44.7633 255.344 44.992 255.942 44.992C256.52 44.992 257.006 44.7773 257.398 44.348C257.79 43.9187 257.986 43.284 257.986 42.444C257.986 41.7533 257.808 41.1653 257.454 40.68C257.108 40.1853 256.614 39.938 255.97 39.938C255.391 39.938 254.906 40.1667 254.514 40.624C254.131 41.072 253.94 41.6833 253.94 42.458ZM260.934 42.458C260.934 41.3473 261.27 40.4513 261.942 39.77C262.614 39.0887 263.463 38.748 264.49 38.748C265.451 38.748 266.202 39.0653 266.744 39.7C267.285 40.3253 267.556 41.114 267.556 42.066C267.556 42.1873 267.537 42.3787 267.5 42.64H262.348C262.385 43.3773 262.632 43.956 263.09 44.376C263.556 44.7867 264.121 44.992 264.784 44.992C265.558 44.992 266.254 44.7167 266.87 44.166L267.444 45.16C267.108 45.468 266.688 45.7153 266.184 45.902C265.689 46.0793 265.194 46.168 264.7 46.168C263.598 46.168 262.693 45.818 261.984 45.118C261.284 44.4087 260.934 43.522 260.934 42.458ZM262.39 41.66H266.184C266.165 41.072 265.992 40.6147 265.666 40.288C265.348 39.9613 264.947 39.798 264.462 39.798C263.93 39.798 263.472 39.966 263.09 40.302C262.716 40.6287 262.483 41.0813 262.39 41.66ZM269.525 46V40.092H268.643V38.986H269.525V38.678C269.525 38.23 269.59 37.8427 269.721 37.516C269.851 37.18 270.01 36.9233 270.197 36.746C270.393 36.5593 270.617 36.4147 270.869 36.312C271.13 36.2 271.363 36.13 271.569 36.102C271.774 36.0647 271.984 36.046 272.199 36.046C272.367 36.046 272.539 36.06 272.717 36.088V37.264C272.642 37.2453 272.525 37.236 272.367 37.236C271.377 37.236 270.883 37.7213 270.883 38.692V38.986H272.549V40.092H270.883V46H269.525ZM273.307 42.458C273.307 41.3473 273.643 40.4513 274.315 39.77C274.987 39.0887 275.836 38.748 276.863 38.748C277.824 38.748 278.575 39.0653 279.117 39.7C279.658 40.3253 279.929 41.114 279.929 42.066C279.929 42.1873 279.91 42.3787 279.873 42.64H274.721C274.758 43.3773 275.005 43.956 275.463 44.376C275.929 44.7867 276.494 44.992 277.157 44.992C277.931 44.992 278.627 44.7167 279.243 44.166L279.817 45.16C279.481 45.468 279.061 45.7153 278.557 45.902C278.062 46.0793 277.567 46.168 277.073 46.168C275.971 46.168 275.066 45.818 274.357 45.118C273.657 44.4087 273.307 43.522 273.307 42.458ZM274.763 41.66H278.557C278.538 41.072 278.365 40.6147 278.039 40.288C277.721 39.9613 277.32 39.798 276.835 39.798C276.303 39.798 275.845 39.966 275.463 40.302C275.089 40.6287 274.856 41.0813 274.763 41.66ZM280.974 44.068C280.974 43.5453 281.118 43.1067 281.408 42.752C281.697 42.3973 282.08 42.1453 282.556 41.996C283.041 41.8373 283.489 41.73 283.9 41.674C284.31 41.618 284.744 41.59 285.202 41.59H285.566V41.45C285.566 40.414 285.048 39.896 284.012 39.896C283.33 39.896 282.668 40.1247 282.024 40.582L281.478 39.588C281.767 39.3453 282.159 39.1447 282.654 38.986C283.148 38.8273 283.638 38.748 284.124 38.748C285.02 38.748 285.71 38.986 286.196 39.462C286.681 39.938 286.924 40.624 286.924 41.52V46H285.65V45.286L285.692 44.726H285.664C285.449 45.146 285.132 45.4913 284.712 45.762C284.301 46.0327 283.844 46.168 283.34 46.168C282.696 46.168 282.14 45.9767 281.674 45.594C281.207 45.2113 280.974 44.7027 280.974 44.068ZM282.332 43.956C282.332 44.264 282.448 44.53 282.682 44.754C282.915 44.978 283.242 45.09 283.662 45.09C284.222 45.09 284.679 44.8567 285.034 44.39C285.388 43.9233 285.566 43.4053 285.566 42.836V42.57H285.216C283.293 42.57 282.332 43.032 282.332 43.956ZM289.239 43.41V40.092H288.315V38.986H289.267V36.97H290.597V38.986H292.305V40.092H290.597V43.256C290.597 43.5267 290.634 43.7647 290.709 43.97C290.783 44.166 290.872 44.32 290.975 44.432C291.087 44.544 291.213 44.6327 291.353 44.698C291.502 44.7633 291.633 44.8053 291.745 44.824C291.866 44.8427 291.987 44.852 292.109 44.852C292.23 44.852 292.337 44.8427 292.431 44.824V46.028C292.207 46.056 292.048 46.07 291.955 46.07C291.74 46.07 291.525 46.0513 291.311 46.014C291.105 45.986 290.872 45.9207 290.611 45.818C290.349 45.706 290.121 45.5613 289.925 45.384C289.738 45.1973 289.575 44.936 289.435 44.6C289.304 44.2547 289.239 43.858 289.239 43.41ZM164.7 66.47C164.961 66.6753 165.232 66.778 165.512 66.778C166.081 66.778 166.511 66.428 166.8 65.728L167.15 64.916L164.182 57.916H165.708L167.486 62.55L167.752 63.404H167.78C167.855 63.0867 167.934 62.8067 168.018 62.564L169.74 57.916H171.21L167.878 66.274C167.673 66.8153 167.365 67.226 166.954 67.506C166.553 67.7953 166.095 67.94 165.582 67.94C165.349 67.94 165.12 67.9027 164.896 67.828C164.672 67.7533 164.504 67.6787 164.392 67.604L164.224 67.506L164.7 66.47ZM171.834 61.444C171.834 60.3893 172.203 59.512 172.94 58.812C173.677 58.1027 174.578 57.748 175.642 57.748C176.715 57.748 177.621 58.098 178.358 58.798C179.095 59.498 179.464 60.38 179.464 61.444C179.464 62.508 179.095 63.3947 178.358 64.104C177.621 64.8133 176.72 65.168 175.656 65.168C174.592 65.168 173.687 64.8133 172.94 64.104C172.203 63.3947 171.834 62.508 171.834 61.444ZM173.22 61.444C173.22 62.1813 173.453 62.7927 173.92 63.278C174.396 63.754 174.975 63.992 175.656 63.992C176.328 63.992 176.902 63.7493 177.378 63.264C177.854 62.7787 178.092 62.172 178.092 61.444C178.092 60.716 177.854 60.114 177.378 59.638C176.902 59.162 176.328 58.924 175.656 58.924C174.975 58.924 174.396 59.162 173.92 59.638C173.453 60.114 173.22 60.716 173.22 61.444ZM181.017 62.452V57.916H182.375V62.144C182.375 62.704 182.468 63.138 182.655 63.446C182.841 63.754 183.191 63.908 183.705 63.908C184.405 63.908 184.965 63.6467 185.385 63.124C185.805 62.6013 186.015 61.9713 186.015 61.234V57.916H187.359V65H186.043V64.02L186.099 63.502H186.071C185.884 63.922 185.557 64.3047 185.091 64.65C184.624 64.9953 184.073 65.168 183.439 65.168C181.824 65.168 181.017 64.2627 181.017 62.452ZM189.454 65V57.916H190.77V59.19L190.728 59.708H190.756C190.934 59.1667 191.223 58.7187 191.624 58.364C192.026 58.0093 192.488 57.832 193.01 57.832C193.104 57.832 193.225 57.8413 193.374 57.86V59.204C193.3 59.1853 193.169 59.176 192.982 59.176C192.273 59.176 191.732 59.4653 191.358 60.044C190.994 60.6133 190.812 61.2853 190.812 62.06V65H189.454ZM197.442 61.444C197.442 60.3893 197.81 59.512 198.548 58.812C199.285 58.1027 200.186 57.748 201.25 57.748C202.323 57.748 203.228 58.098 203.966 58.798C204.703 59.498 205.072 60.38 205.072 61.444C205.072 62.508 204.703 63.3947 203.966 64.104C203.228 64.8133 202.328 65.168 201.264 65.168C200.2 65.168 199.294 64.8133 198.548 64.104C197.81 63.3947 197.442 62.508 197.442 61.444ZM198.828 61.444C198.828 62.1813 199.061 62.7927 199.528 63.278C200.004 63.754 200.582 63.992 201.264 63.992C201.936 63.992 202.51 63.7493 202.986 63.264C203.462 62.7787 203.7 62.172 203.7 61.444C203.7 60.716 203.462 60.114 202.986 59.638C202.51 59.162 201.936 58.924 201.264 58.924C200.582 58.924 200.004 59.162 199.528 59.638C199.061 60.114 198.828 60.716 198.828 61.444ZM206.708 67.8V57.916H207.968V58.546L207.926 59.078H207.954C208.178 58.658 208.5 58.3313 208.92 58.098C209.34 57.8647 209.812 57.748 210.334 57.748C211.286 57.748 212.042 58.0887 212.602 58.77C213.162 59.4513 213.442 60.3473 213.442 61.458C213.442 62.578 213.144 63.4787 212.546 64.16C211.949 64.832 211.179 65.168 210.236 65.168C209.294 65.168 208.561 64.7667 208.038 63.964H208.01C208.048 64.132 208.066 64.3373 208.066 64.58V67.8H206.708ZM208.024 61.486C208.024 62.158 208.202 62.746 208.556 63.25C208.92 63.7447 209.41 63.992 210.026 63.992C210.605 63.992 211.09 63.768 211.482 63.32C211.874 62.8627 212.07 62.2467 212.07 61.472C212.07 60.7067 211.884 60.0953 211.51 59.638C211.146 59.1713 210.666 58.938 210.068 58.938C209.49 58.938 209.004 59.1527 208.612 59.582C208.22 60.0113 208.024 60.646 208.024 61.486ZM215.116 67.8V57.916H216.376V58.546L216.334 59.078H216.362C216.586 58.658 216.908 58.3313 217.328 58.098C217.748 57.8647 218.22 57.748 218.742 57.748C219.694 57.748 220.45 58.0887 221.01 58.77C221.57 59.4513 221.85 60.3473 221.85 61.458C221.85 62.578 221.552 63.4787 220.954 64.16C220.357 64.832 219.587 65.168 218.644 65.168C217.702 65.168 216.969 64.7667 216.446 63.964H216.418C216.456 64.132 216.474 64.3373 216.474 64.58V67.8H215.116ZM216.432 61.486C216.432 62.158 216.61 62.746 216.964 63.25C217.328 63.7447 217.818 63.992 218.434 63.992C219.013 63.992 219.498 63.768 219.89 63.32C220.282 62.8627 220.478 62.2467 220.478 61.472C220.478 60.7067 220.292 60.0953 219.918 59.638C219.554 59.1713 219.074 58.938 218.476 58.938C217.898 58.938 217.412 59.1527 217.02 59.582C216.628 60.0113 216.432 60.646 216.432 61.486ZM223.063 61.444C223.063 60.3893 223.431 59.512 224.169 58.812C224.906 58.1027 225.807 57.748 226.871 57.748C227.944 57.748 228.849 58.098 229.587 58.798C230.324 59.498 230.693 60.38 230.693 61.444C230.693 62.508 230.324 63.3947 229.587 64.104C228.849 64.8133 227.949 65.168 226.885 65.168C225.821 65.168 224.915 64.8133 224.169 64.104C223.431 63.3947 223.063 62.508 223.063 61.444ZM224.449 61.444C224.449 62.1813 224.682 62.7927 225.149 63.278C225.625 63.754 226.203 63.992 226.885 63.992C227.557 63.992 228.131 63.7493 228.607 63.264C229.083 62.7787 229.321 62.172 229.321 61.444C229.321 60.716 229.083 60.114 228.607 59.638C228.131 59.162 227.557 58.924 226.885 58.924C226.203 58.924 225.625 59.162 225.149 59.638C224.682 60.114 224.449 60.716 224.449 61.444ZM232.329 65V57.916H233.645V58.882L233.603 59.414H233.631C233.809 59.0127 234.126 58.6347 234.583 58.28C235.05 57.9253 235.629 57.748 236.319 57.748C237.934 57.748 238.741 58.6533 238.741 60.464V65H237.383V60.772C237.383 60.2027 237.29 59.764 237.103 59.456C236.926 59.148 236.576 58.994 236.053 58.994C235.372 58.994 234.807 59.246 234.359 59.75C233.911 60.2447 233.687 60.8607 233.687 61.598V65H232.329ZM240.303 61.458C240.303 60.3473 240.639 59.4513 241.311 58.77C241.983 58.0887 242.832 57.748 243.859 57.748C244.82 57.748 245.572 58.0653 246.113 58.7C246.654 59.3253 246.925 60.114 246.925 61.066C246.925 61.1873 246.906 61.3787 246.869 61.64H241.717C241.754 62.3773 242.002 62.956 242.459 63.376C242.926 63.7867 243.49 63.992 244.153 63.992C244.928 63.992 245.623 63.7167 246.239 63.166L246.813 64.16C246.477 64.468 246.057 64.7153 245.553 64.902C245.058 65.0793 244.564 65.168 244.069 65.168C242.968 65.168 242.062 64.818 241.353 64.118C240.653 63.4087 240.303 62.522 240.303 61.458ZM241.759 60.66H245.553C245.534 60.072 245.362 59.6147 245.035 59.288C244.718 58.9613 244.316 58.798 243.831 58.798C243.299 58.798 242.842 58.966 242.459 59.302C242.086 59.6287 241.852 60.0813 241.759 60.66ZM248.558 65V57.916H249.874V58.882L249.832 59.414H249.86C250.037 59.0127 250.354 58.6347 250.812 58.28C251.278 57.9253 251.857 57.748 252.548 57.748C254.162 57.748 254.97 58.6533 254.97 60.464V65H253.612V60.772C253.612 60.2027 253.518 59.764 253.332 59.456C253.154 59.148 252.804 58.994 252.282 58.994C251.6 58.994 251.036 59.246 250.588 59.75C250.14 60.2447 249.916 60.8607 249.916 61.598V65H248.558ZM257.287 62.41V59.092H256.363V57.986H257.315V55.97H258.645V57.986H260.353V59.092H258.645V62.256C258.645 62.5267 258.683 62.7647 258.757 62.97C258.832 63.166 258.921 63.32 259.023 63.432C259.135 63.544 259.261 63.6327 259.401 63.698C259.551 63.7633 259.681 63.8053 259.793 63.824C259.915 63.8427 260.036 63.852 260.157 63.852C260.279 63.852 260.386 63.8427 260.479 63.824V65.028C260.255 65.056 260.097 65.07 260.003 65.07C259.789 65.07 259.574 65.0513 259.359 65.014C259.154 64.986 258.921 64.9207 258.659 64.818C258.398 64.706 258.169 64.5613 257.973 64.384C257.787 64.1973 257.623 63.936 257.483 63.6C257.353 63.2547 257.287 62.858 257.287 62.41ZM262.126 62.284L262.042 55.116H263.442L263.344 62.284H262.126ZM262.042 65V63.614H263.442V65H262.042Z" fill="white"/>
<path d="M43.6427 42.6502C43.4495 42.8475 43.4529 43.1641 43.6502 43.3573L46.8655 46.5056C47.0628 46.6988 47.3794 46.6954 47.5726 46.4981C47.7657 46.3008 47.7624 45.9843 47.5651 45.7911L44.7071 42.9926L47.5056 40.1345C47.6988 39.9372 47.6954 39.6206 47.4981 39.4274C47.3008 39.2343 46.9842 39.2376 46.7911 39.4349L43.6427 42.6502ZM138.995 41.5L43.9947 42.5L44.0053 43.5L139.005 42.5L138.995 41.5Z" fill="#5A6989"/>
<path d="M417.357 42.6502C417.55 42.8475 417.547 43.1641 417.35 43.3573L414.135 46.5056C413.937 46.6988 413.621 46.6954 413.427 46.4981C413.234 46.3008 413.238 45.9843 413.435 45.7911L416.293 42.9926L413.494 40.1345C413.301 39.9372 413.305 39.6206 413.502 39.4274C413.699 39.2343 414.016 39.2376 414.209 39.4349L417.357 42.6502ZM322.005 41.5L417.005 42.5L416.995 43.5L321.995 42.5L322.005 41.5Z" fill="#5A6989"/>
<defs>
<filter id="filter0_d" x="0.590271" y="9" width="38.4097" height="41" filterUnits="userSpaceOnUse" color-interpolation-filters="sRGB">
<feFlood flood-opacity="0" result="BackgroundImageFix"/>
<feColorMatrix in="SourceAlpha" type="matrix" values="0 0 0 0 0 0 0 0 0 0 0 0 0 0 0 0 0 0 127 0"/>
<feOffset dy="4"/>
<feGaussianBlur stdDeviation="2"/>
<feColorMatrix type="matrix" values="0 0 0 0 0 0 0 0 0 0 0 0 0 0 0 0 0 0 0.25 0"/>
<feBlend mode="normal" in2="BackgroundImageFix" result="effect1_dropShadow"/>
<feBlend mode="normal" in="SourceGraphic" in2="effect1_dropShadow" result="shape"/>
</filter>
<filter id="filter1_d" x="422.59" y="9" width="38.4097" height="41" filterUnits="userSpaceOnUse" color-interpolation-filters="sRGB">
<feFlood flood-opacity="0" result="BackgroundImageFix"/>
<feColorMatrix in="SourceAlpha" type="matrix" values="0 0 0 0 0 0 0 0 0 0 0 0 0 0 0 0 0 0 127 0"/>
<feOffset dy="4"/>
<feGaussianBlur stdDeviation="2"/>
<feColorMatrix type="matrix" values="0 0 0 0 0 0 0 0 0 0 0 0 0 0 0 0 0 0 0.25 0"/>
<feBlend mode="normal" in2="BackgroundImageFix" result="effect1_dropShadow"/>
<feBlend mode="normal" in="SourceGraphic" in2="effect1_dropShadow" result="shape"/>
</filter>
</defs>
</svg>
