<svg width="270" height="105" viewBox="0 0 270 105" fill="none" xmlns="http://www.w3.org/2000/svg">
<g filter="url(#filter0_d)">
<rect x="30" y="15" width="210" height="45" rx="22.5" fill="url(#paint0_linear)"/>
</g>
<path d="M115.924 41L116.736 31.116H118.178L120.46 36.464L120.936 37.794H120.964C121.141 37.2713 121.305 36.828 121.454 36.464L123.736 31.116H125.178L125.976 41H124.604L124.128 34.77L124.1 33.314H124.072C123.867 33.9207 123.689 34.406 123.54 34.77L121.566 39.222H120.334L118.374 34.77L117.842 33.286H117.814C117.833 33.874 117.823 34.3687 117.786 34.77L117.31 41H115.924ZM128.21 41V31.116H133.964V32.32H129.596V35.414H133.138V36.618H129.596V39.796H134.202V41H128.21ZM136.113 41V31.116H137.485L141.895 37.528L142.707 38.97H142.735C142.679 38.382 142.651 37.9013 142.651 37.528V31.116H144.023V41H142.665L138.255 34.588L137.443 33.146H137.415C137.471 33.734 137.499 34.2147 137.499 34.588V41H136.113ZM146.528 37.5V31.116H147.914V37.486C147.914 38.242 148.138 38.8347 148.586 39.264C149.043 39.684 149.655 39.894 150.42 39.894C151.185 39.894 151.792 39.684 152.24 39.264C152.688 38.8347 152.912 38.2373 152.912 37.472V31.116H154.298V37.5C154.298 38.6013 153.943 39.488 153.234 40.16C152.525 40.832 151.591 41.168 150.434 41.168C149.267 41.168 148.325 40.832 147.606 40.16C146.887 39.488 146.528 38.6013 146.528 37.5Z" fill="white"/>
<path d="M115.924 41L116.736 31.116H118.178L120.46 36.464L120.936 37.794H120.964C121.141 37.2713 121.305 36.828 121.454 36.464L123.736 31.116H125.178L125.976 41H124.604L124.128 34.77L124.1 33.314H124.072C123.867 33.9207 123.689 34.406 123.54 34.77L121.566 39.222H120.334L118.374 34.77L117.842 33.286H117.814C117.833 33.874 117.823 34.3687 117.786 34.77L117.31 41H115.924ZM128.21 41V31.116H133.964V32.32H129.596V35.414H133.138V36.618H129.596V39.796H134.202V41H128.21ZM136.113 41V31.116H137.485L141.895 37.528L142.707 38.97H142.735C142.679 38.382 142.651 37.9013 142.651 37.528V31.116H144.023V41H142.665L138.255 34.588L137.443 33.146H137.415C137.471 33.734 137.499 34.2147 137.499 34.588V41H136.113ZM146.528 37.5V31.116H147.914V37.486C147.914 38.242 148.138 38.8347 148.586 39.264C149.043 39.684 149.655 39.894 150.42 39.894C151.185 39.894 151.792 39.684 152.24 39.264C152.688 38.8347 152.912 38.2373 152.912 37.472V31.116H154.298V37.5C154.298 38.6013 153.943 39.488 153.234 40.16C152.525 40.832 151.591 41.168 150.434 41.168C149.267 41.168 148.325 40.832 147.606 40.16C146.887 39.488 146.528 38.6013 146.528 37.5Z" fill="url(#paint1_linear)"/>
<defs>
<filter id="filter0_d" x="0" y="0" width="270" height="105" filterUnits="userSpaceOnUse" color-interpolation-filters="sRGB">
<feFlood flood-opacity="0" result="BackgroundImageFix"/>
<feColorMatrix in="SourceAlpha" type="matrix" values="0 0 0 0 0 0 0 0 0 0 0 0 0 0 0 0 0 0 127 0"/>
<feOffset dy="15"/>
<feGaussianBlur stdDeviation="15"/>
<feColorMatrix type="matrix" values="0 0 0 0 0 0 0 0 0 0 0 0 0 0 0 0 0 0 0.2 0"/>
<feBlend mode="normal" in2="BackgroundImageFix" result="effect1_dropShadow"/>
<feBlend mode="normal" in="SourceGraphic" in2="effect1_dropShadow" result="shape"/>
</filter>
<linearGradient id="paint0_linear" x1="52" y1="15" x2="222.5" y2="56" gradientUnits="userSpaceOnUse">
<stop stop-color="#B09CCA"/>
<stop offset="1" stop-color="#5C6A8B"/>
</linearGradient>
<linearGradient id="paint1_linear" x1="135.5" y1="28" x2="135.5" y2="47" gradientUnits="userSpaceOnUse">
<stop stop-color="white"/>
<stop offset="1" stop-color="white" stop-opacity="0"/>
</linearGradient>
</defs>
</svg>
