<svg width="99" height="75" viewBox="0 0 99 75" fill="none" xmlns="http://www.w3.org/2000/svg">
<path d="M0 25H99V70C99 72.7614 96.7614 75 94 75H5C2.23858 75 0 72.7614 0 70V25Z" fill="#95C1DC"/>
<path d="M0 15C0 6.71573 6.71573 0 15 0H84C92.2843 0 99 6.71573 99 15V25H0V15Z" fill="white" fill-opacity="0.7"/>
<path d="M16.686 10.988C16.686 9.56 17.1667 8.36533 18.128 7.404C19.0893 6.43333 20.3027 5.948 21.768 5.948C23.224 5.948 24.4327 6.43333 25.394 7.404C26.3553 8.36533 26.836 9.56 26.836 10.988C26.836 12.4533 26.3553 13.6853 25.394 14.684C24.4327 15.6733 23.224 16.168 21.768 16.168C20.312 16.168 19.0987 15.6733 18.128 14.684C17.1667 13.6853 16.686 12.4533 16.686 10.988ZM18.114 10.988C18.114 12.0987 18.4593 13.0273 19.15 13.774C19.8407 14.5207 20.7133 14.894 21.768 14.894C22.8133 14.894 23.6813 14.5207 24.372 13.774C25.0627 13.0273 25.408 12.0987 25.408 10.988C25.408 9.91467 25.0627 9.01867 24.372 8.3C23.6813 7.572 22.8133 7.208 21.768 7.208C20.7133 7.208 19.8407 7.572 19.15 8.3C18.4593 9.01867 18.114 9.91467 18.114 10.988ZM28.4934 18.8V8.916H29.7534V9.546L29.7114 10.078H29.7394C29.9634 9.658 30.2854 9.33133 30.7054 9.098C31.1254 8.86467 31.5967 8.748 32.1194 8.748C33.0714 8.748 33.8274 9.08867 34.3874 9.77C34.9474 10.4513 35.2274 11.3473 35.2274 12.458C35.2274 13.578 34.9287 14.4787 34.3314 15.16C33.734 15.832 32.964 16.168 32.0214 16.168C31.0787 16.168 30.346 15.7667 29.8234 14.964H29.7954C29.8327 15.132 29.8514 15.3373 29.8514 15.58V18.8H28.4934ZM29.8094 12.486C29.8094 13.158 29.9867 13.746 30.3414 14.25C30.7054 14.7447 31.1954 14.992 31.8114 14.992C32.39 14.992 32.8754 14.768 33.2674 14.32C33.6594 13.8627 33.8554 13.2467 33.8554 12.472C33.8554 11.7067 33.6687 11.0953 33.2954 10.638C32.9314 10.1713 32.4507 9.938 31.8534 9.938C31.2747 9.938 30.7894 10.1527 30.3974 10.582C30.0054 11.0113 29.8094 11.646 29.8094 12.486ZM36.9016 18.8V8.916H38.1616V9.546L38.1196 10.078H38.1476C38.3716 9.658 38.6936 9.33133 39.1136 9.098C39.5336 8.86467 40.0049 8.748 40.5276 8.748C41.4796 8.748 42.2356 9.08867 42.7956 9.77C43.3556 10.4513 43.6356 11.3473 43.6356 12.458C43.6356 13.578 43.3369 14.4787 42.7396 15.16C42.1422 15.832 41.3722 16.168 40.4296 16.168C39.4869 16.168 38.7542 15.7667 38.2316 14.964H38.2036C38.2409 15.132 38.2596 15.3373 38.2596 15.58V18.8H36.9016ZM38.2176 12.486C38.2176 13.158 38.3949 13.746 38.7496 14.25C39.1136 14.7447 39.6036 14.992 40.2196 14.992C40.7982 14.992 41.2836 14.768 41.6756 14.32C42.0676 13.8627 42.2636 13.2467 42.2636 12.472C42.2636 11.7067 42.0769 11.0953 41.7036 10.638C41.3396 10.1713 40.8589 9.938 40.2616 9.938C39.6829 9.938 39.1976 10.1527 38.8056 10.582C38.4136 11.0113 38.2176 11.646 38.2176 12.486ZM44.8478 12.444C44.8478 11.3893 45.2164 10.512 45.9538 9.812C46.6911 9.10267 47.5918 8.748 48.6558 8.748C49.7291 8.748 50.6344 9.098 51.3718 9.798C52.1091 10.498 52.4778 11.38 52.4778 12.444C52.4778 13.508 52.1091 14.3947 51.3718 15.104C50.6344 15.8133 49.7338 16.168 48.6698 16.168C47.6058 16.168 46.7004 15.8133 45.9538 15.104C45.2164 14.3947 44.8478 13.508 44.8478 12.444ZM46.2338 12.444C46.2338 13.1813 46.4671 13.7927 46.9338 14.278C47.4098 14.754 47.9884 14.992 48.6698 14.992C49.3418 14.992 49.9158 14.7493 50.3918 14.264C50.8678 13.7787 51.1058 13.172 51.1058 12.444C51.1058 11.716 50.8678 11.114 50.3918 10.638C49.9158 10.162 49.3418 9.924 48.6698 9.924C47.9884 9.924 47.4098 10.162 46.9338 10.638C46.4671 11.114 46.2338 11.716 46.2338 12.444ZM54.1145 16V8.916H55.4305V9.882L55.3885 10.414H55.4165C55.5938 10.0127 55.9111 9.63467 56.3685 9.28C56.8351 8.92533 57.4138 8.748 58.1045 8.748C59.7191 8.748 60.5265 9.65333 60.5265 11.464V16H59.1685V11.772C59.1685 11.2027 59.0751 10.764 58.8885 10.456C58.7111 10.148 58.3611 9.994 57.8385 9.994C57.1571 9.994 56.5925 10.246 56.1445 10.75C55.6965 11.2447 55.4725 11.8607 55.4725 12.598V16H54.1145ZM62.088 12.458C62.088 11.3473 62.424 10.4513 63.096 9.77C63.768 9.08867 64.6173 8.748 65.644 8.748C66.6053 8.748 67.3567 9.06533 67.898 9.7C68.4393 10.3253 68.71 11.114 68.71 12.066C68.71 12.1873 68.6913 12.3787 68.654 12.64H63.502C63.5393 13.3773 63.7867 13.956 64.244 14.376C64.7107 14.7867 65.2753 14.992 65.938 14.992C66.7127 14.992 67.408 14.7167 68.024 14.166L68.598 15.16C68.262 15.468 67.842 15.7153 67.338 15.902C66.8433 16.0793 66.3487 16.168 65.854 16.168C64.7527 16.168 63.8473 15.818 63.138 15.118C62.438 14.4087 62.088 13.522 62.088 12.458ZM63.544 11.66H67.338C67.3193 11.072 67.1467 10.6147 66.82 10.288C66.5027 9.96133 66.1013 9.798 65.616 9.798C65.084 9.798 64.6267 9.966 64.244 10.302C63.8707 10.6287 63.6373 11.0813 63.544 11.66ZM70.343 16V8.916H71.659V9.882L71.617 10.414H71.645C71.8223 10.0127 72.1396 9.63467 72.597 9.28C73.0636 8.92533 73.6423 8.748 74.333 8.748C75.9476 8.748 76.755 9.65333 76.755 11.464V16H75.397V11.772C75.397 11.2027 75.3036 10.764 75.117 10.456C74.9396 10.148 74.5896 9.994 74.067 9.994C73.3856 9.994 72.821 10.246 72.373 10.75C71.925 11.2447 71.701 11.8607 71.701 12.598V16H70.343ZM79.0725 13.41V10.092H78.1485V8.986H79.1005V6.97H80.4305V8.986H82.1385V10.092H80.4305V13.256C80.4305 13.5267 80.4678 13.7647 80.5425 13.97C80.6172 14.166 80.7058 14.32 80.8085 14.432C80.9205 14.544 81.0465 14.6327 81.1865 14.698C81.3358 14.7633 81.4665 14.8053 81.5785 14.824C81.6998 14.8427 81.8212 14.852 81.9425 14.852C82.0638 14.852 82.1712 14.8427 82.2645 14.824V16.028C82.0405 16.056 81.8818 16.07 81.7885 16.07C81.5738 16.07 81.3592 16.0513 81.1445 16.014C80.9392 15.986 80.7058 15.9207 80.4445 15.818C80.1832 15.706 79.9545 15.5613 79.7585 15.384C79.5718 15.1973 79.4085 14.936 79.2685 14.6C79.1378 14.2547 79.0725 13.858 79.0725 13.41Z" fill="#205FA9"/>
<path d="M0 55H99V70C99 72.7614 96.7614 75 94 75H5C2.23858 75 0 72.7614 0 70V55Z" fill="black" fill-opacity="0.1"/>
<path d="M29.924 69L30.736 59.116H32.178L34.46 64.464L34.936 65.794H34.964C35.1413 65.2713 35.3047 64.828 35.454 64.464L37.736 59.116H39.178L39.976 69H38.604L38.128 62.77L38.1 61.314H38.072C37.8667 61.9207 37.6893 62.406 37.54 62.77L35.566 67.222H34.334L32.374 62.77L31.842 61.286H31.814C31.8327 61.874 31.8233 62.3687 31.786 62.77L31.31 69H29.924ZM41.3702 67.068C41.3702 66.5453 41.5149 66.1067 41.8042 65.752C42.0935 65.3973 42.4762 65.1453 42.9522 64.996C43.4375 64.8373 43.8855 64.73 44.2962 64.674C44.7069 64.618 45.1409 64.59 45.5982 64.59H45.9622V64.45C45.9622 63.414 45.4442 62.896 44.4082 62.896C43.7269 62.896 43.0642 63.1247 42.4202 63.582L41.8742 62.588C42.1635 62.3453 42.5555 62.1447 43.0502 61.986C43.5449 61.8273 44.0349 61.748 44.5202 61.748C45.4162 61.748 46.1069 61.986 46.5922 62.462C47.0775 62.938 47.3202 63.624 47.3202 64.52V69H46.0462V68.286L46.0882 67.726H46.0602C45.8455 68.146 45.5282 68.4913 45.1082 68.762C44.6975 69.0327 44.2402 69.168 43.7362 69.168C43.0922 69.168 42.5369 68.9767 42.0702 68.594C41.6035 68.2113 41.3702 67.7027 41.3702 67.068ZM42.7282 66.956C42.7282 67.264 42.8449 67.53 43.0782 67.754C43.3115 67.978 43.6382 68.09 44.0582 68.09C44.6182 68.09 45.0755 67.8567 45.4302 67.39C45.7849 66.9233 45.9622 66.4053 45.9622 65.836V65.57H45.6122C43.6895 65.57 42.7282 66.032 42.7282 66.956ZM49.635 66.41V63.092H48.711V61.986H49.663V59.97H50.993V61.986H52.701V63.092H50.993V66.256C50.993 66.5267 51.0303 66.7647 51.105 66.97C51.1797 67.166 51.2683 67.32 51.371 67.432C51.483 67.544 51.609 67.6327 51.749 67.698C51.8983 67.7633 52.029 67.8053 52.141 67.824C52.2623 67.8427 52.3837 67.852 52.505 67.852C52.6263 67.852 52.7337 67.8427 52.827 67.824V69.028C52.603 69.056 52.4443 69.07 52.351 69.07C52.1363 69.07 51.9217 69.0513 51.707 69.014C51.5017 68.986 51.2683 68.9207 51.007 68.818C50.7457 68.706 50.517 68.5613 50.321 68.384C50.1343 68.1973 49.971 67.936 49.831 67.6C49.7003 67.2547 49.635 66.858 49.635 66.41ZM53.6778 65.458C53.6778 64.4033 54.0325 63.5213 54.7418 62.812C55.4605 62.1027 56.3705 61.748 57.4718 61.748C58.5918 61.748 59.4785 62.0933 60.1318 62.784L59.4878 63.736C58.9465 63.1947 58.2932 62.924 57.5278 62.924C56.8185 62.924 56.2305 63.1667 55.7638 63.652C55.2972 64.128 55.0638 64.7253 55.0638 65.444C55.0638 66.172 55.2972 66.7787 55.7638 67.264C56.2398 67.7493 56.8418 67.992 57.5698 67.992C57.9618 67.992 58.3538 67.908 58.7458 67.74C59.1472 67.5627 59.4832 67.3293 59.7538 67.04L60.2998 68.034C59.9732 68.3793 59.5578 68.6547 59.0538 68.86C58.5498 69.0653 58.0225 69.168 57.4718 69.168C56.3612 69.168 55.4512 68.818 54.7418 68.118C54.0325 67.418 53.6778 66.5313 53.6778 65.458ZM61.7688 69V59.116H63.1268V62.784L63.0708 63.372H63.0988C63.2948 62.9613 63.6261 62.588 64.0928 62.252C64.5594 61.916 65.1148 61.748 65.7588 61.748C67.3734 61.748 68.1808 62.6533 68.1808 64.464V69H66.8228V64.772C66.8228 64.2027 66.7294 63.764 66.5428 63.456C66.3654 63.148 66.0154 62.994 65.4928 62.994C64.8114 62.994 64.2468 63.246 63.7988 63.75C63.3508 64.2447 63.1268 64.8747 63.1268 65.64V69H61.7688Z" fill="#5A6989"/>
<path d="M21.6033 50.9282C21.4805 50.9207 21.3581 50.9059 21.2362 50.8816L20.8724 50.6864C19.0749 49.8745 19.4153 48.6954 19.8484 47.188C19.9498 46.8388 20.0534 46.4741 20.1248 46.1049C20.4794 43.7356 20.6074 41.2045 19.5552 39.7955C18.7184 38.6745 16.7141 38.6959 16.5977 37.1919C16.5409 36.4554 16.7321 35.8569 17.1672 35.414C18.1859 34.3782 20.3379 34.3445 21.5298 34.4174C22.5202 34.4765 22.6073 34.5884 23.0527 34.7061C27.6961 35.9156 24.9628 38.0862 24.5662 43.6728C24.3892 46.1872 26.339 51.2158 21.6033 50.9282Z" fill="#8897B6"/>
<path d="M16.435 30C16.2852 30 16.1383 30.0252 16.0014 30.0742C15.5578 30.2303 15.2322 30.6117 15.083 31.1437C14.9479 31.6312 14.9785 32.1965 15.1688 32.7362C15.511 33.7041 16.2705 34.3541 17.0569 34.3541C17.206 34.3541 17.3522 34.3298 17.4913 34.2796C17.9207 34.1283 18.2419 33.7609 18.3948 33.248C18.5459 32.7516 18.5201 32.174 18.3232 31.6185C17.9811 30.6507 17.2216 30 16.435 30Z" fill="#8897B6"/>
<path d="M19.5737 30.7349C19.0388 30.8593 18.7465 31.5022 18.9081 32.1994C19.0432 32.7986 19.5035 33.2487 19.9768 33.2487C20.0352 33.2487 20.0947 33.2415 20.1431 33.2302C20.3548 33.1818 20.5412 33.0447 20.6678 32.8434C20.8488 32.5543 20.9012 32.1606 20.8109 31.7639C20.654 31.0844 20.1379 30.6266 19.5737 30.7349Z" fill="#8897B6"/>
<path d="M22.0474 31.0359C21.5759 31.0374 21.1965 31.4857 21.1609 32.0786C21.1428 32.3619 21.2086 32.6361 21.3461 32.8494C21.4901 33.0744 21.7045 33.2121 21.956 33.2262H21.9767C22.4263 33.2262 22.807 32.7665 22.8429 32.1785C22.8588 31.8929 22.7919 31.6194 22.6559 31.4124C22.5148 31.1888 22.3004 31.0515 22.0474 31.0359Z" fill="#8897B6"/>
<path d="M24.6944 32.3515C24.5968 32.1043 24.4111 31.9273 24.1839 31.8684C23.7163 31.7483 23.2426 32.1317 23.0917 32.7121C23.0054 33.0418 23.0406 33.3768 23.188 33.6274C23.2925 33.8071 23.4512 33.9337 23.6349 33.982C23.6882 33.9961 23.7448 34.0023 23.8005 34.0023C24.2018 34.0023 24.6008 33.6305 24.7287 33.1386C24.7994 32.8637 24.7874 32.5849 24.6944 32.3515Z" fill="#8897B6"/>
<path d="M26.1315 33.5494C26.0515 33.3472 25.8988 33.2019 25.7202 33.1528L25.5684 33.1334C25.2358 33.1334 24.916 33.4294 24.811 33.8356C24.7515 34.0592 24.7613 34.2872 24.8377 34.476C24.9184 34.6793 25.0711 34.8246 25.2708 34.8784L25.3981 34.8933C25.7345 34.8933 26.0548 34.5973 26.1593 34.1902C26.2177 33.9644 26.2077 33.7424 26.1315 33.5494Z" fill="#8897B6"/>
<path d="M50.6033 50.9282C50.4805 50.9207 50.3581 50.9059 50.2362 50.8816L49.8724 50.6864C48.0749 49.8745 48.4153 48.6954 48.8484 47.188C48.9498 46.8388 49.0534 46.4741 49.1248 46.1049C49.4794 43.7356 49.6074 41.2045 48.5552 39.7955C47.7184 38.6745 45.7141 38.6959 45.5977 37.1919C45.5409 36.4554 45.7321 35.8569 46.1672 35.414C47.1859 34.3782 49.3379 34.3445 50.5298 34.4174C51.5202 34.4765 51.6073 34.5884 52.0527 34.7061C56.6961 35.9156 53.9628 38.0862 53.5662 43.6728C53.3892 46.1872 55.339 51.2158 50.6033 50.9282Z" fill="#8897B6"/>
<path d="M45.435 30C45.2852 30 45.1383 30.0252 45.0014 30.0742C44.5578 30.2303 44.2322 30.6117 44.083 31.1437C43.9479 31.6312 43.9785 32.1965 44.1688 32.7362C44.511 33.7041 45.2705 34.3541 46.0569 34.3541C46.206 34.3541 46.3522 34.3298 46.4913 34.2796C46.9207 34.1283 47.2419 33.7609 47.3948 33.248C47.5459 32.7516 47.5201 32.174 47.3232 31.6185C46.9811 30.6507 46.2216 30 45.435 30Z" fill="#8897B6"/>
<path d="M48.5737 30.7349C48.0388 30.8593 47.7465 31.5022 47.9081 32.1994C48.0432 32.7986 48.5035 33.2487 48.9768 33.2487C49.0352 33.2487 49.0947 33.2415 49.1431 33.2302C49.3548 33.1818 49.5412 33.0447 49.6678 32.8434C49.8488 32.5543 49.9012 32.1606 49.8109 31.7639C49.654 31.0844 49.1379 30.6266 48.5737 30.7349Z" fill="#8897B6"/>
<path d="M51.0474 31.0359C50.5759 31.0374 50.1965 31.4857 50.1609 32.0786C50.1428 32.3619 50.2086 32.6361 50.3461 32.8494C50.4901 33.0744 50.7045 33.2121 50.956 33.2262H50.9767C51.4263 33.2262 51.807 32.7665 51.8429 32.1785C51.8588 31.8929 51.7919 31.6194 51.6559 31.4124C51.5148 31.1888 51.3004 31.0515 51.0474 31.0359Z" fill="#8897B6"/>
<path d="M53.6944 32.3515C53.5968 32.1043 53.4111 31.9273 53.1839 31.8684C52.7163 31.7483 52.2426 32.1317 52.0917 32.7121C52.0054 33.0418 52.0406 33.3768 52.188 33.6274C52.2925 33.8071 52.4512 33.9337 52.6349 33.982C52.6882 33.9961 52.7448 34.0023 52.8005 34.0023C53.2018 34.0023 53.6008 33.6305 53.7287 33.1386C53.7994 32.8637 53.7874 32.5849 53.6944 32.3515Z" fill="#8897B6"/>
<path d="M55.1315 33.5494C55.0515 33.3472 54.8988 33.2019 54.7202 33.1528L54.5684 33.1334C54.2358 33.1334 53.916 33.4294 53.811 33.8356C53.7515 34.0592 53.7613 34.2872 53.8377 34.476C53.9184 34.6793 54.0711 34.8246 54.2708 34.8784L54.3981 34.8933C54.7345 34.8933 55.0548 34.5973 55.1593 34.1902C55.2177 33.9644 55.2077 33.7424 55.1315 33.5494Z" fill="#8897B6"/>
<path d="M79.6033 51.9282C79.4805 51.9207 79.3581 51.9059 79.2362 51.8816L78.8724 51.6864C77.0749 50.8745 77.4153 49.6954 77.8484 48.188C77.9498 47.8388 78.0534 47.4741 78.1248 47.1049C78.4794 44.7356 78.6074 42.2045 77.5552 40.7955C76.7184 39.6745 74.7141 39.6959 74.5977 38.1919C74.5409 37.4554 74.7321 36.8569 75.1672 36.414C76.1859 35.3782 78.3379 35.3445 79.5298 35.4174C80.5202 35.4765 80.6073 35.5884 81.0527 35.7061C85.6961 36.9156 82.9628 39.0862 82.5662 44.6728C82.3892 47.1872 84.339 52.2158 79.6033 51.9282Z" fill="#8897B6"/>
<path d="M74.435 31C74.2852 31 74.1383 31.0252 74.0014 31.0742C73.5578 31.2303 73.2322 31.6117 73.083 32.1437C72.9479 32.6312 72.9785 33.1965 73.1688 33.7362C73.511 34.7041 74.2705 35.3541 75.0569 35.3541C75.206 35.3541 75.3522 35.3298 75.4913 35.2796C75.9207 35.1283 76.2419 34.7609 76.3948 34.248C76.5459 33.7516 76.5201 33.174 76.3232 32.6185C75.9811 31.6507 75.2216 31 74.435 31Z" fill="#8897B6"/>
<path d="M77.5737 31.7349C77.0388 31.8593 76.7465 32.5022 76.9081 33.1994C77.0432 33.7986 77.5035 34.2487 77.9768 34.2487C78.0352 34.2487 78.0947 34.2415 78.1431 34.2302C78.3548 34.1818 78.5412 34.0447 78.6678 33.8434C78.8488 33.5543 78.9012 33.1606 78.8109 32.7639C78.654 32.0844 78.1379 31.6266 77.5737 31.7349Z" fill="#8897B6"/>
<path d="M80.0474 32.0359C79.5759 32.0374 79.1965 32.4857 79.1609 33.0786C79.1428 33.3619 79.2086 33.6361 79.3461 33.8494C79.4901 34.0744 79.7045 34.2121 79.956 34.2262H79.9767C80.4263 34.2262 80.807 33.7665 80.8429 33.1785C80.8588 32.8929 80.7919 32.6194 80.6559 32.4124C80.5148 32.1888 80.3004 32.0515 80.0474 32.0359Z" fill="#8897B6"/>
<path d="M82.6944 33.3515C82.5968 33.1043 82.4111 32.9273 82.1839 32.8684C81.7163 32.7483 81.2426 33.1317 81.0917 33.7121C81.0054 34.0418 81.0406 34.3768 81.188 34.6274C81.2925 34.8071 81.4512 34.9337 81.6349 34.982C81.6882 34.9961 81.7448 35.0023 81.8005 35.0023C82.2018 35.0023 82.6008 34.6305 82.7287 34.1386C82.7994 33.8637 82.7874 33.5849 82.6944 33.3515Z" fill="#8897B6"/>
<path d="M84.1315 34.5494C84.0515 34.3472 83.8988 34.2019 83.7202 34.1528L83.5684 34.1334C83.2358 34.1334 82.916 34.4294 82.811 34.8356C82.7515 35.0592 82.7613 35.2872 82.8377 35.476C82.9184 35.6793 83.0711 35.8246 83.2708 35.8784L83.3981 35.8933C83.7345 35.8933 84.0548 35.5973 84.1593 35.1902C84.2177 34.9644 84.2077 34.7424 84.1315 34.5494Z" fill="#8897B6"/>
</svg>
