<svg width="239" height="37" viewBox="0 0 239 37" fill="none" xmlns="http://www.w3.org/2000/svg">
<g filter="url(#filter0_dd)">
<path d="M4.12 13.272C4.12 11.608 4.376 10.136 4.888 8.856C5.42133 7.576 6.136 6.50933 7.032 5.656C7.94933 4.78133 9.016 4.12 10.232 3.672C11.4693 3.224 12.8027 3 14.232 3C15.6613 3 16.984 3.224 18.2 3.672C19.4373 4.12 20.5147 4.78133 21.432 5.656C22.3493 6.50933 23.064 7.576 23.576 8.856C24.1093 10.136 24.376 11.608 24.376 13.272C24.376 14.936 24.12 16.4187 23.608 17.72C23.096 19 22.3813 20.0773 21.464 20.952C20.568 21.8053 19.5013 22.456 18.264 22.904C17.0267 23.352 15.6827 23.576 14.232 23.576C12.7813 23.576 11.4373 23.352 10.2 22.904C8.96267 22.4347 7.896 21.7627 7 20.888C6.104 20.0133 5.4 18.936 4.888 17.656C4.376 16.376 4.12 14.9147 4.12 13.272ZM9.88 13.272C9.88 15.2133 10.2747 16.664 11.064 17.624C11.8533 18.584 12.9093 19.064 14.232 19.064C15.576 19.064 16.6427 18.584 17.432 17.624C18.2213 16.664 18.616 15.2133 18.616 13.272C18.616 11.352 18.2213 9.912 17.432 8.952C16.664 7.992 15.608 7.512 14.264 7.512C12.9413 7.512 11.8747 7.992 11.064 8.952C10.2747 9.89067 9.88 11.3307 9.88 13.272ZM34.3 6.968C35.58 6.968 36.764 7.13867 37.852 7.48C38.9613 7.8 39.9107 8.30133 40.7 8.984C41.4893 9.66667 42.108 10.5307 42.556 11.576C43.004 12.6 43.228 13.8267 43.228 15.256C43.228 16.6213 43.036 17.816 42.652 18.84C42.268 19.864 41.724 20.728 41.02 21.432C40.316 22.1147 39.4627 22.6267 38.46 22.968C37.4787 23.3093 36.38 23.48 35.164 23.48C34.2467 23.48 33.3933 23.3413 32.604 23.064V28.376C32.3907 28.44 32.0493 28.504 31.58 28.568C31.1107 28.6533 30.6307 28.696 30.14 28.696C29.6707 28.696 29.244 28.664 28.86 28.6C28.4973 28.536 28.188 28.408 27.932 28.216C27.676 28.024 27.484 27.7573 27.356 27.416C27.228 27.096 27.164 26.6693 27.164 26.136V10.776C27.164 10.2 27.2813 9.73067 27.516 9.368C27.772 9.00533 28.1133 8.67467 28.54 8.376C29.2013 7.94933 30.0227 7.608 31.004 7.352C31.9853 7.096 33.084 6.968 34.3 6.968ZM34.364 19.192C36.5613 19.192 37.66 17.88 37.66 15.256C37.66 13.8907 37.3827 12.8773 36.828 12.216C36.2947 11.5547 35.516 11.224 34.492 11.224C34.0867 11.224 33.724 11.2773 33.404 11.384C33.084 11.4693 32.8067 11.576 32.572 11.704V18.744C32.828 18.872 33.1053 18.9787 33.404 19.064C33.7027 19.1493 34.0227 19.192 34.364 19.192ZM53.0188 6.968C54.2988 6.968 55.4828 7.13867 56.5708 7.48C57.6801 7.8 58.6294 8.30133 59.4188 8.984C60.2081 9.66667 60.8268 10.5307 61.2748 11.576C61.7228 12.6 61.9468 13.8267 61.9468 15.256C61.9468 16.6213 61.7548 17.816 61.3708 18.84C60.9868 19.864 60.4428 20.728 59.7388 21.432C59.0348 22.1147 58.1814 22.6267 57.1788 22.968C56.1974 23.3093 55.0988 23.48 53.8828 23.48C52.9654 23.48 52.1121 23.3413 51.3228 23.064V28.376C51.1094 28.44 50.7681 28.504 50.2988 28.568C49.8294 28.6533 49.3494 28.696 48.8588 28.696C48.3894 28.696 47.9628 28.664 47.5788 28.6C47.2161 28.536 46.9068 28.408 46.6508 28.216C46.3948 28.024 46.2028 27.7573 46.0748 27.416C45.9468 27.096 45.8828 26.6693 45.8828 26.136V10.776C45.8828 10.2 46.0001 9.73067 46.2348 9.368C46.4908 9.00533 46.8321 8.67467 47.2588 8.376C47.9201 7.94933 48.7414 7.608 49.7228 7.352C50.7041 7.096 51.8028 6.968 53.0188 6.968ZM53.0828 19.192C55.2801 19.192 56.3788 17.88 56.3788 15.256C56.3788 13.8907 56.1014 12.8773 55.5468 12.216C55.0134 11.5547 54.2348 11.224 53.2108 11.224C52.8054 11.224 52.4428 11.2773 52.1228 11.384C51.8028 11.4693 51.5254 11.576 51.2908 11.704V18.744C51.5468 18.872 51.8241 18.9787 52.1228 19.064C52.4214 19.1493 52.7414 19.192 53.0828 19.192ZM80.6975 15.224C80.6975 16.5467 80.4948 17.7307 80.0895 18.776C79.6842 19.8 79.1082 20.664 78.3615 21.368C77.6362 22.072 76.7615 22.6053 75.7375 22.968C74.7135 23.3307 73.5722 23.512 72.3135 23.512C71.0548 23.512 69.9135 23.32 68.8895 22.936C67.8655 22.552 66.9802 22.008 66.2335 21.304C65.5082 20.5787 64.9428 19.704 64.5375 18.68C64.1322 17.656 63.9295 16.504 63.9295 15.224C63.9295 13.9653 64.1322 12.824 64.5375 11.8C64.9428 10.776 65.5082 9.912 66.2335 9.208C66.9802 8.48267 67.8655 7.928 68.8895 7.544C69.9135 7.16 71.0548 6.968 72.3135 6.968C73.5722 6.968 74.7135 7.17067 75.7375 7.576C76.7615 7.96 77.6362 8.51467 78.3615 9.24C79.1082 9.944 79.6842 10.808 80.0895 11.832C80.4948 12.856 80.6975 13.9867 80.6975 15.224ZM69.4975 15.224C69.4975 16.5253 69.7428 17.528 70.2335 18.232C70.7455 18.9147 71.4495 19.256 72.3455 19.256C73.2415 19.256 73.9242 18.904 74.3935 18.2C74.8842 17.496 75.1295 16.504 75.1295 15.224C75.1295 13.944 74.8842 12.9627 74.3935 12.28C73.9028 11.576 73.2095 11.224 72.3135 11.224C71.4175 11.224 70.7242 11.576 70.2335 12.28C69.7428 12.9627 69.4975 13.944 69.4975 15.224ZM93.2075 13.144C93.2075 12.4827 93.0155 12.0027 92.6315 11.704C92.2688 11.384 91.7675 11.224 91.1275 11.224C90.7008 11.224 90.2742 11.2773 89.8475 11.384C89.4422 11.4907 89.0902 11.6507 88.7915 11.864V22.968C88.5782 23.032 88.2368 23.096 87.7675 23.16C87.3195 23.224 86.8502 23.256 86.3595 23.256C85.8902 23.256 85.4635 23.224 85.0795 23.16C84.7168 23.096 84.4075 22.968 84.1515 22.776C83.8955 22.584 83.6928 22.328 83.5435 22.008C83.4155 21.6667 83.3515 21.2293 83.3515 20.696V11.096C83.3515 10.52 83.4688 10.0507 83.7035 9.688C83.9595 9.32533 84.3008 8.99467 84.7275 8.696C85.4528 8.184 86.3595 7.768 87.4475 7.448C88.5568 7.128 89.7835 6.968 91.1275 6.968C93.5382 6.968 95.3942 7.50133 96.6955 8.568C97.9968 9.61333 98.6475 11.0747 98.6475 12.952V22.968C98.4342 23.032 98.0928 23.096 97.6235 23.16C97.1755 23.224 96.7062 23.256 96.2155 23.256C95.7462 23.256 95.3195 23.224 94.9355 23.16C94.5728 23.096 94.2635 22.968 94.0075 22.776C93.7515 22.584 93.5488 22.328 93.3995 22.008C93.2715 21.6667 93.2075 21.2293 93.2075 20.696V13.144ZM110.232 23.512C108.973 23.512 107.8 23.3413 106.712 23C105.645 22.6373 104.706 22.104 103.896 21.4C103.106 20.696 102.477 19.8107 102.008 18.744C101.56 17.6773 101.336 16.4293 101.336 15C101.336 13.592 101.56 12.3867 102.008 11.384C102.477 10.36 103.085 9.528 103.832 8.888C104.578 8.22667 105.432 7.74667 106.392 7.448C107.352 7.128 108.333 6.968 109.336 6.968C110.466 6.968 111.49 7.13867 112.408 7.48C113.346 7.82133 114.146 8.29067 114.808 8.888C115.49 9.48533 116.013 10.2 116.376 11.032C116.76 11.864 116.952 12.7707 116.952 13.752C116.952 14.4773 116.749 15.032 116.344 15.416C115.938 15.8 115.373 16.0453 114.648 16.152L106.744 17.336C106.978 18.04 107.458 18.5733 108.184 18.936C108.909 19.2773 109.741 19.448 110.68 19.448C111.554 19.448 112.376 19.3413 113.144 19.128C113.933 18.8933 114.573 18.6267 115.064 18.328C115.405 18.5413 115.693 18.84 115.928 19.224C116.162 19.608 116.28 20.0133 116.28 20.44C116.28 21.4 115.832 22.1147 114.936 22.584C114.253 22.9467 113.485 23.192 112.632 23.32C111.778 23.448 110.978 23.512 110.232 23.512ZM109.336 10.936C108.824 10.936 108.376 11.0213 107.992 11.192C107.629 11.3627 107.33 11.5867 107.096 11.864C106.861 12.12 106.68 12.4187 106.552 12.76C106.445 13.08 106.381 13.4107 106.36 13.752L111.832 12.856C111.768 12.4293 111.533 12.0027 111.128 11.576C110.722 11.1493 110.125 10.936 109.336 10.936ZM129.426 13.144C129.426 12.4827 129.234 12.0027 128.85 11.704C128.488 11.384 127.986 11.224 127.346 11.224C126.92 11.224 126.493 11.2773 126.066 11.384C125.661 11.4907 125.309 11.6507 125.01 11.864V22.968C124.797 23.032 124.456 23.096 123.986 23.16C123.538 23.224 123.069 23.256 122.578 23.256C122.109 23.256 121.682 23.224 121.298 23.16C120.936 23.096 120.626 22.968 120.37 22.776C120.114 22.584 119.912 22.328 119.762 22.008C119.634 21.6667 119.57 21.2293 119.57 20.696V11.096C119.57 10.52 119.688 10.0507 119.922 9.688C120.178 9.32533 120.52 8.99467 120.946 8.696C121.672 8.184 122.578 7.768 123.666 7.448C124.776 7.128 126.002 6.968 127.346 6.968C129.757 6.968 131.613 7.50133 132.914 8.568C134.216 9.61333 134.866 11.0747 134.866 12.952V22.968C134.653 23.032 134.312 23.096 133.842 23.16C133.394 23.224 132.925 23.256 132.434 23.256C131.965 23.256 131.538 23.224 131.154 23.16C130.792 23.096 130.482 22.968 130.226 22.776C129.97 22.584 129.768 22.328 129.618 22.008C129.49 21.6667 129.426 21.2293 129.426 20.696V13.144ZM143.667 17.656C143.667 18.2107 143.837 18.6053 144.179 18.84C144.541 19.0747 145.043 19.192 145.683 19.192C146.003 19.192 146.333 19.1707 146.675 19.128C147.016 19.064 147.315 18.9893 147.571 18.904C147.763 19.1387 147.923 19.4053 148.051 19.704C148.2 19.9813 148.275 20.3227 148.275 20.728C148.275 21.5387 147.965 22.2 147.347 22.712C146.749 23.224 145.683 23.48 144.147 23.48C142.269 23.48 140.819 23.0533 139.795 22.2C138.792 21.3467 138.291 19.96 138.291 18.04V4.344C138.525 4.28 138.856 4.216 139.283 4.152C139.731 4.06667 140.2 4.024 140.691 4.024C141.629 4.024 142.355 4.19467 142.867 4.536C143.4 4.856 143.667 5.54933 143.667 6.616V8.664H147.859C147.987 8.89867 148.104 9.19733 148.211 9.56C148.339 9.90133 148.403 10.2853 148.403 10.712C148.403 11.4587 148.232 12.0027 147.891 12.344C147.571 12.664 147.133 12.824 146.579 12.824H143.667V17.656ZM166.821 8.344C167.056 8.23733 167.419 8.12 167.909 7.992C168.421 7.84267 168.933 7.768 169.445 7.768C170.341 7.768 171.088 7.90667 171.685 8.184C172.283 8.44 172.645 8.824 172.773 9.336C173.008 10.2107 173.221 11.032 173.413 11.8C173.627 12.5467 173.829 13.272 174.021 13.976C174.213 14.6587 174.395 15.3413 174.565 16.024C174.757 16.7067 174.939 17.4213 175.109 18.168H175.269C175.461 16.8667 175.632 15.6293 175.781 14.456C175.931 13.2613 176.069 12.0987 176.197 10.968C176.325 9.816 176.453 8.68533 176.581 7.576C176.709 6.44533 176.837 5.304 176.965 4.152C177.755 3.704 178.597 3.48 179.493 3.48C180.283 3.48 180.965 3.65067 181.541 3.992C182.117 4.33333 182.405 4.90933 182.405 5.72C182.405 6.18933 182.352 6.86133 182.245 7.736C182.16 8.58933 182.032 9.54933 181.861 10.616C181.712 11.6827 181.531 12.8027 181.317 13.976C181.104 15.1493 180.88 16.2693 180.645 17.336C180.411 18.4027 180.165 19.3733 179.909 20.248C179.675 21.1013 179.451 21.7627 179.237 22.232C178.917 22.5307 178.395 22.776 177.669 22.968C176.944 23.16 176.197 23.256 175.429 23.256C174.427 23.256 173.573 23.128 172.869 22.872C172.187 22.5947 171.771 22.2107 171.621 21.72C171.344 20.8667 171.045 19.8533 170.725 18.68C170.405 17.5067 170.064 16.216 169.701 14.808C169.403 16.1947 169.093 17.5493 168.773 18.872C168.453 20.1947 168.165 21.3147 167.909 22.232C167.589 22.5307 167.109 22.776 166.469 22.968C165.829 23.16 165.125 23.256 164.357 23.256C163.397 23.256 162.523 23.128 161.733 22.872C160.965 22.5947 160.464 22.2107 160.229 21.72C160.037 21.336 159.824 20.7707 159.589 20.024C159.376 19.256 159.152 18.392 158.917 17.432C158.683 16.4507 158.437 15.3947 158.181 14.264C157.947 13.1333 157.723 12.0027 157.509 10.872C157.317 9.74133 157.136 8.64267 156.965 7.576C156.795 6.488 156.667 5.496 156.581 4.6C156.88 4.32267 157.296 4.06667 157.829 3.832C158.363 3.59733 158.939 3.48 159.557 3.48C160.368 3.48 161.029 3.66133 161.541 4.024C162.075 4.36533 162.405 4.952 162.533 5.784C162.875 7.96 163.152 9.77333 163.365 11.224C163.6 12.6747 163.781 13.8693 163.909 14.808C164.059 15.7253 164.165 16.44 164.229 16.952C164.293 17.464 164.357 17.8693 164.421 18.168H164.581C164.773 17.3147 164.955 16.5253 165.125 15.8C165.296 15.0747 165.467 14.3493 165.637 13.624C165.829 12.8773 166.021 12.088 166.213 11.256C166.405 10.4027 166.608 9.432 166.821 8.344ZM184.817 3.128C184.817 2.31733 185.084 1.63467 185.617 1.08C186.172 0.525332 186.897 0.247999 187.793 0.247999C188.689 0.247999 189.404 0.525332 189.937 1.08C190.492 1.63467 190.769 2.31733 190.769 3.128C190.769 3.93867 190.492 4.62133 189.937 5.176C189.404 5.73067 188.689 6.008 187.793 6.008C186.897 6.008 186.172 5.73067 185.617 5.176C185.084 4.62133 184.817 3.93867 184.817 3.128ZM190.513 22.968C190.279 23.0107 189.927 23.064 189.457 23.128C189.009 23.2133 188.551 23.256 188.081 23.256C187.612 23.256 187.185 23.224 186.801 23.16C186.439 23.096 186.129 22.968 185.873 22.776C185.617 22.584 185.415 22.328 185.265 22.008C185.137 21.6667 185.073 21.2293 185.073 20.696V7.672C185.308 7.62933 185.649 7.576 186.097 7.512C186.567 7.42667 187.036 7.384 187.505 7.384C187.975 7.384 188.391 7.416 188.753 7.48C189.137 7.544 189.457 7.672 189.713 7.864C189.969 8.056 190.161 8.32267 190.289 8.664C190.439 8.984 190.513 9.41067 190.513 9.944V22.968ZM203.833 13.144C203.833 12.4827 203.641 12.0027 203.257 11.704C202.894 11.384 202.393 11.224 201.753 11.224C201.326 11.224 200.899 11.2773 200.473 11.384C200.067 11.4907 199.715 11.6507 199.417 11.864V22.968C199.203 23.032 198.862 23.096 198.393 23.16C197.945 23.224 197.475 23.256 196.985 23.256C196.515 23.256 196.089 23.224 195.705 23.16C195.342 23.096 195.033 22.968 194.777 22.776C194.521 22.584 194.318 22.328 194.169 22.008C194.041 21.6667 193.977 21.2293 193.977 20.696V11.096C193.977 10.52 194.094 10.0507 194.329 9.688C194.585 9.32533 194.926 8.99467 195.353 8.696C196.078 8.184 196.985 7.768 198.073 7.448C199.182 7.128 200.409 6.968 201.753 6.968C204.163 6.968 206.019 7.50133 207.321 8.568C208.622 9.61333 209.273 11.0747 209.273 12.952V22.968C209.059 23.032 208.718 23.096 208.249 23.16C207.801 23.224 207.331 23.256 206.841 23.256C206.371 23.256 205.945 23.224 205.561 23.16C205.198 23.096 204.889 22.968 204.633 22.776C204.377 22.584 204.174 22.328 204.025 22.008C203.897 21.6667 203.833 21.2293 203.833 20.696V13.144ZM225.753 18.36C225.753 19.9813 225.145 21.2507 223.929 22.168C222.713 23.0853 220.921 23.544 218.553 23.544C217.657 23.544 216.825 23.48 216.057 23.352C215.289 23.224 214.627 23.032 214.073 22.776C213.539 22.4987 213.113 22.1573 212.793 21.752C212.494 21.3467 212.345 20.8667 212.345 20.312C212.345 19.8 212.451 19.3733 212.665 19.032C212.878 18.6693 213.134 18.3707 213.433 18.136C214.051 18.4773 214.755 18.7867 215.545 19.064C216.355 19.32 217.283 19.448 218.329 19.448C218.99 19.448 219.491 19.352 219.833 19.16C220.195 18.968 220.377 18.712 220.377 18.392C220.377 18.0933 220.249 17.8587 219.993 17.688C219.737 17.5173 219.31 17.3787 218.713 17.272L217.753 17.08C215.897 16.7173 214.51 16.152 213.593 15.384C212.697 14.5947 212.249 13.4747 212.249 12.024C212.249 11.2347 212.419 10.52 212.761 9.88C213.102 9.24 213.582 8.70667 214.201 8.28C214.819 7.85333 215.555 7.52267 216.409 7.288C217.283 7.05333 218.243 6.936 219.289 6.936C220.078 6.936 220.814 7 221.497 7.128C222.201 7.23467 222.809 7.40533 223.321 7.64C223.833 7.87467 224.238 8.184 224.537 8.568C224.835 8.93067 224.985 9.368 224.985 9.88C224.985 10.3707 224.889 10.7973 224.697 11.16C224.526 11.5013 224.302 11.7893 224.025 12.024C223.854 11.9173 223.598 11.8107 223.257 11.704C222.915 11.576 222.542 11.4693 222.137 11.384C221.731 11.2773 221.315 11.192 220.889 11.128C220.483 11.064 220.11 11.032 219.769 11.032C219.065 11.032 218.521 11.1173 218.137 11.288C217.753 11.4373 217.561 11.6827 217.561 12.024C217.561 12.2587 217.667 12.4507 217.881 12.6C218.094 12.7493 218.499 12.888 219.097 13.016L220.089 13.24C222.137 13.7093 223.587 14.36 224.441 15.192C225.315 16.0027 225.753 17.0587 225.753 18.36ZM234.303 4.44C234.303 4.93067 234.292 5.64533 234.271 6.584C234.249 7.50133 234.207 8.504 234.143 9.592C234.079 10.6587 233.993 11.736 233.887 12.824C233.78 13.8907 233.652 14.8187 233.503 15.608C233.417 15.672 233.289 15.736 233.119 15.8C232.948 15.864 232.767 15.9173 232.575 15.96C232.383 16.0027 232.191 16.0347 231.999 16.056C231.807 16.0773 231.636 16.088 231.487 16.088C230.868 16.088 230.345 15.992 229.919 15.8C229.513 15.608 229.257 15.2347 229.151 14.68C229.044 14.1893 228.948 13.4427 228.863 12.44C228.799 11.4373 228.735 10.3493 228.671 9.176C228.607 8.00267 228.553 6.84 228.511 5.688C228.489 4.536 228.479 3.55467 228.479 2.744C228.905 2.50933 229.385 2.328 229.919 2.2C230.473 2.05067 231.017 1.976 231.551 1.976C232.425 1.976 233.097 2.17867 233.567 2.584C234.057 2.98933 234.303 3.608 234.303 4.44ZM228.415 20.568C228.415 19.6933 228.681 18.9787 229.215 18.424C229.769 17.848 230.527 17.56 231.487 17.56C232.447 17.56 233.193 17.848 233.727 18.424C234.281 18.9787 234.559 19.6933 234.559 20.568C234.559 21.4427 234.281 22.168 233.727 22.744C233.193 23.2987 232.447 23.576 231.487 23.576C230.527 23.576 229.769 23.2987 229.215 22.744C228.681 22.168 228.415 21.4427 228.415 20.568Z" fill="white"/>
</g>
<defs>
<filter id="filter0_dd" x="0.119995" y="0.248047" width="238.439" height="36.448" filterUnits="userSpaceOnUse" color-interpolation-filters="sRGB">
<feFlood flood-opacity="0" result="BackgroundImageFix"/>
<feColorMatrix in="SourceAlpha" type="matrix" values="0 0 0 0 0 0 0 0 0 0 0 0 0 0 0 0 0 0 127 0"/>
<feOffset dy="4"/>
<feGaussianBlur stdDeviation="2"/>
<feColorMatrix type="matrix" values="0 0 0 0 0 0 0 0 0 0 0 0 0 0 0 0 0 0 0.25 0"/>
<feBlend mode="normal" in2="BackgroundImageFix" result="effect1_dropShadow"/>
<feColorMatrix in="SourceAlpha" type="matrix" values="0 0 0 0 0 0 0 0 0 0 0 0 0 0 0 0 0 0 127 0"/>
<feOffset dy="4"/>
<feGaussianBlur stdDeviation="2"/>
<feColorMatrix type="matrix" values="0 0 0 0 0 0 0 0 0 0 0 0 0 0 0 0 0 0 0.25 0"/>
<feBlend mode="normal" in2="effect1_dropShadow" result="effect2_dropShadow"/>
<feBlend mode="normal" in="SourceGraphic" in2="effect2_dropShadow" result="shape"/>
</filter>
</defs>
</svg>
