<svg width="99" height="75" viewBox="0 0 99 75" fill="none" xmlns="http://www.w3.org/2000/svg">
<path d="M0 25H99V70C99 72.7614 96.7614 75 94 75H5C2.23858 75 0 72.7614 0 70V25Z" fill="#95C1DC"/>
<path d="M0 15C0 6.71573 6.71573 0 15 0H84C92.2843 0 99 6.71573 99 15V25H0V15Z" fill="white" fill-opacity="0.7"/>
<path d="M25.302 16V6.116H28.928C29.8427 6.116 30.5847 6.40067 31.154 6.97C31.7327 7.53 32.022 8.27667 32.022 9.21C32.022 10.1433 31.7327 10.8993 31.154 11.478C30.5753 12.0567 29.8333 12.346 28.928 12.346H26.688V16H25.302ZM26.688 11.142H28.704C29.292 11.142 29.7587 10.9693 30.104 10.624C30.4493 10.2787 30.622 9.80733 30.622 9.21C30.622 8.622 30.4493 8.16 30.104 7.824C29.768 7.488 29.306 7.32 28.718 7.32H26.688V11.142ZM33.5402 14.054V6.116H34.8842V13.83C34.8842 14.2127 34.9496 14.4787 35.0802 14.628C35.2202 14.768 35.4116 14.838 35.6542 14.838C35.7569 14.838 35.8362 14.8333 35.8922 14.824V16.028C35.6962 16.056 35.5469 16.07 35.4442 16.07C34.1749 16.07 33.5402 15.398 33.5402 14.054ZM36.6847 14.068C36.6847 13.5453 36.8293 13.1067 37.1187 12.752C37.408 12.3973 37.7907 12.1453 38.2667 11.996C38.752 11.8373 39.2 11.73 39.6107 11.674C40.0213 11.618 40.4553 11.59 40.9127 11.59H41.2767V11.45C41.2767 10.414 40.7587 9.896 39.7227 9.896C39.0413 9.896 38.3787 10.1247 37.7347 10.582L37.1887 9.588C37.478 9.34533 37.87 9.14467 38.3647 8.986C38.8593 8.82733 39.3493 8.748 39.8347 8.748C40.7307 8.748 41.4213 8.986 41.9067 9.462C42.392 9.938 42.6347 10.624 42.6347 11.52V16H41.3607V15.286L41.4027 14.726H41.3747C41.16 15.146 40.8427 15.4913 40.4227 15.762C40.012 16.0327 39.5547 16.168 39.0507 16.168C38.4067 16.168 37.8513 15.9767 37.3847 15.594C36.918 15.2113 36.6847 14.7027 36.6847 14.068ZM38.0427 13.956C38.0427 14.264 38.1593 14.53 38.3927 14.754C38.626 14.978 38.9527 15.09 39.3727 15.09C39.9327 15.09 40.39 14.8567 40.7447 14.39C41.0993 13.9233 41.2767 13.4053 41.2767 12.836V12.57H40.9267C39.004 12.57 38.0427 13.032 38.0427 13.956ZM44.1688 17.47C44.4301 17.6753 44.7008 17.778 44.9808 17.778C45.5501 17.778 45.9794 17.428 46.2688 16.728L46.6188 15.916L43.6508 8.916H45.1768L46.9548 13.55L47.2208 14.404H47.2488C47.3234 14.0867 47.4028 13.8067 47.4868 13.564L49.2088 8.916H50.6788L47.3468 17.274C47.1414 17.8153 46.8334 18.226 46.4228 18.506C46.0214 18.7953 45.5641 18.94 45.0508 18.94C44.8174 18.94 44.5888 18.9027 44.3648 18.828C44.1408 18.7533 43.9728 18.6787 43.8608 18.604L43.6928 18.506L44.1688 17.47ZM51.3165 12.458C51.3165 11.3473 51.6525 10.4513 52.3245 9.77C52.9965 9.08867 53.8458 8.748 54.8725 8.748C55.8338 8.748 56.5852 9.06533 57.1265 9.7C57.6678 10.3253 57.9385 11.114 57.9385 12.066C57.9385 12.1873 57.9198 12.3787 57.8825 12.64H52.7305C52.7678 13.3773 53.0152 13.956 53.4725 14.376C53.9392 14.7867 54.5038 14.992 55.1665 14.992C55.9412 14.992 56.6365 14.7167 57.2525 14.166L57.8265 15.16C57.4905 15.468 57.0705 15.7153 56.5665 15.902C56.0718 16.0793 55.5772 16.168 55.0825 16.168C53.9812 16.168 53.0758 15.818 52.3665 15.118C51.6665 14.4087 51.3165 13.522 51.3165 12.458ZM52.7725 11.66H56.5665C56.5478 11.072 56.3752 10.6147 56.0485 10.288C55.7312 9.96133 55.3298 9.798 54.8445 9.798C54.3125 9.798 53.8552 9.966 53.4725 10.302C53.0992 10.6287 52.8658 11.0813 52.7725 11.66ZM59.5715 16V8.916H60.8875V10.19L60.8455 10.708H60.8735C61.0508 10.1667 61.3402 9.71867 61.7415 9.364C62.1428 9.00933 62.6048 8.832 63.1275 8.832C63.2208 8.832 63.3422 8.84133 63.4915 8.86V10.204C63.4168 10.1853 63.2862 10.176 63.0995 10.176C62.3902 10.176 61.8488 10.4653 61.4755 11.044C61.1115 11.6133 60.9295 12.2853 60.9295 13.06V16H59.5715ZM67.8107 16C67.764 15.7013 67.7407 15.4493 67.7407 15.244C67.7407 14.768 67.8294 14.3247 68.0067 13.914C68.184 13.5033 68.4127 13.1487 68.6927 12.85C68.982 12.5513 69.2994 12.2713 69.6447 12.01C69.99 11.7393 70.3354 11.4873 70.6807 11.254C71.0354 11.0207 71.3527 10.7873 71.6327 10.554C71.922 10.3207 72.1554 10.064 72.3327 9.784C72.51 9.49467 72.5987 9.196 72.5987 8.888C72.5987 8.40267 72.4307 8.01067 72.0947 7.712C71.7587 7.404 71.3294 7.25 70.8067 7.25C70.4054 7.25 70.0227 7.36667 69.6587 7.6C69.304 7.83333 69.0194 8.13667 68.8047 8.51L67.7827 7.824C68.0814 7.27333 68.506 6.82533 69.0567 6.48C69.6074 6.12533 70.228 5.948 70.9187 5.948C71.8334 5.948 72.58 6.20933 73.1587 6.732C73.7374 7.25467 74.0267 7.94067 74.0267 8.79C74.0267 9.294 73.91 9.76533 73.6767 10.204C73.4434 10.6427 73.1494 11.0067 72.7947 11.296C72.4494 11.576 72.0714 11.8653 71.6607 12.164C71.25 12.4627 70.8674 12.7287 70.5127 12.962C70.158 13.1953 69.8594 13.4753 69.6167 13.802C69.3834 14.1193 69.262 14.4507 69.2527 14.796H74.1807V16H67.8107Z" fill="#205FA9"/>
<path d="M0 55H99V70C99 72.7614 96.7614 75 94 75H5C2.23858 75 0 72.7614 0 70V55Z" fill="black" fill-opacity="0.1"/>
<path d="M29.924 69L30.736 59.116H32.178L34.46 64.464L34.936 65.794H34.964C35.1413 65.2713 35.3047 64.828 35.454 64.464L37.736 59.116H39.178L39.976 69H38.604L38.128 62.77L38.1 61.314H38.072C37.8667 61.9207 37.6893 62.406 37.54 62.77L35.566 67.222H34.334L32.374 62.77L31.842 61.286H31.814C31.8327 61.874 31.8233 62.3687 31.786 62.77L31.31 69H29.924ZM41.3702 67.068C41.3702 66.5453 41.5149 66.1067 41.8042 65.752C42.0935 65.3973 42.4762 65.1453 42.9522 64.996C43.4375 64.8373 43.8855 64.73 44.2962 64.674C44.7069 64.618 45.1409 64.59 45.5982 64.59H45.9622V64.45C45.9622 63.414 45.4442 62.896 44.4082 62.896C43.7269 62.896 43.0642 63.1247 42.4202 63.582L41.8742 62.588C42.1635 62.3453 42.5555 62.1447 43.0502 61.986C43.5449 61.8273 44.0349 61.748 44.5202 61.748C45.4162 61.748 46.1069 61.986 46.5922 62.462C47.0775 62.938 47.3202 63.624 47.3202 64.52V69H46.0462V68.286L46.0882 67.726H46.0602C45.8455 68.146 45.5282 68.4913 45.1082 68.762C44.6975 69.0327 44.2402 69.168 43.7362 69.168C43.0922 69.168 42.5369 68.9767 42.0702 68.594C41.6035 68.2113 41.3702 67.7027 41.3702 67.068ZM42.7282 66.956C42.7282 67.264 42.8449 67.53 43.0782 67.754C43.3115 67.978 43.6382 68.09 44.0582 68.09C44.6182 68.09 45.0755 67.8567 45.4302 67.39C45.7849 66.9233 45.9622 66.4053 45.9622 65.836V65.57H45.6122C43.6895 65.57 42.7282 66.032 42.7282 66.956ZM49.635 66.41V63.092H48.711V61.986H49.663V59.97H50.993V61.986H52.701V63.092H50.993V66.256C50.993 66.5267 51.0303 66.7647 51.105 66.97C51.1797 67.166 51.2683 67.32 51.371 67.432C51.483 67.544 51.609 67.6327 51.749 67.698C51.8983 67.7633 52.029 67.8053 52.141 67.824C52.2623 67.8427 52.3837 67.852 52.505 67.852C52.6263 67.852 52.7337 67.8427 52.827 67.824V69.028C52.603 69.056 52.4443 69.07 52.351 69.07C52.1363 69.07 51.9217 69.0513 51.707 69.014C51.5017 68.986 51.2683 68.9207 51.007 68.818C50.7457 68.706 50.517 68.5613 50.321 68.384C50.1343 68.1973 49.971 67.936 49.831 67.6C49.7003 67.2547 49.635 66.858 49.635 66.41ZM53.6778 65.458C53.6778 64.4033 54.0325 63.5213 54.7418 62.812C55.4605 62.1027 56.3705 61.748 57.4718 61.748C58.5918 61.748 59.4785 62.0933 60.1318 62.784L59.4878 63.736C58.9465 63.1947 58.2932 62.924 57.5278 62.924C56.8185 62.924 56.2305 63.1667 55.7638 63.652C55.2972 64.128 55.0638 64.7253 55.0638 65.444C55.0638 66.172 55.2972 66.7787 55.7638 67.264C56.2398 67.7493 56.8418 67.992 57.5698 67.992C57.9618 67.992 58.3538 67.908 58.7458 67.74C59.1472 67.5627 59.4832 67.3293 59.7538 67.04L60.2998 68.034C59.9732 68.3793 59.5578 68.6547 59.0538 68.86C58.5498 69.0653 58.0225 69.168 57.4718 69.168C56.3612 69.168 55.4512 68.818 54.7418 68.118C54.0325 67.418 53.6778 66.5313 53.6778 65.458ZM61.7688 69V59.116H63.1268V62.784L63.0708 63.372H63.0988C63.2948 62.9613 63.6261 62.588 64.0928 62.252C64.5594 61.916 65.1148 61.748 65.7588 61.748C67.3734 61.748 68.1808 62.6533 68.1808 64.464V69H66.8228V64.772C66.8228 64.2027 66.7294 63.764 66.5428 63.456C66.3654 63.148 66.0154 62.994 65.4928 62.994C64.8114 62.994 64.2468 63.246 63.7988 63.75C63.3508 64.2447 63.1268 64.8747 63.1268 65.64V69H61.7688Z" fill="#5A6989"/>
<path d="M21.6033 50.9282C21.4805 50.9206 21.3581 50.9059 21.2362 50.8816L20.8724 50.6863C19.0749 49.8745 19.4153 48.6953 19.8484 47.188C19.9498 46.8387 20.0534 46.474 20.1248 46.1049C20.4794 43.7356 20.6074 41.2045 19.5552 39.7955C18.7184 38.6745 16.7141 38.6959 16.5977 37.1919C16.5409 36.4554 16.7321 35.8569 17.1672 35.414C18.1859 34.3781 20.3379 34.3445 21.5298 34.4174C22.5202 34.4764 22.6073 34.5883 23.0527 34.706C27.6961 35.9155 24.9628 38.0862 24.5662 43.6727C24.3892 46.1872 26.339 51.2158 21.6033 50.9282Z" fill="#8897B6"/>
<path d="M16.435 30C16.2852 30 16.1383 30.0252 16.0014 30.0742C15.5578 30.2303 15.2322 30.6117 15.083 31.1437C14.9479 31.6312 14.9785 32.1965 15.1688 32.7362C15.511 33.7041 16.2705 34.3541 17.0569 34.3541C17.206 34.3541 17.3522 34.3298 17.4913 34.2796C17.9207 34.1283 18.2419 33.7609 18.3948 33.248C18.5459 32.7516 18.5201 32.174 18.3232 31.6185C17.9811 30.6507 17.2216 30 16.435 30Z" fill="#8897B6"/>
<path d="M19.5737 30.7349C19.0388 30.8593 18.7465 31.5022 18.9081 32.1994C19.0432 32.7986 19.5035 33.2487 19.9768 33.2487C20.0352 33.2487 20.0947 33.2415 20.1431 33.2302C20.3548 33.1818 20.5412 33.0447 20.6678 32.8434C20.8488 32.5543 20.9012 32.1606 20.8109 31.7639C20.654 31.0844 20.1379 30.6266 19.5737 30.7349Z" fill="#8897B6"/>
<path d="M22.0474 31.0358C21.5759 31.0374 21.1965 31.4857 21.1609 32.0786C21.1428 32.3619 21.2086 32.6361 21.3461 32.8494C21.4901 33.0743 21.7045 33.2121 21.956 33.2261H21.9767C22.4263 33.2261 22.807 32.7665 22.8429 32.1785C22.8588 31.8929 22.7919 31.6194 22.6559 31.4123C22.5148 31.1887 22.3004 31.0514 22.0474 31.0358Z" fill="#8897B6"/>
<path d="M24.6944 32.3515C24.5968 32.1043 24.4111 31.9273 24.1839 31.8684C23.7163 31.7483 23.2426 32.1317 23.0917 32.7121C23.0054 33.0418 23.0406 33.3768 23.188 33.6274C23.2925 33.8071 23.4512 33.9337 23.6349 33.982C23.6882 33.9961 23.7448 34.0023 23.8005 34.0023C24.2018 34.0023 24.6008 33.6305 24.7287 33.1386C24.7994 32.8637 24.7874 32.5849 24.6944 32.3515Z" fill="#8897B6"/>
<path d="M26.1315 33.5494C26.0515 33.3472 25.8988 33.2019 25.7202 33.1528L25.5684 33.1334C25.2358 33.1334 24.916 33.4294 24.811 33.8356C24.7515 34.0592 24.7613 34.2872 24.8377 34.476C24.9184 34.6793 25.0711 34.8246 25.2708 34.8784L25.3981 34.8933C25.7345 34.8933 26.0548 34.5973 26.1593 34.1902C26.2177 33.9644 26.2077 33.7424 26.1315 33.5494Z" fill="#8897B6"/>
<path d="M50.6033 50.9282C50.4805 50.9206 50.3581 50.9059 50.2362 50.8816L49.8724 50.6863C48.0749 49.8745 48.4153 48.6953 48.8484 47.188C48.9498 46.8387 49.0534 46.474 49.1248 46.1049C49.4794 43.7356 49.6074 41.2045 48.5552 39.7955C47.7184 38.6745 45.7141 38.6959 45.5977 37.1919C45.5409 36.4554 45.7321 35.8569 46.1672 35.414C47.1859 34.3781 49.3379 34.3445 50.5298 34.4174C51.5202 34.4764 51.6073 34.5883 52.0527 34.706C56.6961 35.9155 53.9628 38.0862 53.5662 43.6727C53.3892 46.1872 55.339 51.2158 50.6033 50.9282Z" fill="#8897B6"/>
<path d="M45.435 30C45.2852 30 45.1383 30.0252 45.0014 30.0742C44.5578 30.2303 44.2322 30.6117 44.083 31.1437C43.9479 31.6312 43.9785 32.1965 44.1688 32.7362C44.511 33.7041 45.2705 34.3541 46.0569 34.3541C46.206 34.3541 46.3522 34.3298 46.4913 34.2796C46.9207 34.1283 47.2419 33.7609 47.3948 33.248C47.5459 32.7516 47.5201 32.174 47.3232 31.6185C46.9811 30.6507 46.2216 30 45.435 30Z" fill="#8897B6"/>
<path d="M48.5737 30.7349C48.0388 30.8593 47.7465 31.5022 47.9081 32.1994C48.0432 32.7986 48.5035 33.2487 48.9768 33.2487C49.0352 33.2487 49.0947 33.2415 49.1431 33.2302C49.3548 33.1818 49.5412 33.0447 49.6678 32.8434C49.8488 32.5543 49.9012 32.1606 49.8109 31.7639C49.654 31.0844 49.1379 30.6266 48.5737 30.7349Z" fill="#8897B6"/>
<path d="M51.0474 31.0358C50.5759 31.0374 50.1965 31.4857 50.1609 32.0786C50.1428 32.3619 50.2086 32.6361 50.3461 32.8494C50.4901 33.0743 50.7045 33.2121 50.956 33.2261H50.9767C51.4263 33.2261 51.807 32.7665 51.8429 32.1785C51.8588 31.8929 51.7919 31.6194 51.6559 31.4123C51.5148 31.1887 51.3004 31.0514 51.0474 31.0358Z" fill="#8897B6"/>
<path d="M53.6944 32.3515C53.5968 32.1043 53.4111 31.9273 53.1839 31.8684C52.7163 31.7483 52.2426 32.1317 52.0917 32.7121C52.0054 33.0418 52.0406 33.3768 52.188 33.6274C52.2925 33.8071 52.4512 33.9337 52.6349 33.982C52.6882 33.9961 52.7448 34.0023 52.8005 34.0023C53.2018 34.0023 53.6008 33.6305 53.7287 33.1386C53.7994 32.8637 53.7874 32.5849 53.6944 32.3515Z" fill="#8897B6"/>
<path d="M55.1315 33.5494C55.0515 33.3472 54.8988 33.2019 54.7202 33.1528L54.5684 33.1334C54.2358 33.1334 53.916 33.4294 53.811 33.8356C53.7515 34.0592 53.7613 34.2872 53.8377 34.476C53.9184 34.6793 54.0711 34.8246 54.2708 34.8784L54.3981 34.8933C54.7345 34.8933 55.0548 34.5973 55.1593 34.1902C55.2177 33.9644 55.2077 33.7424 55.1315 33.5494Z" fill="#8897B6"/>
<path d="M79.6033 51.9282C79.4805 51.9206 79.3581 51.9059 79.2362 51.8816L78.8724 51.6863C77.0749 50.8745 77.4153 49.6953 77.8484 48.188C77.9498 47.8387 78.0534 47.474 78.1248 47.1049C78.4794 44.7356 78.6074 42.2045 77.5552 40.7955C76.7184 39.6745 74.7141 39.6959 74.5977 38.1919C74.5409 37.4554 74.7321 36.8569 75.1672 36.414C76.1859 35.3781 78.3379 35.3445 79.5298 35.4174C80.5202 35.4764 80.6073 35.5883 81.0527 35.706C85.6961 36.9155 82.9628 39.0862 82.5662 44.6727C82.3892 47.1872 84.339 52.2158 79.6033 51.9282Z" fill="#8897B6"/>
<path d="M74.435 31C74.2852 31 74.1383 31.0252 74.0014 31.0742C73.5578 31.2303 73.2322 31.6117 73.083 32.1437C72.9479 32.6312 72.9785 33.1965 73.1688 33.7362C73.511 34.7041 74.2705 35.3541 75.0569 35.3541C75.206 35.3541 75.3522 35.3298 75.4913 35.2796C75.9207 35.1283 76.2419 34.7609 76.3948 34.248C76.5459 33.7516 76.5201 33.174 76.3232 32.6185C75.9811 31.6507 75.2216 31 74.435 31Z" fill="#8897B6"/>
<path d="M77.5737 31.7349C77.0388 31.8593 76.7465 32.5022 76.9081 33.1994C77.0432 33.7986 77.5035 34.2487 77.9768 34.2487C78.0352 34.2487 78.0947 34.2415 78.1431 34.2302C78.3548 34.1818 78.5412 34.0447 78.6678 33.8434C78.8488 33.5543 78.9012 33.1606 78.8109 32.7639C78.654 32.0844 78.1379 31.6266 77.5737 31.7349Z" fill="#8897B6"/>
<path d="M80.0474 32.0358C79.5759 32.0374 79.1965 32.4857 79.1609 33.0786C79.1428 33.3619 79.2086 33.6361 79.3461 33.8494C79.4901 34.0743 79.7045 34.2121 79.956 34.2261H79.9767C80.4263 34.2261 80.807 33.7665 80.8429 33.1785C80.8588 32.8929 80.7919 32.6194 80.6559 32.4123C80.5148 32.1887 80.3004 32.0514 80.0474 32.0358Z" fill="#8897B6"/>
<path d="M82.6944 33.3515C82.5968 33.1043 82.4111 32.9273 82.1839 32.8684C81.7163 32.7483 81.2426 33.1317 81.0917 33.7121C81.0054 34.0418 81.0406 34.3768 81.188 34.6274C81.2925 34.8071 81.4512 34.9337 81.6349 34.982C81.6882 34.9961 81.7448 35.0023 81.8005 35.0023C82.2018 35.0023 82.6008 34.6305 82.7287 34.1386C82.7994 33.8637 82.7874 33.5849 82.6944 33.3515Z" fill="#8897B6"/>
<path d="M84.1315 34.5494C84.0515 34.3472 83.8988 34.2019 83.7202 34.1528L83.5684 34.1334C83.2358 34.1334 82.916 34.4294 82.811 34.8356C82.7515 35.0592 82.7613 35.2872 82.8377 35.476C82.9184 35.6793 83.0711 35.8246 83.2708 35.8784L83.3981 35.8933C83.7345 35.8933 84.0548 35.5973 84.1593 35.1902C84.2177 34.9644 84.2077 34.7424 84.1315 34.5494Z" fill="#8897B6"/>
</svg>
