<svg width="203" height="37" viewBox="0 0 203 37" fill="none" xmlns="http://www.w3.org/2000/svg">
<g filter="url(#filter0_dd)">
<path d="M11.344 12.6C12.24 12.6 12.9227 12.3973 13.392 11.992C13.8827 11.5653 14.128 10.9253 14.128 10.072C14.128 9.26133 13.872 8.64267 13.36 8.216C12.8693 7.768 12.144 7.544 11.184 7.544C10.8427 7.544 10.5547 7.55467 10.32 7.576C10.1067 7.576 9.88267 7.59733 9.648 7.64V12.6H11.344ZM9.68 22.872C9.44533 22.936 9.072 23 8.56 23.064C8.06933 23.128 7.57867 23.16 7.088 23.16C6.59733 23.16 6.16 23.1173 5.776 23.032C5.41333 22.968 5.104 22.84 4.848 22.648C4.592 22.456 4.4 22.1893 4.272 21.848C4.144 21.5067 4.08 21.0587 4.08 20.504V5.432C4.08 4.984 4.19733 4.64267 4.432 4.408C4.688 4.152 5.02933 3.94933 5.456 3.8C6.18133 3.544 7.00267 3.36267 7.92 3.256C8.85867 3.128 9.79733 3.064 10.736 3.064C13.68 3.064 15.9307 3.69333 17.488 4.952C19.0453 6.21067 19.824 7.91733 19.824 10.072C19.824 11.1173 19.6533 12.0667 19.312 12.92C18.992 13.752 18.5013 14.4773 17.84 15.096C17.2 15.6933 16.3787 16.1627 15.376 16.504C14.3947 16.824 13.2533 16.984 11.952 16.984H9.68V22.872ZM27.7938 22.968C27.5591 23.0107 27.2071 23.064 26.7378 23.128C26.2898 23.2133 25.8311 23.256 25.3618 23.256C24.8924 23.256 24.4658 23.224 24.0818 23.16C23.7191 23.096 23.4098 22.968 23.1538 22.776C22.8978 22.584 22.6951 22.328 22.5458 22.008C22.4178 21.6667 22.3538 21.2293 22.3538 20.696V2.136C22.5884 2.09333 22.9298 2.04 23.3778 1.976C23.8471 1.89067 24.3164 1.848 24.7858 1.848C25.2551 1.848 25.6711 1.88 26.0338 1.944C26.4178 2.008 26.7378 2.136 26.9938 2.328C27.2498 2.52 27.4418 2.78667 27.5698 3.128C27.7191 3.448 27.7938 3.87467 27.7938 4.408V22.968ZM37.8825 19.544C38.2452 19.544 38.6398 19.512 39.0665 19.448C39.5145 19.3627 39.8452 19.256 40.0585 19.128V16.568L37.7545 16.76C37.1572 16.8027 36.6665 16.9307 36.2825 17.144C35.8985 17.3573 35.7065 17.6773 35.7065 18.104C35.7065 18.5307 35.8665 18.8827 36.1865 19.16C36.5278 19.416 37.0932 19.544 37.8825 19.544ZM37.6265 6.968C38.7785 6.968 39.8238 7.08533 40.7625 7.32C41.7225 7.55467 42.5332 7.91733 43.1945 8.408C43.8772 8.87733 44.3998 9.48533 44.7625 10.232C45.1252 10.9573 45.3065 11.8213 45.3065 12.824V19.992C45.3065 20.5467 45.1465 21.0053 44.8265 21.368C44.5278 21.7093 44.1652 22.008 43.7385 22.264C42.3518 23.096 40.3998 23.512 37.8825 23.512C36.7518 23.512 35.7278 23.4053 34.8105 23.192C33.9145 22.9787 33.1358 22.6587 32.4745 22.232C31.8345 21.8053 31.3332 21.2613 30.9705 20.6C30.6292 19.9387 30.4585 19.1707 30.4585 18.296C30.4585 16.824 30.8958 15.6933 31.7705 14.904C32.6452 14.1147 33.9998 13.624 35.8345 13.432L40.0265 12.984V12.76C40.0265 12.1413 39.7492 11.704 39.1945 11.448C38.6612 11.1707 37.8825 11.032 36.8585 11.032C36.0478 11.032 35.2585 11.1173 34.4905 11.288C33.7225 11.4587 33.0292 11.672 32.4105 11.928C32.1332 11.736 31.8985 11.448 31.7065 11.064C31.5145 10.6587 31.4185 10.2427 31.4185 9.816C31.4185 9.26133 31.5465 8.824 31.8025 8.504C32.0798 8.16267 32.4958 7.87467 33.0505 7.64C33.6692 7.40533 34.3945 7.23467 35.2265 7.128C36.0798 7.02133 36.8798 6.968 37.6265 6.968ZM50.6898 19.032C50.4551 18.4987 50.1991 17.9013 49.9218 17.24C49.6658 16.5787 49.3884 15.8213 49.0898 14.968C48.8124 14.1147 48.5138 13.144 48.1938 12.056C47.8951 10.9467 47.5751 9.67733 47.2338 8.248C47.5324 7.94933 47.9271 7.69333 48.4178 7.48C48.9298 7.24533 49.4844 7.128 50.0818 7.128C50.8284 7.128 51.4471 7.288 51.9378 7.608C52.4284 7.90667 52.7911 8.48267 53.0258 9.336L55.5538 18.136H55.6818C55.9378 17.4107 56.1831 16.6213 56.4178 15.768C56.6738 14.9147 56.9191 14.04 57.1538 13.144C57.3884 12.2267 57.6018 11.32 57.7938 10.424C58.0071 9.50667 58.1884 8.61067 58.3378 7.736C59.1058 7.33067 59.9484 7.128 60.8658 7.128C61.6124 7.128 62.2311 7.288 62.7218 7.608C63.2124 7.928 63.4578 8.48267 63.4578 9.272C63.4578 9.848 63.3831 10.52 63.2338 11.288C63.0844 12.0347 62.8818 12.8347 62.6258 13.688C62.3911 14.5413 62.1031 15.4267 61.7618 16.344C61.4418 17.24 61.1004 18.1253 60.7378 19C60.3751 19.8747 60.0018 20.7067 59.6178 21.496C59.2338 22.264 58.8604 22.9573 58.4978 23.576C57.9004 24.6213 57.3458 25.4747 56.8338 26.136C56.3218 26.7973 55.8311 27.3093 55.3618 27.672C54.8924 28.056 54.4231 28.312 53.9538 28.44C53.4844 28.5893 52.9938 28.664 52.4818 28.664C51.5858 28.664 50.8604 28.3973 50.3058 27.864C49.7511 27.3307 49.4204 26.6373 49.3138 25.784C49.9964 25.2507 50.6791 24.6533 51.3618 23.992C52.0444 23.352 52.6631 22.6907 53.2178 22.008C52.8551 21.9013 52.4604 21.656 52.0338 21.272C51.6284 20.8667 51.1804 20.12 50.6898 19.032ZM73.9505 23.512C72.6918 23.512 71.5185 23.3413 70.4305 23C69.3638 22.6373 68.4252 22.104 67.6145 21.4C66.8252 20.696 66.1958 19.8107 65.7265 18.744C65.2785 17.6773 65.0545 16.4293 65.0545 15C65.0545 13.592 65.2785 12.3867 65.7265 11.384C66.1958 10.36 66.8038 9.528 67.5505 8.888C68.2972 8.22667 69.1505 7.74667 70.1105 7.448C71.0705 7.128 72.0518 6.968 73.0545 6.968C74.1852 6.968 75.2092 7.13867 76.1265 7.48C77.0652 7.82133 77.8652 8.29067 78.5265 8.888C79.2092 9.48533 79.7318 10.2 80.0945 11.032C80.4785 11.864 80.6705 12.7707 80.6705 13.752C80.6705 14.4773 80.4678 15.032 80.0625 15.416C79.6572 15.8 79.0918 16.0453 78.3665 16.152L70.4625 17.336C70.6972 18.04 71.1772 18.5733 71.9025 18.936C72.6278 19.2773 73.4598 19.448 74.3985 19.448C75.2732 19.448 76.0945 19.3413 76.8625 19.128C77.6518 18.8933 78.2918 18.6267 78.7825 18.328C79.1238 18.5413 79.4118 18.84 79.6465 19.224C79.8812 19.608 79.9985 20.0133 79.9985 20.44C79.9985 21.4 79.5505 22.1147 78.6545 22.584C77.9718 22.9467 77.2038 23.192 76.3505 23.32C75.4972 23.448 74.6972 23.512 73.9505 23.512ZM73.0545 10.936C72.5425 10.936 72.0945 11.0213 71.7105 11.192C71.3478 11.3627 71.0492 11.5867 70.8145 11.864C70.5798 12.12 70.3985 12.4187 70.2705 12.76C70.1638 13.08 70.0998 13.4107 70.0785 13.752L75.5505 12.856C75.4865 12.4293 75.2518 12.0027 74.8465 11.576C74.4412 11.1493 73.8438 10.936 73.0545 10.936ZM88.729 22.968C88.5157 23.032 88.1743 23.096 87.705 23.16C87.257 23.224 86.7877 23.256 86.297 23.256C85.8277 23.256 85.401 23.224 85.017 23.16C84.6543 23.096 84.345 22.968 84.089 22.776C83.833 22.584 83.6303 22.328 83.481 22.008C83.353 21.6667 83.289 21.2293 83.289 20.696V11.096C83.289 10.6053 83.3743 10.1893 83.545 9.848C83.737 9.48533 84.0037 9.16533 84.345 8.888C84.6863 8.61067 85.1023 8.36533 85.593 8.152C86.105 7.91733 86.649 7.71467 87.225 7.544C87.801 7.37333 88.3983 7.24533 89.017 7.16C89.6357 7.05333 90.2543 7 90.873 7C91.897 7 92.7077 7.20267 93.305 7.608C93.9023 7.992 94.201 8.632 94.201 9.528C94.201 9.82667 94.1583 10.1253 94.073 10.424C93.9877 10.7013 93.881 10.9573 93.753 11.192C93.305 11.192 92.8463 11.2133 92.377 11.256C91.9077 11.2987 91.449 11.3627 91.001 11.448C90.553 11.5333 90.1263 11.6293 89.721 11.736C89.337 11.8213 89.0063 11.928 88.729 12.056V22.968ZM106.148 8.728L102.948 9.72C102.628 9.50667 102.308 9.208 101.988 8.824C101.668 8.44 101.508 7.90667 101.508 7.224C101.508 5.944 102.286 5.048 103.844 4.536L107.428 3.32H108.612C109.529 3.32 110.254 3.58667 110.788 4.12C111.321 4.65333 111.588 5.37867 111.588 6.296V22.968C111.353 23.0107 111.001 23.064 110.532 23.128C110.084 23.2133 109.625 23.256 109.156 23.256C108.686 23.256 108.26 23.224 107.876 23.16C107.513 23.096 107.204 22.968 106.948 22.776C106.692 22.584 106.489 22.328 106.34 22.008C106.212 21.6667 106.148 21.2293 106.148 20.696V8.728ZM131.196 8.344C131.431 8.23733 131.794 8.12 132.284 7.992C132.796 7.84267 133.308 7.768 133.82 7.768C134.716 7.768 135.463 7.90667 136.06 8.184C136.658 8.44 137.02 8.824 137.148 9.336C137.383 10.2107 137.596 11.032 137.788 11.8C138.002 12.5467 138.204 13.272 138.396 13.976C138.588 14.6587 138.77 15.3413 138.94 16.024C139.132 16.7067 139.314 17.4213 139.484 18.168H139.644C139.836 16.8667 140.007 15.6293 140.156 14.456C140.306 13.2613 140.444 12.0987 140.572 10.968C140.7 9.816 140.828 8.68533 140.956 7.576C141.084 6.44533 141.212 5.304 141.34 4.152C142.13 3.704 142.972 3.48 143.868 3.48C144.658 3.48 145.34 3.65067 145.916 3.992C146.492 4.33333 146.78 4.90933 146.78 5.72C146.78 6.18933 146.727 6.86133 146.62 7.736C146.535 8.58933 146.407 9.54933 146.236 10.616C146.087 11.6827 145.906 12.8027 145.692 13.976C145.479 15.1493 145.255 16.2693 145.02 17.336C144.786 18.4027 144.54 19.3733 144.284 20.248C144.05 21.1013 143.826 21.7627 143.612 22.232C143.292 22.5307 142.77 22.776 142.044 22.968C141.319 23.16 140.572 23.256 139.804 23.256C138.802 23.256 137.948 23.128 137.244 22.872C136.562 22.5947 136.146 22.2107 135.996 21.72C135.719 20.8667 135.42 19.8533 135.1 18.68C134.78 17.5067 134.439 16.216 134.076 14.808C133.778 16.1947 133.468 17.5493 133.148 18.872C132.828 20.1947 132.54 21.3147 132.284 22.232C131.964 22.5307 131.484 22.776 130.844 22.968C130.204 23.16 129.5 23.256 128.732 23.256C127.772 23.256 126.898 23.128 126.108 22.872C125.34 22.5947 124.839 22.2107 124.604 21.72C124.412 21.336 124.199 20.7707 123.964 20.024C123.751 19.256 123.527 18.392 123.292 17.432C123.058 16.4507 122.812 15.3947 122.556 14.264C122.322 13.1333 122.098 12.0027 121.884 10.872C121.692 9.74133 121.511 8.64267 121.34 7.576C121.17 6.488 121.042 5.496 120.956 4.6C121.255 4.32267 121.671 4.06667 122.204 3.832C122.738 3.59733 123.314 3.48 123.932 3.48C124.743 3.48 125.404 3.66133 125.916 4.024C126.45 4.36533 126.78 4.952 126.908 5.784C127.25 7.96 127.527 9.77333 127.74 11.224C127.975 12.6747 128.156 13.8693 128.284 14.808C128.434 15.7253 128.54 16.44 128.604 16.952C128.668 17.464 128.732 17.8693 128.796 18.168H128.956C129.148 17.3147 129.33 16.5253 129.5 15.8C129.671 15.0747 129.842 14.3493 130.012 13.624C130.204 12.8773 130.396 12.088 130.588 11.256C130.78 10.4027 130.983 9.432 131.196 8.344ZM149.192 3.128C149.192 2.31733 149.459 1.63467 149.992 1.08C150.547 0.525332 151.272 0.247999 152.168 0.247999C153.064 0.247999 153.779 0.525332 154.312 1.08C154.867 1.63467 155.144 2.31733 155.144 3.128C155.144 3.93867 154.867 4.62133 154.312 5.176C153.779 5.73067 153.064 6.008 152.168 6.008C151.272 6.008 150.547 5.73067 149.992 5.176C149.459 4.62133 149.192 3.93867 149.192 3.128ZM154.888 22.968C154.654 23.0107 154.302 23.064 153.832 23.128C153.384 23.2133 152.926 23.256 152.456 23.256C151.987 23.256 151.56 23.224 151.176 23.16C150.814 23.096 150.504 22.968 150.248 22.776C149.992 22.584 149.79 22.328 149.64 22.008C149.512 21.6667 149.448 21.2293 149.448 20.696V7.672C149.683 7.62933 150.024 7.576 150.472 7.512C150.942 7.42667 151.411 7.384 151.88 7.384C152.35 7.384 152.766 7.416 153.128 7.48C153.512 7.544 153.832 7.672 154.088 7.864C154.344 8.056 154.536 8.32267 154.664 8.664C154.814 8.984 154.888 9.41067 154.888 9.944V22.968ZM168.208 13.144C168.208 12.4827 168.016 12.0027 167.632 11.704C167.269 11.384 166.768 11.224 166.128 11.224C165.701 11.224 165.274 11.2773 164.848 11.384C164.442 11.4907 164.09 11.6507 163.792 11.864V22.968C163.578 23.032 163.237 23.096 162.768 23.16C162.32 23.224 161.85 23.256 161.36 23.256C160.89 23.256 160.464 23.224 160.08 23.16C159.717 23.096 159.408 22.968 159.152 22.776C158.896 22.584 158.693 22.328 158.544 22.008C158.416 21.6667 158.352 21.2293 158.352 20.696V11.096C158.352 10.52 158.469 10.0507 158.704 9.688C158.96 9.32533 159.301 8.99467 159.728 8.696C160.453 8.184 161.36 7.768 162.448 7.448C163.557 7.128 164.784 6.968 166.128 6.968C168.538 6.968 170.394 7.50133 171.696 8.568C172.997 9.61333 173.648 11.0747 173.648 12.952V22.968C173.434 23.032 173.093 23.096 172.624 23.16C172.176 23.224 171.706 23.256 171.216 23.256C170.746 23.256 170.32 23.224 169.936 23.16C169.573 23.096 169.264 22.968 169.008 22.776C168.752 22.584 168.549 22.328 168.4 22.008C168.272 21.6667 168.208 21.2293 168.208 20.696V13.144ZM190.128 18.36C190.128 19.9813 189.52 21.2507 188.304 22.168C187.088 23.0853 185.296 23.544 182.928 23.544C182.032 23.544 181.2 23.48 180.432 23.352C179.664 23.224 179.002 23.032 178.448 22.776C177.914 22.4987 177.488 22.1573 177.168 21.752C176.869 21.3467 176.72 20.8667 176.72 20.312C176.72 19.8 176.826 19.3733 177.04 19.032C177.253 18.6693 177.509 18.3707 177.808 18.136C178.426 18.4773 179.13 18.7867 179.92 19.064C180.73 19.32 181.658 19.448 182.704 19.448C183.365 19.448 183.866 19.352 184.208 19.16C184.57 18.968 184.752 18.712 184.752 18.392C184.752 18.0933 184.624 17.8587 184.368 17.688C184.112 17.5173 183.685 17.3787 183.088 17.272L182.128 17.08C180.272 16.7173 178.885 16.152 177.968 15.384C177.072 14.5947 176.624 13.4747 176.624 12.024C176.624 11.2347 176.794 10.52 177.136 9.88C177.477 9.24 177.957 8.70667 178.576 8.28C179.194 7.85333 179.93 7.52267 180.784 7.288C181.658 7.05333 182.618 6.936 183.664 6.936C184.453 6.936 185.189 7 185.872 7.128C186.576 7.23467 187.184 7.40533 187.696 7.64C188.208 7.87467 188.613 8.184 188.912 8.568C189.21 8.93067 189.36 9.368 189.36 9.88C189.36 10.3707 189.264 10.7973 189.072 11.16C188.901 11.5013 188.677 11.7893 188.4 12.024C188.229 11.9173 187.973 11.8107 187.632 11.704C187.29 11.576 186.917 11.4693 186.512 11.384C186.106 11.2773 185.69 11.192 185.264 11.128C184.858 11.064 184.485 11.032 184.144 11.032C183.44 11.032 182.896 11.1173 182.512 11.288C182.128 11.4373 181.936 11.6827 181.936 12.024C181.936 12.2587 182.042 12.4507 182.256 12.6C182.469 12.7493 182.874 12.888 183.472 13.016L184.464 13.24C186.512 13.7093 187.962 14.36 188.816 15.192C189.69 16.0027 190.128 17.0587 190.128 18.36ZM198.678 4.44C198.678 4.93067 198.667 5.64533 198.646 6.584C198.624 7.50133 198.582 8.504 198.518 9.592C198.454 10.6587 198.368 11.736 198.262 12.824C198.155 13.8907 198.027 14.8187 197.878 15.608C197.792 15.672 197.664 15.736 197.494 15.8C197.323 15.864 197.142 15.9173 196.95 15.96C196.758 16.0027 196.566 16.0347 196.374 16.056C196.182 16.0773 196.011 16.088 195.862 16.088C195.243 16.088 194.72 15.992 194.294 15.8C193.888 15.608 193.632 15.2347 193.526 14.68C193.419 14.1893 193.323 13.4427 193.238 12.44C193.174 11.4373 193.11 10.3493 193.046 9.176C192.982 8.00267 192.928 6.84 192.886 5.688C192.864 4.536 192.854 3.55467 192.854 2.744C193.28 2.50933 193.76 2.328 194.294 2.2C194.848 2.05067 195.392 1.976 195.926 1.976C196.8 1.976 197.472 2.17867 197.942 2.584C198.432 2.98933 198.678 3.608 198.678 4.44ZM192.79 20.568C192.79 19.6933 193.056 18.9787 193.59 18.424C194.144 17.848 194.902 17.56 195.862 17.56C196.822 17.56 197.568 17.848 198.102 18.424C198.656 18.9787 198.934 19.6933 198.934 20.568C198.934 21.4427 198.656 22.168 198.102 22.744C197.568 23.2987 196.822 23.576 195.862 23.576C194.902 23.576 194.144 23.2987 193.59 22.744C193.056 22.168 192.79 21.4427 192.79 20.568Z" fill="white"/>
</g>
<defs>
<filter id="filter0_dd" x="0.0800171" y="0.248047" width="202.854" height="36.416" filterUnits="userSpaceOnUse" color-interpolation-filters="sRGB">
<feFlood flood-opacity="0" result="BackgroundImageFix"/>
<feColorMatrix in="SourceAlpha" type="matrix" values="0 0 0 0 0 0 0 0 0 0 0 0 0 0 0 0 0 0 127 0"/>
<feOffset dy="4"/>
<feGaussianBlur stdDeviation="2"/>
<feColorMatrix type="matrix" values="0 0 0 0 0 0 0 0 0 0 0 0 0 0 0 0 0 0 0.25 0"/>
<feBlend mode="normal" in2="BackgroundImageFix" result="effect1_dropShadow"/>
<feColorMatrix in="SourceAlpha" type="matrix" values="0 0 0 0 0 0 0 0 0 0 0 0 0 0 0 0 0 0 127 0"/>
<feOffset dy="4"/>
<feGaussianBlur stdDeviation="2"/>
<feColorMatrix type="matrix" values="0 0 0 0 0 0 0 0 0 0 0 0 0 0 0 0 0 0 0.25 0"/>
<feBlend mode="normal" in2="effect1_dropShadow" result="effect2_dropShadow"/>
<feBlend mode="normal" in="SourceGraphic" in2="effect2_dropShadow" result="shape"/>
</filter>
</defs>
</svg>
