<svg width="208" height="37" viewBox="0 0 208 37" fill="none" xmlns="http://www.w3.org/2000/svg">
<g filter="url(#filter0_dd)">
<path d="M11.344 12.6C12.24 12.6 12.9227 12.3973 13.392 11.992C13.8827 11.5653 14.128 10.9253 14.128 10.072C14.128 9.26133 13.872 8.64267 13.36 8.216C12.8693 7.768 12.144 7.544 11.184 7.544C10.8427 7.544 10.5547 7.55467 10.32 7.576C10.1067 7.576 9.88267 7.59733 9.648 7.64V12.6H11.344ZM9.68 22.872C9.44533 22.936 9.072 23 8.56 23.064C8.06933 23.128 7.57867 23.16 7.088 23.16C6.59733 23.16 6.16 23.1173 5.776 23.032C5.41333 22.968 5.104 22.84 4.848 22.648C4.592 22.456 4.4 22.1893 4.272 21.848C4.144 21.5067 4.08 21.0587 4.08 20.504V5.432C4.08 4.984 4.19733 4.64267 4.432 4.408C4.688 4.152 5.02933 3.94933 5.456 3.8C6.18133 3.544 7.00267 3.36267 7.92 3.256C8.85867 3.128 9.79733 3.064 10.736 3.064C13.68 3.064 15.9307 3.69333 17.488 4.952C19.0453 6.21067 19.824 7.91733 19.824 10.072C19.824 11.1173 19.6533 12.0667 19.312 12.92C18.992 13.752 18.5013 14.4773 17.84 15.096C17.2 15.6933 16.3787 16.1627 15.376 16.504C14.3947 16.824 13.2533 16.984 11.952 16.984H9.68V22.872ZM27.7938 22.968C27.5591 23.0107 27.2071 23.064 26.7378 23.128C26.2898 23.2133 25.8311 23.256 25.3618 23.256C24.8924 23.256 24.4658 23.224 24.0818 23.16C23.7191 23.096 23.4098 22.968 23.1538 22.776C22.8978 22.584 22.6951 22.328 22.5458 22.008C22.4178 21.6667 22.3538 21.2293 22.3538 20.696V2.136C22.5884 2.09333 22.9298 2.04 23.3778 1.976C23.8471 1.89067 24.3164 1.848 24.7858 1.848C25.2551 1.848 25.6711 1.88 26.0338 1.944C26.4178 2.008 26.7378 2.136 26.9938 2.328C27.2498 2.52 27.4418 2.78667 27.5698 3.128C27.7191 3.448 27.7938 3.87467 27.7938 4.408V22.968ZM37.8825 19.544C38.2452 19.544 38.6398 19.512 39.0665 19.448C39.5145 19.3627 39.8452 19.256 40.0585 19.128V16.568L37.7545 16.76C37.1572 16.8027 36.6665 16.9307 36.2825 17.144C35.8985 17.3573 35.7065 17.6773 35.7065 18.104C35.7065 18.5307 35.8665 18.8827 36.1865 19.16C36.5278 19.416 37.0932 19.544 37.8825 19.544ZM37.6265 6.968C38.7785 6.968 39.8238 7.08533 40.7625 7.32C41.7225 7.55467 42.5332 7.91733 43.1945 8.408C43.8772 8.87733 44.3998 9.48533 44.7625 10.232C45.1252 10.9573 45.3065 11.8213 45.3065 12.824V19.992C45.3065 20.5467 45.1465 21.0053 44.8265 21.368C44.5278 21.7093 44.1652 22.008 43.7385 22.264C42.3518 23.096 40.3998 23.512 37.8825 23.512C36.7518 23.512 35.7278 23.4053 34.8105 23.192C33.9145 22.9787 33.1358 22.6587 32.4745 22.232C31.8345 21.8053 31.3332 21.2613 30.9705 20.6C30.6292 19.9387 30.4585 19.1707 30.4585 18.296C30.4585 16.824 30.8958 15.6933 31.7705 14.904C32.6452 14.1147 33.9998 13.624 35.8345 13.432L40.0265 12.984V12.76C40.0265 12.1413 39.7492 11.704 39.1945 11.448C38.6612 11.1707 37.8825 11.032 36.8585 11.032C36.0478 11.032 35.2585 11.1173 34.4905 11.288C33.7225 11.4587 33.0292 11.672 32.4105 11.928C32.1332 11.736 31.8985 11.448 31.7065 11.064C31.5145 10.6587 31.4185 10.2427 31.4185 9.816C31.4185 9.26133 31.5465 8.824 31.8025 8.504C32.0798 8.16267 32.4958 7.87467 33.0505 7.64C33.6692 7.40533 34.3945 7.23467 35.2265 7.128C36.0798 7.02133 36.8798 6.968 37.6265 6.968ZM50.6898 19.032C50.4551 18.4987 50.1991 17.9013 49.9218 17.24C49.6658 16.5787 49.3884 15.8213 49.0898 14.968C48.8124 14.1147 48.5138 13.144 48.1938 12.056C47.8951 10.9467 47.5751 9.67733 47.2338 8.248C47.5324 7.94933 47.9271 7.69333 48.4178 7.48C48.9298 7.24533 49.4844 7.128 50.0818 7.128C50.8284 7.128 51.4471 7.288 51.9378 7.608C52.4284 7.90667 52.7911 8.48267 53.0258 9.336L55.5538 18.136H55.6818C55.9378 17.4107 56.1831 16.6213 56.4178 15.768C56.6738 14.9147 56.9191 14.04 57.1538 13.144C57.3884 12.2267 57.6018 11.32 57.7938 10.424C58.0071 9.50667 58.1884 8.61067 58.3378 7.736C59.1058 7.33067 59.9484 7.128 60.8658 7.128C61.6124 7.128 62.2311 7.288 62.7218 7.608C63.2124 7.928 63.4578 8.48267 63.4578 9.272C63.4578 9.848 63.3831 10.52 63.2338 11.288C63.0844 12.0347 62.8818 12.8347 62.6258 13.688C62.3911 14.5413 62.1031 15.4267 61.7618 16.344C61.4418 17.24 61.1004 18.1253 60.7378 19C60.3751 19.8747 60.0018 20.7067 59.6178 21.496C59.2338 22.264 58.8604 22.9573 58.4978 23.576C57.9004 24.6213 57.3458 25.4747 56.8338 26.136C56.3218 26.7973 55.8311 27.3093 55.3618 27.672C54.8924 28.056 54.4231 28.312 53.9538 28.44C53.4844 28.5893 52.9938 28.664 52.4818 28.664C51.5858 28.664 50.8604 28.3973 50.3058 27.864C49.7511 27.3307 49.4204 26.6373 49.3138 25.784C49.9964 25.2507 50.6791 24.6533 51.3618 23.992C52.0444 23.352 52.6631 22.6907 53.2178 22.008C52.8551 21.9013 52.4604 21.656 52.0338 21.272C51.6284 20.8667 51.1804 20.12 50.6898 19.032ZM73.9505 23.512C72.6918 23.512 71.5185 23.3413 70.4305 23C69.3638 22.6373 68.4252 22.104 67.6145 21.4C66.8252 20.696 66.1958 19.8107 65.7265 18.744C65.2785 17.6773 65.0545 16.4293 65.0545 15C65.0545 13.592 65.2785 12.3867 65.7265 11.384C66.1958 10.36 66.8038 9.528 67.5505 8.888C68.2972 8.22667 69.1505 7.74667 70.1105 7.448C71.0705 7.128 72.0518 6.968 73.0545 6.968C74.1852 6.968 75.2092 7.13867 76.1265 7.48C77.0652 7.82133 77.8652 8.29067 78.5265 8.888C79.2092 9.48533 79.7318 10.2 80.0945 11.032C80.4785 11.864 80.6705 12.7707 80.6705 13.752C80.6705 14.4773 80.4678 15.032 80.0625 15.416C79.6572 15.8 79.0918 16.0453 78.3665 16.152L70.4625 17.336C70.6972 18.04 71.1772 18.5733 71.9025 18.936C72.6278 19.2773 73.4598 19.448 74.3985 19.448C75.2732 19.448 76.0945 19.3413 76.8625 19.128C77.6518 18.8933 78.2918 18.6267 78.7825 18.328C79.1238 18.5413 79.4118 18.84 79.6465 19.224C79.8812 19.608 79.9985 20.0133 79.9985 20.44C79.9985 21.4 79.5505 22.1147 78.6545 22.584C77.9718 22.9467 77.2038 23.192 76.3505 23.32C75.4972 23.448 74.6972 23.512 73.9505 23.512ZM73.0545 10.936C72.5425 10.936 72.0945 11.0213 71.7105 11.192C71.3478 11.3627 71.0492 11.5867 70.8145 11.864C70.5798 12.12 70.3985 12.4187 70.2705 12.76C70.1638 13.08 70.0998 13.4107 70.0785 13.752L75.5505 12.856C75.4865 12.4293 75.2518 12.0027 74.8465 11.576C74.4412 11.1493 73.8438 10.936 73.0545 10.936ZM88.729 22.968C88.5157 23.032 88.1743 23.096 87.705 23.16C87.257 23.224 86.7877 23.256 86.297 23.256C85.8277 23.256 85.401 23.224 85.017 23.16C84.6543 23.096 84.345 22.968 84.089 22.776C83.833 22.584 83.6303 22.328 83.481 22.008C83.353 21.6667 83.289 21.2293 83.289 20.696V11.096C83.289 10.6053 83.3743 10.1893 83.545 9.848C83.737 9.48533 84.0037 9.16533 84.345 8.888C84.6863 8.61067 85.1023 8.36533 85.593 8.152C86.105 7.91733 86.649 7.71467 87.225 7.544C87.801 7.37333 88.3983 7.24533 89.017 7.16C89.6357 7.05333 90.2543 7 90.873 7C91.897 7 92.7077 7.20267 93.305 7.608C93.9023 7.992 94.201 8.632 94.201 9.528C94.201 9.82667 94.1583 10.1253 94.073 10.424C93.9877 10.7013 93.881 10.9573 93.753 11.192C93.305 11.192 92.8463 11.2133 92.377 11.256C91.9077 11.2987 91.449 11.3627 91.001 11.448C90.553 11.5333 90.1263 11.6293 89.721 11.736C89.337 11.8213 89.0063 11.928 88.729 12.056V22.968ZM108.9 3.064C110.116 3.064 111.193 3.224 112.132 3.544C113.07 3.84267 113.87 4.25867 114.532 4.792C115.193 5.32533 115.694 5.95467 116.036 6.68C116.377 7.40533 116.548 8.184 116.548 9.016C116.548 11.256 115.278 13.3893 112.74 15.416L108.548 18.776H116.228C116.356 19.0107 116.473 19.3093 116.58 19.672C116.708 20.0347 116.772 20.4293 116.772 20.856C116.772 21.624 116.601 22.1787 116.26 22.52C115.918 22.84 115.47 23 114.916 23H103.812C103.342 22.68 102.969 22.2747 102.692 21.784C102.436 21.272 102.308 20.6747 102.308 19.992C102.308 19.2667 102.457 18.6587 102.756 18.168C103.054 17.656 103.385 17.2507 103.748 16.952L108.164 13.176C108.718 12.7067 109.177 12.2907 109.54 11.928C109.902 11.544 110.19 11.2027 110.404 10.904C110.638 10.6053 110.798 10.328 110.884 10.072C110.99 9.816 111.044 9.57067 111.044 9.336C111.044 8.73867 110.777 8.26933 110.244 7.928C109.732 7.58667 109.092 7.416 108.324 7.416C107.47 7.416 106.702 7.55467 106.02 7.832C105.358 8.088 104.804 8.36533 104.356 8.664C103.993 8.408 103.694 8.088 103.46 7.704C103.225 7.32 103.108 6.872 103.108 6.36C103.108 5.25067 103.63 4.42933 104.676 3.896C105.721 3.34133 107.129 3.064 108.9 3.064ZM135.353 8.344C135.587 8.23733 135.95 8.12 136.441 7.992C136.953 7.84267 137.465 7.768 137.977 7.768C138.873 7.768 139.619 7.90667 140.217 8.184C140.814 8.44 141.177 8.824 141.305 9.336C141.539 10.2107 141.753 11.032 141.944 11.8C142.158 12.5467 142.361 13.272 142.553 13.976C142.745 14.6587 142.926 15.3413 143.097 16.024C143.289 16.7067 143.47 17.4213 143.641 18.168H143.801C143.993 16.8667 144.163 15.6293 144.312 14.456C144.462 13.2613 144.601 12.0987 144.729 10.968C144.857 9.816 144.985 8.68533 145.113 7.576C145.241 6.44533 145.369 5.304 145.497 4.152C146.286 3.704 147.129 3.48 148.025 3.48C148.814 3.48 149.497 3.65067 150.073 3.992C150.649 4.33333 150.937 4.90933 150.937 5.72C150.937 6.18933 150.883 6.86133 150.777 7.736C150.691 8.58933 150.563 9.54933 150.393 10.616C150.243 11.6827 150.062 12.8027 149.849 13.976C149.635 15.1493 149.411 16.2693 149.177 17.336C148.942 18.4027 148.697 19.3733 148.441 20.248C148.206 21.1013 147.982 21.7627 147.769 22.232C147.449 22.5307 146.926 22.776 146.201 22.968C145.475 23.16 144.729 23.256 143.961 23.256C142.958 23.256 142.105 23.128 141.401 22.872C140.718 22.5947 140.302 22.2107 140.153 21.72C139.875 20.8667 139.577 19.8533 139.257 18.68C138.937 17.5067 138.595 16.216 138.233 14.808C137.934 16.1947 137.625 17.5493 137.305 18.872C136.985 20.1947 136.697 21.3147 136.441 22.232C136.121 22.5307 135.641 22.776 135.001 22.968C134.361 23.16 133.657 23.256 132.889 23.256C131.929 23.256 131.054 23.128 130.265 22.872C129.497 22.5947 128.995 22.2107 128.761 21.72C128.569 21.336 128.355 20.7707 128.121 20.024C127.907 19.256 127.683 18.392 127.449 17.432C127.214 16.4507 126.969 15.3947 126.713 14.264C126.478 13.1333 126.254 12.0027 126.041 10.872C125.849 9.74133 125.667 8.64267 125.497 7.576C125.326 6.488 125.198 5.496 125.113 4.6C125.411 4.32267 125.827 4.06667 126.361 3.832C126.894 3.59733 127.47 3.48 128.089 3.48C128.899 3.48 129.561 3.66133 130.073 4.024C130.606 4.36533 130.937 4.952 131.065 5.784C131.406 7.96 131.683 9.77333 131.897 11.224C132.131 12.6747 132.313 13.8693 132.441 14.808C132.59 15.7253 132.697 16.44 132.76 16.952C132.825 17.464 132.889 17.8693 132.953 18.168H133.113C133.305 17.3147 133.486 16.5253 133.657 15.8C133.827 15.0747 133.998 14.3493 134.169 13.624C134.361 12.8773 134.553 12.088 134.745 11.256C134.937 10.4027 135.139 9.432 135.353 8.344ZM153.349 3.128C153.349 2.31733 153.615 1.63467 154.149 1.08C154.703 0.525332 155.429 0.247999 156.325 0.247999C157.221 0.247999 157.935 0.525332 158.469 1.08C159.023 1.63467 159.301 2.31733 159.301 3.128C159.301 3.93867 159.023 4.62133 158.469 5.176C157.935 5.73067 157.221 6.008 156.325 6.008C155.429 6.008 154.703 5.73067 154.149 5.176C153.615 4.62133 153.349 3.93867 153.349 3.128ZM159.045 22.968C158.81 23.0107 158.458 23.064 157.989 23.128C157.541 23.2133 157.082 23.256 156.613 23.256C156.143 23.256 155.717 23.224 155.333 23.16C154.97 23.096 154.661 22.968 154.405 22.776C154.149 22.584 153.946 22.328 153.797 22.008C153.669 21.6667 153.605 21.2293 153.605 20.696V7.672C153.839 7.62933 154.181 7.576 154.629 7.512C155.098 7.42667 155.567 7.384 156.036 7.384C156.506 7.384 156.922 7.416 157.285 7.48C157.669 7.544 157.989 7.672 158.245 7.864C158.501 8.056 158.693 8.32267 158.821 8.664C158.97 8.984 159.045 9.41067 159.045 9.944V22.968ZM172.364 13.144C172.364 12.4827 172.172 12.0027 171.788 11.704C171.425 11.384 170.924 11.224 170.284 11.224C169.857 11.224 169.43 11.2773 169.004 11.384C168.598 11.4907 168.246 11.6507 167.948 11.864V22.968C167.734 23.032 167.393 23.096 166.924 23.16C166.476 23.224 166.006 23.256 165.516 23.256C165.046 23.256 164.62 23.224 164.236 23.16C163.873 23.096 163.564 22.968 163.308 22.776C163.052 22.584 162.849 22.328 162.7 22.008C162.572 21.6667 162.508 21.2293 162.508 20.696V11.096C162.508 10.52 162.625 10.0507 162.86 9.688C163.116 9.32533 163.457 8.99467 163.884 8.696C164.609 8.184 165.516 7.768 166.604 7.448C167.713 7.128 168.94 6.968 170.284 6.968C172.694 6.968 174.55 7.50133 175.852 8.568C177.153 9.61333 177.804 11.0747 177.804 12.952V22.968C177.59 23.032 177.249 23.096 176.78 23.16C176.332 23.224 175.862 23.256 175.372 23.256C174.902 23.256 174.476 23.224 174.092 23.16C173.729 23.096 173.42 22.968 173.164 22.776C172.908 22.584 172.705 22.328 172.556 22.008C172.428 21.6667 172.364 21.2293 172.364 20.696V13.144ZM194.284 18.36C194.284 19.9813 193.676 21.2507 192.46 22.168C191.244 23.0853 189.452 23.544 187.084 23.544C186.188 23.544 185.356 23.48 184.588 23.352C183.82 23.224 183.159 23.032 182.604 22.776C182.071 22.4987 181.644 22.1573 181.324 21.752C181.025 21.3467 180.876 20.8667 180.876 20.312C180.876 19.8 180.983 19.3733 181.196 19.032C181.409 18.6693 181.665 18.3707 181.964 18.136C182.583 18.4773 183.287 18.7867 184.076 19.064C184.887 19.32 185.815 19.448 186.86 19.448C187.521 19.448 188.023 19.352 188.364 19.16C188.727 18.968 188.908 18.712 188.908 18.392C188.908 18.0933 188.78 17.8587 188.524 17.688C188.268 17.5173 187.841 17.3787 187.244 17.272L186.284 17.08C184.428 16.7173 183.041 16.152 182.124 15.384C181.228 14.5947 180.78 13.4747 180.78 12.024C180.78 11.2347 180.951 10.52 181.292 9.88C181.633 9.24 182.113 8.70667 182.732 8.28C183.351 7.85333 184.087 7.52267 184.94 7.288C185.815 7.05333 186.775 6.936 187.82 6.936C188.609 6.936 189.345 7 190.028 7.128C190.732 7.23467 191.34 7.40533 191.852 7.64C192.364 7.87467 192.769 8.184 193.068 8.568C193.367 8.93067 193.516 9.368 193.516 9.88C193.516 10.3707 193.42 10.7973 193.228 11.16C193.057 11.5013 192.833 11.7893 192.556 12.024C192.385 11.9173 192.129 11.8107 191.788 11.704C191.447 11.576 191.073 11.4693 190.668 11.384C190.263 11.2773 189.847 11.192 189.42 11.128C189.015 11.064 188.641 11.032 188.3 11.032C187.596 11.032 187.052 11.1173 186.668 11.288C186.284 11.4373 186.092 11.6827 186.092 12.024C186.092 12.2587 186.199 12.4507 186.412 12.6C186.625 12.7493 187.031 12.888 187.628 13.016L188.62 13.24C190.668 13.7093 192.119 14.36 192.972 15.192C193.847 16.0027 194.284 17.0587 194.284 18.36ZM202.834 4.44C202.834 4.93067 202.823 5.64533 202.802 6.584C202.781 7.50133 202.738 8.504 202.674 9.592C202.61 10.6587 202.525 11.736 202.418 12.824C202.311 13.8907 202.183 14.8187 202.034 15.608C201.949 15.672 201.821 15.736 201.65 15.8C201.479 15.864 201.298 15.9173 201.106 15.96C200.914 16.0027 200.722 16.0347 200.53 16.056C200.338 16.0773 200.167 16.088 200.018 16.088C199.399 16.088 198.877 15.992 198.45 15.8C198.045 15.608 197.789 15.2347 197.682 14.68C197.575 14.1893 197.479 13.4427 197.394 12.44C197.33 11.4373 197.266 10.3493 197.202 9.176C197.138 8.00267 197.085 6.84 197.042 5.688C197.021 4.536 197.01 3.55467 197.01 2.744C197.437 2.50933 197.917 2.328 198.45 2.2C199.005 2.05067 199.549 1.976 200.082 1.976C200.957 1.976 201.629 2.17867 202.098 2.584C202.589 2.98933 202.834 3.608 202.834 4.44ZM196.946 20.568C196.946 19.6933 197.213 18.9787 197.746 18.424C198.301 17.848 199.058 17.56 200.018 17.56C200.978 17.56 201.725 17.848 202.258 18.424C202.813 18.9787 203.09 19.6933 203.09 20.568C203.09 21.4427 202.813 22.168 202.258 22.744C201.725 23.2987 200.978 23.576 200.018 23.576C199.058 23.576 198.301 23.2987 197.746 22.744C197.213 22.168 196.946 21.4427 196.946 20.568Z" fill="white"/>
</g>
<defs>
<filter id="filter0_dd" x="0.0800171" y="0.248047" width="207.01" height="36.416" filterUnits="userSpaceOnUse" color-interpolation-filters="sRGB">
<feFlood flood-opacity="0" result="BackgroundImageFix"/>
<feColorMatrix in="SourceAlpha" type="matrix" values="0 0 0 0 0 0 0 0 0 0 0 0 0 0 0 0 0 0 127 0"/>
<feOffset dy="4"/>
<feGaussianBlur stdDeviation="2"/>
<feColorMatrix type="matrix" values="0 0 0 0 0 0 0 0 0 0 0 0 0 0 0 0 0 0 0.25 0"/>
<feBlend mode="normal" in2="BackgroundImageFix" result="effect1_dropShadow"/>
<feColorMatrix in="SourceAlpha" type="matrix" values="0 0 0 0 0 0 0 0 0 0 0 0 0 0 0 0 0 0 127 0"/>
<feOffset dy="4"/>
<feGaussianBlur stdDeviation="2"/>
<feColorMatrix type="matrix" values="0 0 0 0 0 0 0 0 0 0 0 0 0 0 0 0 0 0 0.25 0"/>
<feBlend mode="normal" in2="effect1_dropShadow" result="effect2_dropShadow"/>
<feBlend mode="normal" in="SourceGraphic" in2="effect2_dropShadow" result="shape"/>
</filter>
</defs>
</svg>
