<svg width="270" height="105" viewBox="0 0 270 105" fill="none" xmlns="http://www.w3.org/2000/svg">
<g filter="url(#filter0_d)">
<rect x="30" y="15" width="210" height="45" rx="22.5" fill="url(#paint0_linear)"/>
</g>
<path d="M107.302 41V31.116H110.438C111.269 31.116 111.88 31.2047 112.272 31.382C112.757 31.5967 113.14 31.928 113.42 32.376C113.7 32.824 113.84 33.356 113.84 33.972C113.84 34.6067 113.677 35.176 113.35 35.68C113.033 36.1747 112.608 36.5107 112.076 36.688V36.716C112.151 36.8093 112.244 36.9587 112.356 37.164L114.456 41H112.888L110.802 37.066H108.688V41H107.302ZM108.688 35.862H110.676C111.217 35.862 111.647 35.6987 111.964 35.372C112.281 35.036 112.44 34.5927 112.44 34.042C112.44 33.2673 112.132 32.7493 111.516 32.488C111.264 32.376 110.867 32.32 110.326 32.32H108.688V35.862ZM116.093 41V31.116H121.847V32.32H117.479V35.414H121.021V36.618H117.479V39.796H122.085V41H116.093ZM123.267 39.866L124.051 38.816C124.369 39.124 124.751 39.3807 125.199 39.586C125.647 39.782 126.095 39.88 126.543 39.88C127.066 39.88 127.486 39.754 127.803 39.502C128.121 39.2407 128.279 38.8953 128.279 38.466C128.279 38.0647 128.116 37.724 127.789 37.444C127.463 37.1547 127.061 36.912 126.585 36.716C126.119 36.52 125.652 36.31 125.185 36.086C124.719 35.862 124.322 35.5493 123.995 35.148C123.669 34.7467 123.505 34.2613 123.505 33.692C123.505 32.8707 123.809 32.208 124.415 31.704C125.031 31.2 125.806 30.948 126.739 30.948C127.869 30.948 128.788 31.284 129.497 31.956L128.867 33.09C128.587 32.8287 128.247 32.6187 127.845 32.46C127.453 32.3013 127.066 32.222 126.683 32.222C126.17 32.222 125.745 32.3527 125.409 32.614C125.073 32.866 124.905 33.202 124.905 33.622C124.905 33.9487 125.022 34.238 125.255 34.49C125.489 34.742 125.783 34.9427 126.137 35.092C126.492 35.232 126.875 35.4 127.285 35.596C127.696 35.7827 128.079 35.9787 128.433 36.184C128.788 36.3893 129.082 36.6787 129.315 37.052C129.549 37.4253 129.665 37.8593 129.665 38.354C129.665 39.1567 129.385 39.8287 128.825 40.37C128.265 40.902 127.495 41.168 126.515 41.168C125.237 41.168 124.154 40.734 123.267 39.866ZM133.934 41V32.32H130.532V31.116H138.708V32.32H135.306V41H133.934ZM138.325 41L141.867 31.116H143.337L146.879 41H145.451L144.457 38.158H140.733L139.739 41H138.325ZM141.097 37.01H144.093L143.001 33.888L142.609 32.474H142.581C142.441 33.0713 142.315 33.5427 142.203 33.888L141.097 37.01ZM148.386 41V31.116H151.522C152.353 31.116 152.964 31.2047 153.356 31.382C153.841 31.5967 154.224 31.928 154.504 32.376C154.784 32.824 154.924 33.356 154.924 33.972C154.924 34.6067 154.761 35.176 154.434 35.68C154.117 36.1747 153.692 36.5107 153.16 36.688V36.716C153.235 36.8093 153.328 36.9587 153.44 37.164L155.54 41H153.972L151.886 37.066H149.772V41H148.386ZM149.772 35.862H151.76C152.301 35.862 152.731 35.6987 153.048 35.372C153.365 35.036 153.524 34.5927 153.524 34.042C153.524 33.2673 153.216 32.7493 152.6 32.488C152.348 32.376 151.951 32.32 151.41 32.32H149.772V35.862ZM159.378 41V32.32H155.976V31.116H164.152V32.32H160.75V41H159.378Z" fill="white"/>
<path d="M107.302 41V31.116H110.438C111.269 31.116 111.88 31.2047 112.272 31.382C112.757 31.5967 113.14 31.928 113.42 32.376C113.7 32.824 113.84 33.356 113.84 33.972C113.84 34.6067 113.677 35.176 113.35 35.68C113.033 36.1747 112.608 36.5107 112.076 36.688V36.716C112.151 36.8093 112.244 36.9587 112.356 37.164L114.456 41H112.888L110.802 37.066H108.688V41H107.302ZM108.688 35.862H110.676C111.217 35.862 111.647 35.6987 111.964 35.372C112.281 35.036 112.44 34.5927 112.44 34.042C112.44 33.2673 112.132 32.7493 111.516 32.488C111.264 32.376 110.867 32.32 110.326 32.32H108.688V35.862ZM116.093 41V31.116H121.847V32.32H117.479V35.414H121.021V36.618H117.479V39.796H122.085V41H116.093ZM123.267 39.866L124.051 38.816C124.369 39.124 124.751 39.3807 125.199 39.586C125.647 39.782 126.095 39.88 126.543 39.88C127.066 39.88 127.486 39.754 127.803 39.502C128.121 39.2407 128.279 38.8953 128.279 38.466C128.279 38.0647 128.116 37.724 127.789 37.444C127.463 37.1547 127.061 36.912 126.585 36.716C126.119 36.52 125.652 36.31 125.185 36.086C124.719 35.862 124.322 35.5493 123.995 35.148C123.669 34.7467 123.505 34.2613 123.505 33.692C123.505 32.8707 123.809 32.208 124.415 31.704C125.031 31.2 125.806 30.948 126.739 30.948C127.869 30.948 128.788 31.284 129.497 31.956L128.867 33.09C128.587 32.8287 128.247 32.6187 127.845 32.46C127.453 32.3013 127.066 32.222 126.683 32.222C126.17 32.222 125.745 32.3527 125.409 32.614C125.073 32.866 124.905 33.202 124.905 33.622C124.905 33.9487 125.022 34.238 125.255 34.49C125.489 34.742 125.783 34.9427 126.137 35.092C126.492 35.232 126.875 35.4 127.285 35.596C127.696 35.7827 128.079 35.9787 128.433 36.184C128.788 36.3893 129.082 36.6787 129.315 37.052C129.549 37.4253 129.665 37.8593 129.665 38.354C129.665 39.1567 129.385 39.8287 128.825 40.37C128.265 40.902 127.495 41.168 126.515 41.168C125.237 41.168 124.154 40.734 123.267 39.866ZM133.934 41V32.32H130.532V31.116H138.708V32.32H135.306V41H133.934ZM138.325 41L141.867 31.116H143.337L146.879 41H145.451L144.457 38.158H140.733L139.739 41H138.325ZM141.097 37.01H144.093L143.001 33.888L142.609 32.474H142.581C142.441 33.0713 142.315 33.5427 142.203 33.888L141.097 37.01ZM148.386 41V31.116H151.522C152.353 31.116 152.964 31.2047 153.356 31.382C153.841 31.5967 154.224 31.928 154.504 32.376C154.784 32.824 154.924 33.356 154.924 33.972C154.924 34.6067 154.761 35.176 154.434 35.68C154.117 36.1747 153.692 36.5107 153.16 36.688V36.716C153.235 36.8093 153.328 36.9587 153.44 37.164L155.54 41H153.972L151.886 37.066H149.772V41H148.386ZM149.772 35.862H151.76C152.301 35.862 152.731 35.6987 153.048 35.372C153.365 35.036 153.524 34.5927 153.524 34.042C153.524 33.2673 153.216 32.7493 152.6 32.488C152.348 32.376 151.951 32.32 151.41 32.32H149.772V35.862ZM159.378 41V32.32H155.976V31.116H164.152V32.32H160.75V41H159.378Z" fill="url(#paint1_linear)"/>
<defs>
<filter id="filter0_d" x="0" y="0" width="270" height="105" filterUnits="userSpaceOnUse" color-interpolation-filters="sRGB">
<feFlood flood-opacity="0" result="BackgroundImageFix"/>
<feColorMatrix in="SourceAlpha" type="matrix" values="0 0 0 0 0 0 0 0 0 0 0 0 0 0 0 0 0 0 127 0"/>
<feOffset dy="15"/>
<feGaussianBlur stdDeviation="15"/>
<feColorMatrix type="matrix" values="0 0 0 0 0 0 0 0 0 0 0 0 0 0 0 0 0 0 0.2 0"/>
<feBlend mode="normal" in2="BackgroundImageFix" result="effect1_dropShadow"/>
<feBlend mode="normal" in="SourceGraphic" in2="effect1_dropShadow" result="shape"/>
</filter>
<linearGradient id="paint0_linear" x1="52" y1="15" x2="222.5" y2="56" gradientUnits="userSpaceOnUse">
<stop stop-color="#B09CCA"/>
<stop offset="1" stop-color="#5C6A8B"/>
</linearGradient>
<linearGradient id="paint1_linear" x1="135.5" y1="28" x2="135.5" y2="47" gradientUnits="userSpaceOnUse">
<stop stop-color="white"/>
<stop offset="1" stop-color="white" stop-opacity="0"/>
</linearGradient>
</defs>
</svg>
