<svg width="40" height="40" viewBox="0 0 40 40" fill="none" xmlns="http://www.w3.org/2000/svg">
<circle cx="20" cy="20" r="20" fill="white" fill-opacity="0.75"/>
<path d="M6.432 20.448V18.368H9.712V14.8H11.888V18.368H15.168V20.448H11.888V24H9.712V20.448H6.432ZM16.4738 24V21.6H18.9058V16.832L18.9218 15.952H18.8898C18.7938 16.1653 18.6444 16.368 18.4418 16.56L17.7538 17.184L16.1378 15.456L19.2258 12.56H21.6418V21.6H24.0898V24H16.4738ZM25.0139 22.688L26.3579 20.528C27.0832 21.2107 27.8565 21.552 28.6779 21.552C29.0939 21.552 29.4619 21.4293 29.7819 21.184C30.1125 20.928 30.2779 20.5813 30.2779 20.144C30.2779 19.7067 30.1072 19.36 29.7659 19.104C29.4245 18.848 28.9872 18.72 28.4539 18.72C27.9419 18.72 27.4299 18.848 26.9179 19.104L25.4299 18.544L25.8939 12.56H32.2939V14.96H28.3259L28.2619 16.016L28.1979 16.464H28.2299C28.4325 16.3893 28.7099 16.352 29.0619 16.352C30.3632 16.352 31.3712 16.7093 32.0859 17.424C32.8005 18.128 33.1579 19.024 33.1579 20.112C33.1579 21.296 32.7632 22.272 31.9739 23.04C31.1845 23.808 30.1659 24.192 28.9179 24.192C27.3605 24.192 26.0592 23.6907 25.0139 22.688Z" fill="#FED607"/>
</svg>
