<svg width="12" height="21" viewBox="0 0 12 21" fill="none" xmlns="http://www.w3.org/2000/svg">
<path d="M6.6033 20.9283C6.48048 20.9207 6.3581 20.906 6.23617 20.8817L5.87238 20.6864C4.07485 19.8746 4.41523 18.6954 4.84834 17.1881C4.94976 16.8388 5.05342 16.4741 5.12475 16.105C5.4794 13.7357 5.60735 11.2045 4.55522 9.79554C3.71842 8.67453 1.71402 8.69593 1.59766 7.19196C1.54082 6.45547 1.73208 5.85696 2.1672 5.41404C3.18589 4.37819 5.33785 4.34453 6.52974 4.41742C7.52012 4.47649 7.60728 4.58839 8.05265 4.70609C12.6961 5.91559 9.96276 8.08627 9.5662 13.6728C9.38921 16.1872 11.339 21.2158 6.6033 20.9283Z" fill="white"/>
<path d="M1.43497 0C1.28517 0 1.13828 0.0251887 1.00141 0.0742286C0.557824 0.230265 0.232155 0.611661 0.0830286 1.14374C-0.052054 1.63125 -0.0215155 2.19654 0.168848 2.7362C0.511013 3.70407 1.27046 4.35407 2.05689 4.35407C2.20601 4.35407 2.35224 4.32978 2.49133 4.27962C2.92066 4.12827 3.24187 3.76091 3.39478 3.248C3.54591 2.75158 3.52006 2.17403 3.32323 1.61854C2.98106 0.65067 2.22161 0 1.43497 0Z" fill="white"/>
<path d="M4.57369 0.734978C4.0387 0.859361 3.74647 1.50223 3.90808 2.19949C4.04316 2.79867 4.50347 3.24872 4.9767 3.24872C5.03511 3.24872 5.09462 3.24159 5.14299 3.23022C5.35476 3.18185 5.54111 3.04476 5.66772 2.84347C5.84872 2.55436 5.90111 2.1607 5.81083 1.76392C5.6539 1.0845 5.13787 0.626645 4.57369 0.734978Z" fill="white"/>
<path d="M7.0474 1.03589C6.57595 1.03745 6.19656 1.48572 6.16089 2.07866C6.14284 2.36197 6.20859 2.63615 6.34613 2.84947C6.49013 3.07439 6.70457 3.21215 6.95601 3.22619H6.97674C7.42634 3.22619 7.80707 2.76655 7.84296 2.17852C7.85879 1.89297 7.79191 1.61946 7.65594 1.41238C7.51484 1.1888 7.3004 1.05149 7.0474 1.03589Z" fill="white"/>
<path d="M9.69437 2.35141C9.59674 2.1042 9.41105 1.92721 9.18391 1.86837C8.71625 1.74822 8.24257 2.13162 8.09166 2.71207C8.00539 3.04176 8.04061 3.37679 8.18796 3.62734C8.2925 3.807 8.45121 3.93361 8.63489 3.98198C8.68816 3.99603 8.74478 4.00227 8.80051 4.00227C9.20174 4.00227 9.60075 3.63046 9.7287 3.1385C9.79936 2.86365 9.78732 2.58479 9.69437 2.35141Z" fill="white"/>
<path d="M11.1315 3.54937C11.0515 3.34719 10.8988 3.20186 10.7202 3.15282L10.5684 3.13342C10.2359 3.13342 9.91599 3.42945 9.811 3.83559C9.75148 4.05916 9.76129 4.2872 9.83775 4.476C9.91844 4.67929 10.0711 4.82463 10.2709 4.87835L10.3981 4.89329C10.7345 4.89329 11.0548 4.59726 11.1594 4.19023C11.2178 3.96443 11.2077 3.74241 11.1315 3.54937Z" fill="white"/>
</svg>
